<svg width="50" height="50" viewBox="0 0 50 50" fill="none" xmlns="http://www.w3.org/2000/svg">
<path d="M42.12 42.4198H40C40 42.3398 40 42.2698 40 42.1898C40 40.1898 40 38.1898 40 36.1898V35.9998H10V42.3998C9.28739 42.4443 8.57267 42.4443 7.86003 42.3998C7.86003 42.0998 7.86003 41.7998 7.86003 41.4998C7.86003 41.1998 7.86003 40.8798 7.86003 40.5698V35.9998H7.43003C7.43003 35.9298 7.43003 35.8598 7.43003 35.7898C7.43003 34.0198 7.43003 32.2598 7.43003 30.4898C7.43003 30.3298 7.43003 30.2398 7.24003 30.1798C7.11893 30.129 7.00735 30.058 6.91003 29.9698C6.81652 29.8914 6.74125 29.7935 6.68944 29.6829C6.63763 29.5724 6.61053 29.4519 6.61003 29.3298C6.61003 29.2598 6.61003 29.1998 6.61003 29.1298C6.61003 22.3765 6.61003 15.6198 6.61003 8.85983C6.59329 8.62805 6.65391 8.39727 6.78239 8.20364C6.91088 8.01001 7.09996 7.86447 7.32003 7.78983C7.53032 7.67132 7.76097 7.5933 8.00003 7.55983H37.74C38.0928 7.55902 38.439 7.65593 38.74 7.83983L38.83 7.88983L38.92 7.80983C39.106 7.6408 39.3487 7.54798 39.6 7.54983H42.43C42.6952 7.54983 42.9496 7.65519 43.1371 7.84272C43.3247 8.03026 43.43 8.28462 43.43 8.54983C43.43 8.60983 43.43 8.65983 43.43 8.71983C43.43 15.5265 43.43 22.3332 43.43 29.1398C43.4426 29.2595 43.4426 29.3802 43.43 29.4998C43.3928 29.6837 43.3047 29.8535 43.1756 29.9896C43.0465 30.1258 42.8817 30.2229 42.7 30.2698H42.51C42.51 30.6398 42.51 31.0098 42.51 31.3798C42.51 31.7498 42.51 32.1398 42.51 32.5098V35.8798H42.11L42.12 42.4198ZM22.88 29.6398H37.81C37.9838 29.6307 38.1538 29.5864 38.31 29.5098C38.3827 29.4836 38.4447 29.4341 38.4863 29.369C38.5279 29.3039 38.5468 29.2268 38.54 29.1498C38.54 22.3498 38.54 15.5498 38.54 8.74983C38.5485 8.6674 38.5282 8.58457 38.4826 8.51535C38.4371 8.44612 38.3691 8.39472 38.29 8.36983C38.09 8.28851 37.8759 8.24772 37.66 8.24983H7.92003C7.73717 8.26498 7.55977 8.31956 7.40003 8.40983C7.34945 8.43289 7.30759 8.47155 7.28059 8.52014C7.25359 8.56874 7.24288 8.6247 7.25003 8.67983C7.25243 8.7198 7.25243 8.75987 7.25003 8.79983C7.25003 15.5532 7.25003 22.3098 7.25003 29.0698C7.25248 29.1131 7.25248 29.1565 7.25003 29.1998C7.24076 29.2475 7.2475 29.2968 7.2692 29.3402C7.29091 29.3837 7.32636 29.4187 7.37003 29.4398C7.48531 29.5078 7.60999 29.5583 7.74003 29.5898C7.92629 29.6073 8.11377 29.6073 8.30003 29.5898L22.88 29.6398ZM8.09003 30.3298C8.09003 30.5598 8.09003 35.1498 8.09003 35.2698H41.82C41.82 35.1198 41.82 30.4698 41.82 30.3298H8.09003ZM42.8 18.9298C42.8 15.5365 42.8 12.1432 42.8 8.74983C42.8083 8.69011 42.8083 8.62955 42.8 8.56983C42.7775 8.48716 42.7403 8.40923 42.69 8.33983C42.6529 8.3016 42.6073 8.27264 42.5569 8.25527C42.5066 8.2379 42.4528 8.23261 42.4 8.23983H39.6C39.519 8.2463 39.4427 8.28077 39.3843 8.33734C39.3259 8.39391 39.2891 8.46904 39.28 8.54983C39.2769 8.60979 39.2769 8.66987 39.28 8.72983C39.28 15.5298 39.28 22.3298 39.28 29.1298C39.28 29.1298 39.28 29.2198 39.28 29.2598C39.2772 29.3083 39.2846 29.3568 39.3015 29.4023C39.3185 29.4478 39.3447 29.4893 39.3786 29.5241C39.4125 29.5589 39.4532 29.5862 39.4982 29.6044C39.5432 29.6227 39.5915 29.6313 39.64 29.6298H42.32C42.64 29.6298 42.8 29.5098 42.8 29.1398C42.7934 25.7132 42.7934 22.3098 42.8 18.9298ZM8.51003 41.7398H9.28003V35.9998H8.51003V41.7398ZM40.67 35.9998C40.67 36.1698 40.67 41.6598 40.67 41.7798H41.41C41.41 41.5998 41.41 36.1298 41.41 35.9998H40.67Z" fill="#CC0000"/>
<path d="M37.6 9.43994V17.3699H8.35999V9.43994H37.6ZM8.99999 16.6899H36.93C36.93 16.5299 36.93 10.2599 36.93 10.1199H9.05999C8.99999 10.2499 8.99999 16.4599 8.99999 16.6899Z" fill="#CC0000"/>
<path d="M8.35999 20.2397H37.61V28.1597C37.48 28.1597 8.54999 28.1597 8.36999 28.1597L8.35999 20.2397ZM36.94 20.9497H8.99999C8.99999 21.1797 8.99999 27.3697 8.99999 27.4897H36.94V20.9497Z" fill="#CC0000"/>
<path d="M40.88 11.6799C40.7155 11.6813 40.5524 11.6499 40.4001 11.5875C40.2479 11.5252 40.1095 11.4331 39.9932 11.3168C39.8769 11.2005 39.7848 11.0621 39.7225 10.9099C39.6601 10.7576 39.6287 10.5945 39.63 10.4299C39.63 10.2671 39.6621 10.1059 39.7244 9.95541C39.7867 9.80497 39.8781 9.66827 39.9932 9.55313C40.1084 9.43798 40.2451 9.34665 40.3955 9.28433C40.546 9.22202 40.7072 9.18994 40.87 9.18994C41.0329 9.18994 41.1941 9.22202 41.3446 9.28433C41.495 9.34665 41.6317 9.43798 41.7469 9.55313C41.862 9.66827 41.9533 9.80497 42.0157 9.95541C42.078 10.1059 42.11 10.2671 42.11 10.4299C42.1114 10.5928 42.0806 10.7543 42.0195 10.9052C41.9584 11.0562 41.8682 11.1936 41.7539 11.3097C41.6397 11.4258 41.5038 11.5182 41.3538 11.5817C41.2039 11.6453 41.0429 11.6786 40.88 11.6799ZM40.88 10.9999C40.9531 11.0013 41.0257 10.988 41.0936 10.961C41.1615 10.9339 41.2233 10.8936 41.2754 10.8424C41.3276 10.7912 41.369 10.7301 41.3972 10.6628C41.4255 10.5954 41.4401 10.523 41.44 10.4499C41.4414 10.3747 41.4276 10.3 41.3994 10.2302C41.3713 10.1605 41.3293 10.0971 41.2761 10.0439C41.2229 9.99067 41.1595 9.94873 41.0898 9.92057C41.02 9.8924 40.9453 9.87859 40.87 9.87994C40.724 9.88242 40.5845 9.94085 40.4803 10.0432C40.3761 10.1455 40.3151 10.284 40.31 10.4299C40.3087 10.5043 40.3222 10.5782 40.3498 10.6473C40.3773 10.7164 40.4184 10.7793 40.4705 10.8324C40.5226 10.8855 40.5848 10.9276 40.6534 10.9564C40.722 10.9851 40.7957 11 40.87 10.9999H40.88Z" fill="#CC0000"/>
<path d="M40.8701 17.0001C41.0525 16.9981 41.2313 17.0503 41.3839 17.1502C41.5365 17.2501 41.656 17.3931 41.7271 17.561C41.7983 17.7289 41.818 17.9142 41.7836 18.0933C41.7492 18.2724 41.6624 18.4373 41.5342 18.567C41.4059 18.6966 41.242 18.7853 41.0633 18.8216C40.8845 18.8579 40.6991 18.8403 40.5304 18.7709C40.3617 18.7016 40.2174 18.5837 40.1159 18.4322C40.0143 18.2807 39.9601 18.1024 39.9601 17.9201C39.9601 17.6778 40.0556 17.4453 40.226 17.273C40.3964 17.1008 40.6278 17.0027 40.8701 17.0001Z" fill="#CC0000"/>
<path d="M40.8801 22.3197C40.6374 22.3197 40.4047 22.2233 40.2331 22.0517C40.0615 21.8802 39.9651 21.6474 39.9651 21.4047C39.9651 21.1621 40.0615 20.9293 40.2331 20.7577C40.4047 20.5861 40.6374 20.4897 40.8801 20.4897C41.1228 20.4897 41.3555 20.5861 41.5271 20.7577C41.6987 20.9293 41.7951 21.1621 41.7951 21.4047C41.7951 21.6474 41.6987 21.8802 41.5271 22.0517C41.3555 22.2233 41.1228 22.3197 40.8801 22.3197Z" fill="#CC0000"/>
<path d="M40.8701 13.5601C41.1141 13.5601 41.3481 13.657 41.5206 13.8295C41.6932 14.0021 41.7901 14.2361 41.7901 14.4801C41.8035 14.6083 41.7898 14.7378 41.75 14.8604C41.7101 14.983 41.6449 15.0958 41.5586 15.1916C41.4724 15.2874 41.3669 15.3639 41.2492 15.4163C41.1314 15.4688 41.004 15.4958 40.8751 15.4958C40.7462 15.4958 40.6187 15.4688 40.501 15.4163C40.3832 15.3639 40.2778 15.2874 40.1915 15.1916C40.1052 15.0958 40.0401 14.983 40.0002 14.8604C39.9603 14.7378 39.9467 14.6083 39.9601 14.4801C39.9588 14.3597 39.9813 14.2403 40.0265 14.1287C40.0716 14.0172 40.1384 13.9157 40.2231 13.8301C40.3077 13.7446 40.4084 13.6766 40.5195 13.6303C40.6306 13.5839 40.7497 13.5601 40.8701 13.5601Z" fill="#CC0000"/>
<path d="M23.21 10.4897H35.11C35.2297 10.478 35.3503 10.478 35.47 10.4897C35.756 10.5379 36.0148 10.688 36.1986 10.9123C36.3825 11.1366 36.4789 11.4198 36.47 11.7097C36.47 12.5197 36.47 13.3197 36.47 14.1297C36.47 14.3997 36.47 14.6697 36.47 14.9497C36.474 15.1111 36.4457 15.2717 36.3867 15.422C36.3276 15.5722 36.2391 15.7092 36.1264 15.8247C36.0136 15.9403 35.8789 16.0321 35.7301 16.0948C35.5813 16.1575 35.4215 16.1897 35.26 16.1897H11.34C11.1574 16.1964 10.9749 16.1728 10.8 16.1197C10.5749 16.0419 10.3783 15.8983 10.2357 15.7075C10.093 15.5168 10.011 15.2876 10 15.0497C10 14.7197 10 14.3897 10 14.0497C10 13.263 10 12.473 10 11.6797C10.0038 11.4751 10.0612 11.2751 10.1665 11.0996C10.2718 10.9241 10.4213 10.7793 10.6 10.6797C10.7631 10.5804 10.9492 10.5253 11.14 10.5197H23.24L23.21 10.4897ZM23.21 11.1697H11.12C11.0136 11.1794 10.9129 11.2222 10.8322 11.2922C10.7514 11.3622 10.6947 11.4557 10.67 11.5597C10.6626 11.6362 10.6626 11.7132 10.67 11.7897C10.67 12.7897 10.67 13.8497 10.67 14.8697C10.6586 14.9591 10.6678 15.0499 10.6969 15.1352C10.7261 15.2204 10.7743 15.2979 10.8381 15.3616C10.9018 15.4254 10.9792 15.4736 11.0645 15.5028C11.1498 15.5319 11.2406 15.5411 11.33 15.5297H35.33C35.4525 15.5241 35.5694 15.4762 35.6605 15.3942C35.7517 15.3121 35.8116 15.201 35.83 15.0797C35.8342 15.0198 35.8342 14.9596 35.83 14.8997C35.83 13.873 35.83 12.8464 35.83 11.8197C35.8333 11.7631 35.8333 11.7063 35.83 11.6497C35.8177 11.5223 35.7589 11.404 35.6648 11.3172C35.5707 11.2305 35.4479 11.1816 35.32 11.1797H23.32L23.21 11.1697Z" fill="#CC0000"/>
<path d="M23.22 26.9996H11.32C11.1772 27.0175 11.0328 27.0175 10.89 26.9996C10.6301 26.938 10.3991 26.7893 10.2354 26.5783C10.0717 26.3673 9.98508 26.1066 9.98999 25.8396C9.98999 25.3596 9.98999 24.8396 9.98999 24.3896C9.98999 23.9396 9.98999 23.1696 9.98999 22.5596C9.98286 22.2691 10.0797 21.9855 10.263 21.76C10.4463 21.5346 10.7041 21.3819 10.99 21.3296H35.26C35.4197 21.3296 35.5779 21.3612 35.7254 21.4226C35.8728 21.4841 36.0067 21.5741 36.1191 21.6875C36.2316 21.8009 36.3206 21.9355 36.3808 22.0835C36.441 22.2314 36.4713 22.3899 36.47 22.5496C36.47 23.0096 36.47 23.4696 36.47 23.9296C36.47 24.5596 36.47 25.1896 36.47 25.8096C36.4764 26.0026 36.436 26.1943 36.3525 26.3684C36.2689 26.5425 36.1446 26.6938 35.99 26.8096C35.8059 26.9526 35.5827 27.0363 35.35 27.0496H23.22V26.9996ZM23.22 26.3196H35.31C35.4187 26.3135 35.5224 26.2721 35.6054 26.2017C35.6884 26.1314 35.7462 26.0358 35.77 25.9296C35.7782 25.8632 35.7782 25.796 35.77 25.7296C35.77 24.6763 35.77 23.6196 35.77 22.5596C35.77 22.5596 35.77 22.4896 35.77 22.4596C35.7626 22.3277 35.7062 22.2033 35.6119 22.1108C35.5175 22.0183 35.392 21.9644 35.26 21.9596H11.12C10.9971 21.9741 10.8837 22.0329 10.8009 22.1249C10.7181 22.2169 10.6716 22.3358 10.67 22.4596C10.67 22.4596 10.67 22.5496 10.67 22.5896C10.67 23.6096 10.67 24.6329 10.67 25.6596C10.67 25.7196 10.67 25.7796 10.67 25.8396C10.6771 25.9619 10.7289 26.0774 10.8156 26.164C10.9022 26.2506 11.0177 26.3024 11.14 26.3096H23.22V26.3196Z" fill="#CC0000"/>
</svg>
