<svg width="50" height="50" viewBox="0 0 50 50" fill="none" xmlns="http://www.w3.org/2000/svg">
<path d="M11.8301 31.7602V31.4802C11.8301 26.8735 11.8301 22.2668 11.8301 17.6602C11.8128 17.2508 11.9523 16.8503 12.2201 16.5402C12.3586 16.3717 12.5326 16.236 12.7297 16.1426C12.9268 16.0493 13.142 16.0006 13.3601 16.0002H15.4801V13.8802H15.2901C14.6601 13.8802 14.0301 13.8802 13.4101 13.8802C13.0569 13.8829 12.7132 13.7657 12.4353 13.5477C12.1573 13.3297 11.9616 13.0238 11.8801 12.6802C11.8642 12.5306 11.8642 12.3797 11.8801 12.2302C11.8801 11.3202 11.8801 10.4202 11.8801 9.51015C11.8675 9.22838 11.9315 8.94845 12.0653 8.70016C12.1991 8.45188 12.3978 8.24452 12.6401 8.10015C12.8583 7.96173 13.1117 7.88884 13.3701 7.89015H21.0001C21.3704 7.8963 21.7262 8.03481 22.0032 8.28061C22.2801 8.52641 22.46 8.86325 22.5101 9.23015C22.5173 9.34671 22.5173 9.4636 22.5101 9.58015C22.5101 10.4802 22.5101 11.3802 22.5101 12.2802C22.5229 12.6864 22.3757 13.0814 22.1001 13.3802C21.9574 13.5416 21.7819 13.6706 21.5853 13.7585C21.3887 13.8465 21.1755 13.8914 20.9601 13.8902H18.9501C18.9501 14.0302 18.9501 15.7802 18.9501 16.0102H19.0701H39.0001C39.2074 16.0061 39.4134 16.0439 39.6057 16.1214C39.798 16.1988 39.9727 16.3143 40.1193 16.4609C40.2659 16.6075 40.3814 16.7822 40.4589 16.9745C40.5364 17.1669 40.5742 17.3729 40.5701 17.5802C40.5701 22.2468 40.5701 26.8902 40.5701 31.5102C40.5701 31.5902 40.5701 31.6602 40.5701 31.7502H42.1001C42.4269 31.7507 42.7449 31.8558 43.0077 32.0501C43.2704 32.2445 43.464 32.5178 43.5601 32.8302C43.6114 32.9988 43.6383 33.1739 43.6401 33.3502C43.6401 35.7368 43.6401 38.1268 43.6401 40.5202C43.6498 40.8922 43.5246 41.2551 43.2874 41.5419C43.0503 41.8287 42.7173 42.0199 42.3501 42.0802H10.3201C10.0387 42.0873 9.76107 42.0151 9.51881 41.8718C9.27655 41.7286 9.07947 41.5201 8.9501 41.2702C8.82688 41.0505 8.76472 40.8019 8.7701 40.5502C8.7701 38.1235 8.7701 35.6968 8.7701 33.2702C8.77882 32.9222 8.90516 32.5874 9.12853 32.3205C9.3519 32.0535 9.65912 31.8701 10.0001 31.8002C10.1199 31.7901 10.2403 31.7901 10.3601 31.8002H11.8101L11.8301 31.7602ZM12.9601 31.7602H39.4401V31.5702C39.4401 26.9568 39.4401 22.3468 39.4401 17.7402C39.452 17.6626 39.4455 17.5833 39.421 17.5087C39.3966 17.4341 39.3549 17.3663 39.2994 17.3108C39.2439 17.2553 39.1761 17.2137 39.1016 17.1892C39.027 17.1648 38.9477 17.1583 38.8701 17.1702H13.3401C13.254 17.1787 13.1728 17.2142 13.1082 17.2717C13.0435 17.3292 12.9987 17.4057 12.9801 17.4902C12.972 17.5633 12.972 17.637 12.9801 17.7102C12.9801 22.3368 12.9801 26.9635 12.9801 31.5902C13.0001 31.6202 13.0001 31.6802 13.0001 31.7502L12.9601 31.7602ZM26.1801 41.0002H42.1101C42.1691 41.0016 42.2278 40.9909 42.2825 40.9686C42.3372 40.9464 42.3867 40.9131 42.428 40.8709C42.4693 40.8287 42.5014 40.7784 42.5224 40.7232C42.5434 40.668 42.5529 40.6091 42.5501 40.5502C42.5501 40.5502 42.5501 40.4802 42.5501 40.4502C42.5501 38.1168 42.5501 35.7835 42.5501 33.4502C42.553 33.4002 42.553 33.3501 42.5501 33.3002C42.5465 33.224 42.5223 33.1503 42.48 33.0869C42.4377 33.0235 42.379 32.9727 42.3101 32.9402C42.2243 32.9058 42.1325 32.8888 42.0401 32.8902H10.3601C10.2946 32.8837 10.2285 32.892 10.1666 32.9145C10.1048 32.937 10.0487 32.9731 10.0027 33.0201C9.95662 33.0672 9.9217 33.1239 9.90048 33.1862C9.87927 33.2485 9.8723 33.3148 9.8801 33.3802C9.8801 33.3802 9.8801 33.4502 9.8801 33.4802C9.8801 35.7935 9.8801 38.1102 9.8801 40.4302C9.8801 40.4302 9.8801 40.5302 9.8801 40.5802C9.88008 40.6375 9.89152 40.6942 9.91376 40.7471C9.93599 40.7999 9.96856 40.8477 10.0096 40.8878C10.0505 40.9279 10.0991 40.9593 10.1525 40.9803C10.2058 41.0013 10.2628 41.0115 10.3201 41.0102H26.1801V41.0002ZM17.1801 12.7702H21.0001C21.0978 12.7646 21.1906 12.7259 21.2634 12.6605C21.3361 12.595 21.3843 12.5067 21.4001 12.4102C21.4058 12.3536 21.4058 12.2967 21.4001 12.2402C21.4001 11.3402 21.4001 10.4402 21.4001 9.54015C21.4077 9.4737 21.4077 9.4066 21.4001 9.34015C21.382 9.24647 21.3325 9.16176 21.2598 9.09996C21.1871 9.03816 21.0955 9.00296 21.0001 9.00015H13.3801C13.2801 9.00151 13.1838 9.03852 13.1087 9.10451C13.0335 9.17051 12.9844 9.26116 12.9701 9.36015C12.9648 9.42672 12.9648 9.49359 12.9701 9.56015C12.9701 10.4335 12.9701 11.3068 12.9701 12.1802C12.9653 12.2467 12.9653 12.3136 12.9701 12.3802C12.9834 12.477 13.0293 12.5664 13.1001 12.6336C13.171 12.7009 13.2627 12.742 13.3601 12.7502H17.2001L17.1801 12.7702ZM17.7601 13.9002H16.6201V16.0002C17.0093 16.0348 17.4009 16.0348 17.7901 16.0002L17.7601 13.9002Z" fill="white"/>
<path d="M28.78 27.2402V27.0002C28.78 25.3936 28.78 23.7869 28.78 22.1802C28.78 22.0902 28.78 22.0002 28.78 21.9102C28.7815 21.8032 28.8142 21.6989 28.8741 21.6101C28.934 21.5213 29.0185 21.452 29.1172 21.4106C29.216 21.3692 29.3247 21.3575 29.43 21.377C29.5353 21.3965 29.6326 21.4462 29.71 21.5202C29.7737 21.5835 29.8338 21.6503 29.89 21.7202L30.19 21.4202C30.2472 21.359 30.3171 21.3111 30.3949 21.28C30.4727 21.2489 30.5564 21.2353 30.64 21.2402C30.785 21.2496 30.9209 21.314 31.02 21.4202L31.3 21.7102L31.59 21.4302C31.6442 21.3734 31.7093 21.3281 31.7815 21.2971C31.8537 21.2662 31.9314 21.2502 32.01 21.2502C32.0887 21.249 32.1668 21.2644 32.2392 21.2955C32.3116 21.3265 32.3766 21.3724 32.43 21.4302L32.71 21.7202C32.81 21.6202 32.89 21.5502 32.97 21.4602C33.0244 21.3934 33.093 21.3394 33.1708 21.3024C33.2487 21.2654 33.3338 21.2462 33.42 21.2462C33.5062 21.2462 33.5913 21.2654 33.6692 21.3024C33.747 21.3394 33.8156 21.3934 33.87 21.4602L34.11 21.7202C34.21 21.6202 34.29 21.5502 34.37 21.4602C34.4244 21.3934 34.493 21.3394 34.5708 21.3024C34.6487 21.2654 34.7338 21.2462 34.82 21.2462C34.9062 21.2462 34.9913 21.2654 35.0692 21.3024C35.147 21.3394 35.2156 21.3934 35.27 21.4602L35.51 21.7202L35.68 21.5602C35.7548 21.4627 35.8597 21.3925 35.9784 21.3605C36.097 21.3285 36.223 21.3364 36.3367 21.383C36.4504 21.4296 36.5457 21.5124 36.6077 21.6185C36.6698 21.7247 36.6952 21.8482 36.68 21.9702C36.68 23.6502 36.68 25.3169 36.68 26.9702V27.2002H37.89C37.9661 27.1985 38.0418 27.2129 38.112 27.2425C38.1822 27.2721 38.2454 27.3162 38.2973 27.3719C38.3493 27.4276 38.3888 27.4937 38.4134 27.5658C38.438 27.6379 38.4471 27.7144 38.44 27.7902C38.4326 27.9275 38.3741 28.0569 38.276 28.1532C38.1779 28.2494 38.0473 28.3054 37.91 28.3102H27.65C27.5573 28.3254 27.4627 28.3254 27.37 28.3102C27.2459 28.2691 27.1405 28.1852 27.0727 28.0734C27.0049 27.9616 26.9791 27.8293 27 27.7002C27.0187 27.5773 27.0801 27.4649 27.1733 27.3826C27.2665 27.3004 27.3857 27.2535 27.51 27.2502H28.76L28.78 27.2402ZM32 22.5802L31.74 22.8502C31.6876 22.9168 31.6208 22.9706 31.5445 23.0076C31.4683 23.0446 31.3847 23.0638 31.3 23.0638C31.2153 23.0638 31.1317 23.0446 31.0554 23.0076C30.9792 22.9706 30.9124 22.9168 30.86 22.8502L30.59 22.5902C30.37 22.7902 30.21 23.0502 29.89 23.0702V27.2302H35.5V23.1102C35.3651 23.0497 35.2348 22.9795 35.11 22.9002C34.9964 22.8079 34.8894 22.7077 34.79 22.6002L34.51 22.8802C34.4584 22.9413 34.394 22.9904 34.3215 23.024C34.249 23.0577 34.17 23.0751 34.09 23.0751C34.01 23.0751 33.931 23.0577 33.8585 23.024C33.7859 22.9904 33.7216 22.9413 33.67 22.8802L33.4 22.5902L33.1 22.8802C33.0484 22.9396 32.9846 22.9872 32.913 23.0198C32.8414 23.0524 32.7637 23.0693 32.685 23.0693C32.6063 23.0693 32.5286 23.0524 32.457 23.0198C32.3854 22.9872 32.3216 22.9396 32.27 22.8802L32 22.5802Z" fill="white"/>
<path d="M24.8201 24.8004C24.8201 25.0604 24.8201 25.3204 24.8201 25.5804C24.8214 25.6574 24.8074 25.7339 24.7788 25.8054C24.7503 25.8769 24.7078 25.942 24.6538 25.997C24.5998 26.0519 24.5354 26.0955 24.4644 26.1253C24.3933 26.1551 24.3171 26.1704 24.2401 26.1704H22.6501C22.5765 26.1717 22.5035 26.1585 22.435 26.1316C22.3666 26.1047 22.3041 26.0645 22.2511 26.0134C22.1982 25.9624 22.1559 25.9014 22.1265 25.8339C22.0972 25.7665 22.0814 25.6939 22.0801 25.6204C22.0801 25.0604 22.0801 24.5104 22.0801 23.9504C22.0826 23.8763 22.1 23.8036 22.1313 23.7365C22.1626 23.6693 22.2071 23.6092 22.2622 23.5597C22.3173 23.5102 22.3818 23.4724 22.4519 23.4484C22.522 23.4245 22.5962 23.4149 22.6701 23.4204H24.1901C24.2755 23.4111 24.362 23.421 24.4431 23.4492C24.5243 23.4774 24.5982 23.5234 24.6594 23.5837C24.7207 23.6439 24.7677 23.7171 24.7973 23.7978C24.8268 23.8785 24.838 23.9648 24.8301 24.0504C24.8101 24.3004 24.8201 24.5504 24.8201 24.8004ZM23.2001 24.5604C23.1878 24.7268 23.1878 24.8939 23.2001 25.0604C23.3566 25.0687 23.5135 25.0687 23.6701 25.0604V24.5704L23.2001 24.5604Z" fill="white"/>
<path d="M24.8202 28.4499C24.8202 28.6999 24.8202 28.9499 24.8202 29.1999C24.8244 29.2803 24.8119 29.3607 24.7833 29.4359C24.7548 29.5112 24.7109 29.5797 24.6545 29.637C24.5981 29.6944 24.5303 29.7394 24.4555 29.7692C24.3808 29.799 24.3006 29.8128 24.2202 29.8099H22.6702C22.5952 29.8155 22.5198 29.8054 22.4489 29.7801C22.378 29.7549 22.3131 29.7151 22.2585 29.6633C22.2039 29.6115 22.1607 29.5489 22.1317 29.4794C22.1028 29.4099 22.0886 29.3352 22.0902 29.2599C22.0902 28.7066 22.0902 28.1499 22.0902 27.5899C22.0902 27.5186 22.1045 27.448 22.1324 27.3824C22.1603 27.3168 22.2011 27.2574 22.2524 27.2079C22.3038 27.1584 22.3646 27.1198 22.4312 27.0944C22.4979 27.069 22.5689 27.0573 22.6402 27.0599H24.2602C24.3333 27.0586 24.4059 27.0719 24.4738 27.0989C24.5416 27.126 24.6035 27.1663 24.6556 27.2175C24.7077 27.2687 24.7491 27.3297 24.7774 27.3971C24.8057 27.4645 24.8202 27.5369 24.8202 27.6099C24.8202 27.8899 24.8202 28.1699 24.8202 28.4399V28.4499ZM23.2102 28.1899V28.6699H23.6902V28.1899H23.2102Z" fill="white"/>
<path d="M18.28 28.4302C18.28 28.1702 18.28 27.9102 18.28 27.6502C18.2786 27.5728 18.293 27.4959 18.3222 27.4242C18.3515 27.3526 18.3951 27.2876 18.4503 27.2334C18.5055 27.1791 18.5712 27.1366 18.6434 27.1086C18.7155 27.0805 18.7926 27.0675 18.87 27.0702H20.44C20.5122 27.0661 20.5846 27.0764 20.6529 27.1004C20.7212 27.1243 20.784 27.1615 20.8379 27.2098C20.8918 27.2581 20.9356 27.3166 20.9669 27.3819C20.9981 27.4471 21.0162 27.5179 21.02 27.5902C21.0238 27.6568 21.0238 27.7236 21.02 27.7902C21.02 28.2302 21.02 28.6702 21.02 29.1102C21.02 29.1102 21.02 29.2002 21.02 29.2402C21.0219 29.3199 21.0067 29.3991 20.9755 29.4725C20.9444 29.5459 20.8979 29.6117 20.8392 29.6657C20.7805 29.7197 20.7109 29.7605 20.6352 29.7854C20.5594 29.8103 20.4793 29.8188 20.4 29.8102C19.89 29.8102 19.4 29.8102 18.88 29.8102C18.7979 29.8147 18.7157 29.8016 18.639 29.7719C18.5623 29.7422 18.4928 29.6965 18.4351 29.6378C18.3774 29.5792 18.3329 29.509 18.3044 29.4318C18.2759 29.3546 18.2642 29.2723 18.27 29.1902C18.29 28.9402 18.28 28.6802 18.28 28.4302ZM19.41 28.6702H19.89V28.2002H19.41V28.6702Z" fill="white"/>
<path d="M24.8201 21.1802C24.8201 21.4402 24.8201 21.7002 24.8201 21.9602C24.8229 22.0384 24.8095 22.1164 24.7809 22.1892C24.7522 22.2621 24.7089 22.3282 24.6535 22.3836C24.5981 22.4389 24.532 22.4823 24.4591 22.5109C24.3863 22.5396 24.3083 22.553 24.2301 22.5502H22.6701C22.5936 22.5528 22.5173 22.5401 22.4458 22.5126C22.3743 22.4852 22.3091 22.4436 22.254 22.3904C22.199 22.3372 22.1552 22.2735 22.1253 22.203C22.0954 22.1325 22.08 22.0567 22.0801 21.9802C22.0801 21.4402 22.0801 20.8902 22.0801 20.3502C22.0796 20.2726 22.0956 20.1958 22.1269 20.1248C22.1582 20.0539 22.2042 19.9903 22.2618 19.9384C22.3194 19.8865 22.3873 19.8473 22.4611 19.8235C22.535 19.7996 22.613 19.7917 22.6901 19.8002H24.1901C24.2747 19.7925 24.36 19.8035 24.44 19.8325C24.5199 19.8614 24.5925 19.9076 24.6526 19.9677C24.7127 20.0278 24.7588 20.1004 24.7878 20.1803C24.8167 20.2602 24.8278 20.3455 24.8201 20.4302C24.8201 20.6835 24.8201 20.9335 24.8201 21.1802ZM23.2001 20.9302C23.1883 21.0966 23.1883 21.2637 23.2001 21.4302C23.3567 21.4383 23.5135 21.4383 23.6701 21.4302V20.9402L23.2001 20.9302Z" fill="white"/>
<path d="M18.28 21.1602C18.28 20.9102 18.28 20.6602 18.28 20.4102C18.2742 20.3295 18.2857 20.2484 18.3136 20.1725C18.3416 20.0965 18.3854 20.0274 18.4422 19.9697C18.499 19.912 18.5674 19.867 18.6429 19.8378C18.7184 19.8086 18.7992 19.7958 18.88 19.8002H20.41C20.489 19.7947 20.5683 19.8056 20.6429 19.8324C20.7174 19.8592 20.7855 19.9012 20.8429 19.9557C20.9003 20.0103 20.9457 20.0762 20.9762 20.1493C21.0067 20.2224 21.0216 20.3011 21.02 20.3802C21.02 20.5202 21.02 20.6602 21.02 20.8002C21.02 21.1502 21.02 21.5002 21.02 21.8002C21.025 21.8735 21.025 21.947 21.02 22.0202C21.0044 22.1455 20.9462 22.2615 20.8552 22.3489C20.7641 22.4363 20.6458 22.4897 20.52 22.5002H18.88C18.7916 22.505 18.7033 22.4894 18.6218 22.4548C18.5404 22.4201 18.4679 22.3672 18.41 22.3002C18.3227 22.1971 18.2764 22.0654 18.28 21.9302C18.28 21.6602 18.28 21.3902 18.28 21.1102V21.1602ZM19.89 21.4202V20.9302H19.41V21.4202H19.89Z" fill="white"/>
<path d="M18.2801 24.7901C18.2801 24.5301 18.2801 24.28 18.2801 24.02C18.2758 23.9414 18.2881 23.8628 18.3162 23.7892C18.3443 23.7157 18.3876 23.6489 18.4433 23.5932C18.499 23.5375 18.5658 23.4942 18.6393 23.4661C18.7129 23.438 18.7915 23.4257 18.8701 23.43H20.4201C20.4962 23.4273 20.572 23.4401 20.643 23.4677C20.7139 23.4952 20.7785 23.5369 20.8328 23.5903C20.887 23.6436 20.9299 23.7075 20.9587 23.7779C20.9874 23.8484 21.0016 23.924 21.0001 24C21.0001 24.11 21.0001 24.22 21.0001 24.33C21.0001 24.7167 21.0001 25.1067 21.0001 25.5C21.0044 25.5666 21.0044 25.6335 21.0001 25.7001C20.9876 25.8371 20.9242 25.9645 20.8224 26.057C20.7206 26.1496 20.5878 26.2006 20.4501 26.2001H18.8501C18.7745 26.2029 18.6992 26.19 18.6287 26.1624C18.5583 26.1347 18.4944 26.0928 18.4409 26.0393C18.3874 25.9858 18.3455 25.9219 18.3178 25.8515C18.2902 25.781 18.2773 25.7057 18.2801 25.63C18.2801 25.33 18.2801 25.0501 18.2801 24.7901ZM19.8901 25.05V24.56H19.4001C19.4001 24.73 19.4001 24.89 19.4001 25.05H19.8901Z" fill="white"/>
<path d="M14.4901 24.8001C14.4901 24.5401 14.4901 24.2801 14.4901 24.0201C14.4858 23.9415 14.4981 23.8628 14.5262 23.7893C14.5543 23.7157 14.5976 23.6489 14.6533 23.5933C14.709 23.5376 14.7757 23.4943 14.8493 23.4662C14.9228 23.438 15.0015 23.4257 15.0801 23.4301H16.6501C16.7296 23.4256 16.8092 23.4381 16.8835 23.4668C16.9577 23.4956 17.0251 23.5398 17.0809 23.5966C17.1367 23.6533 17.1798 23.7214 17.2073 23.7961C17.2347 23.8709 17.2459 23.9507 17.2401 24.0301C17.2401 24.5434 17.2401 25.0601 17.2401 25.5801C17.2446 25.6596 17.2321 25.7392 17.2033 25.8134C17.1746 25.8877 17.1304 25.955 17.0736 26.0109C17.0168 26.0667 16.9488 26.1098 16.874 26.1373C16.7993 26.1647 16.7195 26.1759 16.6401 26.1701H15.0901C15.0114 26.1728 14.933 26.1595 14.8596 26.1309C14.7863 26.1024 14.7195 26.0592 14.6634 26.004C14.6072 25.9488 14.5629 25.8827 14.5331 25.8099C14.5033 25.737 14.4887 25.6588 14.4901 25.5801C14.5001 25.3201 14.4901 25.0601 14.4901 24.8001ZM15.6201 24.5601V25.0001H16.1101C16.1293 24.8373 16.1293 24.6729 16.1101 24.5101L15.6201 24.5601Z" fill="white"/>
<path d="M15.8501 22.55H15.1001C15.018 22.5558 14.9357 22.5441 14.8585 22.5156C14.7813 22.4872 14.7111 22.4426 14.6525 22.3849C14.5938 22.3272 14.5481 22.2577 14.5184 22.181C14.4887 22.1043 14.4756 22.0222 14.4801 21.94C14.4801 21.43 14.4801 20.94 14.4801 20.41C14.4729 20.332 14.4825 20.2533 14.5082 20.1793C14.5339 20.1053 14.5751 20.0376 14.629 19.9808C14.683 19.9239 14.7485 19.8793 14.8211 19.8499C14.8937 19.8204 14.9718 19.8068 15.0501 19.81C15.5834 19.81 16.1168 19.81 16.6501 19.81C16.7288 19.807 16.8072 19.8206 16.8803 19.85C16.9534 19.8793 17.0195 19.9238 17.0742 19.9804C17.1289 20.037 17.1711 20.1046 17.198 20.1786C17.2248 20.2526 17.2358 20.3315 17.2301 20.41C17.2301 20.9234 17.2301 21.44 17.2301 21.96C17.2328 22.0374 17.2198 22.1145 17.1917 22.1867C17.1637 22.2588 17.1212 22.3245 17.0669 22.3797C17.0127 22.4349 16.9477 22.4785 16.8761 22.5078C16.8044 22.5371 16.7275 22.5514 16.6501 22.55H15.8501ZM16.1001 20.93H15.6001C15.5881 21.0931 15.5881 21.2569 15.6001 21.42H16.0801L16.1001 20.93Z" fill="white"/>
<path d="M14.4901 28.4199C14.4901 28.1599 14.4901 27.8999 14.4901 27.6399C14.4858 27.5626 14.4978 27.4853 14.5254 27.413C14.553 27.3406 14.5956 27.2749 14.6503 27.2202C14.7051 27.1654 14.7708 27.1229 14.8431 27.0952C14.9155 27.0676 14.9928 27.0556 15.0701 27.0599H16.6501C16.7248 27.0559 16.7996 27.0671 16.8698 27.0929C16.9401 27.1187 17.0043 27.1586 17.0586 27.21C17.1129 27.2615 17.1561 27.3235 17.1856 27.3923C17.2151 27.4611 17.2302 27.5351 17.2301 27.61C17.2301 28.1566 17.2301 28.6999 17.2301 29.2399C17.2303 29.3157 17.2149 29.3906 17.1848 29.4601C17.1547 29.5296 17.1105 29.5921 17.0552 29.6437C16.9998 29.6953 16.9343 29.735 16.8629 29.7601C16.7915 29.7853 16.7156 29.7955 16.6401 29.79H15.0801C15.0024 29.7942 14.9246 29.7821 14.8518 29.7546C14.779 29.7271 14.7127 29.6847 14.6572 29.6301C14.6016 29.5755 14.5581 29.51 14.5293 29.4376C14.5006 29.3653 14.4872 29.2877 14.4901 29.2099C14.4901 28.9566 14.4901 28.6999 14.4901 28.4399V28.4199ZM15.6101 28.6699C15.7762 28.6903 15.9441 28.6903 16.1101 28.6699V28.1899H15.6101V28.6699Z" fill="white"/>
<path d="M26.22 39.1202C25.7884 39.1222 25.366 38.996 25.0062 38.7577C24.6464 38.5194 24.3654 38.1796 24.1989 37.7814C24.0323 37.3833 23.9877 36.9446 24.0707 36.5211C24.1537 36.0976 24.3605 35.7082 24.665 35.4023C24.9695 35.0964 25.3579 34.8878 25.781 34.8029C26.2042 34.718 26.643 34.7605 27.042 34.9252C27.4409 35.0899 27.7819 35.3693 28.0219 35.7281C28.2619 36.0868 28.39 36.5086 28.39 36.9402C28.394 37.2268 28.3407 37.5112 28.2332 37.7769C28.1257 38.0425 27.9662 38.284 27.764 38.4871C27.5618 38.6902 27.3211 38.8509 27.056 38.9596C26.7908 39.0683 26.5066 39.1229 26.22 39.1202ZM26.22 38.0002C26.5025 38.0002 26.7734 37.888 26.9731 37.6883C27.1728 37.4886 27.285 37.2177 27.285 36.9352C27.285 36.6528 27.1728 36.3819 26.9731 36.1822C26.7734 35.9824 26.5025 35.8702 26.22 35.8702C25.9376 35.8702 25.6667 35.9824 25.467 36.1822C25.2672 36.3819 25.155 36.6528 25.155 36.9352C25.155 37.2177 25.2672 37.4886 25.467 37.6883C25.6667 37.888 25.9376 38.0002 26.22 38.0002Z" fill="white"/>
</svg>
