<svg width="86" height="86" viewBox="0 0 86 86" fill="none" xmlns="http://www.w3.org/2000/svg">
<path d="M79.0208 38.2232C76.6959 42.7497 71.5769 44.7125 67.6224 42.6879C63.668 40.6634 62.273 35.3757 64.5815 30.8328C66.8899 26.2899 72.0213 24.3271 75.9757 26.3845C79.9302 28.442 81.3457 33.6803 79.0208 38.2232Z" stroke="#C10016" stroke-width="1.6"/>
<path d="M32.9037 34.3965C28.9492 32.372 27.5542 27.0843 29.8627 22.5414C32.1712 17.9985 37.2573 16.7434 39.5575 17.4635" stroke="#C10016" stroke-width="1.6"/>
<path d="M59.2013 51.0742L58.0615 56.8763L51.2266 62.7524V66.9867" stroke="#C10016" stroke-width="1.6"/>
<path d="M72.9944 44.4128L73.5949 43.8842L73.4296 43.6964L73.1868 43.6362L72.9944 44.4128ZM74.8091 46.4743L74.2086 47.0029L74.7582 47.6273L75.3607 47.0538L74.8091 46.4743ZM80.9815 40.5982H81.7815L80.4299 40.0188L80.9815 40.5982ZM80.9815 49.1861L81.3922 49.8726L81.7815 49.6397V49.1861H80.9815ZM51.2263 66.9873L51.01 67.7575L51.3415 67.8507L51.6371 67.6739L51.2263 66.9873ZM5.40234 54.1158H4.60234V54.722L5.186 54.886L5.40234 54.1158ZM5.40234 49.8815L4.99323 49.194L4.60234 49.4267V49.8815H5.40234ZM13.2989 45.1823L13.708 45.8697L13.9802 45.7078L14.0677 45.4034L13.2989 45.1823ZM14.8873 39.66L14.5688 38.9261L14.2227 39.0763L14.1185 39.4389L14.8873 39.66ZM29.0345 33.5205L29.2269 32.744L28.9642 32.6789L28.716 32.7866L29.0345 33.5205ZM59.197 51.0584L58.9977 51.8332L59.2808 51.906L59.5441 51.7791L59.197 51.0584ZM72.3939 44.9413L74.2086 47.0029L75.4096 45.9458L73.5949 43.8842L72.3939 44.9413ZM75.3607 47.0538L81.5331 41.1776L80.4299 40.0188L74.2575 45.8949L75.3607 47.0538ZM80.1815 40.5982V49.1861H81.7815V40.5982H80.1815ZM80.5708 48.4996L50.8156 66.3008L51.6371 67.6739L81.3922 49.8726L80.5708 48.4996ZM51.4427 66.2171L5.61868 53.3456L5.186 54.886L51.01 67.7575L51.4427 66.2171ZM6.20234 54.1158V49.8815H4.60234V54.1158H6.20234ZM5.81146 50.569L13.708 45.8697L12.8898 44.4948L4.99323 49.194L5.81146 50.569ZM14.0677 45.4034L15.6561 39.8811L14.1185 39.4389L12.5301 44.9611L14.0677 45.4034ZM15.2058 40.3939L29.3529 34.2544L28.716 32.7866L14.5688 38.9261L15.2058 40.3939ZM28.8421 34.297L72.802 45.1893L73.1868 43.6362L29.2269 32.744L28.8421 34.297ZM72.6472 43.692L58.8498 50.3376L59.5441 51.7791L73.3415 45.1335L72.6472 43.692ZM59.3963 50.2836L15.0866 38.8852L14.688 40.4348L58.9977 51.8332L59.3963 50.2836Z" fill="#C10016"/>
<path d="M5.40234 49.8809L51.2263 62.7524" stroke="#C10016" stroke-width="1.6"/>
<path d="M13.2988 45.1816L57.9089 56.7775" stroke="#C10016" stroke-width="1.6"/>
<path d="M73.4619 33.6352C73.6089 33.9501 73.6686 34.3314 73.6338 34.7332C73.599 35.1351 73.4712 35.5407 73.2656 35.9013C73.0601 36.262 72.7855 36.5624 72.4748 36.7667C72.1641 36.971 71.8304 37.0705 71.5136 37.0533C71.1969 37.0361 70.9106 36.9029 70.6889 36.6696C70.4672 36.4364 70.3196 36.113 70.2637 35.7381C70.2078 35.3633 70.246 34.9528 70.3737 34.556C70.5014 34.1592 70.7132 33.7927 70.9838 33.5005C71.1887 33.3017 71.4153 33.1475 71.6508 33.0467C71.8863 32.9459 72.1259 32.9004 72.3561 32.9129C72.5863 32.9255 72.8024 32.9957 72.9921 33.1196C73.1819 33.2436 73.3415 33.4188 73.4619 33.6352Z" stroke="#C10016" stroke-width="1.6"/>
<path d="M76.5747 37.4124C75.0796 40.4075 71.7877 41.6877 69.2457 40.3544C66.7037 39.0211 65.7935 35.5236 67.2885 32.543C68.7835 29.5624 72.0754 28.2677 74.6174 29.601C77.1595 30.9343 78.0697 34.4222 76.5747 37.4124Z" stroke="#C10016" stroke-width="1.6"/>
<path d="M74.8505 25.9036L39.5566 17.4639" stroke="#C10016" stroke-width="1.6"/>
<path d="M69.5237 43.4862L32.9336 34.3716" stroke="#C10016" stroke-width="1.6"/>
<path d="M63.7331 33.1329L36.4716 67.6202C34.2701 68.258 33.4307 67.9864 33.085 67.5791C32.9328 67.4021 32.9204 67.2458 32.5542 66.6985C32.271 66.2488 31.9353 65.8344 31.5543 65.464C31.0317 65.0196 30.4021 64.9537 29.1429 64.9332C26.0608 64.8838 25.9785 65.1965 25.1473 64.9332C23.8676 64.5217 24.0939 63.7974 22.3862 62.6411C21.5632 62.0897 20.1065 62.6123 18.8021 62.2296C18.2671 62.0733 18.0778 60.9952 17.4688 60.8429C14.6336 60.0569 14.9217 61.2914 13.8641 60.526C13.2387 60.0693 12.7078 58.7607 11.6915 58.5879C10.815 58.4398 10.3376 58.7402 10.1895 58.6455C9.57637 58.2587 13.4403 50.4486 29.863 22.541" stroke="#C10016" stroke-width="1.6"/>
<path d="M81.7391 40.1972L78.3691 39.4595" stroke="#C10016" stroke-width="1.6"/>
</svg>
