<svg width="50" height="50" viewBox="0 0 50 50" fill="none" xmlns="http://www.w3.org/2000/svg">
<path d="M0 50V0H50C50 16.6667 50 33.3333 50 50H0ZM8.1 30.22C8.1 30.39 8.1 42.54 8.1 42.68H11.33H11.51V38.18H38.6C38.6 38.54 38.6 38.91 38.6 39.28V40.4C38.6 40.78 38.6 41.16 38.6 41.53C38.6 41.9 38.6 42.27 38.6 42.63C38.8 42.63 41.87 42.63 42 42.63V30.22H39C38.9568 30.2232 38.9136 30.2147 38.8748 30.1953C38.8361 30.176 38.8033 30.1465 38.78 30.11L38.11 29.22C38.1073 29.1867 38.1073 29.1533 38.11 29.12H38.19C38.5587 29.0919 38.908 28.9437 39.1843 28.698C39.4607 28.4524 39.6489 28.1228 39.72 27.76C39.7358 27.5269 39.7358 27.2931 39.72 27.06C39.72 27 39.72 26.93 39.72 26.85H40.81C40.8523 26.4678 40.8523 26.0822 40.81 25.7H39.79C39.79 25.63 39.79 25.58 39.79 25.52C39.79 25.46 39.79 25.21 39.79 25.05C39.7668 24.6105 39.5752 24.1969 39.2548 23.8952C38.9344 23.5934 38.5101 23.4268 38.07 23.43H37C37 23.36 37 23.31 37 23.25C37 23.19 37 22.99 37 22.87C37.0025 22.6199 36.9497 22.3724 36.8455 22.1451C36.7414 21.9178 36.5883 21.7162 36.3973 21.5548C36.2063 21.3934 35.982 21.2761 35.7405 21.2113C35.499 21.1466 35.2461 21.1359 35 21.18C34.5837 21.229 34.1999 21.4293 33.9215 21.7427C33.6431 22.0561 33.4896 22.4608 33.49 22.88C33.49 23.06 33.49 23.23 33.49 23.42H33.31C32.99 23.42 32.68 23.42 32.36 23.42C32.0342 23.4205 31.7156 23.5152 31.4423 23.6926C31.1691 23.87 30.953 24.1226 30.82 24.42C30.7145 24.6418 30.6598 24.8844 30.66 25.13C30.66 25.31 30.66 25.48 30.66 25.68H29.58V26.83H30.7C30.7 26.92 30.7 26.98 30.7 27.05C30.7 27.12 30.7 27.41 30.7 27.58C30.7418 27.9535 30.9055 28.3029 31.1658 28.574C31.4261 28.8452 31.7685 29.023 32.14 29.08H32.34C32.342 29.0999 32.342 29.1201 32.34 29.14L31.62 30.14C31.5974 30.1675 31.5679 30.1885 31.5345 30.2008C31.5011 30.2131 31.465 30.2163 31.43 30.21H26.61C26.5683 30.2125 26.5267 30.2035 26.4897 30.1841C26.4527 30.1648 26.4217 30.1357 26.4 30.1L25.74 29.22L25.68 29.13H25.75C26.0134 29.1054 26.2674 29.0193 26.4914 28.8786C26.7155 28.7379 26.9034 28.5466 27.04 28.32C27.2118 28.0514 27.3021 27.7388 27.3 27.42C27.3 27.24 27.3 27.07 27.3 26.87H27.86C28.0497 26.8841 28.2403 26.8841 28.43 26.87C28.43 26.48 28.43 26.12 28.43 25.73H27.34C27.34 25.62 27.34 25.53 27.34 25.45C27.3405 25.2324 27.3238 25.015 27.29 24.8C27.2072 24.42 26.9958 24.0802 26.6916 23.8379C26.3874 23.5956 26.0089 23.4657 25.62 23.47H24.51C24.51 23.28 24.51 23.1 24.51 22.92C24.5081 22.4992 24.3511 22.0938 24.069 21.7815C23.787 21.4691 23.3996 21.2718 22.9811 21.2272C22.5626 21.1827 22.1424 21.294 21.8009 21.5399C21.4593 21.7858 21.2205 22.149 21.13 22.56C21.1151 22.7964 21.1151 23.0336 21.13 23.27C21.13 23.33 21.13 23.4 21.13 23.47H19.94C19.5452 23.4754 19.1646 23.6181 18.8635 23.8736C18.5624 24.129 18.3596 24.4813 18.29 24.87C18.2748 25.0964 18.2748 25.3236 18.29 25.55C18.29 25.61 18.29 25.67 18.29 25.73C17.91 25.73 17.54 25.73 17.18 25.73C17.1448 26.1092 17.1448 26.4908 17.18 26.87C17.54 26.87 17.9 26.87 18.28 26.87C18.28 27.08 18.28 27.26 18.28 27.44C18.2836 27.8642 18.4456 28.2717 18.7342 28.5825C19.0228 28.8934 19.4173 29.0851 19.84 29.12H19.93L19.2 30.12C19.1799 30.1451 19.1538 30.1647 19.124 30.1769C19.0943 30.1892 19.0619 30.1937 19.03 30.19H15.63H15.51C15.9505 29.5509 16.1261 28.7659 16 28C15.83 28 15.65 28 15.47 28C15.7106 27.6711 15.8817 27.2967 15.9728 26.8996C16.0639 26.5024 16.0732 26.0909 16 25.69H15.46C15.9291 25.0365 16.1231 24.225 16 23.43H15.46C15.6945 23.1094 15.863 22.7454 15.9557 22.3592C16.0484 21.9729 16.0634 21.5721 16 21.18C15.76 21.18 9.35 21.18 9.21 21.18C9.07 21.18 9.21 21.49 9.21 21.65C9.2004 22.2326 9.36777 22.8045 9.69 23.29C9.71569 23.332 9.73906 23.3754 9.76 23.42H9.21C9.17847 23.8109 9.19864 24.2043 9.27 24.59C9.36314 24.9828 9.53307 25.3532 9.77 25.68H9.2C9.2 25.86 9.2 26.02 9.2 26.18C9.1904 26.7626 9.35777 27.3345 9.68 27.82C9.70587 27.8619 9.72925 27.9053 9.75 27.95H9.22C9.22 28.01 9.22 28.06 9.22 28.11C9.22 28.16 9.22 28.38 9.22 28.51C9.22232 29.0737 9.39295 29.6239 9.71 30.09C9.73238 30.1288 9.75242 30.1688 9.77 30.21L8.1 30.22ZM22.27 16.68C22.4128 17.3133 22.7668 17.8793 23.2738 18.2847C23.7809 18.6902 24.4108 18.9111 25.06 18.9111C25.7092 18.9111 26.3391 18.6902 26.8462 18.2847C27.3532 17.8793 27.7072 17.3133 27.85 16.68H29.61C29.7531 17.3158 30.1082 17.884 30.6171 18.2911C31.126 18.6982 31.7583 18.92 32.41 18.92C33.0617 18.92 33.694 18.6982 34.2029 18.2911C34.7118 17.884 35.0669 17.3158 35.21 16.68H41.5C41.6459 16.6698 41.7822 16.6039 41.8809 16.4959C41.9795 16.3879 42.0329 16.2462 42.03 16.1C42.0264 15.9553 41.9775 15.8153 41.89 15.7L40 12.89L39.67 12.39C39.6163 12.301 39.5398 12.2281 39.4483 12.1789C39.3568 12.1296 39.2538 12.1058 39.15 12.11H38.8H38.65V9.85H33C33 9.47 33 9.1 33 8.73H31.83V9.83C31.61 9.83 18.42 9.83 18.28 9.83V8.73H17.13V9.85H11.46V12.11H10.94C10.8059 12.1017 10.6737 12.1446 10.57 12.23C10.5012 12.292 10.4408 12.3626 10.39 12.44L8.22 15.69C8.18682 15.7345 8.15675 15.7813 8.13 15.83C8.08959 15.9081 8.06779 15.9945 8.06631 16.0824C8.06483 16.1703 8.08372 16.2574 8.12148 16.3368C8.15925 16.4162 8.21488 16.4858 8.28401 16.5401C8.35315 16.5945 8.43392 16.6321 8.52 16.65C8.59641 16.6588 8.67359 16.6588 8.75 16.65H14.91C15.0485 17.2884 15.4013 17.8601 15.9098 18.2701C16.4183 18.6801 17.0518 18.9037 17.705 18.9037C18.3582 18.9037 18.9917 18.6801 19.5002 18.2701C20.0087 17.8601 20.3615 17.2884 20.5 16.65L22.27 16.68Z" fill="white"/>
<path d="M8.0999 30.22H9.7499C9.73232 30.1788 9.71228 30.1387 9.6899 30.1C9.37285 29.6339 9.20222 29.0837 9.1999 28.52C9.1999 28.39 9.1999 28.25 9.1999 28.12C9.1999 27.99 9.1999 28.02 9.1999 27.96H9.7299C9.70915 27.9153 9.68577 27.8719 9.6599 27.83C9.34666 27.345 9.18639 26.7771 9.1999 26.2C9.1999 26.04 9.1999 25.88 9.1999 25.7H9.7599C9.52297 25.3732 9.35304 25.0027 9.2599 24.61C9.18854 24.2243 9.16837 23.8309 9.1999 23.44H9.7399C9.71895 23.3954 9.69559 23.352 9.6699 23.31C9.34767 22.8244 9.1803 22.2526 9.1899 21.67C9.1899 21.51 9.1899 21.35 9.1899 21.2C9.1899 21.05 15.7399 21.2 15.9799 21.2C16.0433 21.5921 16.0283 21.9929 15.9356 22.3791C15.8429 22.7654 15.6744 23.1294 15.4399 23.45H15.9999C16.123 24.245 15.929 25.0565 15.4599 25.71H15.9999C16.0634 26.0998 16.0492 26.4984 15.9583 26.8828C15.8673 27.2672 15.7014 27.6299 15.4699 27.95C15.6599 28 15.8299 27.95 15.9999 27.95C16.1226 28.7309 15.9322 29.5287 15.4699 30.17H15.5899H18.9999C19.0318 30.1736 19.0642 30.1691 19.0939 30.1569C19.1237 30.1447 19.1498 30.1251 19.1699 30.1L19.8999 29.1H19.8099C19.3871 29.065 18.9927 28.8733 18.7041 28.5625C18.4155 28.2517 18.2534 27.8441 18.2499 27.42C18.2499 27.24 18.2499 27.05 18.2499 26.85C17.8699 26.85 17.5099 26.85 17.1499 26.85C17.1147 26.4708 17.1147 26.0892 17.1499 25.71C17.5099 25.71 17.8699 25.71 18.2599 25.71C18.2599 25.65 18.2599 25.59 18.2599 25.53C18.2447 25.3036 18.2447 25.0764 18.2599 24.85C18.3295 24.4613 18.5323 24.109 18.8334 23.8535C19.1345 23.5981 19.5151 23.4554 19.9099 23.45H21.0499C21.0499 23.38 21.0499 23.31 21.0499 23.25C21.035 23.0135 21.035 22.7764 21.0499 22.54C21.1404 22.129 21.3792 21.7657 21.7208 21.5198C22.0623 21.2739 22.4825 21.1626 22.901 21.2072C23.3195 21.2518 23.7069 21.4491 23.9889 21.7614C24.271 22.0737 24.428 22.4791 24.4299 22.9C24.4299 23.08 24.4299 23.25 24.4299 23.45H25.5399C25.9288 23.4456 26.3073 23.5756 26.6115 23.8179C26.9157 24.0602 27.1271 24.4 27.2099 24.78C27.2437 24.995 27.2604 25.2123 27.2599 25.43C27.2599 25.52 27.2599 25.61 27.2599 25.71H28.3799C28.3799 26.1 28.3799 26.47 28.3799 26.85C28.1902 26.8641 27.9996 26.8641 27.8099 26.85H27.2499C27.2499 27.05 27.2499 27.22 27.2499 27.4C27.252 27.7188 27.1617 28.0314 26.9899 28.3C26.8533 28.5265 26.6654 28.7179 26.4413 28.8585C26.2173 28.9992 25.9633 29.0853 25.6999 29.11H25.6299L25.6899 29.2L26.3499 30.08C26.3716 30.1156 26.4026 30.1447 26.4396 30.1641C26.4766 30.1835 26.5182 30.1924 26.5599 30.19H31.3799C31.4149 30.1963 31.451 30.1931 31.4844 30.1808C31.5178 30.1685 31.5473 30.1475 31.5699 30.12L32.2899 29.12C32.2919 29.1 32.2919 29.0799 32.2899 29.06H32.0899C31.7184 29.003 31.376 28.8251 31.1157 28.554C30.8554 28.2828 30.6917 27.9335 30.6499 27.56C30.6499 27.38 30.6499 27.21 30.6499 27.03C30.6499 26.85 30.6499 26.9 30.6499 26.81H29.5799V25.7H30.6999C30.6999 25.5 30.6999 25.33 30.6999 25.15C30.6997 24.9043 30.7544 24.6618 30.8599 24.44C30.9929 24.1426 31.209 23.89 31.4822 23.7126C31.7555 23.5352 32.0741 23.4405 32.3999 23.44C32.7199 23.44 33.0299 23.44 33.3499 23.44H33.5299C33.5299 23.25 33.5299 23.08 33.5299 22.9C33.5233 22.4834 33.6691 22.0788 33.9398 21.7621C34.2104 21.4454 34.5874 21.2384 34.9999 21.18C35.2384 21.1503 35.4806 21.1715 35.7103 21.2423C35.9401 21.313 36.1522 21.4317 36.3327 21.5905C36.5132 21.7492 36.658 21.9445 36.7575 22.1633C36.857 22.3821 36.9089 22.6196 36.9099 22.86C36.9099 22.99 36.9099 23.12 36.9099 23.24C36.9099 23.36 36.9099 23.35 36.9099 23.42H37.9999C38.44 23.4168 38.8643 23.5834 39.1847 23.8851C39.5051 24.1869 39.6967 24.6005 39.7199 25.04C39.7199 25.2 39.7199 25.35 39.7199 25.51C39.7199 25.67 39.7199 25.62 39.7199 25.69H40.8099C40.8522 26.0721 40.8522 26.4578 40.8099 26.84H39.7999C39.7999 26.92 39.7999 26.98 39.7999 27.05C39.8157 27.283 39.8157 27.5169 39.7999 27.75C39.7288 28.1128 39.5406 28.4423 39.2642 28.688C38.9879 28.9336 38.6386 29.0819 38.2699 29.11H38.1899C38.1872 29.1432 38.1872 29.1767 38.1899 29.21L38.8599 30.1C38.8832 30.1364 38.916 30.1659 38.9547 30.1853C38.9935 30.2047 39.0367 30.2132 39.0799 30.21H42.0799V42.67C41.9499 42.67 38.8799 42.67 38.6799 42.67C38.6799 42.31 38.6799 41.94 38.6799 41.57C38.6799 41.2 38.6799 40.81 38.6799 40.44V39.32C38.6799 38.95 38.6799 38.58 38.6799 38.22H11.5099V42.71H11.3299H8.1099C8.0599 42.54 8.0599 30.39 8.0999 30.22ZM38.0499 31.38H12.0499V33.67C12.42 33.7715 12.762 33.9562 13.0499 34.21L13.3599 34.46C13.5829 34.6335 13.8574 34.7277 14.1399 34.7277C14.4224 34.7277 14.6969 34.6335 14.9199 34.46L15.3299 34.12C15.7585 33.7859 16.2864 33.6044 16.8299 33.6044C17.3734 33.6044 17.9013 33.7859 18.3299 34.12L18.7599 34.47C18.9893 34.6594 19.2774 34.763 19.5749 34.763C19.8724 34.763 20.1605 34.6594 20.3899 34.47L20.8799 34.07C21.2866 33.7878 21.7699 33.6366 22.2649 33.6366C22.7599 33.6366 23.2431 33.7878 23.6499 34.07C23.8399 34.21 24.0299 34.36 24.2099 34.51C24.4393 34.6994 24.7274 34.803 25.0249 34.803C25.3224 34.803 25.6105 34.6994 25.8399 34.51L26.2299 34.19C26.6592 33.8575 27.1869 33.6771 27.7299 33.6771C28.2729 33.6771 28.8006 33.8575 29.2299 34.19L29.6299 34.52C29.8553 34.7009 30.1358 34.7996 30.4249 34.7996C30.714 34.7996 30.9944 34.7009 31.2199 34.52L31.6499 34.17C31.9371 33.9444 32.2716 33.7867 32.6283 33.7088C32.9851 33.6309 33.3548 33.6347 33.7099 33.72C34.0802 33.8048 34.4238 33.98 34.7099 34.23C34.8499 34.34 34.9799 34.46 35.1299 34.56C35.3416 34.7107 35.595 34.7917 35.8549 34.7917C36.1148 34.7917 36.3682 34.7107 36.5799 34.56L36.8699 34.33C37.1884 34.0272 37.5765 33.8074 37.9999 33.69L38.0499 31.38ZM40.8599 37C40.8599 36.8 40.8599 31.51 40.8599 31.38H39.2199V31.59C39.2199 32.44 39.2199 33.29 39.2199 34.14C39.2271 34.2219 39.2167 34.3045 39.1895 34.3822C39.1623 34.4598 39.1188 34.5308 39.0621 34.5904C39.0053 34.65 38.9366 34.6968 38.8603 34.7278C38.7841 34.7587 38.7021 34.7731 38.6199 34.77C38.3388 34.7726 38.067 34.8714 37.8499 35.05L37.4499 35.38C37.2154 35.5764 36.9431 35.7228 36.6499 35.81C36.2664 35.931 35.8587 35.9542 35.464 35.8773C35.0692 35.8005 34.7 35.626 34.3899 35.37L33.9999 35C33.8677 34.8969 33.7138 34.8251 33.5499 34.79C33.3521 34.741 33.1455 34.7399 32.9472 34.7869C32.7489 34.8339 32.5647 34.9275 32.4099 35.06L31.9199 35.46C31.5193 35.7291 31.0475 35.8728 30.5649 35.8728C30.0823 35.8728 29.6105 35.7291 29.2099 35.46C29.0199 35.33 28.8499 35.18 28.6699 35.04C28.5154 34.902 28.3303 34.8026 28.1299 34.75C27.9353 34.6975 27.731 34.6928 27.5342 34.7363C27.3375 34.7798 27.1542 34.8703 26.9999 35L26.5299 35.38C26.1356 35.6837 25.6575 35.8591 25.1604 35.8824C24.6632 35.9056 24.1708 35.7756 23.7499 35.51C23.5599 35.38 23.3799 35.23 23.1999 35.08C23.0424 34.9385 22.8541 34.8358 22.6499 34.78C22.4437 34.7298 22.2283 34.731 22.0226 34.7833C21.8169 34.8356 21.6272 34.9374 21.4699 35.08C21.3099 35.21 21.1499 35.34 20.9899 35.46C20.6301 35.7179 20.2023 35.864 19.7599 35.88C19.1497 35.9223 18.547 35.725 18.0799 35.33C17.9299 35.1984 17.773 35.0749 17.6099 34.96C17.4912 34.8781 17.3592 34.8172 17.2199 34.78C17.0115 34.7266 16.793 34.7271 16.5849 34.7813C16.3767 34.8356 16.1858 34.9418 16.0299 35.09C15.891 35.2161 15.744 35.333 15.5899 35.44C15.218 35.7085 14.776 35.8629 14.3178 35.8842C13.8596 35.9055 13.4051 35.7929 13.0099 35.56C12.7954 35.4342 12.5943 35.2867 12.4099 35.12C12.1394 34.8669 11.7802 34.7304 11.4099 34.74C11.2878 34.7362 11.1704 34.6919 11.0762 34.6141C10.9821 34.5362 10.9165 34.4292 10.8899 34.31C10.8805 34.2236 10.8805 34.1364 10.8899 34.05C10.8899 33.2233 10.8899 32.3966 10.8899 31.57C10.8899 31.51 10.8899 31.44 10.8899 31.37H9.2499C9.2499 31.61 9.2499 36.85 9.2499 36.99L40.8599 37ZM26.1799 26.88H19.4399C19.4399 27.06 19.4399 27.25 19.4399 27.43C19.4357 27.5051 19.4472 27.5802 19.4737 27.6507C19.5002 27.7211 19.5411 27.7851 19.5938 27.8388C19.6466 27.8925 19.7099 27.9345 19.7798 27.9623C19.8498 27.99 19.9247 28.0029 19.9999 28H25.7099C25.8164 27.9928 25.9182 27.9536 26.0021 27.8876C26.0859 27.8216 26.1479 27.7318 26.1799 27.63C26.2258 27.3821 26.2258 27.1279 26.1799 26.88ZM26.1799 25.69C26.1799 25.49 26.1799 25.31 26.1799 25.13C26.1773 24.9858 26.1182 24.8485 26.0153 24.7475C25.9125 24.6465 25.7741 24.5899 25.6299 24.59H20.1199H19.8599C19.7628 24.6046 19.6721 24.6474 19.5992 24.7132C19.5263 24.779 19.4743 24.8648 19.4499 24.96C19.4136 25.1952 19.4136 25.4347 19.4499 25.67L26.1799 25.69ZM31.8699 26.88C31.8699 27.06 31.8699 27.24 31.8699 27.42C31.872 27.5548 31.9245 27.6839 32.017 27.782C32.1096 27.8801 32.2354 27.94 32.3699 27.95H38.1099C38.2273 27.9415 38.3387 27.8949 38.4271 27.8173C38.5156 27.7396 38.5762 27.6352 38.5999 27.52C38.6209 27.3038 38.6209 27.0861 38.5999 26.87C38.4399 26.84 31.9999 26.84 31.8699 26.88ZM31.8699 25.69H38.6199C38.6199 25.48 38.6199 25.28 38.6199 25.08C38.6116 24.9704 38.5683 24.8665 38.4962 24.7836C38.4241 24.7007 38.3272 24.6433 38.2199 24.62C38.1336 24.6087 38.0462 24.6087 37.9599 24.62H32.5599H32.2999C32.1896 24.641 32.0891 24.6972 32.0134 24.7801C31.9377 24.863 31.8909 24.9682 31.8799 25.08C31.8599 25.27 31.8699 25.47 31.8699 25.68V25.69ZM32.9999 30.21C33.3399 30.21 37.2999 30.21 37.4199 30.21V30.15L36.7199 29.21C36.6973 29.1788 36.667 29.1541 36.6319 29.1383C36.5968 29.1225 36.5582 29.1162 36.5199 29.12H33.9999C33.9592 29.1165 33.9182 29.1239 33.8813 29.1415C33.8444 29.159 33.8129 29.1861 33.7899 29.22L33.3199 29.85L32.9999 30.21ZM20.5499 30.21H24.9999V30.14L24.2899 29.19C24.2709 29.163 24.2453 29.1415 24.2155 29.1275C24.1857 29.1135 24.1527 29.1074 24.1199 29.11H21.4999C21.4636 29.1087 21.4277 29.1174 21.396 29.135C21.3643 29.1526 21.338 29.1785 21.3199 29.21L21.0499 29.57L20.5499 30.21ZM10.4799 24.59C10.4943 24.6374 10.5109 24.6841 10.5299 24.73C10.6514 25.0012 10.8455 25.2335 11.0908 25.4011C11.3362 25.5688 11.6231 25.6653 11.9199 25.68C12.3794 25.7096 12.8404 25.7096 13.2999 25.68C13.6054 25.6634 13.8999 25.5607 14.1494 25.3837C14.399 25.2068 14.5933 24.9628 14.7099 24.68C14.713 24.64 14.713 24.5999 14.7099 24.56L10.4799 24.59ZM10.4799 26.86L10.5299 26.99C10.6497 27.2765 10.8489 27.5229 11.104 27.7001C11.3591 27.8772 11.6595 27.9778 11.9699 27.99C12.3962 28.0142 12.8236 28.0142 13.2499 27.99C13.5617 27.9785 13.8637 27.8783 14.1205 27.7011C14.3774 27.524 14.5784 27.2773 14.6999 26.99C14.703 26.9467 14.703 26.9032 14.6999 26.86H10.4799ZM14.7499 29.14C14.5399 29.14 10.6099 29.14 10.4899 29.14C10.5072 29.191 10.5272 29.2411 10.5499 29.29C10.6846 29.5631 10.8923 29.7937 11.15 29.956C11.4077 30.1184 11.7053 30.2063 12.0099 30.21C12.4099 30.21 12.8099 30.21 13.2099 30.21C13.4456 30.2074 13.6778 30.1527 13.8899 30.05C14.2825 29.8679 14.5903 29.5422 14.7499 29.14ZM40.8799 41.52V38.18H39.8099C39.8099 38.32 39.8099 41.38 39.8099 41.52H40.8799ZM10.4799 22.34C10.4799 22.42 10.5299 22.47 10.5599 22.53C10.6949 22.7971 10.9005 23.0222 11.1543 23.1809C11.4082 23.3395 11.7006 23.4257 11.9999 23.43C12.4099 23.43 12.8199 23.43 13.2299 23.43C13.5317 23.4254 13.8265 23.3382 14.0821 23.1777C14.3378 23.0173 14.5446 22.7898 14.6799 22.52C14.7063 22.4646 14.7297 22.4079 14.7499 22.35L10.4799 22.34ZM10.3199 38.18H9.2599C9.2599 38.39 9.2599 41.4 9.2599 41.52H10.3099L10.3199 38.18ZM23.3199 23.42C23.3449 23.1973 23.3449 22.9726 23.3199 22.75C23.2878 22.6341 23.2185 22.5319 23.1228 22.4591C23.0271 22.3863 22.9102 22.3469 22.7899 22.3469C22.6696 22.3469 22.5527 22.3863 22.457 22.4591C22.3613 22.5319 22.292 22.6341 22.2599 22.75C22.2334 22.9792 22.2334 23.2107 22.2599 23.44L23.3199 23.42ZM35.7599 23.42C35.7712 23.2101 35.7712 22.9998 35.7599 22.79C35.7459 22.6704 35.69 22.5596 35.6022 22.4772C35.5143 22.3949 35.4002 22.3462 35.2799 22.34C35.155 22.3226 35.028 22.3503 34.9217 22.4181C34.8154 22.4859 34.7368 22.5894 34.6999 22.71C34.6633 22.9452 34.6633 23.1847 34.6999 23.42H35.7599Z" fill="#CC0000"/>
<path d="M22.2699 16.68H20.4999C20.3615 17.3183 20.0087 17.8901 19.5002 18.3001C18.9917 18.7101 18.3581 18.9337 17.7049 18.9337C17.0517 18.9337 16.4182 18.7101 15.9097 18.3001C15.4012 17.8901 15.0484 17.3183 14.9099 16.68H8.75994C8.68353 16.6888 8.60635 16.6888 8.52994 16.68C8.44386 16.6621 8.36309 16.6244 8.29395 16.5701C8.22482 16.5158 8.16919 16.4462 8.13143 16.3668C8.09366 16.2874 8.07477 16.2003 8.07625 16.1124C8.07773 16.0245 8.09953 15.9381 8.13994 15.86C8.16669 15.8113 8.19676 15.7645 8.22994 15.72L10.3899 12.48C10.4407 12.4026 10.5012 12.332 10.5699 12.27C10.6736 12.1845 10.8059 12.1416 10.9399 12.15H11.4599V9.84998H17.1299V8.72998H18.2799V9.81998C18.4199 9.81998 31.6099 9.86998 31.8299 9.81998V8.72998H32.9999C32.9999 9.09998 32.9999 9.45998 32.9999 9.84998H38.6399V12.1H38.7899H39.1699C39.2737 12.0958 39.3768 12.1196 39.4683 12.1688C39.5597 12.2181 39.6363 12.291 39.6899 12.38L40.0199 12.88L41.8899 15.68C41.9774 15.7953 42.0264 15.9353 42.0299 16.08C42.0329 16.2262 41.9795 16.3679 41.8808 16.4759C41.7822 16.5838 41.6458 16.6497 41.4999 16.66H35.2199C35.0769 17.2958 34.7217 17.864 34.2128 18.2711C33.7039 18.6782 33.0716 18.9 32.4199 18.9C31.7682 18.9 31.136 18.6782 30.6271 18.2711C30.1182 17.864 29.763 17.2958 29.6199 16.66H27.8499C27.7072 17.2933 27.3532 17.8593 26.8461 18.2647C26.3391 18.6702 25.7092 18.8911 25.0599 18.8911C24.4107 18.8911 23.7808 18.6702 23.2737 18.2647C22.7667 17.8593 22.4127 17.2933 22.2699 16.66V16.68ZM9.75994 15.49H40.3399V15.43L38.9999 13.36C38.9847 13.3312 38.9615 13.3075 38.9331 13.2915C38.9048 13.2756 38.8724 13.2681 38.8399 13.27H11.4199C11.3583 13.2638 11.2962 13.2756 11.2412 13.304C11.1862 13.3324 11.1406 13.3762 11.1099 13.43C10.6899 14.07 10.2599 14.71 9.83994 15.34L9.75994 15.49ZM37.4899 11H37.4299H12.6599V12C12.7999 12 37.3599 12 37.5099 12L37.4899 11ZM30.8699 16.64C30.9799 16.9622 31.1891 17.2413 31.4676 17.4372C31.7461 17.633 32.0795 17.7355 32.4199 17.73C32.7596 17.7402 33.0941 17.6447 33.3772 17.4566C33.6602 17.2685 33.8778 16.9971 33.9999 16.68L30.8699 16.64ZM23.5099 16.64C23.628 16.973 23.8504 17.259 24.1441 17.4554C24.4378 17.6518 24.7871 17.7481 25.1399 17.73C25.4684 17.721 25.7862 17.6118 26.0508 17.4169C26.3153 17.2221 26.5139 16.951 26.6199 16.64H23.5099ZM19.2599 16.64H16.1599C16.2759 16.9578 16.4869 17.2324 16.7641 17.4263C17.0414 17.6203 17.3716 17.7243 17.7099 17.7243C18.0483 17.7243 18.3785 17.6203 18.6558 17.4263C18.933 17.2324 19.1439 16.9578 19.2599 16.64Z" fill="#CC0000"/>
<path d="M38.0499 31.3901V33.6601C37.6472 33.7762 37.2773 33.9851 36.9699 34.2701L36.6799 34.5001C36.4682 34.6509 36.2148 34.7319 35.9549 34.7319C35.695 34.7319 35.4416 34.6509 35.2299 34.5001C35.0899 34.4001 34.9499 34.2801 34.8099 34.1701C34.5238 33.9202 34.1802 33.7449 33.8099 33.6601C33.4548 33.5749 33.0851 33.571 32.7283 33.649C32.3716 33.7269 32.0371 33.8846 31.7499 34.1101L31.3199 34.4601C31.0945 34.6411 30.814 34.7397 30.5249 34.7397C30.2358 34.7397 29.9554 34.6411 29.7299 34.4601L29.3299 34.1301C28.9006 33.7977 28.3729 33.6173 27.8299 33.6173C27.2869 33.6173 26.7593 33.7977 26.3299 34.1301L25.9399 34.4501C25.7105 34.6395 25.4224 34.7431 25.1249 34.7431C24.8274 34.7431 24.5393 34.6395 24.3099 34.4501C24.1299 34.3001 23.9399 34.1501 23.7499 34.0101C23.3432 33.728 22.8599 33.5768 22.3649 33.5768C21.8699 33.5768 21.3867 33.728 20.9799 34.0101L20.4899 34.4101C20.2605 34.5995 19.9724 34.7031 19.6749 34.7031C19.3774 34.7031 19.0893 34.5995 18.8599 34.4101L18.4299 34.0601C18.0013 33.726 17.4734 33.5446 16.9299 33.5446C16.3864 33.5446 15.8585 33.726 15.4299 34.0601L15.0199 34.4001C14.7969 34.5737 14.5224 34.6679 14.2399 34.6679C13.9574 34.6679 13.6829 34.5737 13.4599 34.4001L13.1499 34.1501C12.862 33.8963 12.52 33.7116 12.1499 33.6101V31.3901H38.0499Z" fill="white"/>
<path d="M40.86 37.0001H9.27002C9.27002 36.8701 9.27002 31.6201 9.27002 31.3801H10.9C10.9 31.4501 10.9 31.5101 10.9 31.5801C10.9 32.4068 10.9 33.2334 10.9 34.0601C10.8906 34.1465 10.8906 34.2337 10.9 34.3201C10.9266 34.4393 10.9922 34.5463 11.0863 34.6242C11.1805 34.7021 11.2979 34.7464 11.42 34.7501C11.7903 34.7405 12.1495 34.877 12.42 35.1301C12.6045 35.2969 12.8055 35.4443 13.02 35.5701C13.4152 35.803 13.8697 35.9157 14.3279 35.8944C14.7861 35.873 15.2282 35.7187 15.6 35.4501C15.7542 35.3432 15.9011 35.2262 16.04 35.1001C16.1959 34.9519 16.3869 34.8457 16.595 34.7915C16.8031 34.7372 17.0216 34.7368 17.23 34.7901C17.3694 34.8273 17.5013 34.8882 17.62 34.9701C17.7831 35.085 17.94 35.2085 18.09 35.3401C18.5571 35.7351 19.1598 35.9324 19.77 35.8901C20.2103 35.88 20.638 35.7409 21 35.4901C21.17 35.3701 21.33 35.2401 21.48 35.1101C21.6373 34.9676 21.827 34.8657 22.0327 34.8134C22.2384 34.7611 22.4538 34.76 22.66 34.8101C22.8642 34.8659 23.0525 34.9687 23.21 35.1101C23.39 35.2601 23.57 35.4101 23.76 35.5401C24.1809 35.8058 24.6733 35.9357 25.1705 35.9125C25.6677 35.8892 26.1457 35.7139 26.54 35.4101L27 35.0001C27.1524 34.8818 27.3301 34.8004 27.5192 34.7622C27.7083 34.724 27.9037 34.7302 28.09 34.7801C28.2904 34.8327 28.4755 34.9321 28.63 35.0701C28.81 35.2101 28.98 35.3601 29.17 35.4901C29.5707 35.7592 30.0424 35.903 30.525 35.903C31.0077 35.903 31.4794 35.7592 31.88 35.4901L32.37 35.0901C32.5248 34.9576 32.709 34.864 32.9073 34.817C33.1056 34.7701 33.3122 34.7711 33.51 34.8201C33.6853 34.8403 33.8533 34.902 34 35.0001L34.43 35.3401C34.7401 35.5962 35.1093 35.7706 35.5041 35.8474C35.8988 35.9243 36.3065 35.9011 36.69 35.7801C36.9832 35.6929 37.2555 35.5466 37.49 35.3501L37.89 35.0201C38.1071 34.8415 38.3789 34.7427 38.66 34.7401C38.7422 34.7432 38.8242 34.7289 38.9004 34.6979C38.9767 34.6669 39.0455 34.6201 39.1022 34.5605C39.159 34.5009 39.2024 34.43 39.2296 34.3523C39.2568 34.2746 39.2672 34.1921 39.26 34.1101C39.26 33.2601 39.26 32.4101 39.26 31.5601V31.3501H40.9C40.89 31.5101 40.9 36.8001 40.86 37.0001Z" fill="white"/>
<path d="M26.18 26.8799C26.2199 27.1115 26.2199 27.3483 26.18 27.5799C26.148 27.6817 26.086 27.7715 26.0021 27.8375C25.9183 27.9035 25.8164 27.9427 25.71 27.9499H20C19.8618 27.9501 19.7288 27.8973 19.6284 27.8025C19.5279 27.7076 19.4676 27.5778 19.46 27.4399C19.46 27.2499 19.46 27.0599 19.46 26.8899H26.15L26.18 26.8799Z" fill="white"/>
<path d="M26.18 25.6899H19.43C19.3938 25.4546 19.3938 25.2151 19.43 24.9799C19.4545 24.8847 19.5064 24.7989 19.5793 24.7331C19.6522 24.6673 19.7429 24.6245 19.84 24.6099H20.1H25.61C25.7542 24.6098 25.8926 24.6664 25.9954 24.7674C26.0983 24.8684 26.1574 25.0057 26.16 25.1499C26.19 25.3099 26.18 25.4899 26.18 25.6899Z" fill="white"/>
<path d="M31.8701 26.8799C32.0101 26.8799 38.4401 26.8799 38.6201 26.8799C38.6411 27.096 38.6411 27.3137 38.6201 27.5299C38.5965 27.6452 38.5358 27.7495 38.4473 27.8272C38.3589 27.9048 38.2475 27.9514 38.1301 27.9599H32.3701C32.2357 27.9499 32.1098 27.89 32.0173 27.7919C31.9247 27.6938 31.8722 27.5647 31.8701 27.4299C31.8701 27.2399 31.8701 27.0599 31.8701 26.8799Z" fill="white"/>
<path d="M31.8701 25.6798C31.8701 25.4598 31.8701 25.2598 31.8701 25.0598C31.8811 24.9481 31.9279 24.8429 32.0036 24.7599C32.0793 24.677 32.1798 24.6208 32.2901 24.5998H32.5501H38.0001C38.0864 24.5885 38.1738 24.5885 38.2601 24.5998C38.3674 24.6232 38.4643 24.6806 38.5364 24.7635C38.6085 24.8463 38.6519 24.9503 38.6601 25.0598C38.6601 25.2598 38.6601 25.4598 38.6601 25.6698L31.8701 25.6798Z" fill="white"/>
<path d="M33 30.2102L33.27 29.8502L33.74 29.2202C33.763 29.1864 33.7945 29.1593 33.8314 29.1417C33.8683 29.1241 33.9093 29.1167 33.95 29.1202H36.5C36.5383 29.1164 36.5769 29.1227 36.612 29.1385C36.6471 29.1543 36.6774 29.179 36.7 29.2102L37.4 30.1502V30.2102C37.32 30.2302 33.36 30.2402 33 30.2102Z" fill="white"/>
<path d="M20.5701 30.2099L21.0501 29.5699L21.3201 29.2099C21.3382 29.1785 21.3645 29.1526 21.3962 29.135C21.4279 29.1174 21.4638 29.1087 21.5001 29.1099H24.1001C24.1329 29.1074 24.1658 29.1134 24.1956 29.1275C24.2255 29.1415 24.2511 29.163 24.2701 29.1899L24.9801 30.1399V30.2099H20.5701Z" fill="white"/>
<path d="M10.48 24.5898H14.74C14.7431 24.6298 14.7431 24.6699 14.74 24.7098C14.6234 24.9926 14.429 25.2367 14.1795 25.4136C13.93 25.5906 13.6354 25.6933 13.33 25.7098C12.8705 25.7395 12.4095 25.7395 11.95 25.7098C11.6532 25.6952 11.3662 25.5987 11.1209 25.431C10.8756 25.2633 10.6814 25.031 10.56 24.7598C10.5298 24.7049 10.5031 24.6481 10.48 24.5898Z" fill="white"/>
<path d="M10.48 26.8599H14.74C14.7431 26.9031 14.7431 26.9466 14.74 26.9899C14.6184 27.2772 14.4175 27.5239 14.1606 27.701C13.9038 27.8782 13.6018 27.9784 13.29 27.9899C12.8637 28.0141 12.4363 28.0141 12.01 27.9899C11.6996 27.9777 11.3992 27.8771 11.1441 27.6999C10.889 27.5228 10.6898 27.2764 10.57 26.9899L10.48 26.8599Z" fill="white"/>
<path d="M14.75 29.1402C14.5926 29.5462 14.2845 29.8758 13.89 30.0602C13.6779 30.163 13.4457 30.2176 13.21 30.2202C12.81 30.2202 12.41 30.2202 12.01 30.2202C11.7054 30.2166 11.4078 30.1287 11.1501 29.9663C10.8924 29.8039 10.6847 29.5734 10.55 29.3002C10.5273 29.2513 10.5073 29.2012 10.49 29.1502C10.61 29.1102 14.54 29.1002 14.75 29.1402Z" fill="white"/>
<path d="M40.8801 41.5202H39.8101C39.8101 41.3802 39.8101 38.3202 39.8101 38.1802H40.8801V41.5202Z" fill="white"/>
<path d="M10.48 22.3398H14.75C14.7298 22.3978 14.7064 22.4545 14.68 22.5098C14.5446 22.7796 14.3379 23.0071 14.0822 23.1676C13.8266 23.3281 13.5318 23.4153 13.23 23.4198C12.82 23.4198 12.41 23.4198 12 23.4198C11.7007 23.4155 11.4083 23.3294 11.1544 23.1707C10.9006 23.0121 10.695 22.787 10.56 22.5198C10.53 22.4698 10.51 22.4098 10.48 22.3398Z" fill="white"/>
<path d="M10.32 38.1802V41.5202H9.27002C9.27002 41.4102 9.27002 38.3902 9.27002 38.1802H10.32Z" fill="white"/>
<path d="M23.3499 23.4202H22.2499C22.2233 23.1909 22.2233 22.9594 22.2499 22.7302C22.282 22.6143 22.3512 22.5121 22.447 22.4394C22.5427 22.3666 22.6596 22.3271 22.7799 22.3271C22.9001 22.3271 23.0171 22.3666 23.1128 22.4394C23.2085 22.5121 23.2777 22.6143 23.3099 22.7302C23.3498 22.9579 23.3632 23.1894 23.3499 23.4202Z" fill="white"/>
<path d="M35.79 23.42H34.7C34.6635 23.1848 34.6635 22.9453 34.7 22.71C34.7369 22.5894 34.8155 22.486 34.9219 22.4181C35.0282 22.3503 35.1552 22.3226 35.28 22.34C35.4003 22.3463 35.5145 22.3949 35.6023 22.4773C35.6902 22.5596 35.746 22.6704 35.76 22.79C35.7814 22.9993 35.7914 23.2096 35.79 23.42Z" fill="white"/>
<path d="M9.76001 15.4899L9.84001 15.3499C10.26 14.7099 10.69 14.0799 11.11 13.4399C11.1407 13.3861 11.1863 13.3424 11.2413 13.314C11.2963 13.2856 11.3584 13.2737 11.42 13.2799H38.79C38.8225 13.278 38.8548 13.2855 38.8832 13.3015C38.9116 13.3174 38.9348 13.3412 38.95 13.3699L40.33 15.4399V15.4999H9.80001L9.76001 15.4899Z" fill="white"/>
<path d="M37.4899 11V12.05C37.3399 12.05 12.7899 12.05 12.6399 12.05V11.05H37.4299L37.4899 11Z" fill="white"/>
<path d="M30.8601 16.6802H34.0001C33.8863 16.9999 33.6761 17.2765 33.3985 17.4717C33.1208 17.6669 32.7895 17.7712 32.4501 17.7702C32.103 17.7844 31.7605 17.6859 31.4739 17.4894C31.1874 17.293 30.972 17.0091 30.8601 16.6802Z" fill="white"/>
<path d="M23.51 16.6802H26.62C26.514 16.9912 26.3154 17.2623 26.0508 17.4571C25.7863 17.652 25.4685 17.7612 25.14 17.7702C24.7872 17.7883 24.4379 17.692 24.1442 17.4956C23.8505 17.2992 23.628 17.0132 23.51 16.6802Z" fill="white"/>
<path d="M19.2599 16.6802C19.1439 16.998 18.933 17.2725 18.6557 17.4665C18.3785 17.6605 18.0483 17.7645 17.7099 17.7645C17.3715 17.7645 17.0414 17.6605 16.7641 17.4665C16.4868 17.2725 16.2759 16.998 16.1599 16.6802H19.2599Z" fill="white"/>
</svg>
