<?xml version="1.0" encoding="utf-8"?>
<!-- Generator: Adobe Illustrator 21.0.0, SVG Export Plug-In . SVG Version: 6.00 Build 0)  -->
<svg version="1.1" id="Слой_1" xmlns="http://www.w3.org/2000/svg" xmlns:xlink="http://www.w3.org/1999/xlink" x="0px" y="0px"
	 viewBox="0 0 50 50" style="enable-background:new 0 0 50 50;" xml:space="preserve">
<style type="text/css">
	.st0{fill:#FFFFFF;}
</style>
<path class="st0" d="M8.1,30.2h1.6c0,0,0-0.1-0.1-0.1c-0.3-0.5-0.5-1-0.5-1.6c0-0.1,0-0.3,0-0.4c0-0.1,0-0.1,0-0.2h0.5
	c0,0,0-0.1-0.1-0.1c-0.3-0.5-0.5-1.1-0.5-1.6c0-0.2,0-0.3,0-0.5h0.6c-0.2-0.3-0.4-0.7-0.5-1.1c-0.1-0.4-0.1-0.8-0.1-1.2h0.5
	c0,0,0-0.1-0.1-0.1c-0.3-0.5-0.5-1.1-0.5-1.6c0-0.2,0-0.3,0-0.5c0-0.2,6.5,0,6.8,0c0.1,0.4,0,0.8,0,1.2c-0.1,0.4-0.3,0.8-0.5,1.1H16
	c0.1,0.8-0.1,1.6-0.5,2.3H16c0.1,0.4,0,0.8,0,1.2c-0.1,0.4-0.3,0.7-0.5,1.1c0.2,0,0.4,0,0.5,0c0.1,0.8-0.1,1.6-0.5,2.2h0.1H19
	c0,0,0.1,0,0.1,0c0,0,0.1,0,0.1-0.1l0.7-1h-0.1c-0.4,0-0.8-0.2-1.1-0.5c-0.3-0.3-0.5-0.7-0.5-1.1c0-0.2,0-0.4,0-0.6
	c-0.4,0-0.7,0-1.1,0c0-0.4,0-0.8,0-1.1c0.4,0,0.7,0,1.1,0c0-0.1,0-0.1,0-0.2c0-0.2,0-0.5,0-0.7c0.1-0.4,0.3-0.7,0.6-1
	c0.3-0.3,0.7-0.4,1.1-0.4H21c0-0.1,0-0.1,0-0.2c0-0.2,0-0.5,0-0.7c0.1-0.4,0.3-0.8,0.7-1c0.3-0.2,0.8-0.4,1.2-0.3
	c0.4,0,0.8,0.2,1.1,0.6c0.3,0.3,0.4,0.7,0.4,1.1c0,0.2,0,0.4,0,0.6h1.1c0.4,0,0.8,0.1,1.1,0.4c0.3,0.2,0.5,0.6,0.6,1
	c0,0.2,0.1,0.4,0,0.6c0,0.1,0,0.2,0,0.3h1.1c0,0.4,0,0.8,0,1.1c-0.2,0-0.4,0-0.6,0h-0.6c0,0.2,0,0.4,0,0.5c0,0.3-0.1,0.6-0.3,0.9
	c-0.1,0.2-0.3,0.4-0.5,0.6c-0.2,0.1-0.5,0.2-0.7,0.3h-0.1l0.1,0.1l0.7,0.9c0,0,0.1,0.1,0.1,0.1c0,0,0.1,0,0.1,0h4.8c0,0,0.1,0,0.1,0
	c0,0,0.1,0,0.1-0.1l0.7-1c0,0,0,0,0-0.1h-0.2c-0.4-0.1-0.7-0.2-1-0.5c-0.3-0.3-0.4-0.6-0.5-1c0-0.2,0-0.4,0-0.5c0-0.2,0-0.1,0-0.2
	h-1.1v-1.1h1.1c0-0.2,0-0.4,0-0.6c0-0.2,0.1-0.5,0.2-0.7c0.1-0.3,0.3-0.6,0.6-0.7c0.3-0.2,0.6-0.3,0.9-0.3c0.3,0,0.6,0,1,0h0.2
	c0-0.2,0-0.4,0-0.5c0-0.4,0.1-0.8,0.4-1.1c0.3-0.3,0.6-0.5,1.1-0.6c0.2,0,0.5,0,0.7,0.1c0.2,0.1,0.4,0.2,0.6,0.3
	c0.2,0.2,0.3,0.4,0.4,0.6s0.2,0.5,0.2,0.7c0,0.1,0,0.3,0,0.4c0,0.1,0,0.1,0,0.2H38c0.4,0,0.9,0.2,1.2,0.5c0.3,0.3,0.5,0.7,0.5,1.2
	c0,0.2,0,0.3,0,0.5s0,0.1,0,0.2h1.1c0,0.4,0,0.8,0,1.1h-1c0,0.1,0,0.1,0,0.2c0,0.2,0,0.5,0,0.7c-0.1,0.4-0.3,0.7-0.5,0.9
	c-0.3,0.2-0.6,0.4-1,0.4h-0.1c0,0,0,0.1,0,0.1l0.7,0.9c0,0,0.1,0.1,0.1,0.1c0,0,0.1,0,0.1,0h3v12.5c-0.1,0-3.2,0-3.4,0
	c0-0.4,0-0.7,0-1.1s0-0.8,0-1.1v-1.1c0-0.4,0-0.7,0-1.1H11.5v4.5h-0.2H8.1C8.1,42.5,8.1,30.4,8.1,30.2z M38,31.4H12v2.3
	c0.4,0.1,0.7,0.3,1,0.5l0.3,0.3c0.2,0.2,0.5,0.3,0.8,0.3s0.6-0.1,0.8-0.3l0.4-0.3c0.4-0.3,1-0.5,1.5-0.5c0.5,0,1.1,0.2,1.5,0.5
	l0.4,0.4c0.2,0.2,0.5,0.3,0.8,0.3s0.6-0.1,0.8-0.3l0.5-0.4c0.4-0.3,0.9-0.4,1.4-0.4c0.5,0,1,0.2,1.4,0.4c0.2,0.1,0.4,0.3,0.6,0.4
	c0.2,0.2,0.5,0.3,0.8,0.3c0.3,0,0.6-0.1,0.8-0.3l0.4-0.3c0.4-0.3,1-0.5,1.5-0.5c0.5,0,1.1,0.2,1.5,0.5l0.4,0.3
	c0.2,0.2,0.5,0.3,0.8,0.3s0.6-0.1,0.8-0.3l0.4-0.4c0.3-0.2,0.6-0.4,1-0.5c0.4-0.1,0.7-0.1,1.1,0c0.4,0.1,0.7,0.3,1,0.5
	c0.1,0.1,0.3,0.2,0.4,0.3c0.2,0.2,0.5,0.2,0.7,0.2s0.5-0.1,0.7-0.2l0.3-0.2c0.3-0.3,0.7-0.5,1.1-0.6L38,31.4z M40.9,37
	c0-0.2,0-5.5,0-5.6h-1.6v0.2c0,0.8,0,1.7,0,2.5c0,0.1,0,0.2,0,0.2c0,0.1-0.1,0.1-0.1,0.2c-0.1,0.1-0.1,0.1-0.2,0.1
	c-0.1,0-0.2,0-0.2,0c-0.3,0-0.6,0.1-0.8,0.3l-0.4,0.3c-0.2,0.2-0.5,0.3-0.8,0.4c-0.4,0.1-0.8,0.1-1.2,0.1c-0.4-0.1-0.8-0.3-1.1-0.5
	L34,35c-0.1-0.1-0.3-0.2-0.5-0.2c-0.2,0-0.4-0.1-0.6,0s-0.4,0.1-0.5,0.3l-0.5,0.4c-0.4,0.3-0.9,0.4-1.4,0.4c-0.5,0-1-0.1-1.4-0.4
	c-0.2-0.1-0.4-0.3-0.5-0.4c-0.2-0.1-0.3-0.2-0.5-0.3c-0.2-0.1-0.4-0.1-0.6,0c-0.2,0-0.4,0.1-0.5,0.3l-0.5,0.4
	c-0.4,0.3-0.9,0.5-1.4,0.5c-0.5,0-1-0.1-1.4-0.4c-0.2-0.1-0.4-0.3-0.6-0.4c-0.2-0.1-0.3-0.2-0.5-0.3c-0.2-0.1-0.4,0-0.6,0
	c-0.2,0.1-0.4,0.2-0.6,0.3c-0.2,0.1-0.3,0.3-0.5,0.4c-0.4,0.3-0.8,0.4-1.2,0.4c-0.6,0-1.2-0.2-1.7-0.5c-0.2-0.1-0.3-0.3-0.5-0.4
	c-0.1-0.1-0.3-0.1-0.4-0.2c-0.2-0.1-0.4-0.1-0.6,0c-0.2,0.1-0.4,0.2-0.6,0.3c-0.1,0.1-0.3,0.2-0.4,0.3c-0.4,0.3-0.8,0.4-1.3,0.4
	c-0.5,0-0.9-0.1-1.3-0.3c-0.2-0.1-0.4-0.3-0.6-0.4c-0.3-0.3-0.6-0.4-1-0.4c-0.1,0-0.2,0-0.3-0.1c-0.1-0.1-0.2-0.2-0.2-0.3
	c0-0.1,0-0.2,0-0.3c0-0.8,0-1.7,0-2.5c0-0.1,0-0.1,0-0.2H9.2c0,0.2,0,5.5,0,5.6L40.9,37z M26.2,26.9h-6.7c0,0.2,0,0.4,0,0.6
	c0,0.1,0,0.2,0,0.2c0,0.1,0.1,0.1,0.1,0.2c0.1,0.1,0.1,0.1,0.2,0.1c0.1,0,0.1,0,0.2,0h5.7c0.1,0,0.2,0,0.3-0.1
	c0.1-0.1,0.1-0.2,0.2-0.3C26.2,27.4,26.2,27.1,26.2,26.9z M26.2,25.7c0-0.2,0-0.4,0-0.6c0-0.1-0.1-0.3-0.2-0.4
	c-0.1-0.1-0.2-0.2-0.4-0.2h-5.5h-0.3c-0.1,0-0.2,0.1-0.3,0.1c-0.1,0.1-0.1,0.2-0.1,0.2c0,0.2,0,0.5,0,0.7L26.2,25.7z M31.9,26.9
	c0,0.2,0,0.4,0,0.5c0,0.1,0.1,0.3,0.1,0.4c0.1,0.1,0.2,0.2,0.4,0.2h5.7c0.1,0,0.2-0.1,0.3-0.1c0.1-0.1,0.1-0.2,0.2-0.3
	c0-0.2,0-0.4,0-0.6C38.4,26.8,32,26.8,31.9,26.9z M31.9,25.7h6.8c0-0.2,0-0.4,0-0.6c0-0.1-0.1-0.2-0.1-0.3c-0.1-0.1-0.2-0.1-0.3-0.2
	c-0.1,0-0.2,0-0.3,0h-5.4h-0.3c-0.1,0-0.2,0.1-0.3,0.2c-0.1,0.1-0.1,0.2-0.1,0.3C31.9,25.3,31.9,25.5,31.9,25.7L31.9,25.7z M33,30.2
	c0.3,0,4.3,0,4.4,0v-0.1l-0.7-0.9c0,0-0.1-0.1-0.1-0.1s-0.1,0-0.1,0H34c0,0-0.1,0-0.1,0c0,0-0.1,0-0.1,0.1l-0.5,0.6L33,30.2z
	 M20.5,30.2H25v-0.1l-0.7-0.9c0,0,0,0-0.1-0.1s-0.1,0-0.1,0h-2.6c0,0-0.1,0-0.1,0c0,0-0.1,0-0.1,0.1L21,29.6L20.5,30.2z M10.5,24.6
	c0,0,0,0.1,0,0.1c0.1,0.3,0.3,0.5,0.6,0.7c0.2,0.2,0.5,0.3,0.8,0.3c0.5,0,0.9,0,1.4,0c0.3,0,0.6-0.1,0.8-0.3
	c0.2-0.2,0.4-0.4,0.6-0.7c0,0,0-0.1,0-0.1L10.5,24.6z M10.5,26.9l0,0.1c0.1,0.3,0.3,0.5,0.6,0.7c0.3,0.2,0.6,0.3,0.9,0.3
	c0.4,0,0.9,0,1.3,0c0.3,0,0.6-0.1,0.9-0.3c0.3-0.2,0.5-0.4,0.6-0.7c0,0,0-0.1,0-0.1H10.5z M14.7,29.1c-0.2,0-4.1,0-4.3,0
	c0,0.1,0,0.1,0.1,0.2c0.1,0.3,0.3,0.5,0.6,0.7c0.3,0.2,0.6,0.3,0.9,0.3c0.4,0,0.8,0,1.2,0c0.2,0,0.5-0.1,0.7-0.2
	C14.3,29.9,14.6,29.5,14.7,29.1z M40.9,41.5v-3.3h-1.1c0,0.1,0,3.2,0,3.3H40.9z M10.5,22.3c0,0.1,0,0.1,0.1,0.2
	c0.1,0.3,0.3,0.5,0.6,0.7c0.3,0.2,0.5,0.2,0.8,0.2c0.4,0,0.8,0,1.2,0c0.3,0,0.6-0.1,0.9-0.3c0.3-0.2,0.5-0.4,0.6-0.7
	c0-0.1,0-0.1,0.1-0.2L10.5,22.3z M10.3,38.2H9.3c0,0.2,0,3.2,0,3.3h1.1L10.3,38.2z M23.3,23.4c0-0.2,0-0.4,0-0.7
	c0-0.1-0.1-0.2-0.2-0.3c-0.1-0.1-0.2-0.1-0.3-0.1s-0.2,0-0.3,0.1c-0.1,0.1-0.2,0.2-0.2,0.3c0,0.2,0,0.5,0,0.7L23.3,23.4z M35.8,23.4
	c0-0.2,0-0.4,0-0.6c0-0.1-0.1-0.2-0.2-0.3c-0.1-0.1-0.2-0.1-0.3-0.1c-0.1,0-0.3,0-0.4,0.1s-0.2,0.2-0.2,0.3c0,0.2,0,0.5,0,0.7H35.8z
	"/>
<path class="st0" d="M22.3,16.7h-1.8c-0.1,0.6-0.5,1.2-1,1.6c-0.5,0.4-1.1,0.6-1.8,0.6s-1.3-0.2-1.8-0.6c-0.5-0.4-0.9-1-1-1.6H8.8
	c-0.1,0-0.2,0-0.2,0c-0.1,0-0.2-0.1-0.2-0.1c-0.1-0.1-0.1-0.1-0.2-0.2c0-0.1-0.1-0.2-0.1-0.3s0-0.2,0.1-0.3c0,0,0.1-0.1,0.1-0.1
	l2.2-3.2c0.1-0.1,0.1-0.1,0.2-0.2c0.1-0.1,0.2-0.1,0.4-0.1h0.5V9.8h5.7V8.7h1.1v1.1c0.1,0,13.3,0.1,13.6,0V8.7H33c0,0.4,0,0.7,0,1.1
	h5.6v2.3h0.2h0.4c0.1,0,0.2,0,0.3,0.1c0.1,0,0.2,0.1,0.2,0.2l0.3,0.5l1.9,2.8c0.1,0.1,0.1,0.3,0.1,0.4c0,0.1-0.1,0.3-0.1,0.4
	c-0.1,0.1-0.2,0.2-0.4,0.2h-6.3c-0.1,0.6-0.5,1.2-1,1.6c-0.5,0.4-1.1,0.6-1.8,0.6c-0.7,0-1.3-0.2-1.8-0.6c-0.5-0.4-0.9-1-1-1.6h-1.8
	c-0.1,0.6-0.5,1.2-1,1.6c-0.5,0.4-1.1,0.6-1.8,0.6c-0.6,0-1.3-0.2-1.8-0.6C22.8,17.9,22.4,17.3,22.3,16.7L22.3,16.7z M9.8,15.5h30.6
	v-0.1L39,13.4c0,0,0-0.1-0.1-0.1c0,0-0.1,0-0.1,0H11.4c-0.1,0-0.1,0-0.2,0c-0.1,0-0.1,0.1-0.1,0.1c-0.4,0.6-0.9,1.3-1.3,1.9
	L9.8,15.5z M37.5,11L37.5,11H12.7v1c0.1,0,24.7,0,24.8,0L37.5,11z M30.9,16.6c0.1,0.3,0.3,0.6,0.6,0.8c0.3,0.2,0.6,0.3,1,0.3
	c0.3,0,0.7-0.1,1-0.3c0.3-0.2,0.5-0.5,0.6-0.8L30.9,16.6z M23.5,16.6c0.1,0.3,0.3,0.6,0.6,0.8s0.6,0.3,1,0.3c0.3,0,0.6-0.1,0.9-0.3
	c0.3-0.2,0.5-0.5,0.6-0.8H23.5z M19.3,16.6h-3.1c0.1,0.3,0.3,0.6,0.6,0.8c0.3,0.2,0.6,0.3,0.9,0.3c0.3,0,0.7-0.1,0.9-0.3
	C18.9,17.2,19.1,17,19.3,16.6z"/>
</svg>
