<svg width="50" height="50" viewBox="0 0 50 50" fill="none" xmlns="http://www.w3.org/2000/svg">
<path d="M28.74 43.6503V45.0003H26.8C26.7568 45.0047 26.7134 44.9942 26.677 44.9706C26.6406 44.9469 26.6134 44.9115 26.6 44.8703L26.12 43.8103L26.05 43.6603H11.21L10.6 45.0003H8.51996V43.6503H8.25996C7.83222 43.5903 7.44031 43.3785 7.15575 43.0536C6.8712 42.7286 6.71297 42.3122 6.70996 41.8803C6.70996 37.6336 6.70996 33.3836 6.70996 29.1303C6.7196 28.713 6.87642 28.3125 7.15273 27.9996C7.42903 27.6867 7.80704 27.4815 8.21996 27.4203H8.64996H28.74C29.1549 27.4041 29.5623 27.5351 29.89 27.7903C30.089 27.9465 30.2506 28.1452 30.363 28.3718C30.4755 28.5985 30.5359 28.8473 30.54 29.1003C30.54 29.2003 30.54 29.3003 30.54 29.4003C30.54 33.527 30.54 37.6536 30.54 41.7803C30.5519 42.0689 30.4971 42.3563 30.38 42.6203C30.2465 42.9182 30.0346 43.1742 29.7668 43.3609C29.4991 43.5476 29.1856 43.658 28.86 43.6803L28.74 43.6503ZM16.74 40.9303H23.47C23.6011 40.9203 23.7256 40.8681 23.8247 40.7816C23.9238 40.6951 23.9923 40.5789 24.02 40.4503C24.0277 40.3671 24.0277 40.2834 24.02 40.2003C24.02 37.067 24.02 33.9336 24.02 30.8003C24.02 30.8003 24.02 30.7003 24.02 30.6503C24.0142 30.5156 23.964 30.3866 23.8771 30.2835C23.7903 30.1803 23.6717 30.1089 23.54 30.0803C23.4635 30.0728 23.3864 30.0728 23.31 30.0803H9.99996C9.85429 30.0818 9.71474 30.1391 9.60996 30.2403C9.53678 30.3088 9.47992 30.393 9.44357 30.4864C9.40723 30.5799 9.39232 30.6803 9.39996 30.7803C9.39996 33.927 9.39996 37.077 9.39996 40.2303C9.39996 40.2303 9.39996 40.3203 9.39996 40.3603C9.40847 40.5162 9.47648 40.663 9.58996 40.7703C9.65256 40.8292 9.72655 40.8747 9.80738 40.9039C9.88821 40.9331 9.97417 40.9455 10.06 40.9403L16.74 40.9303ZM27.15 30.7303C26.8307 30.7222 26.5212 30.8407 26.2889 31.0598C26.0566 31.279 25.9204 31.5811 25.91 31.9003C25.9018 32.2232 26.021 32.5363 26.2418 32.7721C26.4626 33.0078 26.7672 33.1473 27.09 33.1603C27.2498 33.1712 27.4103 33.1494 27.5615 33.0962C27.7126 33.0431 27.8514 32.9597 27.9693 32.8511C28.0872 32.7426 28.1818 32.6112 28.2472 32.4649C28.3127 32.3186 28.3476 32.1605 28.35 32.0003C28.3581 31.8373 28.3331 31.6743 28.2765 31.5211C28.22 31.368 28.1331 31.2279 28.0209 31.1092C27.9088 30.9906 27.7739 30.8959 27.6242 30.8307C27.4745 30.7656 27.3132 30.7314 27.15 30.7303ZM27.15 36.9003C27.3058 36.9056 27.4611 36.88 27.6069 36.825C27.7528 36.77 27.8863 36.6866 27.9997 36.5796C28.1132 36.4727 28.2043 36.3444 28.2678 36.202C28.3314 36.0597 28.3661 35.9061 28.37 35.7503C28.3795 35.5856 28.3553 35.4207 28.2988 35.2657C28.2422 35.1107 28.1546 34.9689 28.0413 34.8491C27.928 34.7292 27.7913 34.6337 27.6398 34.5686C27.4882 34.5035 27.3249 34.47 27.16 34.4703C26.9911 34.455 26.821 34.475 26.6603 34.5291C26.4997 34.5832 26.3521 34.6701 26.2269 34.7845C26.1017 34.8988 26.0017 35.0379 25.9333 35.193C25.8649 35.3481 25.8296 35.5158 25.8296 35.6853C25.8296 35.8548 25.8649 36.0225 25.9333 36.1776C26.0017 36.3327 26.1017 36.4718 26.2269 36.5861C26.3521 36.7004 26.4997 36.7874 26.6603 36.8415C26.821 36.8956 26.9911 36.9156 27.16 36.9003H27.15ZM27.1 40.6403C27.4141 40.6623 27.7242 40.5589 27.9622 40.3527C28.2003 40.1465 28.3469 39.8544 28.37 39.5403C28.3937 39.2975 28.3441 39.0531 28.2275 38.8388C28.111 38.6244 27.9328 38.4499 27.7161 38.3379C27.4994 38.2258 27.2541 38.1813 27.0118 38.2101C26.7695 38.2389 26.5414 38.3396 26.357 38.4994C26.1726 38.6591 26.0403 38.8705 25.9772 39.1062C25.9142 39.3419 25.9232 39.591 26.0032 39.8215C26.0832 40.052 26.2304 40.2533 26.4259 40.3992C26.6215 40.5452 26.8562 40.6291 27.1 40.6403Z" fill="white"/>
<path d="M40.8999 11.46H44.2599C44.2599 11.59 44.2599 25.17 44.2599 25.39C44.1399 25.39 22.3099 25.39 22.1299 25.39V11.46H25.5199C25.5199 13.23 25.5199 14.99 25.5199 16.75C25.5199 18.51 25.5199 20.26 25.5199 22.02H40.8999V11.46Z" fill="white"/>
<path d="M22.1399 10.5002V6.17018H24.7799V5.71018C24.9299 5.71018 30.3799 5.71018 30.5699 5.71018V6.11018H35.7999V5.68018C35.9499 5.68018 41.3999 5.68018 41.5799 5.68018V6.12018H44.1999C44.1999 6.29018 44.1999 10.3202 44.1999 10.4702L22.1399 10.5002ZM27.6699 8.10018C27.5295 8.10217 27.3928 8.14575 27.2772 8.22541C27.1616 8.30506 27.0721 8.41722 27.0202 8.5477C26.9683 8.67817 26.9563 8.82111 26.9856 8.95843C27.015 9.09575 27.0844 9.22129 27.185 9.31917C27.2857 9.41705 27.4132 9.48288 27.5513 9.50834C27.6893 9.5338 27.8319 9.51773 27.9608 9.46218C28.0898 9.40663 28.1994 9.31409 28.2758 9.19625C28.3521 9.07842 28.3919 8.94058 28.3899 8.80018C28.3847 8.61362 28.3062 8.43662 28.1714 8.30749C28.0367 8.17836 27.8565 8.10747 27.6699 8.11018V8.10018ZM30.4499 8.10018C30.3095 8.09821 30.1717 8.13793 30.0538 8.21429C29.936 8.29066 29.8434 8.40026 29.7879 8.52922C29.7323 8.65819 29.7163 8.80073 29.7417 8.93882C29.7672 9.07691 29.833 9.20435 29.9309 9.30503C30.0288 9.40571 30.1543 9.47511 30.2916 9.50444C30.429 9.53378 30.5719 9.52173 30.7024 9.46984C30.8328 9.41794 30.945 9.32852 31.0247 9.21288C31.1043 9.09724 31.1479 8.96058 31.1499 8.82018C31.1499 8.63359 31.0765 8.4545 30.9455 8.32163C30.8145 8.18877 30.6365 8.1128 30.4499 8.11018V8.10018ZM33.1999 8.10018C33.0595 8.10217 32.9228 8.14575 32.8072 8.22541C32.6916 8.30506 32.6021 8.41722 32.5502 8.5477C32.4983 8.67817 32.4863 8.82111 32.5156 8.95843C32.545 9.09575 32.6144 9.22129 32.715 9.31917C32.8157 9.41705 32.9432 9.48288 33.0813 9.50834C33.2193 9.5338 33.3619 9.51773 33.4908 9.46218C33.6198 9.40663 33.7294 9.31409 33.8058 9.19625C33.8821 9.07842 33.9219 8.94058 33.9199 8.80018C33.9147 8.61362 33.8362 8.43662 33.7014 8.30749C33.5667 8.17836 33.3865 8.10747 33.1999 8.11018V8.10018ZM38.0399 8.80018C38.028 8.89981 38.0374 9.00083 38.0674 9.09657C38.0974 9.19232 38.1473 9.28062 38.2139 9.35566C38.2806 9.43069 38.3623 9.49076 38.4538 9.53189C38.5454 9.57302 38.6446 9.59429 38.7449 9.59429C38.8452 9.59429 38.9444 9.57302 39.0359 9.53189C39.1275 9.49076 39.2092 9.43069 39.2758 9.35566C39.3425 9.28062 39.3924 9.19232 39.4224 9.09657C39.4524 9.00083 39.4618 8.89981 39.4499 8.80018C39.4474 8.61437 39.3731 8.43673 39.2427 8.30441C39.1122 8.17208 38.9356 8.09532 38.7499 8.09018C38.6525 8.08467 38.555 8.09929 38.4635 8.13313C38.372 8.16697 38.2885 8.2193 38.2181 8.28686C38.1477 8.35442 38.092 8.43575 38.0545 8.52579C38.017 8.61583 37.9984 8.71264 37.9999 8.81018L38.0399 8.80018ZM35.2699 8.80018C35.258 8.89981 35.2674 9.00083 35.2974 9.09657C35.3274 9.19232 35.3773 9.28062 35.4439 9.35566C35.5106 9.43069 35.5923 9.49076 35.6838 9.53189C35.7754 9.57302 35.8746 9.59429 35.9749 9.59429C36.0752 9.59429 36.1744 9.57302 36.2659 9.53189C36.3575 9.49076 36.4392 9.43069 36.5058 9.35566C36.5725 9.28062 36.6224 9.19232 36.6524 9.09657C36.6824 9.00083 36.6918 8.89981 36.6799 8.80018C36.6774 8.61437 36.6031 8.43673 36.4727 8.30441C36.3422 8.17208 36.1656 8.09532 35.9799 8.09018C35.8858 8.09017 35.7927 8.10886 35.7059 8.14516C35.6191 8.18147 35.5403 8.23466 35.4743 8.30165C35.4082 8.36865 35.3561 8.4481 35.321 8.5354C35.286 8.6227 35.2686 8.7161 35.2699 8.81018V8.80018Z" fill="white"/>
<path d="M33.94 19.8201C33.7242 19.8759 33.499 19.8848 33.2795 19.8462C33.0599 19.8076 32.8512 19.7224 32.6674 19.5964C32.4836 19.4704 32.3289 19.3064 32.2138 19.1156C32.0986 18.9248 32.0257 18.7115 32 18.4901C31.9602 17.9763 32.0604 17.4614 32.29 17.0001C32.48 16.5601 32.7 16.1401 32.91 15.7101C33.0033 15.5234 33.09 15.3301 33.17 15.1301C33.2397 14.9827 33.2627 14.8175 33.2359 14.6566C33.2091 14.4958 33.1337 14.3469 33.02 14.2301C32.89 14.0801 32.75 13.9501 32.62 13.8101L32.49 13.6701H32.56C32.9199 13.6298 33.284 13.6923 33.61 13.8501C33.8049 13.9473 33.9748 14.0881 34.1065 14.2615C34.2383 14.4349 34.3285 14.6363 34.37 14.8501C34.4589 15.208 34.4589 15.5822 34.37 15.9401C34.2233 16.4406 34.0221 16.9235 33.77 17.3801L33.34 18.2401C33.2376 18.4176 33.1997 18.6249 33.2325 18.8271C33.2653 19.0293 33.3668 19.2141 33.52 19.3501L33.85 19.6801L33.94 19.8201Z" fill="white"/>
<path d="M30.3399 19.8202C30.168 19.8515 29.9919 19.8515 29.8199 19.8202C29.5406 19.8069 29.2709 19.7143 29.0424 19.5531C28.8139 19.3919 28.6361 19.1689 28.5299 18.9102C28.4 18.5938 28.3619 18.2473 28.4199 17.9102C28.4844 17.4605 28.6229 17.0246 28.8299 16.6202C28.9999 16.2702 29.1799 15.9302 29.3499 15.6202C29.4447 15.4183 29.5282 15.2114 29.5999 15.0002C29.6353 14.8999 29.6446 14.7923 29.6271 14.6873C29.6097 14.5824 29.5659 14.4836 29.4999 14.4002C29.3599 14.2202 29.1999 14.0502 29.0399 13.8802L28.8699 13.7102H28.9499C29.261 13.6765 29.5756 13.7142 29.8699 13.8202C30.1105 13.9102 30.3222 14.0637 30.4825 14.2644C30.6428 14.4652 30.7455 14.7056 30.7799 14.9602C30.8558 15.4677 30.7793 15.9863 30.5599 16.4502C30.3899 16.8602 30.1799 17.2602 29.9799 17.6702C29.8799 17.8702 29.7799 18.0702 29.6899 18.2702C29.6516 18.3607 29.6215 18.4544 29.5999 18.5502C29.5689 18.6511 29.5617 18.7579 29.5791 18.862C29.5965 18.9662 29.6378 19.0648 29.6999 19.1502C29.8299 19.3202 29.9799 19.4802 30.1199 19.6402L30.3399 19.8202Z" fill="white"/>
<path d="M36.1201 13.6602C36.2601 13.6602 36.3901 13.6602 36.5301 13.6602C36.9025 13.6778 37.2567 13.8265 37.5301 14.0802C37.7 14.2483 37.8304 14.4523 37.9117 14.6771C37.993 14.902 38.0232 15.1422 38.0001 15.3802C37.9631 15.8183 37.8444 16.2457 37.6501 16.6402C37.4601 17.0502 37.2501 17.4402 37.0501 17.8502C36.9269 18.0739 36.8328 18.3125 36.7701 18.5602C36.7481 18.6467 36.7447 18.7369 36.7602 18.8248C36.7758 18.9128 36.8098 18.9964 36.8601 19.0702C36.9852 19.2368 37.1187 19.397 37.2601 19.5502L37.5201 19.8102C37.3349 19.8433 37.1453 19.8433 36.9601 19.8102C36.686 19.7914 36.4227 19.6961 36.2 19.5353C35.9773 19.3745 35.8041 19.1544 35.7001 18.9002C35.5756 18.5823 35.541 18.2364 35.6001 17.9002C35.68 17.447 35.8284 17.0087 36.0401 16.6002C36.1901 16.3002 36.3501 16.0002 36.5001 15.6902C36.6501 15.3802 36.6801 15.2902 36.7601 15.0802C36.812 14.9564 36.8282 14.8206 36.807 14.688C36.7858 14.5555 36.728 14.4316 36.6401 14.3302C36.5001 14.1502 36.3401 13.9902 36.1801 13.8302L36.0601 13.7002L36.1201 13.6602Z" fill="white"/>
<path d="M22.63 26.3701H26C26 26.6901 26 27.0001 26 27.3101C25.86 27.3101 22.88 27.3101 22.64 27.3101C22.6012 26.9982 22.5978 26.6828 22.63 26.3701Z" fill="white"/>
<path d="M40.4299 27.3201V26.3901C40.5599 26.3901 43.6099 26.3901 43.7999 26.3901V27.3201C43.6699 27.3501 40.6199 27.3501 40.4299 27.3201Z" fill="white"/>
<path d="M13 32.1401H13.66C13.7037 32.3445 13.7037 32.5558 13.66 32.7601C13.604 32.9921 13.5305 33.2194 13.44 33.4401C13.3439 33.6691 13.2865 33.9124 13.27 34.1601C13.2352 34.5995 13.3144 35.0404 13.5 35.4401C13.6618 35.8256 13.7336 36.2428 13.71 36.6601C13.707 37.0332 13.6358 37.4026 13.5 37.7501C13.3596 38.066 13.2782 38.4049 13.26 38.7501C13.262 38.7801 13.262 38.8102 13.26 38.8401H12.6C12.5815 38.684 12.5815 38.5263 12.6 38.3701C12.6315 38.1065 12.7058 37.8498 12.82 37.6101C13.008 37.1937 13.0705 36.7315 13 36.2801C12.977 36.0592 12.9196 35.8433 12.83 35.6401C12.646 35.235 12.5508 34.7951 12.5508 34.3501C12.5508 33.9051 12.646 33.4653 12.83 33.0601C12.9297 32.8359 12.9873 32.5952 13 32.3501C13 32.2901 13 32.2201 13 32.1401Z" fill="white"/>
<path d="M20.2299 32.1401H20.8899C20.8899 32.2101 20.8899 32.2801 20.8899 32.3401C20.8728 32.7177 20.781 33.0882 20.6199 33.4301C20.4593 33.7979 20.3973 34.2011 20.4399 34.6001C20.4625 34.8706 20.5336 35.1349 20.6499 35.3801C20.8521 35.8631 20.9278 36.3897 20.8699 36.9101C20.8383 37.235 20.7538 37.5525 20.6199 37.8501C20.5042 38.1192 20.4397 38.4074 20.4299 38.7001C20.4299 38.7001 20.4299 38.7501 20.4299 38.7901H19.7599C19.7568 38.7302 19.7568 38.6701 19.7599 38.6101C19.7817 38.2655 19.8629 37.9272 19.9999 37.6101C20.1457 37.2969 20.2212 36.9556 20.2212 36.6101C20.2212 36.2647 20.1457 35.9234 19.9999 35.6101C19.8294 35.2207 19.7415 34.8002 19.7415 34.3751C19.7415 33.95 19.8294 33.5296 19.9999 33.1401C20.1225 32.8553 20.1903 32.55 20.1999 32.2401C20.1999 32.2401 20.2299 32.1801 20.2299 32.1401Z" fill="white"/>
<path d="M16.6099 32.1401H17.2599C17.288 32.2955 17.288 32.4547 17.2599 32.6101C17.2229 32.8867 17.1454 33.1562 17.0299 33.4101C16.8934 33.7118 16.8229 34.0391 16.8229 34.3701C16.8229 34.7012 16.8934 35.0285 17.0299 35.3301C17.2955 35.9623 17.3549 36.6622 17.1999 37.3301C17.1593 37.4986 17.1023 37.6627 17.0299 37.8201C16.9069 38.1013 16.839 38.4034 16.8299 38.7101C16.8312 38.7368 16.8312 38.7635 16.8299 38.7901H16.1799C16.1526 38.6751 16.1526 38.5552 16.1799 38.4401C16.2073 38.1361 16.285 37.8387 16.4099 37.5601C16.5469 37.2586 16.6178 36.9313 16.6178 36.6001C16.6178 36.269 16.5469 35.9416 16.4099 35.6401C16.1222 34.9671 16.0693 34.2168 16.2599 33.5101C16.3006 33.3592 16.3542 33.212 16.4199 33.0701C16.53 32.8283 16.588 32.5659 16.5899 32.3001C16.5899 32.3001 16.6099 32.2101 16.6099 32.1401Z" fill="white"/>
</svg>
