<svg width="50" height="50" viewBox="0 0 50 50" fill="none" xmlns="http://www.w3.org/2000/svg">
<path d="M11.0999 17.1598V16.9198C11.0999 14.6132 11.0999 12.3065 11.0999 9.99984C11.0999 9.99984 11.0999 9.89984 11.0999 9.84984C11.1195 9.76637 11.1667 9.69196 11.2338 9.63869C11.301 9.58543 11.3842 9.55644 11.4699 9.55644C11.5557 9.55644 11.6389 9.58543 11.706 9.63869C11.7732 9.69196 11.8204 9.76637 11.8399 9.84984C11.8454 9.92307 11.8454 9.99661 11.8399 10.0698C11.8399 12.3698 11.8399 14.6698 11.8399 16.9698C11.8399 17.0398 11.8399 17.1098 11.8399 17.1898H12.5299V16.9698C12.5299 14.6765 12.5299 12.3832 12.5299 10.0898C12.5299 10.0198 12.5299 9.95984 12.5299 9.88984C12.5445 9.80089 12.5902 9.72002 12.6589 9.66167C12.7276 9.60332 12.8148 9.57128 12.9049 9.57128C12.9951 9.57128 13.0823 9.60332 13.151 9.66167C13.2197 9.72002 13.2654 9.80089 13.2799 9.88984C13.2834 9.95646 13.2834 10.0232 13.2799 10.0898C13.2799 12.3832 13.2799 14.6765 13.2799 16.9698V17.1998H13.4699C13.8599 17.1998 14.2599 17.1998 14.6499 17.1998C14.7114 17.1919 14.7738 17.1981 14.8325 17.2177C14.8912 17.2374 14.9447 17.2701 14.9889 17.3134C15.0332 17.3567 15.0671 17.4095 15.088 17.4677C15.109 17.526 15.1165 17.5883 15.1099 17.6498C15.1099 17.8498 15.1099 18.0598 15.1099 18.2598C15.4619 18.3042 15.818 18.3042 16.1699 18.2598V17.9998C16.1699 16.2798 16.1699 14.5565 16.1699 12.8298C16.1552 12.6357 16.1918 12.4411 16.2761 12.2656C16.3603 12.0901 16.4893 11.9398 16.6499 11.8298C16.8428 11.6941 17.0742 11.624 17.3099 11.6298H18.5399H18.7099C18.504 11.5433 18.3275 11.3991 18.2015 11.2146C18.0756 11.0301 18.0056 10.8131 17.9999 10.5898C17.9983 10.4417 18.0277 10.2949 18.0862 10.1588C18.1448 10.0227 18.2312 9.90045 18.3399 9.79984C18.4465 9.69779 18.5724 9.61821 18.7103 9.56582C18.8482 9.51344 18.9952 9.48934 19.1427 9.49493C19.2901 9.50053 19.4348 9.53572 19.5684 9.59841C19.7019 9.6611 19.8215 9.75 19.9199 9.85984C20.0442 9.99101 20.1332 10.1515 20.1786 10.3264C20.2241 10.5012 20.2246 10.6848 20.1799 10.8598C20.1344 11.035 20.0482 11.1969 19.9283 11.3324C19.8084 11.468 19.6582 11.5733 19.4899 11.6398H20.9999C21.2377 11.6542 21.4642 11.7461 21.6448 11.9014C21.8254 12.0567 21.9501 12.2669 21.9999 12.4998C22.0147 12.6194 22.0147 12.7403 21.9999 12.8598C21.9999 13.2498 21.9999 13.6398 21.9999 14.0298V14.2298H25.2399C25.2399 14.1598 25.2399 14.0998 25.2399 14.0398C25.2399 13.7298 25.2399 13.4298 25.2399 13.1198C25.2527 12.8816 25.344 12.6542 25.4996 12.4733C25.6551 12.2924 25.8663 12.1681 26.0999 12.1198C26.1863 12.1102 26.2735 12.1102 26.3599 12.1198H29.2399C29.5293 12.117 29.8082 12.2273 30.0174 12.4272C30.2266 12.6271 30.3495 12.9007 30.3599 13.1898C30.3599 13.2598 30.3599 13.3198 30.3599 13.3898C30.3599 14.4998 30.3599 15.6098 30.3599 16.7198C30.3645 16.8813 30.3477 17.0427 30.3099 17.1998C30.2468 17.4187 30.1161 17.612 29.9365 17.7521C29.7569 17.8922 29.5376 17.9719 29.3099 17.9798H28.7499C28.7054 18.8192 28.7054 19.6604 28.7499 20.4998H32.0399C32.1164 20.491 32.1935 20.491 32.2699 20.4998C32.3466 20.5178 32.415 20.5612 32.464 20.6229C32.513 20.6846 32.5398 20.761 32.5399 20.8398C32.5399 20.8998 32.5399 20.9598 32.5399 21.0198C32.5399 22.6332 32.5399 24.2432 32.5399 25.8498V25.9998H39.7899C39.7899 26.0798 39.7899 26.1398 39.7899 26.1998C39.7899 26.7598 39.7899 27.3198 39.7899 27.8798C39.7841 28.1518 39.8575 28.4196 40.0014 28.6504C40.1452 28.8813 40.3532 29.0653 40.5999 29.1798C40.8049 29.2816 41.0311 29.333 41.2599 29.3298H43.1999C43.1999 29.4698 43.1999 38.9498 43.1999 39.1898H43.0099H41.3099C41.0383 39.1855 40.7714 39.2609 40.5421 39.4066C40.3128 39.5523 40.1313 39.7621 40.0199 40.0098C39.9255 40.1956 39.8775 40.4015 39.8799 40.6098C39.8799 41.1765 39.8799 41.7432 39.8799 42.3098V42.4998H29.9999C29.9999 42.4398 29.9999 42.3798 29.9999 42.3198C29.9999 41.7598 29.9999 41.1998 29.9999 40.6398C30.0089 40.3305 29.9158 40.0269 29.7351 39.7757C29.5544 39.5245 29.2961 39.3397 28.9999 39.2498C28.8401 39.2078 28.6752 39.1876 28.5099 39.1898H26.7399C26.7399 39.0398 26.7399 29.4998 26.7399 29.3098H28.4799C28.673 29.3137 28.8654 29.2867 29.0499 29.2298C29.3591 29.1352 29.6266 28.938 29.8085 28.6707C29.9903 28.4034 30.0755 28.0821 30.0499 27.7598C29.8483 27.7226 29.6416 27.7226 29.4399 27.7598V27.9898C29.4191 28.1698 29.3355 28.3366 29.2038 28.4609C29.0721 28.5853 28.9008 28.6593 28.7199 28.6698C28.0899 28.6698 27.4599 28.6698 26.8399 28.6698H26.7899C26.7899 28.3798 26.7899 28.0698 26.7899 27.7498H23.5099C23.4116 27.7474 23.3178 27.708 23.2474 27.6394C23.1769 27.5708 23.135 27.4781 23.1299 27.3798C23.1299 27.3798 23.1299 27.2898 23.1299 27.2498C23.1299 25.1365 23.1299 23.0265 23.1299 20.9198C23.1299 20.9198 23.1299 20.8298 23.1299 20.7898C23.1346 20.7093 23.1655 20.6325 23.2178 20.5711C23.2702 20.5097 23.3411 20.4671 23.4199 20.4498H23.6299H26.9199C26.9199 20.3098 26.9199 18.2698 26.9199 17.9398H26.7999H26.3999C26.1099 17.9425 25.8306 17.8306 25.6227 17.6283C25.4148 17.426 25.2952 17.1498 25.2899 16.8598C25.2899 16.6498 25.2899 16.4398 25.2899 16.2298C25.2899 16.2298 25.2899 16.1798 25.2899 16.1298C25.0799 16.1298 24.8599 16.1298 24.6499 16.1298H22.0499V16.3598C22.0499 19.7665 22.0499 23.1732 22.0499 26.5798C22.0515 26.7214 22.0347 26.8626 21.9999 26.9998C21.934 27.2348 21.7925 27.4415 21.5972 27.5879C21.402 27.7343 21.164 27.8123 20.9199 27.8098H17.3299C17.1134 27.8024 16.9037 27.7323 16.7262 27.608C16.5487 27.4838 16.4111 27.3107 16.3299 27.1098C16.2665 26.944 16.236 26.7674 16.2399 26.5898C16.2399 24.8098 16.2399 23.0265 16.2399 21.2398C16.2399 20.9298 16.2399 20.6298 16.2399 20.3198C16.2399 20.2698 16.2399 20.2098 16.2399 20.1498H15.2399C15.2399 20.2198 15.2399 20.2898 15.2399 20.3598C15.2399 22.6598 15.2399 24.9598 15.2399 27.2598C15.2399 27.3198 15.2399 27.3698 15.2399 27.4298C15.2375 27.5282 15.1981 27.6219 15.1295 27.6924C15.0609 27.7629 14.9682 27.8048 14.8699 27.8098H9.64994C9.60135 27.8098 9.55324 27.8003 9.50835 27.7817C9.46346 27.7631 9.42267 27.7358 9.38831 27.7015C9.35395 27.6671 9.3267 27.6263 9.30811 27.5814C9.28951 27.5365 9.27994 27.4884 9.27994 27.4398C9.27994 27.3798 9.27994 27.3198 9.27994 27.2598C9.27994 24.0865 9.27994 20.9132 9.27994 17.7398C9.27994 17.6798 9.27994 17.6298 9.27994 17.5698C9.27848 17.52 9.28738 17.4704 9.3061 17.4242C9.32481 17.378 9.35292 17.3361 9.38864 17.3013C9.42437 17.2666 9.46693 17.2396 9.51363 17.2221C9.56033 17.2046 9.61016 17.197 9.65994 17.1998H11.0999V17.1598ZM16.9999 13.8698C16.9999 13.9298 16.9999 13.9898 16.9999 14.0498C16.9999 18.2098 16.9999 22.3698 16.9999 26.5298C16.9999 26.8498 17.1099 27.0098 17.4799 27.0098H20.9999C21.0764 27.0054 21.1487 26.9737 21.2037 26.9205C21.2587 26.8672 21.2929 26.7961 21.2999 26.7198C21.3039 26.6632 21.3039 26.6064 21.2999 26.5498C21.2999 22.3765 21.2999 18.2065 21.2999 14.0398C21.2999 13.9898 21.2999 13.9298 21.2999 13.8798C21.1399 13.8798 20.9999 13.8798 20.8599 13.8798H18.9199C18.2799 13.8998 17.6299 13.9398 16.9999 13.8698ZM28.5499 34.2598C28.5463 35.5224 28.9156 36.758 29.6116 37.8115C30.3075 38.865 31.2991 39.6895 32.4618 40.1815C33.6246 40.6736 34.9068 40.8113 36.1476 40.5773C37.3883 40.3434 38.5323 39.7482 39.4361 38.8666C40.3398 37.9849 40.9631 36.8559 41.2276 35.6213C41.4922 34.3868 41.3862 33.1015 40.9231 31.927C40.4599 30.7524 39.6602 29.7407 38.6242 29.019C37.5883 28.2972 36.3622 27.8974 35.0999 27.8698C34.2492 27.8553 33.404 28.0094 32.6132 28.3234C31.8224 28.6374 31.1017 29.105 30.4926 29.6992C29.8836 30.2933 29.3983 31.0023 29.0649 31.7851C28.7314 32.5679 28.5564 33.409 28.5499 34.2598ZM29.6999 14.9998C29.6999 14.4098 29.6999 13.8198 29.6999 13.2298C29.7061 13.1741 29.6997 13.1176 29.6814 13.0646C29.6631 13.0115 29.6333 12.9632 29.5941 12.923C29.5549 12.8829 29.5073 12.8519 29.4547 12.8323C29.4021 12.8128 29.3459 12.8051 29.2899 12.8098H26.4799C26.4259 12.8034 26.371 12.8093 26.3196 12.8272C26.2681 12.845 26.2214 12.8743 26.1829 12.9128C26.1444 12.9513 26.1151 12.998 26.0973 13.0495C26.0794 13.1009 26.0735 13.1558 26.0799 13.2098C26.0799 14.3898 26.0799 15.5665 26.0799 16.7398C26.0799 17.0298 26.2099 17.1498 26.4999 17.1498H29.2799C29.3362 17.1544 29.3929 17.1466 29.4459 17.1271C29.4989 17.1076 29.547 17.0768 29.587 17.0369C29.6269 16.9969 29.6577 16.9488 29.6772 16.8958C29.6967 16.8428 29.7045 16.7861 29.6999 16.7298C29.6899 16.1498 29.6999 15.5698 29.6999 14.9998ZM14.3799 20.7898V19.3498C14.3799 19.1098 14.3799 18.8698 14.3799 18.6298C14.3799 18.3898 14.3799 18.1598 14.3799 17.9298C14.0799 17.9298 10.1699 17.9298 10.0499 17.9298C10.0499 18.1498 10.0499 20.6498 10.0499 20.7798L14.3799 20.7898ZM14.3799 26.9898C14.4134 26.5204 14.4134 26.0492 14.3799 25.5798H9.99994V26.9998C10.1699 26.9998 14.1899 26.9998 14.3599 26.9998L14.3799 26.9898ZM13.2699 23.7098C13.309 22.997 13.309 22.2826 13.2699 21.5698H11.1399C11.1006 22.2826 11.1006 22.997 11.1399 23.7098H13.2699ZM9.99994 21.5798V24.8098H14.3099C14.3099 24.6498 14.3099 21.7198 14.3099 21.5898H13.9999C13.9999 21.6698 13.9999 21.7298 13.9999 21.7898C13.9999 22.5165 13.9999 23.2432 13.9999 23.9698C13.9999 23.9698 13.9999 24.0698 13.9999 24.1198C14 24.2163 13.9624 24.3089 13.8951 24.378C13.8279 24.4471 13.7363 24.4872 13.6399 24.4898H10.6399C10.5672 24.4866 10.4973 24.4608 10.44 24.416C10.3826 24.3712 10.3407 24.3096 10.3199 24.2398C10.3092 24.1702 10.3092 24.0994 10.3199 24.0298C10.3199 23.2832 10.3199 22.5332 10.3199 21.7798V21.5898L9.99994 21.5798ZM25.3299 22.6598C25.3299 22.8498 25.3299 26.8698 25.3299 26.9998H25.9999C25.9999 26.7798 25.9999 22.7898 25.9999 22.6598H25.3299ZM24.5799 26.9998V22.6698C24.3552 22.6276 24.1246 22.6276 23.8999 22.6698C23.8999 22.8898 23.8999 26.8498 23.8999 26.9798L24.5799 26.9998ZM18.7399 12.4498H17.2399C17.164 12.4658 17.0959 12.5072 17.0468 12.5673C16.9977 12.6273 16.9706 12.7023 16.9699 12.7798C16.9637 12.8612 16.9878 12.9421 17.0377 13.0067C17.0875 13.0714 17.1596 13.1152 17.2399 13.1298H17.4499H20.8499C20.9196 13.1394 20.9903 13.1394 21.0599 13.1298C21.1329 13.1093 21.1966 13.0644 21.2403 13.0024C21.284 12.9405 21.3051 12.8655 21.2999 12.7898C21.3001 12.7425 21.2904 12.6957 21.2715 12.6524C21.2526 12.6091 21.2248 12.5702 21.19 12.5382C21.1552 12.5062 21.1141 12.4818 21.0693 12.4666C21.0245 12.4514 20.977 12.4457 20.9299 12.4498H19.5199C19.4299 12.6998 19.3099 12.7998 19.1199 12.7998C18.9299 12.7998 18.8299 12.6998 18.7399 12.4498ZM29.7399 22.6598C29.7399 22.8898 29.7399 26.8598 29.7399 26.9898H29.9999C29.9999 26.8198 29.9999 26.6698 29.9999 26.5098C29.9884 26.34 29.9884 26.1696 29.9999 25.9998H30.3799V22.6598H29.7399ZM27.4999 25.9998C27.4999 25.9298 27.4999 25.8898 27.4999 25.8398C27.4999 24.8198 27.4999 23.7998 27.4999 22.7798C27.5028 22.7299 27.5028 22.6798 27.4999 22.6298H26.8199V26.2898C26.8949 26.1829 26.9984 26.099 27.1185 26.0478C27.2387 25.9965 27.3708 25.9799 27.4999 25.9998ZM31.1899 22.6198V25.9998H31.8799V22.6598C31.6599 22.6398 31.4399 22.6498 31.1899 22.6498V22.6198ZM28.2799 22.6198V25.9998H28.9999V22.6598L28.2799 22.6198ZM22.0699 15.2798H25.3099V14.9998H22.0799C22.0783 15.0231 22.0783 15.0465 22.0799 15.0698C22.0699 15.1598 22.0699 15.2298 22.0699 15.3198V15.2798ZM27.7399 17.8898C27.7399 18.0698 27.7399 20.2598 27.7399 20.3898H28.0499V17.8898H27.7399ZM31.8799 21.8898V21.2198H31.1899C31.1899 21.4498 31.1899 21.6698 31.1899 21.8898H31.8799ZM26.8199 21.2198V21.8998H27.4999V21.2198H26.8199ZM25.3599 21.2198C25.3464 21.443 25.3464 21.6667 25.3599 21.8898H25.9999V21.2198H25.3599ZM30.4199 21.8998V21.2298H29.7499V21.8998H30.4199ZM28.9999 21.1998H28.3299V21.8898H28.9999V21.1998ZM23.9399 21.8898C24.1799 21.8898 24.3999 21.8898 24.6199 21.8898V21.2198H23.8999L23.9399 21.8898ZM19.1299 10.2498C19.0379 10.2524 18.9503 10.29 18.8852 10.3551C18.8201 10.4202 18.7825 10.5078 18.7799 10.5998C18.7799 10.6927 18.8168 10.7817 18.8825 10.8473C18.9481 10.913 19.0371 10.9498 19.1299 10.9498C19.2228 10.9498 19.3118 10.913 19.3774 10.8473C19.4431 10.7817 19.4799 10.6927 19.4799 10.5998C19.4774 10.5078 19.4397 10.4202 19.3746 10.3551C19.3095 10.29 19.222 10.2524 19.1299 10.2498ZM16.1899 18.9998C15.8573 18.9703 15.5226 18.9703 15.1899 18.9998V19.2998H16.1899V18.9998Z" fill="white"/>
<path d="M21.9999 42.8299C21.9999 42.7699 21.9999 42.7199 21.9999 42.6599C21.9999 40.1899 21.9999 37.7299 21.9999 35.2599C21.9886 34.9521 22.0729 34.6485 22.2412 34.3906C22.4095 34.1327 22.6536 33.9333 22.9399 33.8199C23.1393 33.7367 23.3539 33.6958 23.5699 33.6999H24.3299C24.3299 33.6199 24.3299 33.5599 24.3299 33.4899C24.3299 32.5766 24.3299 31.6666 24.3299 30.7599C24.3215 30.6389 24.3519 30.5185 24.4166 30.416C24.4813 30.3135 24.5771 30.2343 24.6899 30.1899C24.7718 30.1529 24.8601 30.1325 24.9499 30.1299H26.2299H26.3199V37.8699H24.9999C24.9187 37.8742 24.8374 37.8614 24.7615 37.8323C24.6855 37.8031 24.6165 37.7584 24.559 37.7008C24.5014 37.6433 24.4567 37.5743 24.4275 37.4983C24.3984 37.4224 24.3856 37.3411 24.3899 37.2599C24.3899 36.3699 24.3899 35.4799 24.3899 34.5899C24.3899 34.5199 24.3899 34.4599 24.3899 34.3799H24.2499C24.0299 34.3799 23.8199 34.3799 23.5999 34.3799C23.4862 34.3771 23.3732 34.3975 23.2676 34.4398C23.162 34.482 23.0661 34.5453 22.9857 34.6257C22.9053 34.7061 22.842 34.802 22.7998 34.9076C22.7575 35.0131 22.7372 35.1262 22.7399 35.2399C22.7399 37.6799 22.7399 40.1299 22.7399 42.5699C22.7399 42.6499 22.7399 42.7199 22.7399 42.8099L21.9999 42.8299Z" fill="white"/>
<path d="M26.7199 39.8697H28.5799C28.753 39.8672 28.9221 39.9217 29.0612 40.0247C29.2003 40.1277 29.3018 40.2735 29.3499 40.4397C29.363 40.5393 29.363 40.6401 29.3499 40.7397C29.3499 41.2997 29.3499 41.8497 29.3499 42.4097C29.3499 42.4097 29.3499 42.4997 29.3499 42.5497H27.3499C27.2244 42.5549 27.1003 42.5224 26.9933 42.4565C26.8864 42.3906 26.8017 42.2942 26.7499 42.1797C26.7132 42.1048 26.6928 42.023 26.6899 41.9397C26.6899 41.6497 26.6899 41.3497 26.6899 41.0597C26.6899 40.7697 26.6899 40.3897 26.6899 40.0597C26.7099 39.9997 26.7199 39.9397 26.7199 39.8697Z" fill="white"/>
<path d="M40.5599 25.9997H40.7299C41.3199 25.9997 41.9199 25.9997 42.5099 25.9997C42.6056 25.9954 42.7011 26.0112 42.7904 26.0458C42.8797 26.0805 42.9608 26.1334 43.0285 26.2011C43.0962 26.2688 43.1491 26.3499 43.1838 26.4392C43.2185 26.5285 43.2342 26.624 43.2299 26.7197C43.2299 27.2297 43.2299 27.7197 43.2299 28.2397C43.2299 28.3797 43.2299 28.5197 43.2299 28.6797H41.3499C41.1378 28.6797 40.9343 28.5954 40.7842 28.4454C40.6342 28.2954 40.5499 28.0919 40.5499 27.8797C40.5499 27.3097 40.5499 26.7497 40.5499 26.1797C40.5499 26.1497 40.5599 26.0997 40.5599 25.9997Z" fill="white"/>
<path d="M40.5499 42.5299C40.5499 42.4099 40.5499 42.2899 40.5499 42.1699C40.5499 41.6699 40.5499 41.1699 40.5499 40.6699C40.5473 40.5653 40.5654 40.4612 40.6033 40.3637C40.6412 40.2662 40.6981 40.1772 40.7706 40.1018C40.8432 40.0265 40.93 39.9663 41.026 39.9247C41.122 39.8832 41.2253 39.8612 41.3299 39.8599H43.2199C43.2199 39.9099 43.2199 39.9699 43.2199 40.0199C43.2199 40.6132 43.2199 41.2065 43.2199 41.7999C43.2266 41.9108 43.2076 42.0218 43.1642 42.1242C43.1208 42.2266 43.0543 42.3175 42.9699 42.3899C42.8734 42.4763 42.7495 42.5259 42.6199 42.5299H40.6199H40.5499Z" fill="white"/>
<path d="M39.4099 30.6099L39.5599 30.7899C40.1721 31.5939 40.5588 32.5466 40.6799 33.5499C40.6799 33.7099 40.6799 33.8799 40.6799 34.0499C40.6799 34.2199 40.6799 34.1899 40.5599 34.2299C40.1866 34.3581 39.8013 34.4486 39.4099 34.4999C38.8405 34.5792 38.2607 34.5349 37.7099 34.3699C37.5399 34.3199 37.3799 34.2399 37.2199 34.1699C37.1918 34.1598 37.1668 34.1425 37.1475 34.1196C37.1282 34.0968 37.1152 34.0693 37.1099 34.0399C37.0825 33.8779 37.0458 33.7176 36.9999 33.5599C36.9999 33.4099 36.8699 33.2699 36.7999 33.0999C37.3574 32.8676 37.8637 32.5278 38.2899 32.0999C38.7368 31.663 39.1145 31.1606 39.4099 30.6099Z" fill="white"/>
<path d="M34.4899 36.46C34.2477 37.0184 34.125 37.6213 34.1299 38.23C34.139 38.8311 34.2367 39.4275 34.4199 40C33.9657 39.9761 33.5175 39.8851 33.0899 39.73C32.3068 39.4591 31.5931 39.0186 30.9999 38.44C30.9971 38.4067 30.9971 38.3733 30.9999 38.34C31.3287 37.6193 31.826 36.9882 32.4499 36.5C32.7235 36.2923 33.0269 36.1271 33.3499 36.01C33.3928 35.9812 33.4432 35.9658 33.4949 35.9658C33.5465 35.9658 33.597 35.9812 33.6399 36.01C33.8331 36.1611 34.0539 36.2732 34.2899 36.34L34.4899 36.46Z" fill="white"/>
<path d="M40.7099 34.8298C40.585 36.1244 40.0285 37.3395 39.1299 38.2798H39.0299C38.3552 37.9718 37.7574 37.5175 37.2799 36.9498C37.016 36.633 36.8126 36.2703 36.6799 35.8798C36.6622 35.8513 36.6528 35.8184 36.6528 35.7848C36.6528 35.7512 36.6622 35.7183 36.6799 35.6898C36.8762 35.4454 37.0193 35.1627 37.0999 34.8598V34.7998C38.2575 35.259 39.5449 35.2697 40.7099 34.8298Z" fill="white"/>
<path d="M36.1599 36.1699C36.6416 37.2972 37.5206 38.2082 38.6299 38.7299C38.3098 39.0128 37.9533 39.2516 37.5699 39.4399C36.7998 39.836 35.9459 40.0417 35.0799 40.0399C35.0611 40.0043 35.0444 39.9676 35.0299 39.9299C34.7916 39.2708 34.6929 38.5693 34.7399 37.8699C34.7715 37.4428 34.8834 37.0255 35.0699 36.6399C35.087 36.5975 35.1158 36.5609 35.1531 36.5343C35.1903 36.5077 35.2343 36.4923 35.2799 36.4899C35.5544 36.455 35.8194 36.3667 36.0599 36.2299L36.1599 36.1699Z" fill="white"/>
<path d="M33.7699 32.3998C33.5422 31.837 33.2019 31.3265 32.7699 30.8998C32.338 30.4975 31.8495 30.1606 31.3199 29.8998C32.3061 29.0528 33.56 28.5817 34.8599 28.5698C34.8599 28.5698 34.8599 28.6698 34.9299 28.7298C35.152 29.3719 35.2438 30.0518 35.1999 30.7298C35.1717 31.1703 35.0597 31.6013 34.8699 31.9998C34.8566 32.038 34.8325 32.0715 34.8006 32.0964C34.7687 32.1212 34.7302 32.1363 34.6899 32.1398C34.3969 32.1749 34.1143 32.2703 33.8599 32.4198L33.7699 32.3998Z" fill="white"/>
<path d="M32.79 33.7998C31.65 33.3483 30.3846 33.3269 29.23 33.7398C29.354 32.4479 29.9108 31.2357 30.81 30.2998C31.6075 30.6402 32.2985 31.1895 32.81 31.8898C32.9873 32.1388 33.1286 32.4115 33.23 32.6998C33.2521 32.7359 33.2638 32.7775 33.2638 32.8198C33.2638 32.8622 33.2521 32.9037 33.23 32.9398C33.0516 33.1601 32.9221 33.4157 32.85 33.6898L32.79 33.7998Z" fill="white"/>
<path d="M29.23 34.3799C29.6841 34.2124 30.1581 34.1048 30.64 34.0599C31.2399 33.9964 31.8462 34.0752 32.41 34.2899H32.49C32.66 34.3499 32.79 34.4299 32.8 34.6599C32.825 34.9054 32.9072 35.1418 33.04 35.3499V35.4599C31.9199 35.9386 31.0132 36.8098 30.49 37.9099C29.6643 36.92 29.2177 35.6688 29.23 34.3799Z" fill="white"/>
<path d="M39 30.1396C38.5981 31.0861 37.8951 31.8735 37 32.3796C36.851 32.4529 36.6973 32.5164 36.54 32.5696C36.518 32.5795 36.4941 32.5847 36.47 32.5847C36.4459 32.5847 36.422 32.5795 36.4 32.5696C36.1298 32.3625 35.8201 32.2128 35.49 32.1296C35.627 31.7651 35.721 31.3859 35.77 30.9996C35.8266 30.5983 35.8266 30.191 35.77 29.7896C35.71 29.3996 35.62 29.0096 35.54 28.5996C35.956 28.6212 36.3668 28.702 36.76 28.8396C37.5967 29.095 38.3632 29.5398 39 30.1396Z" fill="white"/>
<path d="M36.58 34.2899C36.5799 34.612 36.4838 34.9268 36.3039 35.194C36.1241 35.4612 35.8687 35.6687 35.5703 35.7901C35.272 35.9114 34.9442 35.9411 34.6289 35.8752C34.3136 35.8094 34.0251 35.6511 33.8002 35.4205C33.5753 35.19 33.4243 34.8976 33.3664 34.5807C33.3085 34.2639 33.3463 33.937 33.4751 33.6418C33.6038 33.3465 33.8177 33.0964 34.0893 32.9233C34.3609 32.7502 34.678 32.662 35 32.6699C35.2101 32.6725 35.4176 32.7165 35.6108 32.7993C35.8039 32.8822 35.9788 33.0022 36.1255 33.1527C36.2722 33.3031 36.3879 33.481 36.4659 33.6761C36.5438 33.8712 36.5826 34.0798 36.58 34.2899Z" fill="white"/>
</svg>
