<svg width="50" height="50" viewBox="0 0 50 50" fill="none" xmlns="http://www.w3.org/2000/svg">
<path d="M25.91 43.4001V29.8001H25C24.9442 29.8086 24.8872 29.8039 24.8336 29.7863C24.78 29.7687 24.7313 29.7387 24.6914 29.6988C24.6515 29.6589 24.6215 29.6102 24.6039 29.5565C24.5863 29.5029 24.5816 29.4459 24.59 29.3901C24.59 28.0601 24.59 26.7201 24.59 25.3901C24.5853 25.322 24.5984 25.2539 24.6283 25.1924C24.6581 25.131 24.7035 25.0785 24.76 25.0401H24.63H7.94004C7.75004 25.0401 7.67004 24.9501 7.69004 24.7601C7.70392 24.6352 7.72732 24.5115 7.76004 24.3901C7.92494 23.8244 8.25283 23.3197 8.70276 22.9391C9.1527 22.5586 9.70476 22.3189 10.29 22.2501H10.8V11.7801H10.7C10.5041 11.7398 10.3234 11.6453 10.1785 11.5074C10.0335 11.3696 9.93014 11.1938 9.88004 11.0001C9.86901 10.9523 9.84418 10.9088 9.80861 10.8751C9.77305 10.8413 9.72834 10.8187 9.68004 10.8101C9.18021 10.6789 8.72749 10.4095 8.37376 10.0327C8.02002 9.656 7.7796 9.18723 7.68003 8.68014C7.56939 7.98282 7.6453 7.26864 7.90004 6.61014C8.09339 6.17828 8.39453 5.80337 8.77454 5.52143C9.15455 5.23949 9.60066 5.05998 10.07 5.00014H10.4H23.2C23.5216 4.99545 23.8342 5.10569 24.0817 5.31101C24.3292 5.51634 24.4953 5.80326 24.55 6.12014C24.5559 6.19336 24.5559 6.26693 24.55 6.34014C24.55 7.43014 24.55 8.52014 24.55 9.61014C24.5489 9.90192 24.4497 10.1848 24.2683 10.4134C24.0869 10.6419 23.8339 10.8028 23.55 10.8701C23.3903 10.8834 23.2298 10.8834 23.07 10.8701H22.76C22.76 11.0001 22.76 11.1001 22.76 11.2101C22.7641 11.4561 22.6936 11.6975 22.558 11.9028C22.4224 12.108 22.2279 12.2674 22 12.3601C21.8964 12.3977 21.7892 12.4245 21.68 12.4401H21.5C21.4971 12.4968 21.4971 12.5535 21.5 12.6101C21.5014 12.7231 21.4804 12.8352 21.4384 12.94C21.3964 13.0449 21.3342 13.1404 21.2552 13.2212C21.1763 13.302 21.0822 13.3664 20.9784 13.4109C20.8745 13.4553 20.763 13.4788 20.65 13.4801H20.48V16.0401H20.69C22.06 16.0401 23.43 16.0401 24.81 16.0401C25.0578 16.0236 25.3021 16.1059 25.4895 16.2689C25.6768 16.4319 25.7921 16.6624 25.81 16.9101C25.8283 17.0194 25.8283 17.1309 25.81 17.2401C25.6485 18.1122 25.2957 18.9375 24.7769 19.6569C24.2582 20.3762 23.5864 20.9716 22.81 21.4001C21.8995 21.9156 20.8503 22.1325 19.81 22.0201C18.5355 21.8984 17.3469 21.3236 16.46 20.4001C15.5912 19.5266 15.0057 18.4114 14.78 17.2001C14.7392 16.987 14.7689 16.7664 14.8645 16.5715C14.9601 16.3767 15.1165 16.2183 15.31 16.1201C15.4403 16.0683 15.58 16.0445 15.72 16.0501H20.05C20.05 15.9201 20.05 13.7901 20.05 13.5101H19.75C19.5547 13.4776 19.3769 13.3778 19.2472 13.2281C19.1176 13.0784 19.0443 12.8881 19.04 12.6901C19.04 12.6301 19.04 12.5701 19.04 12.4901C18.8497 12.492 18.6614 12.4517 18.4885 12.3722C18.3156 12.2926 18.1625 12.1758 18.04 12.0301C17.9242 11.8796 17.8397 11.7073 17.7916 11.5235C17.7435 11.3397 17.7328 11.1482 17.76 10.9601H17.64H15.08C15.0217 11.1888 14.8945 11.3939 14.7156 11.5478C14.5367 11.7016 14.3148 11.7967 14.08 11.8201V22.2001H22.7C23.3741 22.2023 24.0277 22.4314 24.5557 22.8505C25.0836 23.2695 25.455 23.8542 25.61 24.5101C25.61 24.5701 25.61 24.6401 25.61 24.7101C25.6253 24.7635 25.625 24.8202 25.609 24.8733C25.5931 24.9265 25.5622 24.974 25.52 25.0101H44.52C44.85 25.0101 45.03 25.1001 45.02 25.5101C45.02 26.7701 45.02 28.0301 45.02 29.2901C45.02 29.3501 45.02 29.4001 45.02 29.4601C45.0228 29.5487 44.9909 29.6348 44.9311 29.7001C44.8714 29.7655 44.7885 29.805 44.7 29.8101H43.7V43.3901H44.7C44.7511 43.3855 44.8025 43.3922 44.8507 43.4097C44.8989 43.4272 44.9427 43.455 44.9789 43.4912C45.0152 43.5275 45.043 43.5713 45.0605 43.6195C45.078 43.6676 45.0846 43.7191 45.08 43.7701C45.08 44.2101 45.08 44.6501 45.08 45.0901C45.0869 45.1426 45.0814 45.1958 45.0641 45.2458C45.0468 45.2957 45.018 45.3409 44.9802 45.3778C44.9423 45.4147 44.8964 45.4422 44.846 45.4583C44.7957 45.4743 44.7422 45.4784 44.69 45.4701H25C24.69 45.4701 24.49 45.3701 24.5 44.9801C24.51 44.5901 24.5 44.1901 24.5 43.8001C24.4936 43.7461 24.4995 43.6912 24.5174 43.6398C24.5352 43.5883 24.5644 43.5416 24.603 43.5031C24.6415 43.4646 24.6882 43.4353 24.7397 43.4175C24.7911 43.3996 24.846 43.3937 24.9 43.4001H25.91ZM38.91 32.4901C38.91 32.4001 38.91 32.3101 38.91 32.2301C38.91 31.9501 39.04 31.8201 39.32 31.8201H41.9C41.9527 31.8151 42.0059 31.8214 42.0559 31.8387C42.1059 31.8559 42.1517 31.8837 42.19 31.9201C42.2275 31.9602 42.2566 32.0075 42.2755 32.059C42.2944 32.1105 42.3027 32.1653 42.3 32.2201C42.3 32.6401 42.3 33.0601 42.3 33.4901C42.3068 33.5452 42.3007 33.601 42.2824 33.6533C42.264 33.7056 42.2338 33.753 42.1941 33.7917C42.1544 33.8304 42.1063 33.8594 42.0536 33.8765C42.0009 33.8936 41.9449 33.8983 41.89 33.8901H39.26C39.206 33.8966 39.1511 33.8907 39.0997 33.8728C39.0482 33.855 39.0015 33.8257 38.963 33.7872C38.9244 33.7487 38.8952 33.702 38.8773 33.6505C38.8595 33.5991 38.8536 33.5442 38.86 33.4901C38.86 33.4001 38.86 33.3201 38.86 33.2201H37C36.9488 33.2178 36.8977 33.2274 36.8509 33.2482C36.804 33.2691 36.7626 33.3005 36.73 33.3401C36.5807 33.5127 36.3967 33.6519 36.1899 33.7484C35.9831 33.8449 35.7582 33.8966 35.53 33.9001H34.05C33.7638 33.9007 33.4832 33.8211 33.24 33.6701C32.9812 33.5219 32.7663 33.3078 32.617 33.0497C32.4677 32.7915 32.3894 32.4984 32.39 32.2001C32.39 32.0901 32.39 31.9801 32.39 31.8601H31.75C31.6966 31.8639 31.643 31.856 31.593 31.837C31.5429 31.818 31.4975 31.7884 31.46 31.7501C31.4236 31.7077 31.3959 31.6585 31.3788 31.6052C31.3616 31.552 31.3552 31.4959 31.36 31.4401C31.36 30.9601 31.36 30.4835 31.36 30.0101C31.36 29.9501 31.36 29.8901 31.36 29.8301H26.65C26.65 29.9901 26.65 43.2501 26.65 43.4001H32.51V43.3101C32.3481 43.0505 32.252 42.7553 32.23 42.4501C32.23 42.2001 32.23 41.9501 32.16 41.7001L31.97 39.9001L31.81 38.2901C31.81 38.0901 31.81 37.8801 31.76 37.6801C31.7544 37.6296 31.7595 37.5785 31.775 37.5301C31.7906 37.4817 31.8162 37.4371 31.8502 37.3993C31.8842 37.3615 31.9259 37.3314 31.9724 37.3108C32.0189 37.2903 32.0692 37.2798 32.12 37.2801H37.5C37.5591 37.2757 37.6184 37.285 37.6731 37.3075C37.7279 37.33 37.7767 37.365 37.8155 37.4097C37.8544 37.4544 37.8823 37.5075 37.8969 37.5649C37.9116 37.6223 37.9127 37.6823 37.9 37.7401C37.9 37.9001 37.8834 38.0601 37.85 38.2201C37.85 38.3601 37.85 38.4901 37.85 38.6401H38.3C38.6053 38.6456 38.9 38.7529 39.1373 38.9449C39.3746 39.137 39.541 39.4028 39.61 39.7001C39.6582 40.0987 39.6582 40.5016 39.61 40.9001C39.6174 40.9599 39.6174 41.0204 39.61 41.0801C39.5254 41.3696 39.3489 41.6238 39.1072 41.8041C38.8655 41.9845 38.5716 42.0814 38.27 42.0801H37.53C37.5064 42.3087 37.4697 42.5358 37.42 42.7601C37.3492 42.9782 37.2657 43.1919 37.17 43.4001C37.76 43.4001 42.89 43.4001 43.03 43.4001C43.03 43.1501 43.03 29.9601 43.03 29.8401C42.78 29.8401 38.44 29.8401 38.31 29.8401V30.0001C38.31 30.4701 38.31 30.9301 38.31 31.4001C38.31 31.7001 38.18 31.8301 37.88 31.8301H37.28V32.4801L38.91 32.4901ZM16.91 10.4301H22.48C22.78 10.4301 23.08 10.4301 23.38 10.4301C23.5447 10.4246 23.7037 10.369 23.8359 10.2707C23.9681 10.1724 24.0673 10.0362 24.12 9.88014C24.163 9.75472 24.1833 9.62267 24.18 9.49014C24.18 8.49014 24.18 7.49014 24.18 6.42014C24.18 6.42014 24.18 6.32014 24.18 6.27014C24.167 6.08845 24.0972 5.91543 23.9806 5.77549C23.864 5.63555 23.7064 5.53574 23.53 5.49014C23.4138 5.47571 23.2963 5.47571 23.18 5.49014H10.58H10.18C9.72028 5.53482 9.28434 5.71572 8.92803 6.00968C8.57172 6.30364 8.31127 6.69726 8.18004 7.14014C8.09184 7.48611 8.06143 7.84426 8.09004 8.20014C8.09778 8.50526 8.16591 8.80583 8.29049 9.08446C8.41508 9.36309 8.59365 9.61428 8.81588 9.82349C9.03811 10.0327 9.2996 10.1958 9.58524 10.3034C9.87088 10.4109 10.175 10.4608 10.48 10.4501L16.91 10.4301ZM25.33 29.0601H25.39H44.39C44.39 28.7901 44.39 25.8301 44.39 25.7201H25.39L25.33 29.0601ZM8.42004 24.0601H12.81C12.8763 24.0495 12.9438 24.0495 13.01 24.0601C13.0314 24.0693 13.0505 24.083 13.0661 24.1002C13.0816 24.1175 13.0932 24.1379 13.1 24.1601C13.1029 24.174 13.1028 24.1884 13.0997 24.2022C13.0966 24.2161 13.0906 24.2291 13.0821 24.2405C13.0736 24.2518 13.0628 24.2612 13.0503 24.2681C13.0379 24.2749 13.0242 24.279 13.01 24.2801H8.25004L8.20003 24.4901H25.2C25.2016 24.4668 25.2016 24.4435 25.2 24.4201C25.1084 24.0888 24.9491 23.78 24.7323 23.5133C24.5154 23.2465 24.2457 23.0275 23.94 22.8701C23.5379 22.666 23.0908 22.5663 22.64 22.5801H10.74C10.3833 22.5691 10.0282 22.6328 9.69758 22.7672C9.36693 22.9015 9.06802 23.1035 8.82003 23.3601C8.61847 23.5733 8.46201 23.825 8.36003 24.1001L8.42004 24.0601ZM20 16.5201H15.6C15.5388 16.5214 15.4783 16.5349 15.4224 16.5599C15.3664 16.5848 15.3159 16.6207 15.274 16.6654C15.2321 16.7101 15.1995 16.7628 15.1782 16.8203C15.1569 16.8778 15.1474 16.9389 15.15 17.0001C15.1401 17.0832 15.1401 17.1671 15.15 17.2501C15.301 18.035 15.6217 18.7774 16.0899 19.4252C16.558 20.073 17.1622 20.6105 17.86 21.0001C18.4593 21.3522 19.1305 21.5639 19.8233 21.6193C20.5161 21.6747 21.2124 21.5724 21.86 21.3201C23.0036 20.8863 23.959 20.0654 24.56 19.0001C24.8913 18.4394 25.1279 17.8279 25.26 17.1901C25.2863 17.1128 25.2932 17.0302 25.2801 16.9495C25.2671 16.8689 25.2344 16.7926 25.1851 16.7275C25.1358 16.6624 25.0712 16.6103 24.9971 16.5759C24.923 16.5415 24.8416 16.5258 24.76 16.5301H20.57H20.42V17.0801C20.7894 17.2571 21.0887 17.5529 21.27 17.9201C21.5054 18.331 21.6742 18.7765 21.77 19.2401C21.8087 19.414 21.8255 19.5921 21.82 19.7701C21.809 19.9518 21.7575 20.1287 21.6693 20.2879C21.581 20.4471 21.4583 20.5846 21.31 20.6901C20.9822 20.948 20.5772 21.0883 20.16 21.0883C19.7429 21.0883 19.3379 20.948 19.01 20.6901C18.8363 20.5498 18.7038 20.3651 18.6263 20.1557C18.5489 19.9462 18.5294 19.7197 18.57 19.5001C18.6241 18.9788 18.7697 18.471 19 18.0001C19.1713 17.567 19.4949 17.2114 19.91 17.0001L20 16.5201ZM13 11.7801H11.28V22.1801C11.52 22.1801 13.53 22.1801 13.65 22.1801C13.65 21.8901 13.65 11.9101 13.65 11.8001H13.28V12.0001C13.28 13.3801 13.28 14.7568 13.28 16.1301C13.2831 16.1801 13.2831 16.2302 13.28 16.2801C13.28 16.3601 13.22 16.4101 13.15 16.4001C13.12 16.3976 13.092 16.3839 13.0716 16.3616C13.0512 16.3394 13.0399 16.3103 13.04 16.2801C13.04 16.2801 13.04 16.1801 13.04 16.1301C13.04 14.7501 13.04 13.3735 13.04 12.0001L13 11.7801ZM32.46 38.0001C32.46 38.1101 32.46 38.2101 32.46 38.3101C32.52 38.9101 32.59 39.5101 32.65 40.1101C32.73 40.9101 32.81 41.7101 32.89 42.5101C32.9149 42.7577 33.0311 42.987 33.2161 43.1535C33.401 43.3199 33.6413 43.4114 33.89 43.4101H35.66C35.8488 43.4112 36.0334 43.3555 36.19 43.2501C36.3306 43.1555 36.4472 43.0294 36.5305 42.8819C36.6138 42.7343 36.6616 42.5694 36.67 42.4001C36.67 42.2201 36.67 42.0401 36.72 41.8501L36.93 40.0001L37.08 38.4801C37.08 38.3301 37.08 38.1901 37.08 38.0301L32.46 38.0001ZM44.3 44.1501C44.11 44.1501 25.39 44.1501 25.3 44.1501V44.7501C25.51 44.7501 44.21 44.7501 44.3 44.7501V44.1501ZM37.48 31.1501V29.8501C37.31 29.8501 32.22 29.8501 32.08 29.8501V31.1501H37.48ZM18.08 10.9101C18.08 11.0101 18.08 11.0901 18.08 11.1701C18.0758 11.279 18.0941 11.3875 18.1339 11.4889C18.1736 11.5903 18.2338 11.6823 18.3108 11.7594C18.3878 11.8364 18.4799 11.8966 18.5813 11.9363C18.6827 11.976 18.7912 11.9944 18.9 11.9901H21.48C21.6122 11.9927 21.7431 11.9632 21.8615 11.9043C21.9798 11.8453 22.0822 11.7586 22.1598 11.6515C22.2374 11.5444 22.2879 11.4202 22.3071 11.2894C22.3263 11.1585 22.3136 11.025 22.27 10.9001L18.08 10.9101ZM33.08 31.8501C33.08 32.0101 33.08 32.1601 33.08 32.3001C33.1091 32.5275 33.2153 32.738 33.3809 32.8963C33.5466 33.0547 33.7616 33.1514 33.99 33.1701C34.5 33.1701 34.99 33.1701 35.52 33.1701C35.6756 33.1644 35.8277 33.1223 35.9642 33.0474C36.1007 32.9724 36.2178 32.8666 36.3062 32.7384C36.3945 32.6102 36.4518 32.4632 36.4733 32.3089C36.4948 32.1547 36.48 31.9976 36.43 31.8501H33.08ZM37.67 39.3501L37.47 41.3501C37.7365 41.3637 38.0035 41.3637 38.27 41.3501C38.4213 41.3333 38.5614 41.2622 38.6643 41.1501C38.7673 41.0379 38.8261 40.8923 38.83 40.7401C38.83 40.4901 38.83 40.2401 38.83 39.9901C38.8231 39.8287 38.7572 39.6753 38.6448 39.5592C38.5324 39.4431 38.3812 39.3722 38.22 39.3601C38.08 39.3301 37.9 39.3401 37.7 39.3401L37.67 39.3501ZM20.45 17.6101C20.45 17.7601 20.45 20.4401 20.45 20.6101C20.5911 20.5957 20.7274 20.5513 20.85 20.4801C21.0434 20.4057 21.2025 20.2624 21.2966 20.0778C21.3907 19.8933 21.4133 19.6804 21.36 19.4801C21.2621 18.8711 21.0185 18.2948 20.65 17.8001C20.587 17.7331 20.5202 17.6697 20.45 17.6101ZM19.95 20.6101V17.6101C19.8323 17.6947 19.7307 17.7997 19.65 17.9201C19.345 18.3736 19.1342 18.8837 19.03 19.4201C18.9989 19.5618 18.9989 19.7085 19.03 19.8501C19.0893 20.0614 19.2163 20.2473 19.3916 20.3792C19.5669 20.5111 19.7807 20.5817 20 20.5801L19.95 20.6101ZM10.35 10.9401C10.385 11.0498 10.4553 11.1448 10.55 11.2101C10.6862 11.3089 10.852 11.3583 11.02 11.3501H14.02C14.1419 11.3394 14.2585 11.2956 14.3573 11.2233C14.456 11.151 14.533 11.0531 14.58 10.9401H10.35ZM41.58 32.5301H39.58V33.1601H41.58V32.5301ZM21 12.4601H19.41C19.3831 12.5271 19.3734 12.5997 19.3819 12.6713C19.3904 12.7429 19.4168 12.8113 19.4586 12.87C19.5005 12.9288 19.5564 12.9761 19.6213 13.0076C19.6862 13.039 19.758 13.0537 19.83 13.0501C20.07 13.0501 20.31 13.0501 20.55 13.0501H20.68C20.7644 13.0351 20.8415 12.9926 20.8993 12.9294C20.9572 12.8661 20.9926 12.7855 21 12.7001C21.0051 12.6202 21.0051 12.5401 21 12.4601Z" fill="white"/>
<path d="M14.15 8.00002C14.15 7.57435 14.3191 7.16611 14.6201 6.86511C14.9211 6.56412 15.3294 6.39502 15.755 6.39502C16.1807 6.39502 16.5889 6.56412 16.8899 6.86511C17.1909 7.16611 17.36 7.57435 17.36 8.00002C17.36 8.42569 17.1909 8.83393 16.8899 9.13493C16.5889 9.43592 16.1807 9.60502 15.755 9.60502C15.3294 9.60502 14.9211 9.43592 14.6201 9.13493C14.3191 8.83393 14.15 8.42569 14.15 8.00002ZM16.9 8.00002C16.9013 7.849 16.8729 7.6992 16.8163 7.55917C16.7597 7.41914 16.6761 7.29162 16.5703 7.18391C16.4644 7.07619 16.3384 6.99038 16.1994 6.93137C16.0603 6.87237 15.911 6.84133 15.76 6.84002C15.455 6.84002 15.1625 6.96118 14.9469 7.17685C14.7312 7.39251 14.61 7.68502 14.61 7.99002C14.61 8.29502 14.7312 8.58753 14.9469 8.80319C15.1625 9.01886 15.455 9.14002 15.76 9.14002C16.0624 9.14002 16.3523 9.01991 16.5661 8.80612C16.7799 8.59233 16.9 8.30237 16.9 8.00002Z" fill="white"/>
<path d="M20.9001 7.09039C21.0804 7.0884 21.2574 7.14009 21.4083 7.23886C21.5593 7.33764 21.6775 7.47906 21.7479 7.64516C21.8183 7.81126 21.8377 7.99453 21.8038 8.17171C21.7698 8.34889 21.6839 8.51197 21.5571 8.64023C21.4302 8.7685 21.2681 8.85617 21.0913 8.8921C20.9145 8.92803 20.731 8.9106 20.5642 8.84203C20.3973 8.77346 20.2546 8.65684 20.1541 8.50698C20.0537 8.35712 20.0001 8.18079 20.0001 8.00039C19.9987 7.88136 20.021 7.76325 20.0657 7.6529C20.1103 7.54255 20.1764 7.44215 20.2601 7.35752C20.3438 7.27288 20.4435 7.20569 20.5533 7.15984C20.6632 7.11399 20.781 7.09038 20.9001 7.09039ZM21.3601 8.00039C21.3614 7.94046 21.3507 7.88086 21.3287 7.82511C21.3067 7.76935 21.2738 7.71856 21.2318 7.6757C21.1899 7.63285 21.1399 7.59881 21.0846 7.57557C21.0293 7.55233 20.97 7.54037 20.9101 7.54039C20.8488 7.54037 20.7882 7.55259 20.7317 7.57633C20.6752 7.60007 20.624 7.63485 20.5812 7.67863C20.5384 7.72241 20.5047 7.77431 20.4822 7.83128C20.4596 7.88825 20.4487 7.94914 20.4501 8.01039C20.4513 8.07167 20.4648 8.13208 20.4898 8.18807C20.5147 8.24405 20.5506 8.29449 20.5953 8.33641C20.6401 8.37834 20.6927 8.4109 20.7502 8.43219C20.8077 8.45348 20.8688 8.46307 20.9301 8.46039C20.9892 8.45909 21.0474 8.44616 21.1015 8.42234C21.1556 8.39851 21.2045 8.36426 21.2454 8.32155C21.2862 8.27883 21.3183 8.22848 21.3397 8.17337C21.3611 8.11827 21.3714 8.05949 21.3701 8.00039H21.3601Z" fill="white"/>
<path d="M18.6401 8.92004C18.4601 8.91805 18.2848 8.86275 18.1362 8.76111C17.9877 8.65948 17.8726 8.51608 17.8056 8.34906C17.7386 8.18203 17.7226 7.99888 17.7596 7.82276C17.7967 7.64664 17.8851 7.48546 18.0138 7.3596C18.1424 7.23374 18.3055 7.14886 18.4824 7.11569C18.6593 7.08252 18.842 7.10254 19.0075 7.17323C19.1731 7.24393 19.3139 7.36211 19.4122 7.51284C19.5106 7.66357 19.562 7.84008 19.5601 8.02004C19.5601 8.13993 19.5362 8.25862 19.4897 8.36914C19.4432 8.47966 19.3751 8.57978 19.2894 8.66362C19.2037 8.74746 19.1021 8.81333 18.9906 8.85736C18.8791 8.9014 18.7599 8.92271 18.6401 8.92004ZM18.6401 8.47004C18.7022 8.47141 18.7639 8.46018 18.8215 8.43705C18.8792 8.41391 18.9315 8.37934 18.9754 8.33542C19.0194 8.2915 19.0539 8.23915 19.0771 8.18151C19.1002 8.12387 19.1114 8.06214 19.1101 8.00004C19.0936 7.88844 19.0376 7.78646 18.9523 7.71272C18.8669 7.63899 18.7579 7.59842 18.6451 7.59842C18.5323 7.59842 18.4232 7.63899 18.3378 7.71272C18.2525 7.78646 18.1965 7.88844 18.1801 8.00004C18.18 8.0613 18.1923 8.12195 18.216 8.17842C18.2397 8.23489 18.2745 8.28605 18.3183 8.3289C18.3621 8.37175 18.414 8.40542 18.471 8.42794C18.5279 8.45046 18.5888 8.46137 18.6501 8.46004L18.6401 8.47004Z" fill="white"/>
<path d="M21 5.95008H19.1C19.0839 5.95083 19.0679 5.94768 19.0533 5.94091C19.0387 5.93413 19.0259 5.92393 19.0161 5.91116C19.0063 5.8984 18.9997 5.88345 18.9969 5.8676C18.9941 5.85174 18.9952 5.83544 19 5.82008C19.0074 5.79817 19.0192 5.778 19.0347 5.7608C19.0502 5.74361 19.069 5.72975 19.09 5.72008C19.1395 5.70984 19.1905 5.70984 19.24 5.72008H22.7C22.879 5.70808 23.0579 5.74445 23.218 5.82539C23.3781 5.90632 23.5135 6.02883 23.61 6.18008C23.7105 6.34211 23.7625 6.52947 23.76 6.72008C23.76 6.91008 23.76 7.11008 23.76 7.30008C23.7655 7.33655 23.7655 7.37362 23.76 7.41008C23.76 7.47008 23.69 7.51008 23.63 7.49008C23.5856 7.47004 23.55 7.43448 23.53 7.39008C23.5225 7.35381 23.5225 7.31636 23.53 7.28008C23.53 7.09008 23.53 6.89008 23.53 6.70008C23.5328 6.6026 23.5156 6.50557 23.4792 6.41506C23.4429 6.32454 23.3884 6.24248 23.3189 6.17399C23.2495 6.1055 23.1667 6.05204 23.0757 6.01696C22.9847 5.98188 22.8874 5.96592 22.79 5.97008H21V5.95008Z" fill="white"/>
<path d="M11.2501 8.07009H9.81009C9.78003 8.06758 9.75201 8.05383 9.73163 8.0316C9.71124 8.00936 9.69998 7.98026 9.70009 7.95009C9.69854 7.93395 9.70058 7.91766 9.70606 7.9024C9.71155 7.88714 9.72034 7.87328 9.7318 7.86181C9.74327 7.85034 9.75713 7.84155 9.7724 7.83607C9.78766 7.83058 9.80394 7.82854 9.82009 7.83009H12.7001C12.7303 7.82999 12.7594 7.84125 12.7816 7.86163C12.8038 7.88202 12.8176 7.91003 12.8201 7.94009C12.8201 8.01009 12.8201 8.06009 12.7001 8.07009H11.2501Z" fill="white"/>
<path d="M11.25 8.75007H9.80002C9.77262 8.74757 9.74714 8.73489 9.72863 8.71452C9.71012 8.69416 9.69991 8.66759 9.70002 8.64007C9.69702 8.62538 9.69736 8.61019 9.70102 8.59564C9.70468 8.5811 9.71157 8.56756 9.72118 8.55603C9.73078 8.54451 9.74285 8.53529 9.7565 8.52907C9.77015 8.52284 9.78502 8.51977 9.80002 8.52007H12.6C12.6428 8.51024 12.6872 8.51024 12.73 8.52007C12.7718 8.54052 12.8041 8.57636 12.82 8.62007C12.8229 8.63396 12.8228 8.64831 12.8197 8.66216C12.8166 8.67601 12.8106 8.68904 12.8021 8.70039C12.7936 8.71174 12.7828 8.72115 12.7703 8.72799C12.7579 8.73483 12.7442 8.73895 12.73 8.74007H11.25V8.75007Z" fill="white"/>
<path d="M11.2501 7.38014H9.86006C9.75006 7.38014 9.69006 7.38014 9.69006 7.26014C9.69006 7.14014 9.74006 7.15014 9.86006 7.14014H12.7201C12.7475 7.14504 12.772 7.16015 12.7887 7.18242C12.8054 7.20469 12.813 7.23246 12.8101 7.26014C12.8101 7.28931 12.7985 7.31729 12.7778 7.33792C12.7572 7.35855 12.7292 7.37014 12.7001 7.37014H11.2501V7.38014Z" fill="white"/>
<path d="M23.8 8.11994C23.8 8.20994 23.8 8.29994 23.8 8.38994C23.8021 8.41657 23.8021 8.44332 23.8 8.46994C23.8 8.55994 23.74 8.58994 23.67 8.58994C23.6547 8.59 23.6395 8.58686 23.6255 8.58072C23.6114 8.57458 23.5988 8.56557 23.5885 8.55427C23.5781 8.54297 23.5702 8.52963 23.5653 8.51511C23.5604 8.50059 23.5586 8.4852 23.56 8.46994C23.56 8.38994 23.56 8.29994 23.56 8.21994C23.56 8.13994 23.56 7.93994 23.56 7.79994C23.56 7.65994 23.56 7.62994 23.68 7.63994C23.8 7.64994 23.8 7.69994 23.8 7.80994C23.8 7.91994 23.8 8.01994 23.8 8.12994V8.11994Z" fill="white"/>
<path d="M34.79 26.36H36.47C36.5194 26.3571 36.5688 26.3646 36.615 26.3822C36.6612 26.3998 36.7031 26.4269 36.7381 26.4619C36.7731 26.4968 36.8002 26.5388 36.8178 26.585C36.8353 26.6312 36.8429 26.6806 36.84 26.73C36.84 27.18 36.84 27.63 36.84 28.08C36.8431 28.1653 36.814 28.2487 36.7584 28.3136C36.7028 28.3784 36.6248 28.42 36.54 28.43H33.18H33.02C32.9387 28.4179 32.8646 28.3768 32.8113 28.3143C32.758 28.2518 32.7291 28.1721 32.73 28.09C32.73 27.63 32.73 27.17 32.73 26.71C32.73 26.6215 32.7644 26.5365 32.826 26.473C32.8876 26.4096 32.9716 26.3726 33.06 26.37H34.79V26.36ZM33.45 27.71H36.11C36.1493 27.5018 36.1493 27.2881 36.11 27.08H33.45V27.71Z" fill="white"/>
<path d="M26.26 27.39C26.26 27.1155 26.3691 26.8522 26.5632 26.6581C26.7573 26.464 27.0205 26.355 27.295 26.355C27.5695 26.355 27.8328 26.464 28.0269 26.6581C28.221 26.8522 28.33 27.1155 28.33 27.39C28.33 27.6645 28.221 27.9277 28.0269 28.1218C27.8328 28.3159 27.5695 28.425 27.295 28.425C27.0205 28.425 26.7573 28.3159 26.5632 28.1218C26.3691 27.9277 26.26 27.6645 26.26 27.39ZM27.26 27.07C27.1738 27.07 27.0911 27.1042 27.0302 27.1652C26.9692 27.2261 26.935 27.3088 26.935 27.395C26.935 27.4812 26.9692 27.5638 27.0302 27.6248C27.0911 27.6857 27.1738 27.72 27.26 27.72C27.3462 27.72 27.4289 27.6857 27.4898 27.6248C27.5508 27.5638 27.585 27.4812 27.585 27.395C27.585 27.3088 27.5508 27.2261 27.4898 27.1652C27.4289 27.1042 27.3462 27.07 27.26 27.07Z" fill="white"/>
<path d="M41.44 27.7203H42.1C42.1648 27.7177 42.229 27.7332 42.2855 27.765C42.342 27.7968 42.3886 27.8436 42.42 27.9003C42.4472 27.9425 42.4647 27.9902 42.4713 28.0399C42.4779 28.0897 42.4733 28.1403 42.458 28.1881C42.4427 28.2359 42.4171 28.2797 42.3828 28.3164C42.3486 28.3531 42.3066 28.3817 42.26 28.4003C42.1906 28.4129 42.1195 28.4129 42.05 28.4003H40.82C40.7389 28.4089 40.6573 28.3911 40.587 28.3497C40.5168 28.3083 40.4618 28.2454 40.43 28.1703C40.4064 28.1163 40.3969 28.0573 40.4022 27.9986C40.4075 27.9399 40.4275 27.8835 40.4605 27.8347C40.4934 27.7858 40.5381 27.746 40.5904 27.7191C40.6428 27.6921 40.7011 27.6787 40.76 27.6803L41.44 27.7203Z" fill="white"/>
<path d="M41.4201 27.0703H40.6901C40.6036 27.0557 40.5254 27.0101 40.4701 26.942C40.4149 26.8738 40.3864 26.7879 40.3901 26.7003C40.3952 26.6109 40.4343 26.527 40.4994 26.4656C40.5645 26.4042 40.6506 26.3701 40.7401 26.3703H42.1001C42.146 26.3689 42.1918 26.3767 42.2348 26.393C42.2778 26.4094 42.3171 26.4341 42.3505 26.4657C42.384 26.4972 42.4109 26.5351 42.4297 26.5771C42.4484 26.619 42.4588 26.6643 42.4601 26.7103C42.4614 26.7575 42.4534 26.8046 42.4365 26.8488C42.4197 26.893 42.3943 26.9334 42.3618 26.9678C42.3293 27.0022 42.2903 27.0298 42.2471 27.0491C42.2039 27.0684 42.1574 27.079 42.1101 27.0803H41.4101L41.4201 27.0703Z" fill="white"/>
<path d="M24.84 17.3201V17.4101C24.4692 18.7499 23.6231 19.9088 22.46 20.6701C22.33 20.7501 22.19 20.8301 22.05 20.9001C22.0107 20.9107 21.9693 20.9107 21.93 20.9001C21.9094 20.8961 21.8898 20.8878 21.8726 20.8757C21.8553 20.8637 21.8408 20.8481 21.83 20.8301C21.8228 20.8144 21.8191 20.7974 21.8191 20.7801C21.8191 20.7629 21.8228 20.7458 21.83 20.7301C21.8572 20.6966 21.8913 20.6693 21.93 20.6501C23.0533 20.0516 23.9232 19.0681 24.38 17.8801C24.46 17.6901 24.52 17.4801 24.59 17.2801C24.59 17.2801 24.59 17.2201 24.59 17.2001C24.59 17.1801 24.68 17.1201 24.72 17.1201C24.76 17.1201 24.85 17.2301 24.84 17.3201Z" fill="white"/>
<path d="M24.1 17H23.57C23.5338 17.0085 23.4962 17.0085 23.46 17C23.46 17 23.38 16.93 23.38 16.9C23.3833 16.8778 23.3912 16.8565 23.4033 16.8375C23.4154 16.8186 23.4313 16.8024 23.45 16.79C23.4926 16.779 23.5374 16.779 23.58 16.79H24.72C24.8 16.79 24.85 16.85 24.85 16.91C24.85 16.97 24.85 17.02 24.72 17.03H24.1V17Z" fill="white"/>
<path d="M22.7401 17H22.4601C22.3701 17 22.3301 17 22.3301 16.89C22.3301 16.78 22.3301 16.77 22.4601 16.77H23.0001C23.0175 16.7685 23.0351 16.7708 23.0516 16.7768C23.068 16.7828 23.083 16.7923 23.0954 16.8047C23.1078 16.8171 23.1173 16.832 23.1233 16.8485C23.1293 16.865 23.1316 16.8825 23.1301 16.9C23.1301 16.98 23.0701 17.01 22.9901 17.01L22.7401 17Z" fill="white"/>
<path d="M13.27 17.4699C13.27 17.5999 13.27 17.7199 13.27 17.8499C13.2757 17.8864 13.2757 17.9235 13.27 17.9599C13.2679 17.9743 13.2626 17.988 13.2545 18.0001C13.2465 18.0122 13.236 18.0224 13.2236 18.0301C13.2112 18.0377 13.1973 18.0425 13.1829 18.0442C13.1685 18.0459 13.1538 18.0444 13.14 18.0399C13.0974 18.0174 13.0626 17.9825 13.04 17.9399C13.04 17.9399 13.04 17.8899 13.04 17.8599C13.04 17.5866 13.04 17.3166 13.04 17.0499C13.04 16.9699 13.1 16.9199 13.16 16.9199C13.1936 16.9248 13.2243 16.9416 13.2463 16.9674C13.2684 16.9931 13.2804 17.026 13.28 17.0599C13.282 17.0932 13.282 17.1266 13.28 17.1599C13.2734 17.2399 13.27 17.3433 13.27 17.4699Z" fill="white"/>
<path d="M13 18.6503C13 18.5703 13 18.4903 13 18.4203C12.9985 18.4042 13.0005 18.3879 13.006 18.3726C13.0115 18.3574 13.0203 18.3435 13.0317 18.332C13.0432 18.3206 13.0571 18.3118 13.0723 18.3063C13.0876 18.3008 13.1039 18.2988 13.12 18.3003C13.1353 18.2989 13.1507 18.3007 13.1652 18.3056C13.1797 18.3105 13.193 18.3184 13.2043 18.3288C13.2156 18.3391 13.2247 18.3517 13.2308 18.3658C13.2369 18.3798 13.2401 18.395 13.24 18.4103C13.24 18.5703 13.24 18.7303 13.24 18.8903C13.2401 18.9056 13.2369 18.9208 13.2308 18.9348C13.2247 18.9489 13.2156 18.9615 13.2043 18.9719C13.193 18.9822 13.1797 18.9901 13.1652 18.995C13.1507 18.9999 13.1353 19.0017 13.12 19.0003C13.1047 19.0004 13.0895 18.9972 13.0755 18.9911C13.0614 18.9849 13.0488 18.9759 13.0385 18.9646C13.0281 18.9533 13.0202 18.94 13.0153 18.9255C13.0104 18.911 13.0086 18.8956 13.01 18.8803C13.01 18.8003 13.01 18.7203 13.01 18.6503H13Z" fill="white"/>
<path d="M15.75 8.88012C15.6344 8.88012 15.52 8.85736 15.4132 8.81313C15.3065 8.76891 15.2095 8.70409 15.1277 8.62237C15.046 8.54066 14.9812 8.44365 14.937 8.33688C14.8928 8.23011 14.87 8.11568 14.87 8.00012C14.8726 7.76753 14.9661 7.54521 15.1306 7.38074C15.2951 7.21626 15.5174 7.12272 15.75 7.12012C15.8673 7.12009 15.9833 7.14349 16.0914 7.18896C16.1995 7.23443 16.2974 7.30105 16.3794 7.38489C16.4614 7.46874 16.5258 7.56813 16.5688 7.67721C16.6119 7.7863 16.6327 7.90288 16.63 8.02012C16.63 8.13476 16.6071 8.24825 16.5627 8.35391C16.5182 8.45958 16.4531 8.55529 16.3711 8.63541C16.2891 8.71554 16.1919 8.77846 16.0852 8.82048C15.9786 8.86251 15.8646 8.88278 15.75 8.88012ZM15.75 7.37012C15.5819 7.36741 15.4196 7.43092 15.2979 7.54693C15.1763 7.66293 15.1052 7.82212 15.1 7.99012C15.096 8.11704 15.1299 8.24228 15.1974 8.34988C15.2648 8.45749 15.3627 8.5426 15.4787 8.59439C15.5946 8.64618 15.7234 8.66231 15.8485 8.64072C15.9736 8.61912 16.0895 8.56079 16.1814 8.47314C16.2733 8.38549 16.337 8.27249 16.3645 8.14851C16.392 8.02453 16.382 7.89517 16.3357 7.77691C16.2895 7.65864 16.2091 7.55681 16.1048 7.48438C16.0005 7.41194 15.877 7.37216 15.75 7.37012Z" fill="white"/>
</svg>
