<svg width="50" height="50" viewBox="0 0 50 50" fill="none" xmlns="http://www.w3.org/2000/svg">
<path d="M20.5599 38.0001C20.6478 35.982 20.9054 33.9749 21.3299 32.0001H12.9999C12.9999 32.1001 12.9999 32.2001 12.9999 32.3001C12.9999 32.4001 12.9999 32.4001 12.9999 32.4501C13.0026 32.499 12.9953 32.548 12.9785 32.594C12.9616 32.64 12.9355 32.6821 12.9018 32.7176C12.8681 32.7532 12.8275 32.7815 12.7825 32.8009C12.7374 32.8202 12.6889 32.8301 12.6399 32.8301C12.5902 32.8342 12.5401 32.828 12.4929 32.8118C12.4457 32.7955 12.4024 32.7697 12.3657 32.7358C12.3291 32.702 12.2998 32.6609 12.2799 32.6151C12.2599 32.5694 12.2497 32.52 12.2499 32.4701C12.2499 32.3001 12.2499 32.1401 12.2499 31.9701C12.2499 31.8001 12.2499 31.9101 12.2499 31.8801L12.1299 31.8201C11.8262 31.6835 11.5664 31.4654 11.3792 31.19C11.1921 30.9146 11.085 30.5927 11.0699 30.2601C11.0699 30.1401 11.0699 30.0301 11.0699 29.9101C11.0699 22.5301 11.0699 15.1467 11.0699 7.76006C11.0626 7.53788 11.0861 7.31575 11.1399 7.10006C11.243 6.73458 11.4572 6.41021 11.7528 6.1719C12.0484 5.93359 12.4109 5.79316 12.7899 5.77006H25.5199C25.8143 5.75372 26.1085 5.80503 26.3799 5.92006C26.6879 6.05418 26.9527 6.27091 27.1451 6.54624C27.3374 6.82157 27.4499 7.14477 27.4699 7.48006C27.4699 7.58006 27.4699 7.69006 27.4699 7.80006C27.4699 12.7067 27.4699 17.6134 27.4699 22.5201V22.7701L40.5399 24.0001C40.3999 24.0001 40.4099 24.1501 40.4099 24.2601C40.4099 28.2601 40.4099 32.2601 40.4099 36.2601C40.4099 36.6201 40.4099 36.5301 40.1299 36.6801L39.7799 36.8301V37.0501C39.7799 38.3201 39.7799 39.5901 39.7799 40.8701C39.7871 40.9239 39.7749 40.9786 39.7456 41.0243C39.7164 41.0701 39.6718 41.104 39.6199 41.1201L33.5099 43.9001C33.4058 43.933 33.294 43.933 33.1899 43.9001L31.0799 43.5801L29.0199 43.2701L26.9499 43.0001L24.5999 42.6401L22.7899 42.3601C22.6399 42.3601 22.6399 42.3601 22.6399 42.1801C22.6399 41.1667 22.6399 40.1667 22.6399 39.1801C22.6399 39.1801 22.6399 39.0801 22.6399 39.0401C22.7899 39.0401 33.1699 40.1601 33.3999 40.2101V43.4501C33.3999 43.0001 33.4699 42.5501 33.5099 42.0901C33.5499 41.6301 33.6099 40.9301 33.6599 40.3501C33.6599 40.1001 33.7599 39.9801 33.9699 39.8801L38.1799 37.6501C38.2286 37.6288 38.2702 37.5941 38.2999 37.5501L33.7099 39.4701C33.7099 39.3101 33.7099 39.1901 33.7099 39.0601C33.7099 38.6601 33.7599 38.2601 33.7999 37.8601C33.8499 37.3001 33.9099 36.7401 33.9699 36.1901C34.0599 35.4201 34.1899 34.6501 34.3499 33.8901C34.5099 33.1301 34.7899 32.1501 35.0599 31.2901C35.5799 29.6201 36.1399 27.9601 36.7199 26.2901C36.7377 26.2217 36.7728 26.1591 36.8218 26.1083C36.8709 26.0575 36.9322 26.0202 36.9999 26.0001L39.7999 24.4301C39.8468 24.4059 39.8877 24.3718 39.9199 24.3301L38.9699 24.6801L37.0699 25.3801C36.9746 25.4026 36.8753 25.4026 36.7799 25.3801L35.3599 25.2301L34.1999 25.1101L32.7499 25.0001L31.2399 24.8401L29.4399 24.6501L27.9999 24.5101H27.5599C27.5599 24.6401 27.5599 29.5101 27.5599 29.7701L35.0599 30.5101C34.8899 31.0901 34.7099 31.6401 34.5399 32.2101L33.7999 32.1401L32.2599 31.9801L30.4899 31.7901L28.6999 31.6101L27.2799 31.4601H26.9999C26.964 31.4492 26.9258 31.4492 26.8899 31.4601L26.6199 31.6901L27.2099 31.7601C27.2099 31.8801 27.2699 35.0101 27.2099 35.2701C27.0599 35.3701 20.6999 38.0001 20.5599 38.0001ZM26.7199 15.1901H11.9999H11.8699V15.4301C11.8699 20.2501 11.8699 25.0734 11.8699 29.9001C11.8699 29.9801 11.8699 30.0601 11.8699 30.1301C11.8843 30.3906 11.9943 30.6367 12.1788 30.8212C12.3633 31.0057 12.6094 31.1157 12.8699 31.1301H20.9999C21.1951 31.1638 21.3947 31.1638 21.5899 31.1301C21.623 31.1238 21.6569 31.1238 21.6899 31.1301C21.8799 31.1301 22.0799 31.1301 22.2699 31.1301H24.8299L22.5099 30.8901L23.3599 30.5901C23.2668 30.5818 23.1731 30.5818 23.0799 30.5901C22.6932 30.5553 22.304 30.6207 21.9499 30.7801C21.8518 30.8187 21.7516 30.8521 21.6499 30.8801L21.7099 30.5901H18.5399C18.4931 30.5804 18.4516 30.5534 18.4238 30.5144C18.396 30.4755 18.3839 30.4275 18.3899 30.3801C18.3949 30.3359 18.416 30.2951 18.4492 30.2655C18.4825 30.236 18.5254 30.2198 18.5699 30.2201H21.6899C21.8499 30.2201 21.8499 30.2201 21.8999 30.0701C22.4199 28.3801 22.9899 26.7101 23.5699 25.0701L23.6799 24.7701L25.7399 24.9801H25.6399L25.0799 25.1901C25.0318 25.2026 24.988 25.2278 24.9528 25.2629C24.9177 25.2981 24.8925 25.342 24.8799 25.3901C24.7399 25.8101 24.5899 26.2201 24.4499 26.6301L23.3499 30.0001C23.3499 30.0501 23.3499 30.1101 23.3499 30.1901H23.7199C23.8799 30.1901 24.0099 30.1901 24.0599 30.3701H24.2099C24.5499 30.2501 24.8799 30.1201 25.2099 30.0201C25.2977 29.9967 25.3792 29.9541 25.4484 29.8953C25.5176 29.8365 25.5728 29.7629 25.6099 29.6801C25.6781 29.5411 25.7253 29.3929 25.7499 29.2401C25.7499 29.1001 25.7499 28.9801 25.9299 28.9201C25.9299 27.6401 25.9299 26.3701 25.9299 25.0901L26.7099 25.1601V24.5201L23.6199 24.2001L26.7199 23.1101V15.1901ZM26.7199 14.4201V14.2101C26.7199 12.0367 26.7199 9.86339 26.7199 7.69006C26.7199 7.62006 26.7199 7.55006 26.7199 7.47006C26.7105 7.23539 26.6241 7.01034 26.4741 6.82962C26.3241 6.6489 26.1188 6.52255 25.8899 6.47006C25.7471 6.45334 25.6028 6.45334 25.4599 6.47006H12.9999C12.8456 6.46586 12.692 6.49333 12.5487 6.55077C12.4054 6.60822 12.2754 6.69441 12.1667 6.80405C12.058 6.91368 11.973 7.04442 11.9168 7.18821C11.8605 7.33199 11.8344 7.48577 11.8399 7.64006C11.8399 9.84006 11.8399 12.0401 11.8399 14.2401V14.4401L26.7199 14.4201ZM39.0499 26.2201H38.8999C38.6799 26.3001 38.4599 26.3901 38.2399 26.4601C38.189 26.4756 38.1429 26.504 38.1061 26.5425C38.0693 26.5811 38.0431 26.6284 38.0299 26.6801C37.5699 28.0401 37.0999 29.4001 36.6599 30.7601C36.2024 32.0465 35.848 33.3674 35.5999 34.7101C35.4799 35.4501 35.3899 36.1901 35.2899 36.9301C35.285 37.0066 35.285 37.0835 35.2899 37.1601L35.4899 37.0801L36.6999 36.5701L38.9299 35.6401C39.0299 35.6401 39.0799 35.5501 39.0599 35.4401C39.0583 35.4167 39.0583 35.3934 39.0599 35.3701C39.0599 32.3701 39.0599 29.3701 39.0599 26.3701L39.0499 26.2201ZM22.7599 32.0001C22.4402 33.315 22.2196 34.6521 22.0999 36.0001L25.8899 34.4101V32.8201C25.6299 32.7401 25.5599 32.6501 25.5499 32.3901C25.5499 32.3001 25.5499 32.2001 25.5499 32.1101C25.5527 32.0668 25.5527 32.0233 25.5499 31.9801L22.7599 32.0001ZM26.7599 29.3701H26.5099C26.1499 29.3701 26.1499 29.3701 26.0599 29.6801C26.2799 29.5601 26.5099 29.6801 26.7399 29.6801L26.7599 29.3701Z" fill="white"/>
<path d="M33.6998 36.0002C33.5398 37.2202 33.4398 38.4302 33.3898 39.6602L20.7898 38.3902L20.9098 38.3202L25.2698 36.4102L27.4498 35.4102C27.5544 35.3802 27.6652 35.3802 27.7698 35.4102L29.2098 35.5602L30.9998 35.7502L32.4198 35.9002L33.5998 36.0002H33.6998Z" fill="white"/>
<path d="M23.6899 19.5101C23.6899 19.5701 23.6899 19.6301 23.6899 19.6901C23.6899 20.0001 23.6899 20.3001 23.6899 20.6101C23.6888 20.682 23.665 20.7517 23.6219 20.8092C23.5788 20.8666 23.5186 20.909 23.4499 20.9301C23.382 20.9576 23.3073 20.9637 23.2358 20.9476C23.1643 20.9316 23.0995 20.894 23.0499 20.8401C23.0109 20.797 22.981 20.7464 22.9621 20.6914C22.9432 20.6364 22.9356 20.5781 22.9399 20.5201C22.9399 20.2401 22.9399 19.9568 22.9399 19.6701C22.9399 19.6201 22.9399 19.5601 22.9399 19.4901L22.7899 19.5901L22.0799 20.1201C22.0243 20.1683 21.9555 20.1988 21.8825 20.2077C21.8095 20.2166 21.7355 20.2035 21.6699 20.1701C21.6167 20.1439 21.5704 20.1057 21.5347 20.0584C21.4989 20.0111 21.4748 19.9561 21.4641 19.8978C21.4534 19.8395 21.4565 19.7795 21.4731 19.7226C21.4897 19.6657 21.5195 19.6135 21.5599 19.5701L21.6899 19.4601L22.5399 18.8201L22.6799 18.7101L22.5399 18.6001L21.6299 17.9201C21.5708 17.8838 21.5228 17.8319 21.491 17.7702C21.4593 17.7085 21.4451 17.6393 21.4499 17.5701C21.4543 17.5109 21.473 17.4537 21.5042 17.4032C21.5355 17.3527 21.5784 17.3105 21.6294 17.2801C21.6804 17.2497 21.7379 17.232 21.7972 17.2285C21.8565 17.2251 21.9157 17.2359 21.9699 17.2601L22.1199 17.3601L22.7599 17.8401L22.9099 17.9501C22.9099 17.8901 22.9099 17.8501 22.9099 17.8101C22.9099 17.5101 22.9099 17.2101 22.9099 16.9101C22.9022 16.8253 22.9224 16.7403 22.9676 16.668C23.0127 16.5958 23.0803 16.5404 23.1599 16.5101C23.2109 16.49 23.2658 16.4815 23.3205 16.4852C23.3752 16.4889 23.4284 16.5047 23.4763 16.5315C23.5241 16.5583 23.5654 16.5954 23.5972 16.6402C23.6289 16.6849 23.6504 16.7361 23.6599 16.7901C23.6647 16.8567 23.6647 16.9235 23.6599 16.9901C23.6599 17.2501 23.6599 17.5001 23.6599 17.7601C23.6599 17.8101 23.6599 17.8701 23.6599 17.9501L23.7999 17.8601L24.4999 17.3401C24.5738 17.285 24.6593 17.2474 24.7499 17.2301C24.8257 17.2226 24.9018 17.2401 24.9668 17.2798C25.0317 17.3195 25.082 17.3793 25.1099 17.4501C25.1411 17.5151 25.1521 17.588 25.1414 17.6593C25.1307 17.7307 25.0988 17.7971 25.0499 17.8501C25.0383 17.9017 25.0215 17.9519 24.9999 18.0001L24.1599 18.6301L23.9999 18.7001L24.1099 18.8001L25.0299 19.4901C25.1201 19.5469 25.1847 19.6366 25.2099 19.7401C25.226 19.8102 25.2214 19.8835 25.1965 19.951C25.1716 20.0185 25.1276 20.0772 25.0699 20.1201C25.0093 20.1656 24.9356 20.1901 24.8599 20.1901C24.7842 20.1901 24.7105 20.1656 24.6499 20.1201L24.3799 19.9201L23.7699 19.4601L23.6899 19.5101Z" fill="white"/>
<path d="M14.1999 19.6099C14.1999 20.4166 14.1999 21.2199 14.1999 22.0199C14.2072 22.0897 14.2072 22.1601 14.1999 22.2299C14.1855 22.3163 14.1409 22.3949 14.0741 22.4515C14.0073 22.5082 13.9225 22.5393 13.8349 22.5393C13.7472 22.5393 13.6625 22.5082 13.5956 22.4515C13.5288 22.3949 13.4842 22.3163 13.4699 22.2299C13.4632 22.1634 13.4632 22.0964 13.4699 22.0299C13.4699 20.4166 13.4699 18.7999 13.4699 17.1799C13.4644 17.12 13.4644 17.0598 13.4699 16.9999C13.4699 16.9018 13.5088 16.8076 13.5782 16.7383C13.6476 16.6689 13.7417 16.6299 13.8399 16.6299C13.938 16.6299 14.0321 16.6689 14.1015 16.7383C14.1709 16.8076 14.2099 16.9018 14.2099 16.9999C14.2162 17.0664 14.2162 17.1334 14.2099 17.1999C14.2032 17.9999 14.1999 18.8032 14.1999 19.6099Z" fill="white"/>
<path d="M14.2 11.4002C14.2 11.8402 14.2 12.2902 14.2 12.7302C14.2074 12.8 14.2074 12.8704 14.2 12.9402C14.1808 13.0212 14.1348 13.0934 14.0694 13.1451C14.0041 13.1967 13.9233 13.2248 13.84 13.2248C13.7567 13.2248 13.6759 13.1967 13.6106 13.1451C13.5452 13.0934 13.4992 13.0212 13.48 12.9402C13.4726 12.8738 13.4726 12.8067 13.48 12.7402C13.48 11.8402 13.48 10.9402 13.48 10.0402C13.4725 9.97377 13.4725 9.90668 13.48 9.84022C13.4992 9.7592 13.5452 9.68703 13.6106 9.6354C13.6759 9.58376 13.7567 9.55566 13.84 9.55566C13.9233 9.55566 14.0041 9.58376 14.0694 9.6354C14.1348 9.68703 14.1808 9.7592 14.2 9.84022C14.2086 9.90996 14.2086 9.98049 14.2 10.0502C14.2 10.5002 14.2 11.0002 14.2 11.4002Z" fill="white"/>
<path d="M21.18 7.18994H23.81C23.8586 7.1925 23.9044 7.21365 23.9379 7.24901C23.9714 7.28436 23.99 7.33124 23.99 7.37994C23.9882 7.42644 23.9702 7.47086 23.9392 7.50554C23.9081 7.54022 23.866 7.563 23.82 7.56994H18.56C18.5113 7.56488 18.4665 7.54127 18.4349 7.50402C18.4032 7.46677 18.3871 7.41875 18.39 7.36994C18.3924 7.32298 18.4121 7.27859 18.4454 7.24534C18.4786 7.21209 18.523 7.19235 18.57 7.18994H21.18Z" fill="white"/>
<path d="M38.7199 30.8399C38.7699 31.1999 38.7699 31.1999 38.4599 31.3199L36.8099 31.9299L36.6299 31.9899C36.7599 31.5299 36.8999 31.1099 37.0399 30.6699L38.7199 30.8399Z" fill="white"/>
<path d="M35.6999 36.1699L36.6999 36.2699C36.3599 36.4299 36.0099 36.5699 35.6299 36.7199C35.6362 36.5348 35.6596 36.3507 35.6999 36.1699Z" fill="white"/>
</svg>
