<svg width="50" height="50" viewBox="0 0 50 50" fill="none" xmlns="http://www.w3.org/2000/svg">
<path d="M28.31 42.8099C28.31 42.9899 28.31 43.1499 28.31 43.3099C28.313 43.3732 28.3025 43.4365 28.2793 43.4955C28.2561 43.5546 28.2207 43.608 28.1753 43.6524C28.13 43.6968 28.0758 43.7311 28.0163 43.7531C27.9568 43.775 27.8933 43.7842 27.83 43.7799H9.72002C9.65978 43.7843 9.59928 43.7758 9.54265 43.7547C9.48602 43.7337 9.43459 43.7007 9.39188 43.658C9.34916 43.6153 9.31616 43.5639 9.29513 43.5072C9.2741 43.4506 9.26554 43.3901 9.27002 43.3299C9.27002 43.2399 9.27002 43.1499 9.27002 43.0599C9.27002 42.9699 9.27002 42.8899 9.27002 42.8099H9.18002C9.07373 42.7867 8.97611 42.734 8.89831 42.658C8.8205 42.582 8.76565 42.4856 8.74002 42.3799L8.31002 40.9999L7.40002 38.1799C7.36339 38.0963 7.34448 38.0061 7.34448 37.9149C7.34448 37.8236 7.36339 37.7334 7.40002 37.6499C7.4137 37.5906 7.4137 37.5291 7.40002 37.4699C7.40002 37.1899 7.40002 36.9099 7.40002 36.6399C7.39354 36.5757 7.40159 36.5108 7.42357 36.4502C7.44556 36.3895 7.48091 36.3346 7.52701 36.2894C7.57311 36.2443 7.62878 36.2101 7.68988 36.1894C7.75099 36.1687 7.81598 36.162 7.88002 36.1699H8.66002V35.9299C8.66002 31.1632 8.66002 26.3965 8.66002 21.6299C8.66002 21.5599 8.66002 21.4899 8.66002 21.4099C8.66264 21.2657 8.72174 21.1284 8.8246 21.0274C8.92747 20.9264 9.06587 20.8698 9.21002 20.8699H23.62C23.62 20.7899 23.62 20.7199 23.62 20.6499C23.62 18.7365 23.62 16.8199 23.62 14.8999C23.62 12.4465 23.62 9.98986 23.62 7.52986C23.62 7.52986 23.62 7.42985 23.62 7.37985C23.6238 7.30846 23.65 7.24007 23.6949 7.18442C23.7398 7.12877 23.801 7.08868 23.87 7.06985C23.953 7.0594 24.037 7.0594 24.12 7.06985H41.79C41.8442 7.06682 41.8984 7.07543 41.949 7.0951C41.9996 7.11477 42.0453 7.14505 42.0832 7.1839C42.1211 7.22274 42.1503 7.26926 42.1687 7.32031C42.1871 7.37136 42.1944 7.42576 42.19 7.47985C42.19 7.47985 42.19 7.57985 42.19 7.62985C42.19 14.4032 42.19 21.1765 42.19 27.9499C42.1949 28.0231 42.1949 28.0966 42.19 28.1699C42.1801 28.2582 42.1379 28.3398 42.0714 28.3989C42.0049 28.458 41.919 28.4904 41.83 28.4899H28.94C28.94 28.6299 28.89 35.9499 28.94 36.1999H29.68C29.7368 36.1971 29.7936 36.206 29.8469 36.2259C29.9002 36.2458 29.9489 36.2763 29.99 36.3156C30.0312 36.3548 30.0639 36.4021 30.0863 36.4544C30.1086 36.5067 30.1201 36.563 30.12 36.6199C30.12 36.8899 30.12 37.1499 30.12 37.4199C30.1171 37.5022 30.1417 37.5831 30.19 37.6499C30.2425 37.7266 30.2754 37.815 30.2858 37.9074C30.2963 37.9998 30.284 38.0933 30.25 38.1799L29.58 40.2899C29.36 40.9699 29.14 41.6499 28.93 42.2899C28.9024 42.4347 28.8256 42.5655 28.7126 42.6603C28.5997 42.755 28.4574 42.8079 28.31 42.8099ZM41.45 13.4899H35.38C35.38 13.5799 35.3 13.6799 35.25 13.7699C35.0235 14.1613 34.671 14.4645 34.25 14.6299C33.8291 14.8141 33.3745 14.9092 32.915 14.9092C32.4555 14.9092 32.001 14.8141 31.58 14.6299C31.3298 14.5367 31.1022 14.3913 30.9126 14.2034C30.7229 14.0154 30.5754 13.7892 30.48 13.5399H24.38V20.9099H28.3C28.3804 20.9056 28.4607 20.9182 28.536 20.9467C28.6112 20.9753 28.6797 21.0191 28.7371 21.0756C28.7945 21.132 28.8395 21.1997 28.8693 21.2745C28.899 21.3493 28.9129 21.4294 28.91 21.5099C28.91 21.5799 28.91 21.6399 28.91 21.7099C28.91 23.1832 28.91 24.6565 28.91 26.1299V26.3199C29.11 26.3199 41.33 26.3199 41.45 26.3199V13.4899ZM26.52 36.1499V28.4599H24C23.71 28.4599 23.58 28.3299 23.58 28.0499C23.58 27.7699 23.58 27.7399 23.58 27.5599H11.5C11.4463 27.5553 11.3923 27.5625 11.3417 27.581C11.2911 27.5995 11.2452 27.6288 11.2071 27.6669C11.169 27.705 11.1397 27.7509 11.1212 27.8015C11.1027 27.8521 11.0955 27.9062 11.1 27.9599C11.1 30.6265 11.1 33.2932 11.1 35.9599C11.1 36.0099 11.1 36.0699 11.1 36.1299H12.25C11.8838 35.5296 11.7152 34.8297 11.7677 34.1286C11.8203 33.4274 12.0915 32.7605 12.5432 32.2216C12.9948 31.6827 13.6041 31.2991 14.2852 31.1248C14.9664 30.9505 15.685 30.9942 16.34 31.2499C16.8105 30.7539 17.3968 30.3825 18.0462 30.1689C18.6956 29.9554 19.3879 29.9064 20.0609 30.0263C20.7339 30.1462 21.3666 30.4314 21.9023 30.8561C22.438 31.2808 22.8598 31.8319 23.13 32.4599C23.5646 32.4679 23.9911 32.5793 24.3742 32.7847C24.7573 32.9901 25.086 33.2838 25.3332 33.6413C25.5804 33.9989 25.7389 34.4102 25.7957 34.8412C25.8526 35.2721 25.806 35.7104 25.66 36.1199L26.52 36.1499ZM28.94 38.4999H28.87H8.72002C8.72002 38.4999 8.72002 38.5999 8.72002 38.6499L9.28002 40.4099L9.63002 41.5399C9.63002 41.6299 9.70002 41.6799 9.79002 41.6599H27.73C27.7731 41.666 27.8169 41.666 27.86 41.6599C27.8998 41.6475 27.9348 41.623 27.96 41.5899C27.9654 41.5534 27.9654 41.5163 27.96 41.4799L28.85 38.6599L28.94 38.4999ZM41.45 9.20985H24.38V12.7299H41.38H41.48L41.45 9.20985ZM23.62 21.9999C23.46 21.9999 10 21.9999 9.85002 21.9999V25.2699H23.62V24.8699H22.79C22.54 24.8699 22.43 24.7699 22.43 24.5199C22.43 23.9265 22.43 23.3332 22.43 22.7399C22.4211 22.6919 22.4239 22.6426 22.4383 22.596C22.4528 22.5494 22.4783 22.5071 22.5128 22.4726C22.5473 22.4381 22.5896 22.4126 22.6362 22.3982C22.6827 22.3838 22.7321 22.3809 22.78 22.3899H23.62V21.9999ZM19.34 36.1599H20.34C20.4172 36.1586 20.4929 36.138 20.56 36.0999C20.964 35.8645 21.2867 35.5115 21.485 35.0881C21.6833 34.6647 21.7478 34.1909 21.67 33.7299C21.6064 33.2969 21.422 32.8905 21.1381 32.5574C20.8542 32.2243 20.4823 31.9779 20.0648 31.8464C19.6474 31.715 19.2014 31.7037 18.7778 31.8139C18.3543 31.9242 17.9704 32.1515 17.67 32.4699C17.4245 32.7202 17.2387 33.0228 17.1265 33.355C17.0142 33.6872 16.9784 34.0405 17.0216 34.3884C17.0649 34.7364 17.1861 35.0701 17.3763 35.3647C17.5665 35.6593 17.8207 35.9072 18.12 36.0899C18.1947 36.1372 18.2816 36.1616 18.37 36.1599H19.34ZM23.62 26.1599H9.85002V36.1599C10.02 36.1599 10.19 36.1599 10.36 36.1599V35.9199C10.36 33.2532 10.36 30.5865 10.36 27.9199C10.3444 27.709 10.396 27.4987 10.5074 27.319C10.6188 27.1394 10.7842 26.9996 10.98 26.9199C11.1527 26.8429 11.3413 26.8087 11.53 26.8199H23.53H23.66C23.66 26.6199 23.66 26.4299 23.66 26.2399C23.65 26.2085 23.6366 26.1783 23.62 26.1499V26.1599ZM41.45 7.78985H24.38V8.44985H41.46C41.46 8.25985 41.46 8.07985 41.46 7.90985C41.46 7.73985 41.45 7.82985 41.45 7.78985ZM8.32002 37.5199H29.25V36.9999H8.32002V37.5199ZM17.42 36.1599C17.1445 35.9001 16.924 35.5878 16.7714 35.2412C16.6188 34.8947 16.5373 34.5211 16.5317 34.1425C16.5261 33.764 16.5965 33.3881 16.7388 33.0372C16.8811 32.6864 17.0923 32.3676 17.36 32.0999C17.8507 31.6162 18.5025 31.3304 19.1906 31.2972C19.8788 31.264 20.5551 31.4857 21.09 31.9199C21.3719 32.1479 21.6055 32.4299 21.7772 32.7492C21.9488 33.0686 22.0552 33.4189 22.09 33.7799C22.1399 34.2154 22.0872 34.6565 21.9362 35.0681C21.7851 35.4796 21.5399 35.8501 21.22 36.1499H22.04L22.11 36.0499C22.6085 35.3445 22.8162 34.4743 22.69 33.6199C22.6508 33.1387 22.5104 32.6712 22.278 32.248C22.0457 31.8249 21.7266 31.4555 21.3417 31.1641C20.9568 30.8727 20.5147 30.6658 20.0444 30.557C19.574 30.4482 19.086 30.4399 18.6123 30.5327C18.1385 30.6255 17.6896 30.8172 17.2951 31.0954C16.9005 31.3736 16.5691 31.7319 16.3225 32.1469C16.0759 32.562 15.9198 33.0244 15.8642 33.504C15.8086 33.9835 15.8549 34.4694 16 34.9299C16.1008 35.3358 16.2773 35.7192 16.52 36.0599C16.52 36.0599 16.58 36.1699 16.66 36.1699L17.42 36.1599ZM28.91 27.6899C29.05 27.6899 41.28 27.6899 41.44 27.6899V27.0499C41.23 27.0499 29.03 27.0499 28.91 27.0499V27.6899ZM15.77 36.1499C15.4653 35.6109 15.2848 35.0107 15.2415 34.3931C15.1983 33.7755 15.2934 33.156 15.52 32.5799C15.3033 32.5261 15.0767 32.5261 14.86 32.5799C14.4573 32.6349 14.0835 32.8196 13.7952 33.1061C13.5068 33.3925 13.3197 33.7651 13.262 34.1675C13.2044 34.5698 13.2794 34.98 13.4757 35.3359C13.672 35.6917 13.979 35.974 14.35 36.1399C14.4448 36.1817 14.5465 36.2054 14.65 36.2099H15.77V36.1499ZM24.38 24.8799V25.2699H24.44H27.78C27.78 24.9899 27.78 22.1299 27.78 22.0099H24.38V22.4099H26.94C27.0143 22.4099 27.0855 22.4394 27.138 22.4919C27.1905 22.5444 27.22 22.6156 27.22 22.6899C27.22 22.6899 27.22 22.7899 27.22 22.8399C27.22 23.3799 27.22 23.9199 27.22 24.4599C27.22 24.4599 27.22 24.5399 27.22 24.5799C27.2248 24.623 27.2198 24.6667 27.2054 24.7077C27.191 24.7487 27.1675 24.7859 27.1368 24.8167C27.1061 24.8474 27.0689 24.8708 27.0279 24.8852C26.9869 24.8996 26.9432 24.9046 26.9 24.8999H24.38V24.8799ZM27.28 28.4699V36.1499C27.445 36.1833 27.615 36.1833 27.78 36.1499V28.4599L27.28 28.4699ZM15.95 31.7699H15.87C15.4292 31.6529 14.9663 31.6469 14.5226 31.7526C14.0789 31.8582 13.6684 32.0722 13.3276 32.3753C12.9868 32.6784 12.7265 33.0613 12.5699 33.4896C12.4132 33.9179 12.3652 34.3784 12.43 34.8299C12.4914 35.2944 12.678 35.7334 12.97 36.0999C12.97 36.0999 13.05 36.1999 13.09 36.1999H13.7C13.3028 35.8621 13.0315 35.3998 12.9303 34.8883C12.8291 34.3767 12.904 33.846 13.1427 33.3824C13.3815 32.9188 13.7701 32.5496 14.2453 32.3349C14.7205 32.1202 15.2543 32.0726 15.76 32.1999L15.95 31.7699ZM24.38 24.2699C24.57 24.2699 26.5 24.2699 26.62 24.2699C26.658 23.8407 26.658 23.409 26.62 22.9799H24.38V24.2699ZM22.9 36.1499H24.11C24.1581 36.1526 24.2061 36.1418 24.2485 36.1189C24.2908 36.0959 24.326 36.0616 24.35 36.0199C24.5619 35.7126 24.6516 35.3375 24.6017 34.9677C24.5517 34.5978 24.3657 34.2599 24.08 34.0199C23.8977 33.8542 23.6725 33.7433 23.43 33.6999C23.5108 34.5517 23.3256 35.4076 22.9 36.1499ZM27.45 42.8099H10.13C10.13 42.8799 10.13 42.9299 10.19 42.9299H27.41L27.45 42.8099ZM31.28 13.4999C31.3307 13.5652 31.3876 13.6255 31.45 13.6799C31.5912 13.7867 31.7418 13.8804 31.9 13.9599C32.3986 14.1726 32.9518 14.2216 33.48 14.0999C33.7828 14.0462 34.0678 13.9192 34.31 13.7299C34.39 13.6699 34.46 13.5899 34.54 13.5099C34.4 13.4699 31.55 13.4599 31.28 13.4999ZM25.09 36.1599C25.2563 35.8182 25.33 35.4389 25.3037 35.0598C25.2773 34.6807 25.1519 34.3152 24.94 33.9999C24.7688 33.7186 24.5339 33.4816 24.2542 33.3079C23.9746 33.1342 23.658 33.0287 23.33 32.9999V33.0899C23.3273 33.1293 23.3324 33.1688 23.345 33.2063C23.3576 33.2437 23.3775 33.2783 23.4035 33.308C23.4296 33.3378 23.4612 33.3621 23.4966 33.3795C23.5321 33.397 23.5706 33.4073 23.61 33.4099C24.0386 33.5229 24.4112 33.7884 24.6579 34.1567C24.9047 34.5249 25.0085 34.9705 24.95 35.4099C24.9256 35.6252 24.8648 35.8349 24.77 36.0299L24.72 36.1499L25.09 36.1599ZM23 22.9999V24.2999H23.6V22.9999H23ZM24.36 26.2999H27.77V26.1699H24.38L24.36 26.2999ZM27.76 27.0699C27.4644 27.0349 27.1657 27.0349 26.87 27.0699C27.0379 27.2273 27.159 27.428 27.22 27.6499C27.2264 27.6673 27.237 27.6829 27.251 27.6952C27.265 27.7074 27.2819 27.7159 27.3 27.7199H27.76V27.0699ZM24.36 27.7099C24.54 27.7099 26.3 27.7099 26.43 27.7099C26.3912 27.6581 26.3391 27.6178 26.2792 27.5932C26.2194 27.5685 26.154 27.5605 26.09 27.5699H24.38L24.36 27.7099Z" fill="#CC0000"/>
<path d="M18.78 39.6799H16.48C16.4183 39.6663 16.3629 39.6323 16.3229 39.5832C16.283 39.5342 16.2608 39.4731 16.26 39.4099C16.2593 39.3421 16.2833 39.2763 16.3274 39.2248C16.3716 39.1733 16.4329 39.1396 16.5 39.1299H21.08C21.1543 39.1299 21.2255 39.1594 21.278 39.2119C21.3305 39.2644 21.36 39.3356 21.36 39.4099C21.36 39.4841 21.3305 39.5554 21.278 39.6079C21.2255 39.6604 21.1543 39.6899 21.08 39.6899H18.78V39.6799Z" fill="#CC0000"/>
<path d="M32.9001 11.9998C32.2101 11.9998 31.5101 11.9998 30.8201 11.9998C30.7642 12.0027 30.7083 11.9938 30.656 11.9737C30.6038 11.9536 30.5563 11.9228 30.5167 11.8832C30.4771 11.8436 30.4463 11.7962 30.4262 11.7439C30.4061 11.6917 30.3972 11.6358 30.4001 11.5798C30.4001 11.1398 30.4001 10.6998 30.4001 10.2598C30.3937 10.2031 30.4002 10.1457 30.4191 10.0919C30.4379 10.038 30.4687 9.98912 30.509 9.94877C30.5494 9.90843 30.5983 9.87769 30.6521 9.85883C30.706 9.83997 30.7634 9.83348 30.8201 9.83984H35.0001C35.0555 9.83345 35.1116 9.83965 35.1642 9.858C35.2169 9.87634 35.2647 9.90635 35.3041 9.94577C35.3436 9.9852 35.3736 10.033 35.3919 10.0857C35.4103 10.1383 35.4165 10.1945 35.4101 10.2498C35.4101 10.6898 35.4101 11.1398 35.4101 11.5798C35.4146 11.6361 35.4068 11.6928 35.3873 11.7458C35.3678 11.7988 35.337 11.8469 35.2971 11.8869C35.2572 11.9268 35.209 11.9576 35.156 11.9771C35.103 11.9966 35.0464 12.0044 34.9901 11.9998C34.3001 11.9998 33.6001 11.9998 32.9001 11.9998ZM31.1501 10.5898V11.2398C31.3201 11.2398 34.5301 11.2398 34.6701 11.2398V10.5998L31.1501 10.5898Z" fill="#CC0000"/>
<path d="M36.8499 9.88963H37.1999C37.2894 9.89308 37.3746 9.92888 37.4397 9.99037C37.5048 10.0519 37.5454 10.1349 37.554 10.224C37.5625 10.3132 37.5384 10.4024 37.4862 10.4752C37.434 10.5479 37.3571 10.5992 37.2699 10.6196H37.1599H36.5299C36.4797 10.6237 36.4292 10.6175 36.3814 10.6014C36.3337 10.5853 36.2898 10.5596 36.2523 10.5259C36.2149 10.4922 36.1847 10.4512 36.1636 10.4054C36.1426 10.3596 36.1311 10.31 36.1299 10.2596C36.1258 10.2107 36.1318 10.1615 36.1474 10.115C36.163 10.0684 36.188 10.0256 36.2207 9.98908C36.2535 9.95255 36.2934 9.92311 36.338 9.90257C36.3826 9.88203 36.4309 9.87082 36.4799 9.86963H36.8599L36.8499 9.88963Z" fill="#CC0000"/>
<path d="M29.0001 9.88965H29.3501C29.4389 9.89506 29.5229 9.93232 29.5865 9.99458C29.6501 10.0568 29.6891 10.14 29.6964 10.2287C29.7037 10.3174 29.6787 10.4057 29.6262 10.4775C29.5736 10.5493 29.4969 10.5998 29.4101 10.6196H28.6801C28.6108 10.6334 28.5394 10.6334 28.4701 10.6196C28.3952 10.5872 28.3336 10.5302 28.2954 10.4581C28.2571 10.3859 28.2445 10.303 28.2596 10.2227C28.2748 10.1425 28.3167 10.0698 28.3785 10.0166C28.4404 9.96332 28.5185 9.93267 28.6001 9.92965H29.0001V9.88965Z" fill="#CC0000"/>
<path d="M29 12.0001H28.63C28.5379 11.9976 28.4504 11.9599 28.3853 11.8948C28.3202 11.8297 28.2825 11.7421 28.28 11.6501C28.2758 11.6041 28.2809 11.5577 28.2948 11.5137C28.3086 11.4697 28.3311 11.4288 28.3608 11.3935C28.3906 11.3582 28.427 11.3291 28.4681 11.3079C28.5091 11.2867 28.5539 11.2739 28.6 11.2701C28.8731 11.2563 29.1468 11.2563 29.42 11.2701C29.5154 11.2701 29.607 11.308 29.6745 11.3755C29.742 11.4431 29.78 11.5346 29.78 11.6301C29.78 11.7256 29.742 11.8171 29.6745 11.8847C29.607 11.9522 29.5154 11.9901 29.42 11.9901L29 12.0001Z" fill="#CC0000"/>
<path d="M36.8401 11.9998H36.4601C36.3646 11.9998 36.2731 11.9619 36.2055 11.8943C36.138 11.8268 36.1001 11.7353 36.1001 11.6398C36.1001 11.5443 36.138 11.4527 36.2055 11.3852C36.2731 11.3177 36.3646 11.2798 36.4601 11.2798C36.7301 11.2798 37.0001 11.2798 37.2801 11.2798C37.3756 11.2798 37.4671 11.3177 37.5347 11.3852C37.6022 11.4527 37.6401 11.5443 37.6401 11.6398C37.6401 11.7353 37.6022 11.8268 37.5347 11.8943C37.4671 11.9619 37.3756 11.9998 37.2801 11.9998H36.8401Z" fill="#CC0000"/>
<path d="M20.3501 24.9499C20.1677 24.9659 19.9841 24.9437 19.8108 24.8848C19.6375 24.826 19.4783 24.7317 19.3434 24.6081C19.2085 24.4844 19.1007 24.334 19.027 24.1665C18.9533 23.999 18.9153 23.818 18.9153 23.6349C18.9153 23.4519 18.9533 23.2709 19.027 23.1034C19.1007 22.9359 19.2085 22.7855 19.3434 22.6618C19.4783 22.5382 19.6375 22.4439 19.8108 22.3851C19.9841 22.3262 20.1677 22.304 20.3501 22.3199C20.5324 22.304 20.716 22.3262 20.8893 22.3851C21.0626 22.4439 21.2218 22.5382 21.3567 22.6618C21.4916 22.7855 21.5994 22.9359 21.6731 23.1034C21.7468 23.2709 21.7848 23.4519 21.7848 23.6349C21.7848 23.818 21.7468 23.999 21.6731 24.1665C21.5994 24.334 21.4916 24.4844 21.3567 24.6081C21.2218 24.7317 21.0626 24.826 20.8893 24.8848C20.716 24.9437 20.5324 24.9659 20.3501 24.9499ZM20.1401 22.9499C19.9742 22.9925 19.8297 23.0943 19.7339 23.2362C19.6381 23.3781 19.5976 23.5502 19.6201 23.7199C19.6402 23.9073 19.7311 24.0799 19.8742 24.2026C20.0173 24.3252 20.2018 24.3887 20.3901 24.3799C20.5711 24.3732 20.7434 24.3002 20.8743 24.1749C21.0052 24.0496 21.0855 23.8806 21.1001 23.6999C21.1121 23.5431 21.0687 23.3871 20.9772 23.2591C20.8858 23.1311 20.7523 23.0394 20.6001 22.9999C20.6001 23.1299 20.6001 23.2599 20.6001 23.3799C20.5978 23.4359 20.5753 23.4891 20.5366 23.5296C20.498 23.5701 20.4458 23.5951 20.3901 23.5999C20.3332 23.6056 20.2764 23.589 20.2316 23.5535C20.1868 23.5181 20.1576 23.4666 20.1501 23.4099C20.1443 23.3434 20.1443 23.2765 20.1501 23.2099C20.1301 23.0999 20.1401 22.9999 20.1401 22.9499Z" fill="#CC0000"/>
<path d="M11.3395 24.4954C11.5439 24.4924 11.7071 24.3244 11.7042 24.1201C11.7013 23.9158 11.5333 23.7525 11.3289 23.7554C11.1246 23.7584 10.9614 23.9264 10.9643 24.1307C10.9672 24.335 11.1352 24.4983 11.3395 24.4954Z" fill="#CC0000"/>
<path d="M12.78 24.1298C12.7775 24.2271 12.7377 24.3197 12.6689 24.3886C12.6 24.4574 12.5074 24.4972 12.41 24.4998C12.3135 24.4949 12.2221 24.4544 12.1538 24.386C12.0854 24.3177 12.0449 24.2263 12.04 24.1298C12.0426 24.0324 12.0824 23.9398 12.1512 23.8709C12.2201 23.8021 12.3127 23.7623 12.41 23.7598C12.5082 23.7598 12.6023 23.7987 12.6717 23.8681C12.7411 23.9375 12.78 24.0316 12.78 24.1298Z" fill="#CC0000"/>
<path d="M13.4863 24.5007C13.6906 24.499 13.8549 24.3321 13.8533 24.1277C13.8517 23.9234 13.6847 23.7591 13.4803 23.7607C13.276 23.7623 13.1117 23.9293 13.1133 24.1337C13.115 24.338 13.2819 24.5023 13.4863 24.5007Z" fill="#CC0000"/>
</svg>
