<svg width="50" height="50" viewBox="0 0 50 50" fill="none" xmlns="http://www.w3.org/2000/svg">
<path d="M9.33994 24.8698H15.2599V25.7898C14.7999 25.7898 14.3499 25.7898 13.8899 25.7898V28.7898H15.2299V28.9998C15.2299 31.7664 15.2299 34.5331 15.2299 37.2998C15.2299 37.2998 15.2299 37.3698 15.2299 37.3998C15.2299 36.7798 15.2999 36.1698 15.3399 35.5598C15.3799 34.9498 15.4199 34.3398 15.4599 33.7298C15.4999 33.1198 15.5499 32.2498 15.5999 31.4998C15.6499 30.7498 15.6899 30.1498 15.7299 29.4998C15.7299 29.3298 15.7299 29.1698 15.7299 28.9998C15.7276 28.9531 15.7276 28.9064 15.7299 28.8598H17.0899C17.0899 28.7098 17.0899 25.9798 17.0899 25.8598H15.8599V24.9398H22.2699C22.2699 29.0598 22.2699 33.1831 22.2699 37.3098C22.2699 37.3098 22.2699 37.3898 22.2699 37.4398C22.2699 36.6498 22.3699 35.8598 22.4199 35.0698C22.4699 34.2798 22.5099 33.7198 22.5499 33.0698L22.6799 31.0698C22.7266 30.4031 22.7699 29.7364 22.8099 29.0698C22.8099 28.9998 22.8099 28.9398 22.8099 28.8598H23.9999V25.8598H22.8899C22.8899 25.5398 22.8899 25.2398 22.8899 24.9198C23.7599 24.7998 24.6299 24.7198 25.4999 24.6098C25.4499 24.4098 25.3899 24.3598 25.1999 24.3598H13.6499H8.70994C8.67546 23.7336 8.67546 23.106 8.70994 22.4798H24.9999V22.2398C24.9999 17.7864 24.9999 13.3364 24.9999 8.88978C24.9892 8.49986 25.0748 8.11331 25.2492 7.76443C25.4237 7.41554 25.6815 7.11511 25.9999 6.88978C26.3902 6.59673 26.862 6.43246 27.3499 6.41978H27.4799C27.4799 6.36978 27.4799 6.31978 27.4799 6.26978C27.4799 5.97978 27.4799 5.68978 27.4799 5.39978C27.4799 5.10978 27.5399 5.09978 27.6799 5.08978C27.8199 5.07978 27.8899 5.19978 27.8899 5.40978C27.8899 5.61978 27.8899 5.93978 27.8899 6.20978V6.41978H29.3199C29.3199 6.33978 29.3199 6.27978 29.3199 6.21978C29.3199 5.94978 29.3199 5.68978 29.3199 5.41978C29.3151 5.36321 29.3151 5.30634 29.3199 5.24978C29.33 5.20559 29.3548 5.16613 29.3902 5.13787C29.4256 5.10961 29.4696 5.09422 29.5149 5.09422C29.5603 5.09422 29.6042 5.10961 29.6397 5.13787C29.6751 5.16613 29.6999 5.20559 29.7099 5.24978C29.7147 5.29966 29.7147 5.34989 29.7099 5.39978C29.7099 5.67978 29.7099 5.95978 29.7099 6.22978C29.7099 6.27978 29.7099 6.33978 29.7099 6.39978H36.2599C36.2599 6.33978 36.2599 6.27978 36.2599 6.21978C36.2599 5.94978 36.2599 5.68978 36.2599 5.41978C36.2599 5.41978 36.2599 5.34978 36.2599 5.31978C36.2599 5.28978 36.3399 5.07978 36.4599 5.08978C36.5799 5.09978 36.6499 5.17978 36.6499 5.32978C36.6499 5.47978 36.6499 5.91978 36.6499 6.20978C36.6499 6.26978 36.6499 6.32978 36.6499 6.39978H38.0799C38.0799 6.33978 38.0799 6.28978 38.0799 6.22978C38.0799 5.94978 38.0799 5.65978 38.0799 5.37978C38.0734 5.32999 38.0734 5.27957 38.0799 5.22978C38.09 5.18559 38.1148 5.14613 38.1502 5.11787C38.1856 5.08961 38.2296 5.07422 38.2749 5.07422C38.3203 5.07422 38.3642 5.08961 38.3997 5.11787C38.4351 5.14613 38.4599 5.18559 38.4699 5.22978C38.4733 5.27304 38.4733 5.31651 38.4699 5.35978C38.4699 5.64978 38.4699 5.93978 38.4699 6.22978C38.4699 6.27978 38.4699 6.33978 38.4699 6.39978L38.8099 6.48978C39.3304 6.64962 39.7851 6.97372 40.106 7.41357C40.4269 7.85342 40.5966 8.38536 40.5899 8.92978C40.5899 13.6364 40.5899 18.3431 40.5899 23.0498C40.6005 23.631 40.4058 24.1974 40.04 24.6492C39.6741 25.101 39.1607 25.4093 38.5899 25.5198H38.4399C38.4399 25.5898 38.4399 25.6698 38.4399 25.7398C38.4135 26.0198 38.2836 26.28 38.0755 26.4693C37.8674 26.6587 37.5962 26.7636 37.3149 26.7636C37.0336 26.7636 36.7624 26.6587 36.5544 26.4693C36.3463 26.28 36.2164 26.0198 36.1899 25.7398C36.1899 25.6698 36.1899 25.6098 36.1899 25.5298H29.7899C29.7899 25.5298 29.7899 25.6198 29.7899 25.6698C29.7942 25.9125 29.7195 26.1501 29.577 26.3467C29.4345 26.5433 29.232 26.6883 28.9999 26.7598H28.9199V41.8498C28.5599 41.8498 28.2099 41.8498 27.8599 41.8498C27.7699 42.0398 27.6699 42.2298 27.5899 42.4298C27.4626 42.7082 27.2785 42.9569 27.0495 43.1601C26.8204 43.3633 26.5515 43.5165 26.2599 43.6098C26.234 43.6293 26.2024 43.6398 26.1699 43.6398C26.1375 43.6398 26.1059 43.6293 26.0799 43.6098C26.0261 43.5628 25.9693 43.5194 25.9099 43.4798L25.9799 43.3498C26.1552 43.0996 26.2964 42.8272 26.3999 42.5398C26.4109 42.5088 26.428 42.4804 26.4504 42.4563C26.4728 42.4322 26.4998 42.413 26.5299 42.3998L27.2999 41.9898C27.35 41.9663 27.3944 41.9322 27.4299 41.8898H11.9999C12.0214 42.4672 12.2566 43.016 12.6599 43.4298C12.5899 43.4998 12.5299 43.5698 12.4599 43.6298C12.4427 43.6378 12.4239 43.642 12.4049 43.642C12.3859 43.642 12.3672 43.6378 12.3499 43.6298C12.0486 43.5382 11.7696 43.3852 11.5303 43.1803C11.2911 42.9755 11.0969 42.7234 10.9599 42.4398L11.6399 41.8798C11.4436 41.8641 11.2463 41.8641 11.0499 41.8798H9.30994C9.30994 40.7998 9.30994 39.7398 9.30994 38.6798H9.72994H11.6299L13.4899 38.6098L15.2399 38.5398L17.4699 38.4498L19.6499 38.3698L21.7999 38.2898H23.5499L26.1499 38.2198C20.5499 38.2198 14.9399 38.1498 9.34994 38.2198C9.29994 37.9098 9.29994 24.9998 9.33994 24.8698ZM28.9499 25.0898H38.1699C38.3064 25.0995 38.4434 25.0995 38.5799 25.0898C39.0608 25.0167 39.5003 24.7758 39.8206 24.4097C40.1409 24.0437 40.3213 23.5761 40.3299 23.0898C40.3299 18.3364 40.3299 13.5831 40.3299 8.82978C40.3311 8.52013 40.2604 8.21444 40.1233 7.93679C39.9862 7.65914 39.7865 7.41711 39.5399 7.22978C39.1459 6.92564 38.6573 6.76988 38.1599 6.78978H27.5899C27.4634 6.78129 27.3365 6.78129 27.2099 6.78978C26.7201 6.85447 26.2699 7.09306 25.9413 7.46203C25.6127 7.83099 25.4277 8.30577 25.4199 8.79978C25.4199 13.2598 25.4199 17.7198 25.4199 22.1798C25.4199 22.2398 25.4199 22.2998 25.4199 22.3798H29.6599V24.2998H28.9399L28.9499 25.0898ZM10.1499 39.4798V40.8698C10.3699 40.8698 14.9399 40.8698 15.0599 40.8698V39.4798H10.1499ZM16.6399 39.4798C16.6399 39.9598 16.6399 40.4198 16.6399 40.8798C17.0199 40.8798 21.4199 40.8798 21.5599 40.8798C21.5599 40.4198 21.5599 39.9598 21.5599 39.4898L16.6399 39.4798ZM23.3399 39.4798C23.3399 39.9598 23.3399 40.4198 23.3399 40.8898C23.7199 40.8898 28.1299 40.8898 28.2499 40.8898C28.2863 40.4272 28.2863 39.9624 28.2499 39.4998L23.3399 39.4798ZM27.4899 26.4198H27.7099L27.6399 26.2298H26.2499V26.4298H26.4399C26.4399 26.4798 26.4399 26.5298 26.4399 26.5698C26.4399 27.5098 26.4399 28.4498 26.4399 29.3798C26.4402 29.423 26.4315 29.4657 26.4142 29.5053C26.397 29.5449 26.3717 29.5805 26.3399 29.6098C26.2231 29.7314 26.1445 29.8846 26.1141 30.0505C26.0836 30.2164 26.1026 30.3875 26.1687 30.5427C26.2348 30.6979 26.345 30.8302 26.4857 30.9232C26.6264 31.0162 26.7913 31.0658 26.9599 31.0658C27.1286 31.0658 27.2935 31.0162 27.4342 30.9232C27.5749 30.8302 27.6851 30.6979 27.7512 30.5427C27.8173 30.3875 27.8363 30.2164 27.8058 30.0505C27.7754 29.8846 27.6968 29.7314 27.5799 29.6098C27.5459 29.576 27.5193 29.5353 27.5021 29.4905C27.4848 29.4457 27.4773 29.3977 27.4799 29.3498C27.4799 28.4364 27.4799 27.5198 27.4799 26.5998L27.4899 26.4198ZM38.1699 25.5198C37.694 25.4825 37.2159 25.4825 36.7399 25.5198C36.7068 25.6763 36.7261 25.8394 36.7948 25.984C36.8634 26.1285 36.9777 26.2465 37.1199 26.3198C37.2392 26.3891 37.3768 26.4204 37.5143 26.4097C37.6518 26.399 37.7828 26.3467 37.8899 26.2598C38.0018 26.1732 38.0872 26.0571 38.1367 25.9246C38.1862 25.7921 38.1977 25.6485 38.1699 25.5098V25.5198ZM28.9399 25.5198C28.9399 25.6698 28.9399 25.7998 28.9399 25.9398C28.9399 26.0798 28.9399 26.2098 28.9399 26.3498C29.0968 26.285 29.2237 26.164 29.2959 26.0104C29.3681 25.8568 29.3802 25.6818 29.3299 25.5198H28.9399ZM27.5399 24.3198C26.9941 24.2761 26.4457 24.2761 25.8999 24.3198C25.9699 24.3898 25.9999 24.4798 26.1199 24.4698L27.5399 24.3198Z" fill="#CC0000"/>
<path d="M13 43.43C12.7524 43.1744 12.5586 42.8718 12.43 42.54C12.6661 42.4925 12.911 42.5177 13.1324 42.6124C13.3537 42.707 13.5412 42.8665 13.67 43.07C13.8266 43.3142 13.8956 43.6044 13.8657 43.8929C13.8357 44.1815 13.7086 44.4513 13.5053 44.6582C13.3019 44.8651 13.0342 44.9967 12.7462 45.0316C12.4582 45.0664 12.1669 45.0024 11.92 44.85C11.6916 44.7109 11.5157 44.5 11.4198 44.2503C11.3239 44.0006 11.3134 43.7262 11.39 43.47L11.53 43.56C11.7871 43.7346 12.0708 43.8663 12.37 43.95C12.392 43.9655 12.4182 43.9738 12.445 43.9738C12.4719 43.9738 12.4981 43.9655 12.52 43.95L13 43.43Z" fill="#CC0000"/>
<path d="M26.1199 42.5296C25.9886 42.8577 25.7989 43.1593 25.5599 43.4196L26.1199 43.9496C26.4807 43.8547 26.8202 43.6918 27.1199 43.4696C27.1911 43.6756 27.2007 43.898 27.1474 44.1094C27.0941 44.3207 26.9803 44.512 26.8199 44.6596C26.6064 44.8665 26.3275 44.9926 26.0312 45.0163C25.7348 45.04 25.4395 44.9598 25.1958 44.7895C24.9522 44.6191 24.7754 44.3693 24.6958 44.0828C24.6163 43.7964 24.6389 43.4912 24.7599 43.2196C24.8745 42.9672 25.0716 42.7613 25.3188 42.6359C25.566 42.5105 25.8485 42.473 26.1199 42.5296Z" fill="#CC0000"/>
<path d="M32.81 16.5499H27.81C27.51 16.5499 27.48 16.5499 27.48 16.2099C27.48 15.3765 27.48 14.5432 27.48 13.7099C27.4643 12.5329 27.8447 11.3847 28.56 10.4499C29.2034 9.61015 30.0814 8.98005 31.083 8.63923C32.0845 8.29842 33.1646 8.26218 34.1867 8.5351C35.2088 8.80802 36.127 9.37784 36.8254 10.1725C37.5237 10.9672 37.9707 11.9511 38.11 12.9999C38.144 13.2652 38.1607 13.5324 38.16 13.7999C38.16 14.6199 38.16 15.4299 38.16 16.2499C38.1634 16.2998 38.1634 16.3499 38.16 16.3999C38.1587 16.4261 38.1522 16.4519 38.141 16.4757C38.1297 16.4995 38.1139 16.5208 38.0944 16.5384C38.0749 16.5561 38.0521 16.5697 38.0273 16.5785C38.0025 16.5874 37.9762 16.5912 37.95 16.5899H32.81V16.5499ZM37.75 16.1399C37.75 16.0799 37.75 16.0299 37.75 15.9799C37.75 15.2199 37.75 14.4599 37.75 13.6999C37.7651 13.4735 37.7651 13.2463 37.75 13.0199C37.6562 12.3619 37.4321 11.7292 37.0909 11.1588C36.7498 10.5884 36.2983 10.0917 35.7629 9.69788C35.2275 9.30402 34.619 9.02086 33.9729 8.86495C33.3267 8.70905 32.656 8.68352 32 8.78987C30.9722 8.93894 30.0228 9.42421 29.3 10.1699C28.8343 10.6234 28.4649 11.1663 28.2141 11.766C27.9632 12.3657 27.8359 13.0098 27.84 13.6599C27.84 14.4299 27.84 15.1899 27.84 15.9599V16.1499L37.75 16.1399Z" fill="#CC0000"/>
<path d="M30.0999 22.1299C29.7043 22.1299 29.3176 22.0126 28.9887 21.7928C28.6598 21.5731 28.4035 21.2607 28.2521 20.8952C28.1007 20.5298 28.0611 20.1277 28.1383 19.7397C28.2155 19.3517 28.4059 18.9954 28.6856 18.7157C28.9653 18.436 29.3217 18.2455 29.7097 18.1683C30.0976 18.0911 30.4998 18.1307 30.8652 18.2821C31.2307 18.4335 31.543 18.6898 31.7628 19.0187C31.9826 19.3476 32.0999 19.7343 32.0999 20.1299C32.0999 20.6603 31.8891 21.169 31.5141 21.5441C31.139 21.9192 30.6303 22.1299 30.0999 22.1299ZM28.5099 20.1299C28.5039 20.4427 28.591 20.7503 28.7601 21.0136C28.9292 21.2769 29.1727 21.484 29.4596 21.6087C29.7466 21.7335 30.0641 21.7702 30.372 21.7143C30.6799 21.6584 30.9642 21.5123 31.1889 21.2946C31.4137 21.0769 31.5687 20.7973 31.6344 20.4914C31.7001 20.1854 31.6734 19.8669 31.5578 19.5761C31.4422 19.2854 31.2429 19.0354 30.9852 18.8581C30.7274 18.6807 30.4227 18.5839 30.1099 18.5799C29.6942 18.5745 29.2932 18.7331 28.9937 19.0214C28.6942 19.3096 28.5203 19.7043 28.5099 20.1199V20.1299Z" fill="#CC0000"/>
<path d="M35.61 19.8999H34.19C34.0675 19.8992 33.946 19.879 33.83 19.8399C33.6664 19.7813 33.5287 19.6671 33.441 19.5172C33.3532 19.3672 33.321 19.1912 33.35 19.0199C33.3763 18.8539 33.4577 18.7016 33.581 18.5873C33.7043 18.4731 33.8624 18.4036 34.03 18.3899H37.03C37.123 18.3798 37.2169 18.3798 37.31 18.3899C37.4786 18.4325 37.6273 18.5324 37.7304 18.6725C37.8335 18.8126 37.8847 18.9842 37.8753 19.1579C37.8658 19.3316 37.7963 19.4966 37.6786 19.6247C37.5608 19.7528 37.4023 19.8359 37.23 19.8599H35.61V19.8999ZM35.61 19.4899H37.06C37.1295 19.5008 37.2004 19.5008 37.27 19.4899C37.341 19.4654 37.4016 19.4173 37.4416 19.3537C37.4816 19.29 37.4986 19.2146 37.49 19.1399C37.4832 19.0626 37.4494 18.9902 37.3946 18.9353C37.3397 18.8805 37.2673 18.8467 37.19 18.8399H34C33.9531 18.8466 33.9082 18.8633 33.8683 18.8889C33.8284 18.9145 33.7945 18.9484 33.7689 18.9882C33.7433 19.028 33.7266 19.0729 33.7198 19.1198C33.7131 19.1667 33.7166 19.2145 33.73 19.2599C33.7511 19.3419 33.8013 19.4134 33.8712 19.4612C33.9411 19.509 34.0259 19.5299 34.11 19.5199L35.61 19.4899Z" fill="#CC0000"/>
<path d="M35.62 21.9997H34.1C33.9567 22.0039 33.8155 21.9652 33.6943 21.8886C33.5732 21.812 33.4777 21.7009 33.42 21.5697C33.3674 21.4569 33.3434 21.3329 33.3499 21.2086C33.3565 21.0843 33.3935 20.9635 33.4577 20.8568C33.5219 20.7502 33.6113 20.6609 33.7181 20.5969C33.8248 20.5329 33.9457 20.4961 34.07 20.4897H37.07C37.1726 20.4862 37.2748 20.5029 37.3709 20.5389C37.467 20.575 37.5551 20.6296 37.63 20.6997C37.7381 20.8009 37.8138 20.9318 37.8476 21.076C37.8814 21.2201 37.8718 21.371 37.82 21.5097C37.7738 21.6514 37.6843 21.7749 37.5641 21.8628C37.4438 21.9508 37.299 21.9987 37.15 21.9997C36.62 21.9997 36.1 21.9997 35.57 21.9997H35.62ZM35.62 21.5897H37.2C37.2784 21.5833 37.3521 21.5499 37.4087 21.4952C37.4652 21.4405 37.501 21.3679 37.51 21.2897C37.5217 21.2147 37.5073 21.138 37.469 21.0724C37.4308 21.0068 37.3711 20.9564 37.3 20.9297C37.2238 20.9172 37.1462 20.9172 37.07 20.9297H34C33.9244 20.9425 33.855 20.9797 33.8026 21.0357C33.7502 21.0918 33.7177 21.1634 33.71 21.2397C33.7024 21.3129 33.7188 21.3866 33.7566 21.4497C33.7945 21.5129 33.8518 21.562 33.92 21.5897C33.9828 21.6007 34.0471 21.6007 34.11 21.5897H35.62Z" fill="#CC0000"/>
<path d="M39.5199 9.15971C39.5247 9.20625 39.5247 9.25316 39.5199 9.29971C39.5098 9.34389 39.485 9.38335 39.4496 9.41161C39.4141 9.43987 39.3702 9.45526 39.3249 9.45526C39.2795 9.45526 39.2356 9.43987 39.2001 9.41161C39.1647 9.38335 39.1399 9.34389 39.1299 9.29971C39.1299 9.21971 39.1299 9.12971 39.1299 9.04971C39.0802 8.73159 38.9231 8.44007 38.6848 8.22358C38.4465 8.00709 38.1413 7.87869 37.8199 7.85971H37.7199C37.6686 7.85463 37.6212 7.82996 37.5877 7.79084C37.5542 7.75171 37.537 7.70116 37.5399 7.64971C37.5385 7.62524 37.5421 7.60075 37.5506 7.57775C37.559 7.55474 37.572 7.5337 37.5889 7.51591C37.6058 7.49812 37.6261 7.48396 37.6486 7.4743C37.6711 7.46463 37.6953 7.45967 37.7199 7.45971C37.8394 7.44572 37.9603 7.44572 38.0799 7.45971C38.4751 7.54191 38.8315 7.75387 39.0924 8.0619C39.3533 8.36993 39.5038 8.75634 39.5199 9.15971Z" fill="#CC0000"/>
<path d="M39.5299 10.41C39.5299 10.5 39.5299 10.6 39.5299 10.69C39.5348 10.7332 39.5348 10.7768 39.5299 10.82C39.5225 10.8668 39.4979 10.9091 39.4609 10.9387C39.4239 10.9683 39.3772 10.983 39.3299 10.98C39.3054 10.9813 39.2809 10.9777 39.2579 10.9692C39.2349 10.9608 39.2139 10.9478 39.1961 10.9309C39.1783 10.9141 39.1641 10.8938 39.1545 10.8712C39.1448 10.8487 39.1399 10.8245 39.1399 10.8C39.1399 10.5333 39.1399 10.2666 39.1399 9.99997C39.1399 9.94958 39.1599 9.90125 39.1955 9.86562C39.2312 9.82999 39.2795 9.80997 39.3299 9.80997C39.3772 9.8069 39.4239 9.8216 39.4609 9.85121C39.4979 9.88081 39.5225 9.92316 39.5299 9.96997C39.5356 10.0399 39.5356 10.1101 39.5299 10.18C39.5299 10.26 39.5299 10.33 39.5299 10.41Z" fill="#CC0000"/>
<path d="M26.67 26.46H27.25V26.93C27.11 26.99 26.95 26.93 26.79 27C26.94 27.1 27.1 27 27.24 27.07C27.2693 27.1814 27.2693 27.2985 27.24 27.41C27.11 27.48 26.97 27.41 26.85 27.47C26.73 27.53 26.85 27.47 26.85 27.52H27.24C27.24 27.61 27.24 27.67 27.24 27.73C27.24 28.3 27.24 28.87 27.24 29.45C27.2355 29.4976 27.2432 29.5455 27.2625 29.5893C27.2818 29.633 27.3119 29.6711 27.35 29.7C27.4492 29.7812 27.5206 29.8912 27.5547 30.0148C27.5887 30.1383 27.5836 30.2694 27.54 30.39C27.4967 30.5109 27.4185 30.6164 27.3152 30.6929C27.212 30.7694 27.0884 30.8137 26.96 30.82C26.8309 30.8241 26.7035 30.7891 26.5946 30.7195C26.4857 30.6499 26.4005 30.549 26.35 30.43C26.2956 30.3079 26.2827 30.1713 26.3134 30.0413C26.3442 29.9112 26.4167 29.7948 26.52 29.71C26.5617 29.6769 26.5946 29.634 26.6155 29.5852C26.6365 29.5363 26.6449 29.4829 26.64 29.43C26.64 28.51 26.64 27.6 26.64 26.68L26.67 26.46ZM26.79 28C26.79 28.07 26.79 28.14 26.79 28.2C26.79 28.67 26.79 29.14 26.79 29.61C26.7947 29.6508 26.7877 29.6921 26.7701 29.7293C26.7524 29.7664 26.7247 29.7978 26.69 29.82C26.6361 29.8589 26.5911 29.9088 26.5579 29.9664C26.5248 30.0241 26.5042 30.0881 26.4976 30.1542C26.4909 30.2204 26.4984 30.2872 26.5196 30.3502C26.5407 30.4133 26.5749 30.4711 26.62 30.52C26.6649 30.5678 26.7192 30.6059 26.7794 30.632C26.8396 30.658 26.9045 30.6715 26.97 30.6715C27.0356 30.6715 27.1005 30.658 27.1607 30.632C27.2209 30.6059 27.2752 30.5678 27.32 30.52C27.3657 30.4718 27.4006 30.4145 27.4226 30.3518C27.4445 30.2892 27.4529 30.2226 27.4472 30.1565C27.4416 30.0904 27.4219 30.0262 27.3897 29.9682C27.3574 29.9102 27.3132 29.8597 27.26 29.82C27.2254 29.7954 27.1979 29.7621 27.1803 29.7235C27.1628 29.6848 27.1558 29.6422 27.16 29.6C27.16 29.12 27.16 28.6 27.16 28.17C27.16 28.11 27.16 28.05 27.16 27.99L26.79 28Z" fill="#CC0000"/>
<path d="M35.7699 15.5697C35.737 15.5692 35.7047 15.5605 35.6759 15.5445C35.6472 15.5285 35.6228 15.5056 35.605 15.4779C35.5872 15.4502 35.5765 15.4185 35.5739 15.3857C35.5712 15.3529 35.5768 15.3199 35.5899 15.2897C35.6132 15.2444 35.64 15.201 35.6699 15.1597C35.7809 15 35.8591 14.8199 35.8999 14.6297C35.9331 14.4831 35.9295 14.3306 35.8893 14.1858C35.8492 14.041 35.7738 13.9083 35.6699 13.7997L35.5099 13.6297C35.3561 13.4526 35.2557 13.2356 35.2203 13.0037C35.1849 12.7718 35.216 12.5346 35.3099 12.3197C35.3746 12.1484 35.4733 11.992 35.5999 11.8597C35.6999 11.7497 35.7999 11.7397 35.8899 11.8597C35.9799 11.9797 35.9899 12.0397 35.8899 12.1697C35.8101 12.2767 35.7398 12.3905 35.6799 12.5097C35.6055 12.6629 35.58 12.8352 35.6068 13.0034C35.6336 13.1715 35.7115 13.3274 35.8299 13.4497L35.9999 13.6297C36.1327 13.7845 36.2273 13.9683 36.2759 14.1663C36.3246 14.3644 36.3259 14.5711 36.2799 14.7697C36.2257 15.0444 36.1056 15.3017 35.9299 15.5197C35.8853 15.5569 35.8278 15.5748 35.7699 15.5697Z" fill="#CC0000"/>
<path d="M29.9 15.5696C29.8666 15.5718 29.8333 15.5655 29.803 15.5515C29.7727 15.5374 29.7464 15.5159 29.7265 15.4891C29.7066 15.4622 29.6937 15.4308 29.6891 15.3977C29.6845 15.3646 29.6882 15.3309 29.7 15.2996C29.7292 15.247 29.7626 15.1968 29.8 15.1496C29.9701 14.9011 30.0414 14.598 30 14.2996C29.9635 14.0853 29.8582 13.8887 29.7 13.7396C29.4983 13.5474 29.3649 13.2946 29.32 13.0196C29.2914 12.8078 29.3116 12.5922 29.3792 12.3894C29.4468 12.1866 29.56 12.0019 29.71 11.8496C29.7278 11.8302 29.7494 11.8147 29.7735 11.8042C29.7976 11.7936 29.8237 11.7881 29.85 11.7881C29.8763 11.7881 29.9024 11.7936 29.9265 11.8042C29.9506 11.8147 29.9722 11.8302 29.99 11.8496C30.0099 11.8692 30.0258 11.8925 30.0366 11.9183C30.0474 11.944 30.053 11.9717 30.053 11.9996C30.053 12.0276 30.0474 12.0552 30.0366 12.081C30.0258 12.1067 30.0099 12.1301 29.99 12.1496C29.9248 12.2326 29.8647 12.3194 29.81 12.4096C29.7236 12.5688 29.6897 12.7511 29.713 12.9307C29.7364 13.1102 29.8158 13.2779 29.94 13.4096L30.12 13.6096C30.2461 13.7659 30.3343 13.9492 30.3777 14.1453C30.421 14.3413 30.4184 14.5448 30.37 14.7396C30.3135 15.0026 30.1971 15.2489 30.03 15.4596C30 15.5196 30 15.5796 29.9 15.5696Z" fill="#CC0000"/>
<path d="M33.1398 11.9996L33.0698 12.1296C32.9972 12.2324 32.9304 12.3393 32.8698 12.4496C32.8021 12.5868 32.7745 12.7404 32.7905 12.8926C32.8064 13.0448 32.8651 13.1894 32.9598 13.3096C33.0129 13.3793 33.0696 13.446 33.1298 13.5096C33.285 13.6677 33.3976 13.8625 33.4571 14.0758C33.5165 14.2892 33.5209 14.5141 33.4698 14.7296C33.4137 14.9927 33.2973 15.2391 33.1298 15.4496L33.0498 15.5296C33.0168 15.5548 32.9764 15.5684 32.9348 15.5684C32.8933 15.5684 32.8529 15.5548 32.8198 15.5296C32.7874 15.5044 32.764 15.4693 32.7532 15.4296C32.7423 15.39 32.7447 15.3479 32.7598 15.3096C32.782 15.2605 32.8088 15.2137 32.8398 15.1696C32.9434 15.0179 33.0179 14.8484 33.0598 14.6696C33.0982 14.5217 33.0991 14.3665 33.0624 14.218C33.0258 14.0696 32.9527 13.9327 32.8498 13.8196L32.7498 13.7096C32.5097 13.4616 32.3755 13.1299 32.3755 12.7846C32.3755 12.4394 32.5097 12.1077 32.7498 11.8596C32.7745 11.8207 32.8118 11.7914 32.8556 11.7769C32.8993 11.7623 32.9467 11.7633 32.9898 11.7796C33.0364 11.7933 33.0768 11.8227 33.1042 11.8628C33.1315 11.9029 33.1441 11.9513 33.1398 11.9996Z" fill="#CC0000"/>
<path d="M31.1899 13.5099C31.1899 13.3199 31.1899 13.1299 31.1899 12.9399C31.192 12.8736 31.2167 12.8101 31.2599 12.7599C31.2833 12.7382 31.3117 12.7227 31.3427 12.7148C31.3736 12.707 31.406 12.707 31.4368 12.715C31.4677 12.723 31.4961 12.7386 31.5194 12.7604C31.5426 12.7822 31.56 12.8096 31.5699 12.8399C31.5789 12.8928 31.5789 12.9469 31.5699 12.9999C31.5699 13.3399 31.5699 13.6899 31.5699 13.9999C31.5739 14.0398 31.5739 14.08 31.5699 14.1199C31.5627 14.1702 31.5374 14.2162 31.4988 14.2493C31.4601 14.2824 31.4108 14.3004 31.3599 14.2999C31.3337 14.2986 31.3079 14.2922 31.2841 14.2809C31.2603 14.2696 31.239 14.2538 31.2214 14.2343C31.2037 14.2148 31.1901 14.192 31.1813 14.1672C31.1724 14.1424 31.1686 14.1162 31.1699 14.0899C31.1699 13.9199 31.1699 13.7599 31.1699 13.5899C31.1699 13.4199 31.1699 13.5099 31.1699 13.4699L31.1899 13.5099Z" fill="#CC0000"/>
<path d="M34.5198 13.5298C34.5198 13.7198 34.5198 13.9198 34.5198 14.1098C34.525 14.1493 34.5182 14.1895 34.5004 14.2251C34.4826 14.2607 34.4545 14.2902 34.4198 14.3098C34.3935 14.3245 34.3641 14.3331 34.334 14.3349C34.3038 14.3367 34.2737 14.3316 34.2458 14.32C34.2179 14.3085 34.1929 14.2908 34.1729 14.2682C34.1528 14.2457 34.1381 14.2189 34.1298 14.1898C34.1247 14.15 34.1247 14.1096 34.1298 14.0698C34.1298 13.7098 34.1298 13.3498 34.1298 12.9898C34.1282 12.9632 34.1282 12.9364 34.1298 12.9098C34.1297 12.8831 34.1352 12.8566 34.1459 12.8322C34.1567 12.8077 34.1725 12.7858 34.1923 12.7679C34.2122 12.7499 34.2355 12.7364 34.261 12.7281C34.2864 12.7198 34.3132 12.717 34.3398 12.7198C34.3652 12.7196 34.3904 12.7249 34.4137 12.7351C34.4369 12.7454 34.4577 12.7605 34.4747 12.7794C34.4917 12.7983 34.5045 12.8206 34.5123 12.8448C34.5201 12.869 34.5226 12.8945 34.5198 12.9198C34.5198 13.1198 34.5198 13.3298 34.5198 13.5298Z" fill="#CC0000"/>
<path d="M31.12 19.3396C31.1038 19.3865 31.0802 19.4304 31.05 19.4696L30.25 20.2696C30.2365 20.2998 30.2157 20.3262 30.1895 20.3463C30.1633 20.3665 30.1325 20.3799 30.0999 20.3853C30.0673 20.3906 30.0338 20.3878 30.0025 20.3771C29.9713 20.3664 29.9431 20.3481 29.9207 20.3238C29.8982 20.2995 29.8821 20.2701 29.8738 20.2381C29.8655 20.2061 29.8653 20.1725 29.8732 20.1404C29.881 20.1083 29.8967 20.0786 29.9188 20.054C29.941 20.0295 29.9688 20.0108 30 19.9996L30.81 19.1896C30.843 19.1645 30.8834 19.1509 30.925 19.1509C30.9665 19.1509 31.0069 19.1645 31.04 19.1896C31.063 19.2077 31.0821 19.2303 31.0958 19.2562C31.1096 19.282 31.1178 19.3104 31.12 19.3396Z" fill="#CC0000"/>
</svg>
