<svg width="50" height="50" viewBox="0 0 50 50" fill="none" xmlns="http://www.w3.org/2000/svg">
<path d="M40.2199 39.4298C40.2959 39.5855 40.3354 39.7565 40.3354 39.9298C40.3354 40.1031 40.2959 40.2741 40.2199 40.4298C40.1832 40.5272 40.1175 40.6111 40.0317 40.6701C39.9459 40.7291 39.844 40.7604 39.7399 40.7598C39.4801 40.7734 39.2197 40.7734 38.9599 40.7598C38.8182 40.7502 38.6849 40.6889 38.5853 40.5875C38.4858 40.4861 38.4269 40.3517 38.4199 40.2098C38.4199 40.1298 38.4199 40.0398 38.4199 39.9298L29.4199 42.2998L29.2999 43.1298C29.2847 43.2845 29.2111 43.4275 29.094 43.5298C28.9769 43.632 28.8252 43.6856 28.6699 43.6798H27.9899C27.8302 43.6911 27.6722 43.6402 27.5492 43.5377C27.4262 43.4351 27.3476 43.289 27.3299 43.1298C27.3299 42.9598 27.2599 42.7898 27.2499 42.6198C27.2409 42.4733 27.2409 42.3263 27.2499 42.1798L18.1499 39.9098C18.1499 39.9998 18.1499 40.0698 18.1499 40.1398C18.154 40.2211 18.1415 40.3023 18.1131 40.3786C18.0848 40.4549 18.0413 40.5247 17.9851 40.5836C17.929 40.6425 17.8615 40.6894 17.7867 40.7214C17.7118 40.7535 17.6313 40.7699 17.5499 40.7698C17.3199 40.7698 17.0799 40.7698 16.8499 40.7698C16.7081 40.7687 16.5714 40.7166 16.4649 40.6229C16.3584 40.5292 16.2891 40.4003 16.2699 40.2598C16.2368 40.1356 16.2167 40.0082 16.2099 39.8798C16.2194 39.7319 16.2395 39.5849 16.2699 39.4398C16.1294 39.3977 16.0068 39.3099 15.9217 39.1904C15.8366 39.0709 15.7937 38.9264 15.7999 38.7798C15.7999 35.7531 15.7999 32.7265 15.7999 29.6998V28.3798L15.5099 28.4498C15.1099 28.5598 14.7099 28.6598 14.3099 28.7998C14.0576 28.8967 13.8106 29.0069 13.5699 29.1298L13.0899 29.3598C12.931 29.4357 12.7548 29.4683 12.5792 29.4543C12.4036 29.4402 12.2348 29.38 12.0899 29.2798C11.7499 29.0498 11.4099 28.8098 11.0899 28.5598C10.9638 28.4606 10.8635 28.3324 10.7973 28.1862C10.7312 28.04 10.7012 27.88 10.7099 27.7198C10.7099 27.2598 10.7099 26.7998 10.7099 26.3398C10.682 25.6248 10.5815 24.9145 10.4099 24.2198C10.3378 23.9864 10.2476 23.7591 10.1399 23.5398C9.79991 22.7098 9.45991 21.8898 9.13991 21.0698C9.07996 20.9274 9.04907 20.7744 9.04907 20.6198C9.04907 20.4653 9.07996 20.3123 9.13991 20.1698C9.29991 19.7298 9.44991 19.2898 9.59991 18.8498C9.66735 18.6368 9.80035 18.4506 9.97994 18.3177C10.1595 18.1848 10.3765 18.112 10.5999 18.1098C10.9299 18.1098 11.2699 18.1098 11.5999 18.1098C11.8651 18.119 12.1297 18.0783 12.3799 17.9898L13.5699 17.5698C13.7187 17.4889 13.8624 17.3987 13.9999 17.2998L15.0699 16.6898C15.2219 16.602 15.3944 16.5558 15.5699 16.5558C15.7455 16.5558 15.9179 16.602 16.0699 16.6898L16.2299 16.8098L17.1299 17.6698C17.2099 17.7498 17.2799 17.8298 17.3499 17.9198C17.3499 17.7998 17.3999 13.7498 17.3499 13.4198L17.1999 13.3698C17.0735 13.3302 16.9637 13.2499 16.8877 13.1413C16.8118 13.0328 16.7739 12.9022 16.7799 12.7698C16.7799 12.2498 16.7799 11.7698 16.7799 11.1998C16.7799 11.1398 16.7799 11.0798 16.7799 11.0098H16.5699L15.0699 10.8298L13.6499 10.6798L12.4299 10.5398C12.3368 10.5276 12.2475 10.4953 12.1681 10.4452C12.0887 10.3952 12.0211 10.3285 11.9699 10.2498L10.8299 8.64981L9.99991 7.38981C9.89588 7.26358 9.84242 7.10322 9.84991 6.93981C9.85873 6.79754 9.91791 6.66305 10.0169 6.56044C10.1158 6.45782 10.2481 6.39379 10.3899 6.37981H37.2599C37.3595 6.36623 37.4604 6.36623 37.5599 6.37981C37.6502 6.40501 37.7335 6.45068 37.8033 6.5133C37.8731 6.57591 37.9275 6.65377 37.9624 6.74083C37.9972 6.82789 38.0115 6.9218 38.0041 7.01528C37.9968 7.10876 37.9679 7.19928 37.9199 7.27981C37.3799 8.21314 36.8432 9.15314 36.3099 10.0998C36.2516 10.2199 36.1607 10.3211 36.0475 10.3919C35.9343 10.4626 35.8034 10.5 35.6699 10.4998L34.1899 10.5598L32.3799 10.6398L30.1799 10.7298L27.0699 10.8598L24.2299 10.9998H22.8799H22.7299V11.1898C22.7299 11.6698 22.7299 12.1531 22.7299 12.6398C22.75 12.8052 22.7048 12.9718 22.604 13.1044C22.5032 13.237 22.3546 13.325 22.1899 13.3498V16.2898H22.7599L23.9399 16.1698L25.1299 16.0498L26.2399 15.9998L27.4199 15.8798L28.5599 15.7698L29.7199 15.6498C29.9899 15.6498 30.2499 15.5798 30.5199 15.5798C30.7079 15.5846 30.8952 15.6047 31.0799 15.6398L32.5899 15.8698L33.9999 15.9998L35.3199 16.1898L36.4899 16.3698C36.5872 16.3844 36.677 16.4304 36.7456 16.5008C36.8142 16.5712 36.8579 16.6622 36.8699 16.7598C36.9036 16.8941 36.9505 17.0247 37.0099 17.1498L38.0099 19.3498L38.9999 21.7698L40.0799 24.1498C40.3599 24.7698 40.6499 25.3898 40.9299 26.0098C40.9786 26.1235 41.0024 26.2462 40.9999 26.3698C40.9999 27.1298 40.9999 27.8798 40.9499 28.6398C40.9499 29.0998 40.9499 29.5498 40.9499 30.0098C40.9499 31.4965 40.9166 32.9831 40.8499 34.4698L40.7599 38.5998C40.7599 38.5998 40.7599 38.6698 40.7599 38.6998C40.7761 38.86 40.7332 39.0206 40.6393 39.1514C40.5454 39.2821 40.4069 39.374 40.2499 39.4098L40.2199 39.4298ZM28.9999 41.3898H29.1799L32.2699 40.5798L35.3299 39.7798L38.6599 38.9098L39.7199 38.6298C39.8499 38.6298 39.8599 38.6298 39.8699 38.4498C39.8799 38.2698 39.8699 38.3198 39.8699 38.2498C39.8699 37.3698 39.8899 36.4931 39.9299 35.6198C39.9299 34.6198 39.9299 33.6198 39.9899 32.6198C40.0499 31.6198 40.0499 30.3498 40.0699 29.2198C40.0699 28.3398 40.0699 27.4565 40.0699 26.5698C40.088 26.4807 40.088 26.3889 40.0699 26.2998C39.8899 25.8798 39.6999 25.4698 39.5099 25.0598L38.5099 22.9498L37.6199 20.9498L36.6199 18.7698L36.1199 17.6798C36.1105 17.6441 36.0874 17.6135 36.0555 17.5948C36.0237 17.5761 35.9857 17.5707 35.9499 17.5798H35.5999L34.5999 17.7098L33.7199 17.8198L32.8599 17.9298L31.2399 18.1398L29.9999 18.2898L28.3799 18.4998L26.3799 18.7498L25.9499 18.8198C25.9499 18.8898 25.9499 18.9498 25.9499 18.9998L26.4399 20.6098L27.4399 23.9698C27.8499 25.3198 28.2599 26.6698 28.6799 27.9698C28.7605 28.2288 28.8009 28.4986 28.7999 28.7698C28.9332 32.9231 28.9999 37.0565 28.9999 41.1698V41.3898ZM28.0799 41.3898V41.1298C28.0799 37.0565 28.0799 32.9865 28.0799 28.9198C28.0802 28.6756 28.0431 28.4328 27.9699 28.1998C27.4832 26.6331 27.0032 25.0631 26.5299 23.4898C26.0799 22.0198 25.6299 20.5498 25.1899 19.0798C25.1781 19.0145 25.1434 18.9555 25.0921 18.9134C25.0409 18.8713 24.9763 18.8487 24.9099 18.8498L24.2999 18.7698L23.8899 18.7198C24.0499 18.9498 24.2199 19.1598 24.3599 19.3898C24.7116 19.9859 24.93 20.6512 24.9999 21.3398C25.0886 21.9626 25.0408 22.5973 24.8599 23.1998C24.7404 23.599 24.5357 23.9675 24.2599 24.2798C23.9431 24.6273 23.5219 24.8624 23.0599 24.9498C22.1499 25.1498 21.2599 25.3698 20.3499 25.5798L19.5699 25.7698C19.5699 25.8498 19.5699 25.9198 19.5699 25.9998C19.5792 26.1714 19.5374 26.3419 19.4499 26.4898C19.1999 26.8998 18.9499 27.3198 18.6799 27.7198C18.586 27.8665 18.4554 27.9861 18.301 28.0668C18.1467 28.1474 17.974 28.1864 17.7999 28.1798H16.6299V38.5498L28.0799 41.3898ZM11.0799 7.28981L11.7599 8.23981L12.6299 9.45981C12.6541 9.50587 12.6899 9.54484 12.7337 9.57289C12.7776 9.60095 12.8279 9.61711 12.8799 9.61981H13.2299L15.1199 9.83981L16.7599 10.0198C17.0999 10.0198 17.4299 10.0998 17.7599 10.0998H20.9999C21.9999 10.0998 22.9999 10.0998 23.9999 10.0198L26.7499 9.99981L29.5999 9.88981L32.3299 9.76981L35.1599 9.65981H35.4299C35.4651 9.66289 35.5004 9.65491 35.5309 9.63698C35.5614 9.61906 35.5855 9.59209 35.5999 9.55981L35.6599 9.45981L36.7599 7.53981L36.8399 7.36981L11.0799 7.28981ZM16.6299 19.4598C16.6299 19.1698 16.6299 18.8698 16.6299 18.5798C16.6335 18.5231 16.6235 18.4663 16.6009 18.4142C16.5783 18.3621 16.5437 18.316 16.4999 18.2798C16.2499 18.0498 15.9999 17.8098 15.7499 17.5698C15.4999 17.3298 15.5899 17.4298 15.4299 17.5698L14.7799 17.9398C14.5164 18.104 14.2424 18.251 13.9599 18.3798C13.4599 18.5798 12.9599 18.7398 12.4399 18.9198C12.1344 19.0239 11.8125 19.0714 11.4899 19.0598H10.4899C10.3299 19.0598 10.3099 19.0598 10.2599 19.2198L9.81991 20.4798C9.78489 20.5664 9.78489 20.6632 9.81991 20.7498L10.8699 23.2698C10.975 23.4786 11.062 23.6961 11.1299 23.9198C11.2399 24.4298 11.3399 24.9198 11.4099 25.4598C11.4887 26.0765 11.5188 26.6984 11.4999 27.3198C11.4999 27.4598 11.4999 27.5998 11.4999 27.7398C11.495 27.7782 11.5008 27.8172 11.5167 27.8525C11.5326 27.8878 11.5579 27.918 11.5899 27.9398L12.3699 28.5098C12.4061 28.5366 12.4499 28.5511 12.4949 28.5511C12.5399 28.5511 12.5837 28.5366 12.6199 28.5098L13.0999 28.2798C13.3099 28.1689 13.5271 28.072 13.7499 27.9898C14.3399 27.8098 14.9299 27.6398 15.5199 27.4798C16.0497 27.3303 16.5999 27.2661 17.1499 27.2898H17.6699C17.7184 27.2951 17.7673 27.2855 17.8102 27.2623C17.8531 27.239 17.8879 27.2033 17.9099 27.1598L18.5399 26.1598C18.5653 26.1231 18.5789 26.0795 18.5789 26.0348C18.5789 25.9902 18.5653 25.9466 18.5399 25.9098C18.4266 25.6898 18.3166 25.4665 18.2099 25.2398L17.2699 23.2398C17.0823 22.892 16.9379 22.5226 16.8399 22.1398C16.7899 21.8598 16.7199 21.5898 16.6699 21.3098C16.6199 21.0298 16.5799 20.6098 16.5499 20.2498C16.5199 19.8898 16.6299 19.7198 16.6299 19.4798V19.4598ZM19.1699 24.8798H19.3399L22.9999 23.9998C23.2902 23.9322 23.5482 23.7661 23.7299 23.5298C24.022 23.1557 24.196 22.7032 24.2299 22.2298C24.3315 21.3427 24.1116 20.4485 23.6099 19.7098C23.3671 19.3273 23.0202 19.022 22.6099 18.8298C22.4074 18.722 22.1787 18.6735 21.9499 18.6898C21.4999 18.7498 21.0499 18.8298 20.5999 18.9098L19.0099 19.1798L17.5999 19.4098C17.5299 19.4098 17.4899 19.4098 17.4899 19.5298C17.4899 19.8198 17.4899 20.1098 17.4899 20.3998C17.4899 20.6898 17.6199 21.2698 17.6999 21.6998C17.7231 21.8711 17.7667 22.0389 17.8299 22.1998C18.1499 22.9198 18.4899 23.6298 18.8299 24.3498L19.1699 24.8798ZM18.3899 18.3498L21.2099 17.8798C21.2117 17.8498 21.2117 17.8198 21.2099 17.7898C21.2099 16.4565 21.2099 15.1231 21.2099 13.7898C21.2118 13.7699 21.2118 13.7498 21.2099 13.7298C20.9399 13.7298 18.5199 13.7298 18.4099 13.7298L18.3899 18.3498ZM33.5199 16.9998H33.4099L32.4099 16.8498L30.9799 16.6298C30.7842 16.6022 30.5856 16.6022 30.3899 16.6298L29.6999 16.6998L28.6199 16.7998L27.4399 16.9198L25.3499 17.1198L23.6899 17.2898L22.2999 17.4298H22.1799C22.1785 17.4531 22.1785 17.4765 22.1799 17.4998C22.1799 17.6598 22.1799 17.6698 22.3399 17.6998H22.5499L23.6499 17.8598L24.8699 18.0298C25.0798 18.0764 25.2953 18.0933 25.5099 18.0798L25.9999 18.0098L27.6199 17.8098L29.6799 17.5398L31.2499 17.3398L33.3299 16.9998H33.5199ZM21.7899 11.3898C21.5899 11.3898 17.9099 11.3898 17.7899 11.3898V12.4598C17.9699 12.4598 21.6599 12.4598 21.7899 12.4598V11.3898Z" fill="white"/>
<path d="M35.5099 35.9998C35.5099 36.7098 35.5099 37.4198 35.5099 38.1298C35.5135 38.2778 35.4656 38.4225 35.3744 38.5392C35.2832 38.6559 35.1544 38.7374 35.0099 38.7698L31.8099 39.5598L30.4599 39.9998C30.3644 40.0332 30.2621 40.0424 30.1622 40.0264C30.0622 40.0105 29.9679 39.9699 29.8875 39.9084C29.8072 39.8469 29.7434 39.7664 29.7019 39.6741C29.6604 39.5818 29.6425 39.4807 29.6499 39.3798C29.6499 37.9731 29.6499 36.5698 29.6499 35.1698C29.6376 35.0134 29.6841 34.8581 29.7803 34.7342C29.8764 34.6103 30.0154 34.5267 30.1699 34.4998L31.6899 34.1198L33.6899 33.6298L34.7899 33.3598C34.8805 33.3388 34.9746 33.3384 35.0653 33.3587C35.1561 33.379 35.2411 33.4195 35.3141 33.4771C35.3871 33.5347 35.4461 33.608 35.487 33.6916C35.5278 33.7751 35.5493 33.8668 35.5499 33.9598C35.4999 34.6198 35.5099 35.3298 35.5099 35.9998ZM34.5899 34.2698C34.3499 34.2698 30.6999 35.2098 30.5899 35.2698V38.9998H30.8099L34.4199 37.9998C34.5799 37.9998 34.5999 37.9998 34.5899 37.7798C34.5899 36.6731 34.5899 35.5698 34.5899 34.4698C34.5899 34.4298 34.5899 34.3798 34.5899 34.3198V34.2698Z" fill="white"/>
<path d="M16.7798 23.8097C16.7968 24.4884 16.6199 25.1579 16.2698 25.7397C16.0283 26.1418 15.6531 26.4462 15.2098 26.5997C14.9596 26.6777 14.6958 26.7021 14.4356 26.671C14.1753 26.64 13.9246 26.5544 13.6998 26.4197C13.1997 26.1396 12.7824 25.7325 12.4898 25.2397C11.9449 24.379 11.6923 23.3654 11.7698 22.3497C11.7976 21.7518 11.9916 21.1735 12.3298 20.6797C12.4651 20.4709 12.6411 20.2916 12.8473 20.1524C13.0535 20.0132 13.2856 19.9171 13.5298 19.8697C14.0272 19.7857 14.538 19.8929 14.9598 20.1697C15.4796 20.5058 15.9034 20.9709 16.1898 21.5197C16.574 22.222 16.7768 23.0091 16.7798 23.8097ZM12.5698 22.5597C12.5489 23.2536 12.7037 23.9416 13.0198 24.5597C13.2404 25.0228 13.5869 25.4144 14.0198 25.6897C14.1409 25.7769 14.2789 25.8378 14.425 25.8685C14.571 25.8992 14.7219 25.899 14.8679 25.8679C15.0139 25.8368 15.1517 25.7756 15.2726 25.688C15.3935 25.6005 15.4947 25.4887 15.5698 25.3597C15.8209 24.9883 15.9693 24.557 15.9998 24.1097C16.0557 23.3422 15.8891 22.5748 15.5198 21.8997C15.2939 21.4586 14.947 21.0909 14.5198 20.8397C14.3585 20.7279 14.1693 20.6631 13.9733 20.6525C13.7773 20.6419 13.5822 20.6859 13.4098 20.7797C13.1946 20.9078 13.021 21.0953 12.9098 21.3197C12.6952 21.702 12.5784 22.1314 12.5698 22.5697V22.5597Z" fill="white"/>
<path d="M31.3899 36.79C31.3899 36.61 31.3899 36.44 31.3899 36.26C31.3832 36.1247 31.4233 35.9912 31.5034 35.8819C31.5835 35.7726 31.6988 35.6943 31.8299 35.66C32.2399 35.54 32.6499 35.43 33.0699 35.34C33.1542 35.3257 33.2405 35.3296 33.3232 35.3513C33.4058 35.3731 33.4828 35.4123 33.5491 35.4663C33.6154 35.5203 33.6694 35.5878 33.7075 35.6643C33.7455 35.7408 33.7668 35.8246 33.7699 35.91C33.7699 36.3 33.7699 36.69 33.7699 37.07C33.7673 37.2045 33.7179 37.334 33.6304 37.4361C33.5428 37.5383 33.4224 37.6068 33.2899 37.63L32.1599 37.92C32.0701 37.9444 31.976 37.948 31.8846 37.9304C31.7932 37.9128 31.7071 37.8746 31.6328 37.8186C31.5585 37.7626 31.498 37.6904 31.4559 37.6075C31.4138 37.5245 31.3912 37.433 31.3899 37.34C31.3899 37.16 31.3899 37 31.3899 36.79ZM32.3199 36.48C32.2949 36.6256 32.2949 36.7744 32.3199 36.92L32.5299 36.86V36.43L32.3199 36.48Z" fill="white"/>
<path d="M14.9999 22.66C14.9124 22.66 14.8285 22.6252 14.7666 22.5633C14.7047 22.5015 14.6699 22.4175 14.6699 22.33C14.6699 22.2425 14.7047 22.1585 14.7666 22.0967C14.8285 22.0348 14.9124 22 14.9999 22C15.083 22.0026 15.1619 22.0375 15.2198 22.0972C15.2776 22.1569 15.31 22.2368 15.3099 22.32C15.3127 22.4059 15.2818 22.4894 15.2239 22.5529C15.1661 22.6164 15.0857 22.6548 14.9999 22.66Z" fill="white"/>
<path d="M14.3998 24.6596C14.3999 24.7428 14.3675 24.8227 14.3097 24.8824C14.2518 24.9422 14.1729 24.977 14.0898 24.9796C14.0159 24.9664 13.949 24.9276 13.9008 24.87C13.8526 24.8124 13.8262 24.7397 13.8262 24.6646C13.8262 24.5895 13.8526 24.5168 13.9008 24.4592C13.949 24.4016 14.0159 24.3628 14.0898 24.3496C14.1712 24.3521 14.2486 24.3856 14.3063 24.4432C14.3639 24.5008 14.3973 24.5782 14.3998 24.6596Z" fill="white"/>
<path d="M15.7399 23.5597C15.7399 23.6013 15.7316 23.6425 15.7154 23.6807C15.6992 23.719 15.6755 23.7536 15.6456 23.7826C15.6157 23.8115 15.5804 23.8341 15.5416 23.8491C15.5028 23.8641 15.4614 23.8711 15.4199 23.8697C15.346 23.8565 15.2791 23.8177 15.2309 23.7601C15.1827 23.7025 15.1562 23.6298 15.1563 23.5547C15.1562 23.4796 15.1827 23.4069 15.2309 23.3494C15.2791 23.2918 15.346 23.253 15.4199 23.2397C15.5048 23.2397 15.5862 23.2735 15.6462 23.3335C15.7062 23.3935 15.7399 23.4749 15.7399 23.5597Z" fill="white"/>
<path d="M13.7499 23.6999C13.7499 23.7414 13.7416 23.7826 13.7254 23.8209C13.7092 23.8591 13.6854 23.8938 13.6556 23.9227C13.6257 23.9516 13.5904 23.9742 13.5516 23.9892C13.5128 24.0042 13.4714 24.0112 13.4299 24.0099C13.351 24.0028 13.2773 23.9676 13.2222 23.9107C13.1671 23.8538 13.1344 23.779 13.1299 23.6999C13.1347 23.6166 13.1699 23.5379 13.2289 23.4789C13.2879 23.4199 13.3666 23.3847 13.4499 23.3799C13.5312 23.385 13.6076 23.4209 13.6633 23.4804C13.7191 23.5399 13.75 23.6184 13.7499 23.6999Z" fill="white"/>
<path d="M13.9999 21.27C14.0834 21.27 14.1635 21.3032 14.2226 21.3623C14.2817 21.4214 14.3149 21.5015 14.3149 21.585C14.3149 21.6686 14.2817 21.7487 14.2226 21.8078C14.1635 21.8668 14.0834 21.9 13.9999 21.9C13.9202 21.8951 13.8453 21.8605 13.7898 21.8032C13.7343 21.7458 13.7022 21.6698 13.6999 21.59C13.6985 21.5493 13.7052 21.5087 13.7196 21.4706C13.734 21.4325 13.7557 21.3976 13.7836 21.3678C13.8114 21.3381 13.8449 21.3142 13.882 21.2974C13.9191 21.2806 13.9592 21.2713 13.9999 21.27Z" fill="white"/>
<path d="M12.9199 22.4499C12.9198 22.3667 12.9521 22.2868 13.01 22.2271C13.0679 22.1673 13.1467 22.1325 13.2298 22.1299C13.3038 22.1431 13.3707 22.1819 13.4189 22.2395C13.4671 22.2971 13.4935 22.3698 13.4935 22.4449C13.4935 22.52 13.4671 22.5927 13.4189 22.6503C13.3707 22.7079 13.3038 22.7467 13.2298 22.7599C13.1888 22.7613 13.1478 22.7542 13.1096 22.7391C13.0713 22.724 13.0366 22.7013 13.0075 22.6722C12.9785 22.6431 12.9557 22.6084 12.9406 22.5701C12.9255 22.5319 12.9185 22.491 12.9199 22.4499Z" fill="white"/>
<path d="M15.3599 24.7297C15.3578 24.8105 15.3261 24.8878 15.2708 24.9467C15.2155 25.0057 15.1404 25.0424 15.0599 25.0497C14.9767 25.0524 14.8956 25.0227 14.834 24.9666C14.7724 24.9106 14.7351 24.8328 14.7299 24.7497C14.7286 24.7081 14.7356 24.6668 14.7506 24.628C14.7655 24.5892 14.7882 24.5538 14.8171 24.524C14.846 24.4941 14.8806 24.4704 14.9189 24.4542C14.9572 24.438 14.9983 24.4297 15.0399 24.4297C15.1207 24.4318 15.198 24.4635 15.257 24.5188C15.3159 24.5741 15.3526 24.6492 15.3599 24.7297Z" fill="white"/>
</svg>
