<svg width="459" height="48" viewBox="0 0 459 48" fill="none" xmlns="http://www.w3.org/2000/svg">
<g clip-path="url(#clip0)">
<path d="M91.1557 -0.300781C91.1557 15.071 91.1557 30.3322 91.1557 45.7039C84.716 45.7039 78.3872 45.7039 71.8364 45.7039C71.8364 30.3322 71.8364 15.1816 71.8364 -0.300781C78.0541 -0.300781 84.3829 -0.300781 91.1557 -0.300781Z" fill="white"/>
<path d="M47.41 45.8145H68.8389L47.0769 -0.300781H25.648L37.8614 25.4663H25.2039L19.2083 12.8592L13.3237 25.4663H0L10.1038 32.5439L3.9971 45.5933L19.2083 38.8475L34.5305 45.5933L28.4238 32.4333L37.9724 25.9086L47.41 45.8145Z" fill="white"/>
<path d="M130.903 21.7063V10.9792H123.797V-0.300781H106.143V10.9792H93.7075L98.8149 21.7063H106.143V35.6404C106.143 42.6075 109.807 45.8145 115.358 45.8145H123.686H130.792V35.3086H125.906C124.685 35.3086 123.686 34.3133 123.686 33.0969V21.7063H130.903Z" fill="white"/>
<path d="M189.859 30.5526C189.859 30.3315 189.859 27.4562 189.859 27.4562C189.859 16.6185 181.42 10.9785 163.434 10.9785C145.669 10.9785 136.453 15.955 136.453 26.7926V30.995C136.453 40.0632 144.225 46.8091 163.434 46.8091C181.976 46.8091 189.526 40.7267 189.748 33.7597H173.204C173.204 33.7597 171.65 37.5197 163.1 37.5197C152.33 37.5197 152.664 30.6632 152.664 30.6632L189.859 30.5526ZM153.663 22.0373C155.328 20.1573 158.659 19.162 163.767 19.162C173.315 19.162 173.537 24.2491 173.537 24.4703V24.802H152.775C152.775 24.9126 152.553 23.2538 153.663 22.0373Z" fill="white"/>
<path d="M229.279 10.8691C219.397 10.8691 214.623 19.6056 213.734 25.4668C213.623 25.4668 213.623 25.4668 213.623 25.4668V12.0856H195.192V45.7044H213.623V29.5586C213.623 29.5586 219.508 23.0338 232.943 24.6927V10.8691H229.279Z" fill="white"/>
<path d="M275.023 11.7539C260.589 11.7539 256.37 22.9233 256.37 22.9233V12.1963H238.383V45.8151H256.37V28.8951C256.37 28.8951 258.368 22.1492 266.696 22.1492C275.023 22.1492 274.468 29.0057 274.468 29.0057V45.8151H291.455V23.6974C291.344 23.6974 290.9 11.7539 275.023 11.7539Z" fill="white"/>
<path d="M441.458 11.7526V17.6138C437.572 13.7432 431.798 10.9785 425.359 10.9785C413.478 10.9785 403.93 17.1715 403.93 28.7832C403.93 40.395 413.478 46.3667 425.359 46.3667C431.798 46.3667 437.572 43.3809 441.458 39.3997V45.8138H459.112V11.7526H441.458ZM436.573 35.0867C435.795 35.6397 432.576 36.3032 430.688 36.3032C429.356 36.3032 426.025 35.7503 424.914 34.9762C423.693 34.202 421.139 32.7644 421.139 28.562C421.139 24.4703 423.693 23.0326 424.803 22.2585C425.581 21.7056 428.801 21.042 430.688 21.042C432.02 21.042 435.351 21.595 436.462 22.3691C437.683 23.1432 440.237 24.5809 440.237 28.7832C440.237 32.9856 437.683 34.4232 436.573 35.0867Z" fill="white"/>
<path d="M387.162 11.8633L377.392 32.6539L367.51 11.8633H350.078L366.067 45.8139H371.174H383.498H388.606L404.594 11.8633H387.162Z" fill="white"/>
<path d="M350.523 28.6731V27.899C350.523 16.619 342.751 10.7578 323.543 10.7578C304.335 10.7578 296.562 16.619 296.562 27.7884V28.5625V29.3366C296.562 40.6166 304.335 46.3672 323.543 46.3672C342.751 46.3672 350.523 40.6166 350.523 29.3366V28.6731ZM329.761 34.9766C328.983 35.5296 325.764 36.1931 323.876 36.1931C323.765 36.1931 323.654 36.1931 323.654 36.1931C323.543 36.1931 323.432 36.1931 323.432 36.1931C321.544 36.1931 318.324 35.5296 317.547 34.9766C316.437 34.3131 313.883 32.8755 313.883 28.6731V28.5625V28.4519C313.883 24.3602 316.437 22.9225 317.547 22.1484C318.324 21.5955 321.544 20.9319 323.432 20.9319C323.543 20.9319 323.654 20.9319 323.765 20.9319C323.876 20.9319 323.987 20.9319 324.098 20.9319C325.986 20.9319 329.205 21.5955 329.983 22.1484C331.093 22.8119 333.647 24.2496 333.647 28.4519V28.5625V28.6731C333.425 32.8755 330.871 34.2025 329.761 34.9766Z" fill="white"/>
</g>
<defs>
<clipPath id="clip0">
<rect y="0.699219" width="459" height="47" fill="white"/>
</clipPath>
</defs>
</svg>
