<svg width="4" height="6" viewBox="0 0 4 6" fill="none" xmlns="http://www.w3.org/2000/svg">
<path d="M1.3824 3.56735C1.3824 3.27055 1.41922 3.03401 1.49286 2.85772C1.5665 2.68142 1.71155 2.48839 1.92801 2.27863C2.1467 2.06663 2.28506 1.916 2.34308 1.82674C2.43234 1.69062 2.47697 1.54333 2.47697 1.38489C2.47697 1.17513 2.42453 1.01557 2.31965 0.906227C2.21699 0.79465 2.06525 0.738861 1.86441 0.738861C1.6725 0.738861 1.5174 0.793534 1.39913 0.90288C1.28309 1.00999 1.22507 1.15616 1.22507 1.34138H0.411673C0.416136 0.946395 0.550029 0.633979 0.813352 0.404129C1.07891 0.17428 1.42926 0.0593553 1.86441 0.0593553C2.31295 0.0593553 2.66219 0.173164 2.91212 0.400782C3.16429 0.6284 3.29037 0.946395 3.29037 1.35477C3.29037 1.71851 3.12077 2.07667 2.78158 2.42926L2.36986 2.83428C2.22257 3.00165 2.1467 3.246 2.14224 3.56735H1.3824ZM1.32549 4.60836C1.32549 4.4767 1.36678 4.3707 1.44934 4.29037C1.53191 4.2078 1.64349 4.16652 1.78407 4.16652C1.92689 4.16652 2.03959 4.20892 2.12215 4.29372C2.20472 4.37628 2.246 4.48117 2.246 4.60836C2.246 4.7311 2.20584 4.83375 2.1255 4.91632C2.04517 4.99888 1.93136 5.04017 1.78407 5.04017C1.63679 5.04017 1.52298 4.99888 1.44265 4.91632C1.36454 4.83375 1.32549 4.7311 1.32549 4.60836Z" fill="#56CCF2" fill-opacity="0.6"/>
</svg>
