<svg width="24" height="24" viewBox="0 0 24 24" fill="none" xmlns="http://www.w3.org/2000/svg">
<path fill-rule="evenodd" clip-rule="evenodd" d="M17.0246 11.8096C16.8639 11.8096 16.7097 11.877 16.596 11.997C16.4824 12.117 16.4185 12.2798 16.4185 12.4495V15.5653C16.4185 15.735 16.4824 15.8977 16.596 16.0177C16.7097 16.1377 16.8639 16.2051 17.0246 16.2052H21.1933C21.3046 16.2052 21.4137 16.1728 21.5087 16.1117C21.6037 16.0505 21.681 15.963 21.732 15.8586C21.783 15.7542 21.8058 15.637 21.7979 15.5198C21.7901 15.4026 21.7518 15.29 21.6873 15.1943L19.5877 12.0785C19.5317 11.9953 19.4576 11.9275 19.3717 11.8808C19.2857 11.834 19.1905 11.8096 19.0938 11.8096H17.0246ZM17.6308 13.0894H18.781L20.0181 14.9254H17.6308V13.0894Z" fill="#4F4F4F"/>
<path fill-rule="evenodd" clip-rule="evenodd" d="M2.47763 6.12736C1.42062 6.12736 0.550781 7.0456 0.550781 8.16137V19.2689C0.550781 20.3847 1.42062 21.303 2.47763 21.303H4.35778C4.67896 22.5048 5.73026 23.3941 6.96882 23.3941C8.20696 23.3941 9.25873 22.5055 9.58006 21.303H16.716C17.0375 22.5051 18.0894 23.3941 19.3268 23.3941C20.5642 23.3941 21.6162 22.5051 21.9377 21.303H22.181C23.0507 21.303 23.764 20.5462 23.764 19.6319V15.5801C23.7749 15.4888 23.7671 15.3962 23.741 15.3085C23.7374 15.2956 23.7334 15.2829 23.7291 15.2703L23.7285 15.2671C23.7011 15.1864 23.6585 15.1119 23.6035 15.0487L20.3665 10.3079C20.3104 10.2257 20.2366 10.1588 20.1512 10.1126C20.0657 10.0664 19.9711 10.0422 19.8751 10.0421L15.9502 10.0393V8.16047C15.9502 7.04471 15.0804 6.12646 14.0233 6.12646H2.4778L2.47763 6.12736ZM2.47763 7.40717H14.0232C14.4206 7.40717 14.7375 7.74173 14.7375 8.16137V20.0231H9.63766C9.40875 18.6875 8.29525 17.6654 6.96882 17.6654C5.64238 17.6654 4.5289 18.6875 4.29999 20.0231H2.47763C2.08022 20.0231 1.76323 19.6886 1.76323 19.2689V8.16137C1.76323 7.74173 2.08022 7.40717 2.47763 7.40717ZM15.95 11.32L19.5641 11.3225L22.5515 15.6979V19.6317C22.5515 19.8481 22.3884 20.0229 22.181 20.0229H21.9957C21.7668 18.6873 20.6533 17.6652 19.3268 17.6652C18.0004 17.6652 16.8869 18.6873 16.658 20.0229H15.95V11.32ZM6.96882 18.9453C7.80314 18.9453 8.46813 19.6463 8.46813 20.5312V20.5657C8.45061 21.4296 7.79353 22.1142 6.96882 22.1142C6.13396 22.1142 5.47245 21.4157 5.46943 20.5377V20.5329C5.46943 19.648 6.13448 18.947 6.96882 18.947V18.9453ZM19.3268 18.9453C20.1612 18.9453 20.8262 19.6463 20.8262 20.5312C20.8262 21.4121 20.1612 22.1142 19.3268 22.1142C18.4925 22.1142 17.8274 21.4121 17.8274 20.5312C17.8274 19.6463 18.4925 18.9453 19.3268 18.9453Z" fill="#4F4F4F"/>
<path fill-rule="evenodd" clip-rule="evenodd" d="M9.19136 7.23544C9.19243 7.12797 9.17667 7.0213 9.14499 6.92162C9.11331 6.82194 9.06634 6.73123 9.0068 6.65475C8.94727 6.57828 8.87637 6.51756 8.79819 6.47611C8.72002 6.43467 8.63614 6.41333 8.55141 6.41333C8.46669 6.41333 8.38279 6.43467 8.30462 6.47611C8.22644 6.51756 8.15553 6.57828 8.096 6.65475C8.03647 6.73123 7.9895 6.82194 7.95782 6.92162C7.92614 7.0213 7.91038 7.12797 7.91145 7.23544L7.91145 18.8389C7.91038 18.9463 7.92614 19.053 7.95782 19.1527C7.9895 19.2524 8.03647 19.3431 8.096 19.4196C8.15553 19.496 8.22644 19.5568 8.30462 19.5982C8.38279 19.6396 8.46669 19.661 8.55141 19.661C8.63614 19.661 8.72002 19.6396 8.79819 19.5982C8.87637 19.5568 8.94727 19.496 9.0068 19.4196C9.06633 19.3431 9.11331 19.2524 9.14499 19.1527C9.17667 19.053 9.19243 18.9463 9.19135 18.8389L9.19136 7.23544Z" fill="#4F4F4F"/>
<path fill-rule="evenodd" clip-rule="evenodd" d="M2.14745 9.92437C2.03167 9.9233 1.91674 9.93906 1.80935 9.97073C1.70195 10.0024 1.60422 10.0494 1.52183 10.1089C1.43943 10.1684 1.37401 10.2394 1.32936 10.3175C1.28471 10.3957 1.26172 10.4796 1.26172 10.5643C1.26172 10.649 1.28471 10.7329 1.32936 10.8111C1.37401 10.8893 1.43943 10.9602 1.52183 11.0197C1.60422 11.0793 1.70195 11.1262 1.80935 11.1579C1.91674 11.1896 2.03167 11.2053 2.14745 11.2043L14.6489 11.2043C14.7647 11.2053 14.8796 11.1896 14.987 11.1579C15.0944 11.1262 15.1921 11.0793 15.2745 11.0197C15.3569 10.9602 15.4224 10.8893 15.467 10.8111C15.5117 10.7329 15.5346 10.649 15.5346 10.5643C15.5346 10.4796 15.5117 10.3957 15.467 10.3175C15.4224 10.2394 15.3569 10.1684 15.2745 10.1089C15.1921 10.0494 15.0944 10.0024 14.987 9.97073C14.8796 9.93906 14.7647 9.9233 14.6489 9.92437L2.14745 9.92437Z" fill="#4F4F4F"/>
<path d="M3.88743 1.1987C4.85067 1.1987 5.545 1.54112 6.06472 2.04881C6.59661 2.56837 6.96407 3.28069 7.21334 4.03195C7.46148 4.77981 7.58222 5.53497 7.64021 6.10818C7.65688 6.27294 7.66826 6.42162 7.67602 6.54952L6.81678 6.54839C5.99925 6.54743 4.92282 6.54648 3.88744 6.54648C2.97293 6.54648 2.31297 6.23625 1.87956 5.7746C1.44126 5.30775 1.19531 4.64372 1.19531 3.87252C1.19531 3.10133 1.44126 2.43733 1.87955 1.97052C2.31296 1.5089 2.97292 1.1987 3.88743 1.1987Z" stroke="#4F4F4F"/>
<path d="M12.4532 1.20029C11.4903 1.20029 10.7961 1.54262 10.2766 2.05015C9.74483 2.56957 9.37747 3.28169 9.12826 4.03275C8.88019 4.7804 8.75948 5.53537 8.70151 6.10843C8.68485 6.27309 8.67347 6.42169 8.66571 6.54952L9.5246 6.54839C10.3419 6.54743 11.4181 6.54648 12.4532 6.54648C13.3675 6.54648 14.0272 6.23634 14.4605 5.77484C14.8987 5.30813 15.1445 4.6443 15.1445 3.87332C15.1445 3.10235 14.8987 2.43855 14.4605 1.97188C14.0272 1.51041 13.3675 1.20029 12.4532 1.20029Z" stroke="#4F4F4F"/>
</svg>
