<svg width="24" height="18" viewBox="0 0 24 18" fill="none" xmlns="http://www.w3.org/2000/svg">
<path fill-rule="evenodd" clip-rule="evenodd" d="M17.0246 5.80957C16.8639 5.8096 16.7097 5.87703 16.596 5.99703C16.4824 6.11703 16.4185 6.27978 16.4185 6.44949V9.56527C16.4185 9.73498 16.4824 9.89772 16.596 10.0177C16.7097 10.1377 16.8639 10.2051 17.0246 10.2052H21.1933C21.3046 10.2052 21.4137 10.1728 21.5087 10.1117C21.6037 10.0505 21.681 9.96297 21.732 9.85858C21.783 9.75418 21.8058 9.63696 21.7979 9.51979C21.7901 9.40261 21.7518 9.28999 21.6873 9.19426L19.5877 6.0785C19.5317 5.99534 19.4576 5.92754 19.3717 5.88076C19.2857 5.83398 19.1905 5.80957 19.0938 5.80957H17.0246ZM17.6308 7.08941H18.781L20.0181 8.92535H17.6308V7.08941Z" fill="#4F4F4F"/>
<path fill-rule="evenodd" clip-rule="evenodd" d="M2.47763 0.127363C1.42062 0.127363 0.550781 1.0456 0.550781 2.16137V13.2689C0.550781 14.3847 1.42062 15.303 2.47763 15.303H4.35778C4.67896 16.5048 5.73026 17.3941 6.96882 17.3941C8.20696 17.3941 9.25873 16.5055 9.58006 15.303H16.716C17.0375 16.5051 18.0894 17.3941 19.3268 17.3941C20.5642 17.3941 21.6162 16.5051 21.9377 15.303H22.181C23.0507 15.303 23.764 14.5462 23.764 13.6319V9.58006C23.7749 9.48883 23.7671 9.39621 23.741 9.30847C23.7374 9.29564 23.7334 9.28292 23.7291 9.27035L23.7285 9.26715C23.7011 9.18636 23.6585 9.11188 23.6035 9.04875L20.3665 4.30795C20.3104 4.22575 20.2366 4.15879 20.1512 4.11258C20.0657 4.06637 19.9711 4.04223 19.8751 4.04215L15.9502 4.03926V2.16047C15.9502 1.04471 15.0804 0.126465 14.0233 0.126465H2.4778L2.47763 0.127363ZM2.47763 1.40717H14.0232C14.4206 1.40717 14.7375 1.74173 14.7375 2.16137V14.0231H9.63766C9.40875 12.6875 8.29525 11.6654 6.96882 11.6654C5.64238 11.6654 4.5289 12.6875 4.29999 14.0231H2.47763C2.08022 14.0231 1.76323 13.6886 1.76323 13.2689V2.16137C1.76323 1.74173 2.08022 1.40717 2.47763 1.40717ZM15.95 5.31996L19.5641 5.32252L22.5515 9.69795V13.6317C22.5515 13.8481 22.3884 14.0229 22.181 14.0229H21.9957C21.7668 12.6873 20.6533 11.6652 19.3268 11.6652C18.0004 11.6652 16.8869 12.6873 16.658 14.0229H15.95V5.31996ZM6.96882 12.9453C7.80314 12.9453 8.46813 13.6463 8.46813 14.5312V14.5657C8.45061 15.4296 7.79353 16.1142 6.96882 16.1142C6.13396 16.1142 5.47245 15.4157 5.46943 14.5377V14.5329C5.46943 13.648 6.13448 12.947 6.96882 12.947V12.9453ZM19.3268 12.9453C20.1612 12.9453 20.8262 13.6463 20.8262 14.5312C20.8262 15.4121 20.1612 16.1142 19.3268 16.1142C18.4925 16.1142 17.8274 15.4121 17.8274 14.5312C17.8274 13.6463 18.4925 12.9453 19.3268 12.9453Z" fill="#4F4F4F"/>
<path fill-rule="evenodd" clip-rule="evenodd" d="M6.94211 4.61138C6.86185 4.61031 6.78219 4.62607 6.70774 4.65775C6.63329 4.68943 6.56555 4.7364 6.50843 4.79593C6.45132 4.85546 6.40597 4.92637 6.37501 5.00454C6.34406 5.08272 6.32812 5.16659 6.32813 5.25132C6.32812 5.33605 6.34406 5.41994 6.37501 5.49812C6.40597 5.57629 6.45132 5.6472 6.50843 5.70673C6.56555 5.76626 6.63329 5.81323 6.70774 5.84491C6.78219 5.87659 6.86185 5.89235 6.94211 5.89128H12.8878C12.9681 5.89235 13.0477 5.87659 13.1222 5.84491C13.1966 5.81323 13.2644 5.76626 13.3215 5.70673C13.3786 5.6472 13.4239 5.57629 13.4549 5.49812C13.4858 5.41994 13.5018 5.33605 13.5018 5.25132C13.5018 5.16659 13.4858 5.08272 13.4549 5.00454C13.4239 4.92637 13.3786 4.85546 13.3215 4.79593C13.2644 4.7364 13.1966 4.68943 13.1222 4.65775C13.0477 4.62607 12.9681 4.61031 12.8878 4.61138H6.94211Z" fill="#4F4F4F"/>
<path fill-rule="evenodd" clip-rule="evenodd" d="M4.21945 7.48321C4.13919 7.48213 4.05953 7.49789 3.98508 7.52957C3.91064 7.56125 3.84289 7.60823 3.78577 7.66776C3.72866 7.72729 3.68331 7.79819 3.65236 7.87637C3.62141 7.95454 3.60547 8.03842 3.60547 8.12315C3.60547 8.20787 3.62141 8.29177 3.65236 8.36994C3.68331 8.44812 3.72866 8.51903 3.78577 8.57856C3.84289 8.63809 3.91064 8.68506 3.98508 8.71674C4.05953 8.74842 4.13919 8.76418 4.21945 8.76311H12.8854C12.9657 8.76418 13.0453 8.74842 13.1198 8.71674C13.1942 8.68506 13.262 8.63809 13.3191 8.57856C13.3762 8.51903 13.4216 8.44812 13.4525 8.36994C13.4835 8.29177 13.4994 8.20787 13.4994 8.12315C13.4994 8.03842 13.4835 7.95454 13.4525 7.87637C13.4216 7.79819 13.3762 7.72729 13.3191 7.66776C13.262 7.60823 13.1942 7.56125 13.1198 7.52957C13.0453 7.49789 12.9657 7.48213 12.8854 7.48321H4.21945Z" fill="#4F4F4F"/>
</svg>
