<svg width="7" height="7" viewBox="0 0 7 7" fill="none" xmlns="http://www.w3.org/2000/svg">
<path fill-rule="evenodd" clip-rule="evenodd" d="M5.91316 1.03841C6.02687 0.925697 6.18037 0.86226 6.34048 0.861819C6.50059 0.861377 6.65444 0.923965 6.76877 1.03605C6.8831 1.14814 6.94872 1.30072 6.95145 1.46081C6.95418 1.62089 6.89379 1.77562 6.78335 1.89154L3.53985 5.94591C3.4841 6.00596 3.41682 6.05414 3.34203 6.08759C3.26724 6.12103 3.18647 6.13905 3.10455 6.14057C3.02264 6.14209 2.94126 6.12707 2.86528 6.09642C2.7893 6.06576 2.72028 6.0201 2.66235 5.96216L0.513286 3.81229C0.453416 3.7565 0.405395 3.68923 0.37209 3.61448C0.338784 3.53973 0.320874 3.45903 0.319431 3.37721C0.317987 3.29539 0.333039 3.21412 0.363687 3.13824C0.394335 3.06236 0.439953 2.99344 0.497818 2.93557C0.555683 2.87771 0.624611 2.83209 0.700488 2.80144C0.776366 2.77079 0.85764 2.75574 0.939461 2.75718C1.02128 2.75863 1.10197 2.77654 1.17672 2.80984C1.25147 2.84315 1.31875 2.89117 1.37454 2.95104L3.07591 4.6516L5.89772 1.05629C5.90276 1.05 5.90819 1.04402 5.91397 1.03841H5.91316Z" fill="#4F4F4F"/>
</svg>
