<svg width="32" height="32" viewBox="0 0 32 32" fill="none" xmlns="http://www.w3.org/2000/svg">
<path d="M10.56 14.08C9.94144 13.4614 8.93856 13.4614 8.32 14.08C7.70144 14.6986 7.70144 15.7014 8.32 16.32L14.4 22.4L29.28 7.52C29.8986 6.90144 29.8986 5.89856 29.28 5.28C28.6614 4.66144 27.6586 4.66144 27.04 5.28L14.4 17.92L10.56 14.08ZM30.4 16C29.5163 16 28.8105 16.7199 28.7002 17.5967C27.9081 23.8904 22.4996 28.8 16 28.8C8.96 28.8 3.2 23.04 3.2 16C3.2 8.96 8.96 3.2 16 3.2C16.9242 3.2 17.765 3.28341 18.5825 3.45023C19.1664 3.56936 19.7813 3.41868 20.2027 2.99733C21.0652 2.13483 20.7154 0.668067 19.5237 0.407834C18.3688 0.155639 17.1844 0 16 0C7.2 0 0 7.2 0 16C0 24.8 7.2 32 16 32C24.261 32 31.112 25.655 31.9203 17.5977C32.0085 16.7184 31.2837 16 30.4 16Z" fill="#27AE60"/>
</svg>
