<svg width="54" height="37" viewBox="0 0 54 37" fill="none" xmlns="http://www.w3.org/2000/svg">
<path fill-rule="evenodd" clip-rule="evenodd" d="M5.28688 0.145388C2.91594 0.145388 0.964844 2.09664 0.964844 4.46764V28.0712C0.964844 30.4423 2.91594 32.3935 5.28688 32.3935H9.50416C10.2246 34.9474 12.5827 36.8372 15.3609 36.8372C18.1381 36.8372 20.4973 34.9489 21.218 32.3935H37.2243C37.9454 34.9482 40.305 36.8372 43.0806 36.8372C45.8561 36.8372 48.2157 34.9482 48.9369 32.3935H49.4826C51.4334 32.3935 53.0334 30.7855 53.0334 28.8424V20.2324C53.0579 20.0385 53.0403 19.8417 52.9818 19.6552C52.9737 19.628 52.9648 19.6009 52.955 19.5742L52.9537 19.5674C52.8924 19.3958 52.7968 19.2375 52.6734 19.1033L45.4127 9.02913C45.2868 8.85445 45.1212 8.71216 44.9296 8.61397C44.738 8.51577 44.5258 8.46447 44.3105 8.4643L35.5066 8.45816V4.46573C35.5066 2.09474 33.5555 0.143478 31.1845 0.143478H5.28725L5.28688 0.145388ZM5.28688 2.86497H31.1842C32.0756 2.86497 32.7864 3.57592 32.7864 4.46764V29.6737H21.3472C20.8338 26.8356 18.3361 24.6636 15.3609 24.6636C12.3856 24.6636 9.88799 26.8356 9.37453 29.6737H5.28688C4.39545 29.6737 3.68442 28.963 3.68442 28.0712V4.46764C3.68442 3.57592 4.39546 2.86497 5.28688 2.86497ZM35.5062 11.1797L43.6127 11.1851L50.3136 20.4829V28.8422C50.3136 29.3019 49.9479 29.6735 49.4826 29.6735H49.0669C48.5535 26.8353 46.0559 24.6634 43.0806 24.6634C40.1053 24.6634 37.6077 26.8353 37.0942 29.6735H35.5062V11.1797ZM15.3609 27.3834C17.2323 27.3834 18.7239 28.8731 18.7239 30.7536V30.8269C18.6846 32.6627 17.2107 34.1173 15.3609 34.1173C13.4882 34.1173 12.0044 32.6332 11.9976 30.7675V30.7572C11.9976 28.8767 13.4894 27.387 15.3609 27.387V27.3834ZM43.0806 27.3834C44.9521 27.3834 46.4438 28.8731 46.4438 30.7536C46.4438 32.6255 44.9521 34.1173 43.0806 34.1173C41.2091 34.1173 39.7173 32.6255 39.7173 30.7536C39.7173 28.8731 41.2091 27.3834 43.0806 27.3834Z" fill="#EB5757"/>
</svg>
