<svg width="54" height="61" viewBox="0 0 54 61" fill="none" xmlns="http://www.w3.org/2000/svg">
<path d="M39.75 22.6333L14.25 7.92834" stroke="#EB5757" stroke-width="3" stroke-linecap="round" stroke-linejoin="round"/>
<path d="M52.5 41.3333V18.6667C52.499 17.6729 52.2367 16.697 51.7394 15.8366C51.2421 14.9763 50.5273 14.2619 49.6667 13.765L29.8333 2.43166C28.9719 1.93431 27.9947 1.67247 27 1.67247C26.0053 1.67247 25.0281 1.93431 24.1667 2.43166L4.33333 13.765C3.47274 14.2619 2.75794 14.9763 2.26064 15.8366C1.76334 16.697 1.50102 17.6729 1.5 18.6667V41.3333C1.50102 42.327 1.76334 43.303 2.26064 44.1634C2.75794 45.0237 3.47274 45.7381 4.33333 46.235L24.1667 57.5683C25.0281 58.0657 26.0053 58.3275 27 58.3275C27.9947 58.3275 28.9719 58.0657 29.8333 57.5683L49.6667 46.235C50.5273 45.7381 51.2421 45.0237 51.7394 44.1634C52.2367 43.303 52.499 42.327 52.5 41.3333Z" stroke="#EB5757" stroke-width="3" stroke-linecap="round" stroke-linejoin="round"/>
<path d="M2.26367 15.72L26.9987 30.0283L51.7337 15.72" stroke="#EB5757" stroke-width="3" stroke-linecap="round" stroke-linejoin="round"/>
<path d="M27 58.56V30" stroke="#EB5757" stroke-width="3" stroke-linecap="round" stroke-linejoin="round"/>
</svg>
