<svg width="42" height="41" viewBox="0 0 42 41" fill="none" xmlns="http://www.w3.org/2000/svg">
<path d="M15.5483 39.3333C17.3235 39.3333 18.7626 37.8942 18.7626 36.119C18.7626 34.3438 17.3235 32.9048 15.5483 32.9048C13.7731 32.9048 12.334 34.3438 12.334 36.119C12.334 37.8942 13.7731 39.3333 15.5483 39.3333Z" stroke="#EB5757" stroke-width="3" stroke-linecap="round" stroke-linejoin="round"/>
<path d="M34.4057 39.3333C36.1809 39.3333 37.62 37.8942 37.62 36.119C37.62 34.3438 36.1809 32.9048 34.4057 32.9048C32.6305 32.9048 31.1914 34.3438 31.1914 36.119C31.1914 37.8942 32.6305 39.3333 34.4057 39.3333Z" stroke="#EB5757" stroke-width="3" stroke-linecap="round" stroke-linejoin="round"/>
<path d="M1.83398 1.83333H8.69113L13.2854 24.7876C13.4422 25.5769 13.8715 26.2858 14.4983 26.7904C15.1252 27.295 15.9095 27.563 16.714 27.5476H33.3768C34.1814 27.563 34.9657 27.295 35.5925 26.7904C36.2193 26.2858 36.6487 25.5769 36.8054 24.7876L39.5483 10.4048H10.4054" stroke="#EB5757" stroke-width="3" stroke-linecap="round" stroke-linejoin="round"/>
</svg>
