<svg width="68" height="68" viewBox="0 0 68 68" fill="none" xmlns="http://www.w3.org/2000/svg">
<path d="M33.9994 42.5C44.953 42.5 53.8327 33.6203 53.8327 22.6667C53.8327 11.713 44.953 2.83333 33.9994 2.83333C23.0457 2.83333 14.166 11.713 14.166 22.6667C14.166 33.6203 23.0457 42.5 33.9994 42.5Z" stroke="#EB5757" stroke-width="3" stroke-linecap="round" stroke-linejoin="round"/>
<path d="M23.2623 39.355L19.834 65.1667L34.0007 56.6667L48.1673 65.1667L44.739 39.3267" stroke="#EB5757" stroke-width="3" stroke-linecap="round" stroke-linejoin="round"/>
<path d="M34 13L37.09 19.26L44 20.27L39 25.14L40.18 32.02L34 28.77L27.82 32.02L29 25.14L24 20.27L30.91 19.26L34 13Z" stroke="#EB5757" stroke-width="3" stroke-linecap="round" stroke-linejoin="round"/>
</svg>
