<svg width="22" height="18" viewBox="0 0 22 18" fill="none" xmlns="http://www.w3.org/2000/svg">
<path d="M20.4315 11.2503C20.2003 11.0159 19.6918 10.7347 19.6918 10.7347C19.4144 10.594 19.0908 10.5003 18.8134 10.4534L16.964 10.2659L16.7329 9.46903C16.8716 9.37528 17.0103 9.23465 17.149 9.09403L17.3801 9.28153C17.6575 9.46903 17.9812 9.56278 18.3048 9.56278C18.5822 9.56278 18.8596 9.46903 19.0908 9.3284C19.2295 9.28153 19.2757 9.1409 19.2757 9.00028V3.93778C19.2757 3.09403 18.6747 2.34403 17.8425 2.2034C17.6575 1.73465 17.3801 1.35965 16.964 1.03153C16.1781 0.562779 15.2534 0.422154 14.375 0.609654C12.5719 0.937779 11.1849 2.48465 11.1387 4.35965V9.00028C11.1387 9.1409 11.2312 9.23465 11.3236 9.3284C11.8784 9.65653 12.5719 9.60965 13.0805 9.23465L13.2654 9.09403L13.3116 9.1409C13.4041 9.23465 13.5428 9.3284 13.6815 9.42215L13.5428 10.219L11.6935 10.4065C11.3699 10.4534 11.0925 10.5472 10.8151 10.6878C10.7688 10.6409 10.7226 10.6409 10.6764 10.594L7.3476 9.93778L7.25514 9.04715C8.08733 8.5784 8.54966 7.68778 8.54966 6.7034V4.8284C8.54966 3.3284 7.3476 2.10965 5.86815 2.10965C4.3887 2.10965 3.18664 3.3284 3.18664 4.8284V6.7034C3.18664 7.6409 3.69521 8.53153 4.48116 9.04715L4.43493 9.93778L1.1524 10.6878C0.967466 10.6878 0.875 10.8284 0.875 11.0159V15.7034C0.875 15.8909 1.0137 16.0315 1.24486 16.0315H9.28938V17.1097C9.28938 17.2972 9.42808 17.4847 9.65925 17.4847H20.8476C21.0325 17.4847 21.2175 17.344 21.2175 17.1097V13.1253C21.125 12.4222 20.8938 11.7659 20.4315 11.2503ZM12.5257 7.50028C12.5257 7.6409 12.5719 7.78153 12.6181 7.96903C12.6644 8.10965 12.7106 8.25028 12.7568 8.3909C12.8031 8.43778 12.8031 8.48465 12.8493 8.5784L12.6644 8.71903C12.4332 8.90653 12.1096 8.9534 11.8322 8.85965V4.40653C11.9247 2.90653 13.0342 1.59403 14.5137 1.35965C15.2072 1.17215 15.9469 1.2659 16.5942 1.6409C16.9178 1.87528 17.149 2.25028 17.2877 2.62528C17.2877 2.81278 17.4264 2.90653 17.6113 2.90653C18.1661 2.90653 18.6284 3.37528 18.6284 3.93778V8.81278C18.351 8.90653 18.0736 8.85965 17.8425 8.71903L17.5651 8.53153C17.5651 8.53153 17.5651 8.48465 17.6113 8.48465C17.6113 8.43778 17.6575 8.3909 17.6575 8.3909C17.7038 8.29715 17.75 8.25028 17.75 8.15653C17.75 8.10965 17.7962 8.06278 17.7962 8.0159C17.7962 7.92215 17.8425 7.8284 17.8425 7.78153C17.8425 7.73465 17.8425 7.68778 17.8425 7.68778C17.8425 7.54715 17.8887 7.4534 17.8887 7.31278V4.96903C17.8887 4.78153 17.75 4.59403 17.5188 4.59403C17.4726 4.59403 17.3801 4.59403 17.3339 4.6409C17.0103 4.87528 15.9469 5.3909 15.3459 5.10965C14.4675 4.68778 13.4041 4.8284 12.6181 5.43778C12.5257 5.48465 12.4795 5.5784 12.4795 5.71903V7.31278C12.5257 7.35965 12.5257 7.40653 12.5257 7.50028ZM13.6353 8.48465L13.589 8.3909C13.5428 8.34403 13.4966 8.25028 13.4966 8.2034C13.4503 8.15653 13.4503 8.10965 13.4041 8.06278C13.3579 7.96903 13.3116 7.87528 13.3116 7.73465C13.2654 7.6409 13.2654 7.50028 13.2654 7.40653C13.2654 7.35965 13.2654 7.2659 13.2654 7.21903V5.81278C13.8202 5.43778 14.5137 5.3909 15.0685 5.67215C15.762 6.04715 16.6404 5.71903 17.1952 5.48465V7.2659C17.1952 7.68778 17.0565 8.10965 16.8253 8.43778L16.7791 8.48465L16.7329 8.53153C16.5942 8.71903 16.4092 8.90653 16.1781 9.00028C15.5771 9.3284 14.8373 9.3284 14.2363 9.00028C14.0976 8.90653 13.9589 8.81278 13.8202 8.67215C13.774 8.62528 13.7277 8.5784 13.6353 8.48465ZM16.2243 10.5003L15.2997 11.7659C15.2534 11.8597 15.2072 11.8597 15.1147 11.7659L14.1901 10.5003L14.3288 9.79715C14.8836 10.0315 15.5308 10.0315 16.0856 9.79715L16.2243 10.5003ZM13.4966 10.969H13.6353L14.5599 12.1878C14.8373 12.5628 15.3459 12.6097 15.6695 12.3284C15.7158 12.2815 15.762 12.2347 15.8082 12.1878L16.7329 10.969H16.8716L17.0565 12.469H16.1318C16.0394 12.469 15.9469 12.5159 15.9007 12.5628L15.2072 13.2659L14.5137 12.5628C14.4675 12.5159 14.375 12.469 14.2825 12.469H13.3116L13.4966 10.969ZM7.44007 10.6878L7.25514 11.6722L6.46918 11.2972L7.16267 10.594L7.44007 10.6878ZM5.86815 10.8753L5.08219 10.0784L5.17466 9.3284C5.40582 9.37528 5.63699 9.42215 5.86815 9.42215C6.09931 9.42215 6.33048 9.37528 6.56164 9.3284L6.65411 10.0784L5.86815 10.8753ZM3.88014 4.8284C3.88014 3.7034 4.75856 2.81278 5.86815 2.81278C6.97774 2.81278 7.85616 3.7034 7.85616 4.8284V5.0159C7.39384 5.10965 6.93151 4.92215 6.60788 4.59403C6.51541 4.4534 6.28425 4.4534 6.14555 4.54715C5.49829 5.0159 4.71233 5.2034 3.88014 5.15653V4.8284ZM3.88014 6.7034V5.85965C3.92637 5.85965 4.01884 5.85965 4.06507 5.85965C4.85103 5.85965 5.59075 5.62528 6.28425 5.25028C6.70034 5.62528 7.30137 5.81278 7.85616 5.71903V6.65653C7.85616 7.78153 6.97774 8.67215 5.86815 8.67215C4.80479 8.71903 3.88014 7.8284 3.88014 6.7034ZM4.61986 10.594L5.31336 11.2972L4.57363 11.6722L4.3887 10.6878L4.61986 10.594ZM9.28938 13.1253V15.3284H3.41781V13.3128H2.72431V15.3284H1.56849V11.2972L3.64897 10.8284L3.92637 12.2347C3.9726 12.4222 4.15753 12.5628 4.34247 12.5159C4.3887 12.5159 4.3887 12.5159 4.43493 12.469L5.91438 11.7659L7.39384 12.469C7.57877 12.5628 7.7637 12.469 7.85616 12.2815C7.85616 12.2815 7.85616 12.2347 7.9024 12.1878L8.17979 10.7815L10.1216 11.2034C9.56678 11.7659 9.28938 12.4222 9.28938 13.1253ZM20.4315 16.7347H19.2757V14.2503H18.5822V16.7347H11.8322V14.2503H11.1387V16.7347H9.98288V13.1253C9.98288 12.094 10.7688 11.2503 11.7397 11.1565L12.8031 11.0628L12.5719 12.7972C12.5257 12.9847 12.6644 13.1722 12.8955 13.1722H12.9418H14.1901L15.0223 14.0159C15.161 14.1565 15.3921 14.1565 15.5308 14.0159L16.363 13.1722H17.5188C17.7038 13.1722 17.8887 13.0315 17.8887 12.7972V12.7503L17.6575 11.0159L18.7209 11.1097C19.738 11.2034 20.4777 12.0472 20.4777 13.0784V16.7347H20.4315Z" fill="#EF3A3B"/>
</svg>
