<svg width="18" height="18" viewBox="0 0 18 18" fill="none" xmlns="http://www.w3.org/2000/svg">
<path d="M16.2456 5.26314H9.72567V1.55575C9.72567 0.873935 9.1717 0.277344 8.44727 0.277344H1.75692C1.03249 0.277344 0.478516 0.873935 0.478516 1.55575V16.0444C0.478516 16.7688 1.03249 17.3228 1.75692 17.3228H16.2456C16.97 17.3228 17.524 16.7688 17.524 16.0444V6.54155C17.524 5.81712 16.97 5.26314 16.2456 5.26314ZM3.16317 16.4705V14.0415C3.16317 13.8285 3.33363 13.6154 3.58931 13.6154H4.65465V16.4705H3.16317ZM6.9984 16.4705H5.50692V13.6154H6.57227C6.82795 13.6154 6.9984 13.8285 6.9984 14.0415V16.4705ZM8.8734 16.4705H7.89329V14.0415C7.89329 13.3171 7.33931 12.7631 6.61488 12.7631H3.63192C2.90749 12.7631 2.35352 13.3171 2.35352 14.0415V16.4705H1.75692C1.54386 16.4705 1.33079 16.3001 1.33079 16.0444V1.55575C1.33079 1.30007 1.54386 1.12962 1.75692 1.12962H8.44727C8.66033 1.12962 8.8734 1.30007 8.8734 1.55575V16.4705ZM16.6717 16.0444C16.6717 16.3001 16.4586 16.4705 16.2456 16.4705H9.72567V6.11541H16.2456C16.4586 6.11541 16.6717 6.32848 16.6717 6.54155V16.0444Z" fill="#EF3A3B"/>
<path d="M7.42479 3.1753H2.73729C2.48161 3.1753 2.31116 3.00485 2.31116 2.74917C2.31116 2.49348 2.48161 2.32303 2.73729 2.32303H7.42479C7.68048 2.32303 7.85093 2.49348 7.85093 2.74917C7.85093 3.00485 7.68048 3.1753 7.42479 3.1753Z" fill="#EF3A3B"/>
<path d="M7.42479 5.30573H2.73729C2.48161 5.30573 2.31116 5.13528 2.31116 4.8796C2.31116 4.62392 2.48161 4.45346 2.73729 4.45346H7.42479C7.68048 4.45346 7.85093 4.62392 7.85093 4.8796C7.85093 5.13528 7.68048 5.30573 7.42479 5.30573Z" fill="#EF3A3B"/>
<path d="M7.42479 7.43662H2.73729C2.48161 7.43662 2.31116 7.26617 2.31116 7.01049C2.31116 6.75481 2.48161 6.58435 2.73729 6.58435H7.42479C7.68048 6.58435 7.85093 6.75481 7.85093 7.01049C7.85093 7.26617 7.68048 7.43662 7.42479 7.43662Z" fill="#EF3A3B"/>
<path d="M7.42479 9.56706H2.73729C2.48161 9.56706 2.31116 9.3966 2.31116 9.14092C2.31116 8.88524 2.48161 8.71478 2.73729 8.71478H7.42479C7.68048 8.71478 7.85093 8.88524 7.85093 9.14092C7.85093 9.3966 7.68048 9.56706 7.42479 9.56706Z" fill="#EF3A3B"/>
<path d="M15.5217 8.28852H10.8342C10.5785 8.28852 10.4081 8.11807 10.4081 7.86239C10.4081 7.6067 10.5785 7.43625 10.8342 7.43625H15.5217C15.7774 7.43625 15.9479 7.6067 15.9479 7.86239C15.9479 8.11807 15.7774 8.28852 15.5217 8.28852Z" fill="#EF3A3B"/>
<path d="M15.5217 10.4194H10.8342C10.5785 10.4194 10.4081 10.249 10.4081 9.99327C10.4081 9.73759 10.5785 9.56714 10.8342 9.56714H15.5217C15.7774 9.56714 15.9479 9.73759 15.9479 9.99327C15.9479 10.249 15.7774 10.4194 15.5217 10.4194Z" fill="#EF3A3B"/>
<path d="M15.5217 12.5503H10.8342C10.5785 12.5503 10.4081 12.3798 10.4081 12.1242C10.4081 11.8685 10.5785 11.698 10.8342 11.698H15.5217C15.7774 11.698 15.9479 11.8685 15.9479 12.1242C15.9479 12.3798 15.7774 12.5503 15.5217 12.5503Z" fill="#EF3A3B"/>
</svg>
