<svg width="83" height="24" viewBox="0 0 83 24" fill="none" xmlns="http://www.w3.org/2000/svg">
<rect y="0.780762" width="83" height="23.2192" rx="2" fill="#FFCA41"/>
<path d="M18.4608 12.3325H15.0858V15.8188H13.328V7.2876H18.8827V8.71143H15.0858V10.9146H18.4608V12.3325ZM23.4589 15.1743C23.0409 15.6821 22.4628 15.936 21.7245 15.936C21.0448 15.936 20.5253 15.7407 20.1659 15.3501C19.8104 14.9595 19.6288 14.3872 19.621 13.6333V9.479H21.3143V13.5747C21.3143 14.2349 21.6151 14.5649 22.2167 14.5649C22.7909 14.5649 23.1854 14.3657 23.4003 13.9673V9.479H25.0995V15.8188H23.5058L23.4589 15.1743ZM28.164 15.8188H26.4647V6.81885H28.164V15.8188ZM31.3515 15.8188H29.6522V6.81885H31.3515V15.8188ZM32.5058 12.6021C32.5058 11.6294 32.7362 10.8462 33.1972 10.2524C33.662 9.65869 34.287 9.36182 35.0722 9.36182C35.7675 9.36182 36.3085 9.6001 36.6952 10.0767L36.7655 9.479H38.3007V15.6079C38.3007 16.1626 38.1737 16.645 37.9198 17.0552C37.6698 17.4653 37.3163 17.7778 36.8593 17.9927C36.4022 18.2075 35.8671 18.3149 35.2538 18.3149C34.789 18.3149 34.3358 18.2212 33.8944 18.0337C33.453 17.8501 33.119 17.6118 32.8925 17.3188L33.6425 16.2876C34.0643 16.7603 34.5761 16.9966 35.1776 16.9966C35.6268 16.9966 35.9765 16.8755 36.2265 16.6333C36.4765 16.395 36.6015 16.0552 36.6015 15.6138V15.2739C36.2108 15.7153 35.6972 15.936 35.0604 15.936C34.2987 15.936 33.6815 15.6392 33.2089 15.0454C32.7401 14.4478 32.5058 13.6567 32.5058 12.6724V12.6021ZM34.1991 12.7251C34.1991 13.2993 34.3143 13.7505 34.5448 14.0786C34.7753 14.4028 35.0917 14.5649 35.494 14.5649C36.0097 14.5649 36.3788 14.3716 36.6015 13.9849V11.3188C36.3749 10.9321 36.0097 10.7388 35.5058 10.7388C35.0995 10.7388 34.7792 10.9048 34.5448 11.2368C34.3143 11.5688 34.1991 12.0649 34.1991 12.7251ZM43.1698 11.0669C42.9393 11.0356 42.7362 11.02 42.5604 11.02C41.9198 11.02 41.4999 11.2368 41.3007 11.6704V15.8188H39.6073V9.479H41.2069L41.2538 10.2349C41.5936 9.65283 42.0643 9.36182 42.6659 9.36182C42.8534 9.36182 43.0292 9.38721 43.1933 9.43799L43.1698 11.0669ZM47.4882 15.8188C47.41 15.6665 47.3534 15.4771 47.3183 15.2505C46.9081 15.7075 46.3749 15.936 45.7186 15.936C45.0975 15.936 44.5819 15.7563 44.1718 15.397C43.7655 15.0376 43.5624 14.5845 43.5624 14.0376C43.5624 13.3657 43.8104 12.8501 44.3065 12.4907C44.8065 12.1313 45.5272 11.9497 46.4686 11.9458H47.2479V11.5825C47.2479 11.2896 47.1718 11.0552 47.0194 10.8794C46.871 10.7036 46.6347 10.6157 46.3104 10.6157C46.0253 10.6157 45.8007 10.6841 45.6366 10.8208C45.4765 10.9575 45.3964 11.145 45.3964 11.3833H43.703C43.703 11.0161 43.8163 10.6763 44.0429 10.3638C44.2694 10.0513 44.5897 9.80713 45.0038 9.63135C45.4179 9.45166 45.8827 9.36182 46.3983 9.36182C47.1796 9.36182 47.7987 9.55908 48.2558 9.95361C48.7167 10.3442 48.9472 10.895 48.9472 11.606V14.354C48.9511 14.9556 49.035 15.4106 49.1991 15.7192V15.8188H47.4882ZM46.0878 14.6411C46.3378 14.6411 46.5683 14.5864 46.7792 14.4771C46.9901 14.3638 47.1464 14.2134 47.2479 14.0259V12.936H46.6151C45.7675 12.936 45.3163 13.229 45.2616 13.8149L45.2558 13.9146C45.2558 14.1255 45.33 14.2993 45.4784 14.436C45.6268 14.5728 45.83 14.6411 46.0878 14.6411ZM49.9843 12.6021C49.9843 11.6138 50.205 10.8267 50.6464 10.2407C51.0917 9.65479 51.6991 9.36182 52.4686 9.36182C53.0858 9.36182 53.5956 9.59229 53.9979 10.0532V6.81885H55.6972V15.8188H54.1679L54.0858 15.145C53.664 15.6724 53.121 15.936 52.4569 15.936C51.7108 15.936 51.1112 15.6431 50.6581 15.0571C50.2089 14.4673 49.9843 13.6489 49.9843 12.6021ZM51.6776 12.7251C51.6776 13.3188 51.7811 13.7739 51.9882 14.0903C52.1952 14.4067 52.496 14.5649 52.8905 14.5649C53.414 14.5649 53.7831 14.3442 53.9979 13.9028V11.4009C53.787 10.9595 53.4218 10.7388 52.9022 10.7388C52.0858 10.7388 51.6776 11.4009 51.6776 12.7251ZM59.9276 15.936C58.9979 15.936 58.2401 15.6509 57.6542 15.0806C57.0722 14.5103 56.7811 13.7505 56.7811 12.8013V12.6372C56.7811 12.0005 56.9042 11.4321 57.1503 10.9321C57.3964 10.4282 57.744 10.0415 58.1933 9.77197C58.6464 9.49854 59.162 9.36182 59.7401 9.36182C60.6073 9.36182 61.289 9.63525 61.785 10.1821C62.285 10.729 62.535 11.5044 62.535 12.5083V13.1997H58.4979C58.5526 13.6138 58.7167 13.9458 58.9901 14.1958C59.2675 14.4458 59.6171 14.5708 60.039 14.5708C60.6913 14.5708 61.2011 14.3345 61.5683 13.8618L62.4003 14.7935C62.1464 15.1528 61.8026 15.4341 61.369 15.6372C60.9354 15.8364 60.455 15.936 59.9276 15.936ZM59.7343 10.7329C59.3983 10.7329 59.1249 10.8462 58.914 11.0728C58.7069 11.2993 58.5741 11.6235 58.5155 12.0454H60.871V11.9106C60.8632 11.5356 60.7616 11.2466 60.5663 11.0435C60.371 10.8364 60.0936 10.7329 59.7343 10.7329ZM68.8046 8.40088L68.1542 10.4634H67.7323L67.0819 8.39502V10.4634H66.3319V7.2876H67.2577L67.9433 9.44385L68.6815 7.2876H69.5546V10.4634H68.8046V8.40088ZM65.9159 7.92041H65.16V10.4458H64.328V7.92041H63.5311V7.2876H65.9159V7.92041Z" fill="white"/>
</svg>
