<svg width="42" height="36" viewBox="0 0 42 36" fill="none" xmlns="http://www.w3.org/2000/svg">
<path d="M33.3027 27.7641H25.3656C24.8176 27.7641 24.4019 27.3496 24.4019 26.8221V19.1914C24.4019 18.6638 24.8176 18.2305 25.3656 18.2305H33.3027C33.8318 18.2305 34.2665 18.6638 34.2665 19.1914V26.8221C34.2665 27.3496 33.8318 27.7641 33.3027 27.7641ZM26.3105 25.8612H32.3389V20.1523H26.3105V25.8612Z" fill="#C4C4C4"/>
<path d="M13.271 26.6333C13.271 25.3709 15.1986 25.3709 15.1986 26.6333C15.1986 28.0841 15.5198 29.8175 14.2348 29.8175C12.9498 29.8175 13.271 28.0841 13.271 26.6333Z" fill="#C4C4C4"/>
<path d="M3.51988 7.9617H10.8711L12.5529 2.3847H6.92145L3.51988 7.9617ZM17.7309 33.4727V20.152H11.7026V33.4727H17.7309ZM9.79389 33.4727V19.1911C9.79389 18.6635 10.2096 18.2302 10.7388 18.2302H18.6947C19.2238 18.2302 19.6396 18.6635 19.6396 19.1911V33.4727H35.9482V14.3677C33.775 14.5561 31.7529 13.5575 30.6002 11.8242C28.3136 15.2344 23.2868 15.2344 21.0002 11.8242C18.7136 15.2344 13.6868 15.2344 11.4002 11.8242C10.2474 13.5575 8.22539 14.5561 6.07106 14.3677V33.4727H9.79389ZM37.8569 13.8402V34.4336C37.8569 34.9612 37.4222 35.3945 36.8931 35.3945H5.10728C4.57815 35.3945 4.1435 34.9612 4.1435 34.4336V13.8402C2.02696 12.8416 0.269484 9.94003 0.987594 8.39505L5.54192 0.971604C5.69311 0.670144 6.01437 0.462891 6.39232 0.462891C16.1246 0.462891 25.8758 0.462891 35.6081 0.462891C35.9482 0.462891 36.2506 0.632462 36.4396 0.91508L40.9939 8.35737C41.6553 9.35595 40.4837 12.6155 37.8569 13.8402ZM21.964 2.3847V7.9617H29.1262L27.4632 2.3847H21.964ZM20.0364 7.9617V2.3847H14.5561L12.8742 7.9617H20.0364ZM31.1293 7.9617H38.4994L35.0789 2.3847H29.4663L31.1293 7.9617ZM9.24586 11.4285C9.69941 10.9951 10.0396 10.4676 10.2474 9.86466H2.95295C3.86004 12.5024 7.20492 13.3503 9.24586 11.4285ZM12.5529 9.86466C13.7246 13.3126 18.6758 13.3126 19.8474 9.86466H12.5529ZM28.4459 11.4285C28.8994 10.9951 29.2396 10.4676 29.4474 9.86466H22.1529C23.06 12.5024 26.4049 13.3503 28.4459 11.4285ZM31.7529 9.86466C32.9246 13.3126 37.8758 13.3126 39.0474 9.86466H31.7529Z" fill="#C4C4C4"/>
</svg>
