<svg width="104" height="36" viewBox="0 0 104 36" fill="none" xmlns="http://www.w3.org/2000/svg">
<path d="M0.252441 2.12598H7.64844V4.07031H5.16699V10H2.73389V4.07031H0.252441V2.12598ZM8.44873 6.06836C8.44873 4.78288 8.8068 3.78206 9.52295 3.06592C10.2391 2.34977 11.2363 1.9917 12.5146 1.9917C13.8252 1.9917 14.835 2.3444 15.5439 3.0498C16.2529 3.75163 16.6074 4.73633 16.6074 6.00391C16.6074 6.92415 16.4517 7.67969 16.1401 8.27051C15.8322 8.85775 15.3846 9.31608 14.7974 9.64551C14.2137 9.97135 13.485 10.1343 12.6113 10.1343C11.7233 10.1343 10.9875 9.99284 10.4038 9.70996C9.82373 9.42708 9.35286 8.97949 8.99121 8.36719C8.62956 7.75488 8.44873 6.98861 8.44873 6.06836ZM10.8818 6.0791C10.8818 6.87402 11.0286 7.44515 11.3223 7.79248C11.6195 8.13981 12.0223 8.31348 12.5308 8.31348C13.0535 8.31348 13.4582 8.14339 13.7446 7.80322C14.0311 7.46305 14.1743 6.85254 14.1743 5.97168C14.1743 5.23047 14.0239 4.68978 13.7231 4.34961C13.4259 4.00586 13.0213 3.83398 12.5093 3.83398C12.0187 3.83398 11.6248 4.00765 11.3276 4.35498C11.0304 4.70231 10.8818 5.27702 10.8818 6.0791ZM17.9072 2.12598H21.9517C22.8325 2.12598 23.4914 2.33545 23.9282 2.75439C24.3687 3.17334 24.5889 3.76953 24.5889 4.54297C24.5889 5.33789 24.349 5.95915 23.8691 6.40674C23.3929 6.85433 22.6642 7.07812 21.6831 7.07812H20.3511V10H17.9072V2.12598ZM20.3511 5.48291H20.9473C21.4163 5.48291 21.7458 5.40234 21.9355 5.24121C22.1253 5.0765 22.2202 4.86702 22.2202 4.61279C22.2202 4.36572 22.1379 4.15625 21.9731 3.98438C21.8084 3.8125 21.4987 3.72656 21.0439 3.72656H20.3511V5.48291ZM32.103 4.05957H28.2949V10H25.8672V2.12598H32.103V4.05957ZM32.8979 6.06836C32.8979 4.78288 33.256 3.78206 33.9722 3.06592C34.6883 2.34977 35.6855 1.9917 36.9639 1.9917C38.2744 1.9917 39.2842 2.3444 39.9932 3.0498C40.7021 3.75163 41.0566 4.73633 41.0566 6.00391C41.0566 6.92415 40.9009 7.67969 40.5894 8.27051C40.2814 8.85775 39.8338 9.31608 39.2466 9.64551C38.6629 9.97135 37.9342 10.1343 37.0605 10.1343C36.1725 10.1343 35.4367 9.99284 34.853 9.70996C34.2729 9.42708 33.8021 8.97949 33.4404 8.36719C33.0788 7.75488 32.8979 6.98861 32.8979 6.06836ZM35.3311 6.0791C35.3311 6.87402 35.4779 7.44515 35.7715 7.79248C36.0687 8.13981 36.4715 8.31348 36.98 8.31348C37.5028 8.31348 37.9074 8.14339 38.1938 7.80322C38.4803 7.46305 38.6235 6.85254 38.6235 5.97168C38.6235 5.23047 38.4731 4.68978 38.1724 4.34961C37.8752 4.00586 37.4705 3.83398 36.9585 3.83398C36.4679 3.83398 36.0741 4.00765 35.7769 4.35498C35.4797 4.70231 35.3311 5.27702 35.3311 6.0791ZM42.3726 2.12598H46.9272C47.6864 2.12598 48.2682 2.31396 48.6729 2.68994C49.0811 3.06592 49.2852 3.53141 49.2852 4.08643C49.2852 4.55192 49.1401 4.95117 48.8501 5.28418C48.6567 5.50618 48.3739 5.68164 48.0015 5.81055C48.5672 5.94661 48.9826 6.18115 49.2476 6.51416C49.5161 6.84359 49.6504 7.25895 49.6504 7.76025C49.6504 8.16846 49.5555 8.53548 49.3657 8.86133C49.1759 9.18717 48.9163 9.44499 48.5869 9.63477C48.3828 9.75293 48.0749 9.83887 47.6631 9.89258C47.1152 9.96419 46.7518 10 46.5728 10H42.3726V2.12598ZM44.8271 5.21436H45.8853C46.2648 5.21436 46.528 5.1499 46.6748 5.021C46.8252 4.88851 46.9004 4.69873 46.9004 4.45166C46.9004 4.22249 46.8252 4.04346 46.6748 3.91455C46.528 3.78564 46.2702 3.72119 45.9014 3.72119H44.8271V5.21436ZM44.8271 8.30811H46.0679C46.4868 8.30811 46.7822 8.2347 46.9541 8.08789C47.126 7.9375 47.2119 7.73698 47.2119 7.48633C47.2119 7.25358 47.126 7.06738 46.9541 6.92773C46.7858 6.78451 46.4886 6.71289 46.0625 6.71289H44.8271V8.30811ZM53.3672 5.16064H54.667C55.8594 5.16064 56.7438 5.37191 57.3203 5.79443C57.8968 6.21338 58.1851 6.86686 58.1851 7.75488C58.1851 8.48177 57.9201 9.03857 57.3901 9.42529C56.8638 9.80843 56.1064 10 55.1182 10H50.9395V2.12598H53.3672V5.16064ZM53.3672 8.30811H54.6133C55.376 8.30811 55.7573 8.03239 55.7573 7.48096C55.7573 6.99756 55.376 6.75586 54.6133 6.75586H53.3672V8.30811ZM58.7812 2.12598H61.2197V10H58.7812V2.12598ZM70.3667 2.12598V10H68.0786V5.67627L65.1299 10H62.8364V2.12598H65.1299V6.48193L68.0947 2.12598H70.3667ZM68.5835 0.187012C68.5083 0.638184 68.2899 1.00342 67.9282 1.28271C67.5701 1.55843 67.1423 1.69629 66.6445 1.69629C66.1504 1.69629 65.7225 1.55664 65.3608 1.27734C64.9992 0.998047 64.7826 0.634603 64.7109 0.187012H65.6455C65.7959 0.634603 66.1217 0.858398 66.623 0.858398C67.1602 0.858398 67.5021 0.634603 67.6489 0.187012H68.5835ZM9.06641 23.7134H7.10596V22H2.07861V23.7134H0.123535V20.1846H0.93457C1.38932 18.9134 1.6167 17.4793 1.6167 15.8823V14.126H8.21777V20.1846H9.06641V23.7134ZM5.78467 20.1846V16.0596H3.82959V16.1616C3.82959 17.2502 3.64518 18.5911 3.27637 20.1846H5.78467ZM9.71631 18.0684C9.71631 16.7829 10.0744 15.7821 10.7905 15.0659C11.5067 14.3498 12.5039 13.9917 13.7822 13.9917C15.0928 13.9917 16.1025 14.3444 16.8115 15.0498C17.5205 15.7516 17.875 16.7363 17.875 18.0039C17.875 18.9242 17.7192 19.6797 17.4077 20.2705C17.0998 20.8577 16.6522 21.3161 16.0649 21.6455C15.4813 21.9714 14.7526 22.1343 13.8789 22.1343C12.9909 22.1343 12.255 21.9928 11.6714 21.71C11.0913 21.4271 10.6204 20.9795 10.2588 20.3672C9.89714 19.7549 9.71631 18.9886 9.71631 18.0684ZM12.1494 18.0791C12.1494 18.874 12.2962 19.4451 12.5898 19.7925C12.887 20.1398 13.2899 20.3135 13.7983 20.3135C14.3211 20.3135 14.7257 20.1434 15.0122 19.8032C15.2987 19.4631 15.4419 18.8525 15.4419 17.9717C15.4419 17.2305 15.2915 16.6898 14.9907 16.3496C14.6935 16.0059 14.2889 15.834 13.7769 15.834C13.2863 15.834 12.8924 16.0076 12.5952 16.355C12.298 16.7023 12.1494 17.277 12.1494 18.0791ZM19.1587 14.126H22.3599L23.5952 18.917L24.8252 14.126H28.0156V22H26.0283V15.9951L24.4868 22H22.6875L21.1514 15.9951V22H19.1587V14.126ZM0.499512 30.0684C0.499512 28.7829 0.857585 27.7821 1.57373 27.0659C2.28988 26.3498 3.28711 25.9917 4.56543 25.9917C5.87598 25.9917 6.88574 26.3444 7.59473 27.0498C8.30371 27.7516 8.6582 28.7363 8.6582 30.0039C8.6582 30.9242 8.50244 31.6797 8.19092 32.2705C7.88298 32.8577 7.43538 33.3161 6.84814 33.6455C6.26449 33.9714 5.53581 34.1343 4.66211 34.1343C3.77409 34.1343 3.03825 33.9928 2.45459 33.71C1.87451 33.4271 1.40365 32.9795 1.04199 32.3672C0.680339 31.7549 0.499512 30.9886 0.499512 30.0684ZM2.93262 30.0791C2.93262 30.874 3.07943 31.4451 3.37305 31.7925C3.67025 32.1398 4.07308 32.3135 4.58154 32.3135C5.10433 32.3135 5.50895 32.1434 5.79541 31.8032C6.08187 31.4631 6.2251 30.8525 6.2251 29.9717C6.2251 29.2305 6.07471 28.6898 5.77393 28.3496C5.47673 28.0059 5.0721 27.834 4.56006 27.834C4.0695 27.834 3.67562 28.0076 3.37842 28.355C3.08122 28.7023 2.93262 29.277 2.93262 30.0791ZM12.4072 29.1606H13.707C14.8994 29.1606 15.7839 29.3719 16.3604 29.7944C16.9368 30.2134 17.2251 30.8669 17.2251 31.7549C17.2251 32.4818 16.9601 33.0386 16.4302 33.4253C15.9038 33.8084 15.1465 34 14.1582 34H9.97949V26.126H16.6074V27.7212H12.4072V29.1606ZM12.4072 32.3081H13.6533C14.416 32.3081 14.7974 32.0324 14.7974 31.481C14.7974 30.9976 14.416 30.7559 13.6533 30.7559H12.4072V32.3081ZM18.2241 30.0684C18.2241 28.7829 18.5822 27.7821 19.2983 27.0659C20.0145 26.3498 21.0117 25.9917 22.29 25.9917C23.6006 25.9917 24.6104 26.3444 25.3193 27.0498C26.0283 27.7516 26.3828 28.7363 26.3828 30.0039C26.3828 30.9242 26.2271 31.6797 25.9155 32.2705C25.6076 32.8577 25.16 33.3161 24.5728 33.6455C23.9891 33.9714 23.2604 34.1343 22.3867 34.1343C21.4987 34.1343 20.7629 33.9928 20.1792 33.71C19.5991 33.4271 19.1283 32.9795 18.7666 32.3672C18.4049 31.7549 18.2241 30.9886 18.2241 30.0684ZM20.6572 30.0791C20.6572 30.874 20.804 31.4451 21.0977 31.7925C21.3949 32.1398 21.7977 32.3135 22.3062 32.3135C22.8289 32.3135 23.2336 32.1434 23.52 31.8032C23.8065 31.4631 23.9497 30.8525 23.9497 29.9717C23.9497 29.2305 23.7993 28.6898 23.4985 28.3496C23.2013 28.0059 22.7967 27.834 22.2847 27.834C21.7941 27.834 21.4002 28.0076 21.103 28.355C20.8058 28.7023 20.6572 29.277 20.6572 30.0791ZM27.6826 26.126H31.7271C32.6079 26.126 33.2668 26.3354 33.7036 26.7544C34.144 27.1733 34.3643 27.7695 34.3643 28.543C34.3643 29.3379 34.1243 29.9591 33.6445 30.4067C33.1683 30.8543 32.4396 31.0781 31.4585 31.0781H30.1265V34H27.6826V26.126ZM30.1265 29.4829H30.7227C31.1917 29.4829 31.5212 29.4023 31.7109 29.2412C31.9007 29.0765 31.9956 28.867 31.9956 28.6128C31.9956 28.3657 31.9132 28.1562 31.7485 27.9844C31.5838 27.8125 31.2741 27.7266 30.8193 27.7266H30.1265V29.4829ZM34.9014 26.126H37.5439L38.6343 29.3701L39.7085 26.126H42.1846L39.6011 32.2061C39.3898 32.6966 39.2054 33.0636 39.0479 33.3071C38.8903 33.547 38.6558 33.7458 38.3442 33.9033C38.0363 34.0573 37.612 34.1343 37.0713 34.1343C36.7848 34.1343 36.2925 34.0931 35.5942 34.0107V32.3833C36.006 32.4263 36.3068 32.4478 36.4966 32.4478C37.0588 32.4478 37.4007 32.2383 37.5225 31.8193L34.9014 26.126ZM51.2939 35.7134H49.3335V34H44.3062V35.7134H42.3511V32.1846H43.1621C43.6169 30.9134 43.8442 29.4793 43.8442 27.8823V26.126H50.4453V32.1846H51.2939V35.7134ZM48.0122 32.1846V28.0596H46.0571V28.1616C46.0571 29.2502 45.8727 30.5911 45.5039 32.1846H48.0122ZM51.9438 30.0684C51.9438 28.7829 52.3019 27.7821 53.0181 27.0659C53.7342 26.3498 54.7314 25.9917 56.0098 25.9917C57.3203 25.9917 58.3301 26.3444 59.0391 27.0498C59.748 27.7516 60.1025 28.7363 60.1025 30.0039C60.1025 30.9242 59.9468 31.6797 59.6353 32.2705C59.3273 32.8577 58.8797 33.3161 58.2925 33.6455C57.7088 33.9714 56.9801 34.1343 56.1064 34.1343C55.2184 34.1343 54.4826 33.9928 53.8989 33.71C53.3188 33.4271 52.848 32.9795 52.4863 32.3672C52.1247 31.7549 51.9438 30.9886 51.9438 30.0684ZM54.377 30.0791C54.377 30.874 54.5238 31.4451 54.8174 31.7925C55.1146 32.1398 55.5174 32.3135 56.0259 32.3135C56.5487 32.3135 56.9533 32.1434 57.2397 31.8032C57.5262 31.4631 57.6694 30.8525 57.6694 29.9717C57.6694 29.2305 57.519 28.6898 57.2183 28.3496C56.9211 28.0059 56.5164 27.834 56.0044 27.834C55.5138 27.834 55.12 28.0076 54.8228 28.355C54.5256 28.7023 54.377 29.277 54.377 30.0791ZM61.4185 26.126H65.9731C66.7323 26.126 67.3141 26.314 67.7188 26.6899C68.127 27.0659 68.3311 27.5314 68.3311 28.0864C68.3311 28.5519 68.186 28.9512 67.896 29.2842C67.7026 29.5062 67.4198 29.6816 67.0474 29.8105C67.6131 29.9466 68.0285 30.1812 68.2935 30.5142C68.562 30.8436 68.6963 31.259 68.6963 31.7603C68.6963 32.1685 68.6014 32.5355 68.4116 32.8613C68.2218 33.1872 67.9622 33.445 67.6328 33.6348C67.4287 33.7529 67.1208 33.8389 66.709 33.8926C66.1611 33.9642 65.7977 34 65.6187 34H61.4185V26.126ZM63.873 29.2144H64.9312C65.3107 29.2144 65.5739 29.1499 65.7207 29.021C65.8711 28.8885 65.9463 28.6987 65.9463 28.4517C65.9463 28.2225 65.8711 28.0435 65.7207 27.9146C65.5739 27.7856 65.3161 27.7212 64.9473 27.7212H63.873V29.2144ZM63.873 32.3081H65.1138C65.5327 32.3081 65.8281 32.2347 66 32.0879C66.1719 31.9375 66.2578 31.737 66.2578 31.4863C66.2578 31.2536 66.1719 31.0674 66 30.9277C65.8317 30.7845 65.5345 30.7129 65.1084 30.7129H63.873V32.3081ZM74.8193 32.7002H72.0479L71.6665 34H69.1797L72.1392 26.126H74.7925L77.752 34H75.2061L74.8193 32.7002ZM74.3091 30.9976L73.439 28.167L72.5742 30.9976H74.3091ZM78.5469 26.126H80.98V28.8813H83.6387V26.126H86.0825V34H83.6387V30.8149H80.98V34H78.5469V26.126ZM95.2349 26.126V34H92.9468V29.6763L89.998 34H87.7046V26.126H89.998V30.4819L92.9629 26.126H95.2349ZM103.823 34V26.126H99.7681C99.0161 26.126 98.4414 26.1904 98.0439 26.3193C97.6465 26.4482 97.326 26.6882 97.0825 27.0391C96.839 27.3864 96.7173 27.8107 96.7173 28.312C96.7173 28.7489 96.8104 29.1266 96.9966 29.4453C97.1828 29.7604 97.4388 30.0164 97.7646 30.2134C97.9723 30.3387 98.257 30.4425 98.6187 30.5249C98.3286 30.6216 98.1174 30.7183 97.9849 30.8149C97.8953 30.8794 97.7646 31.0173 97.5928 31.2285C97.4245 31.4398 97.3117 31.6027 97.2544 31.7173L96.0781 34H98.8281L100.128 31.5938C100.293 31.2822 100.439 31.0799 100.568 30.9868C100.744 30.8651 100.943 30.8042 101.165 30.8042H101.379V34H103.823ZM101.379 29.3164H100.354C100.243 29.3164 100.028 29.2806 99.709 29.209C99.5479 29.1768 99.4154 29.0944 99.3115 28.9619C99.2113 28.8294 99.1611 28.6772 99.1611 28.5054C99.1611 28.2511 99.2417 28.056 99.4028 27.9199C99.564 27.7839 99.8665 27.7158 100.311 27.7158H101.379V29.3164Z" fill="#4F4F4F"/>
</svg>
