<svg width="49" height="49" viewBox="0 0 49 49" fill="none" xmlns="http://www.w3.org/2000/svg">
<path d="M47.2266 0.42749H1.22656C0.961346 0.42749 0.706992 0.532844 0.519456 0.720374C0.331919 0.907904 0.226563 1.16225 0.226562 1.42746L0.226563 37.4262C0.226563 37.6914 0.331919 37.9458 0.519456 38.1333C0.706992 38.3209 0.961346 38.4262 1.22656 38.4262H28.2266V47.4259C28.2263 47.6161 28.2802 47.8024 28.382 47.963C28.4839 48.1236 28.6294 48.2519 28.8016 48.3327C28.9737 48.4135 29.1653 48.4436 29.354 48.4193C29.5426 48.3951 29.7204 48.3176 29.8666 48.1959L35.2266 43.726L40.5866 48.1959C40.7665 48.3449 40.9929 48.4263 41.2266 48.4259C41.3714 48.4266 41.5147 48.3959 41.6466 48.3359C41.8201 48.2555 41.967 48.1271 42.0698 47.9658C42.1726 47.8045 42.227 47.6172 42.2266 47.4259V38.4262H47.2266C47.4918 38.4262 47.7461 38.3209 47.9337 38.1333C48.1212 37.9458 48.2266 37.6914 48.2266 37.4262V1.42746C48.2266 1.16225 48.1212 0.907904 47.9337 0.720374C47.7461 0.532844 47.4918 0.42749 47.2266 0.42749V0.42749ZM40.2266 20.7768C38.7071 19.8996 36.9836 19.4375 35.2291 19.4371C33.4746 19.4366 31.7509 19.8978 30.231 20.7742C28.7111 21.6507 27.4486 22.9116 26.5702 24.4303C25.6917 25.949 25.2284 27.6721 25.2266 29.4265C25.2266 29.7665 25.2266 30.0965 25.2766 30.4265H8.22656V8.42722H40.2266V20.7768ZM27.2266 29.4265C27.2266 27.8443 27.6958 26.2976 28.5748 24.9821C29.4539 23.6665 30.7033 22.6412 32.1651 22.0357C33.6269 21.4302 35.2354 21.2718 36.7873 21.5805C38.3391 21.8892 39.7646 22.6511 40.8834 23.7698C42.0022 24.8886 42.7642 26.314 43.0728 27.8658C43.3815 29.4176 43.2231 31.0261 42.6176 32.4879C42.0121 33.9496 40.9867 35.199 39.6711 36.078C38.3555 36.9571 36.8088 37.4262 35.2266 37.4262C33.1048 37.4262 31.07 36.5834 29.5697 35.0832C28.0694 33.5829 27.2266 31.5482 27.2266 29.4265ZM35.8666 41.6561C35.6869 41.5064 35.4604 41.4245 35.2266 41.4245C34.9927 41.4245 34.7663 41.5064 34.5866 41.6561L30.2266 45.296V38.0762C31.7444 38.9608 33.4698 39.4268 35.2266 39.4268C36.9834 39.4268 38.7087 38.9608 40.2266 38.0762V45.296L35.8666 41.6561ZM46.2266 36.4263H42.3566C44.2111 34.5343 45.239 31.9838 45.2146 29.3346C45.1902 26.6855 44.1156 24.1543 42.2266 22.2968V7.42725C42.2266 7.16205 42.1212 6.9077 41.9337 6.72017C41.7461 6.53264 41.4918 6.42729 41.2266 6.42729H7.22656C6.96135 6.42729 6.70699 6.53264 6.51946 6.72017C6.33192 6.9077 6.22656 7.16205 6.22656 7.42725V31.4264C6.22656 31.6916 6.33192 31.946 6.51946 32.1335C6.70699 32.3211 6.96135 32.4264 7.22656 32.4264H25.6866C26.1629 33.9312 26.9888 35.3019 28.0966 36.4263H2.22656V2.42742H46.2266V36.4263ZM11.2266 13.427C11.2266 13.1618 11.3319 12.9075 11.5195 12.72C11.707 12.5324 11.9613 12.4271 12.2266 12.4271H24.2266C24.4918 12.4271 24.7461 12.5324 24.9337 12.72C25.1212 12.9075 25.2266 13.1618 25.2266 13.427C25.2266 13.6923 25.1212 13.9466 24.9337 14.1341C24.7461 14.3217 24.4918 14.427 24.2266 14.427H12.2266C11.9613 14.427 11.707 14.3217 11.5195 14.1341C11.3319 13.9466 11.2266 13.6923 11.2266 13.427ZM11.2266 19.4268C11.2266 19.1616 11.3319 18.9073 11.5195 18.7198C11.707 18.5322 11.9613 18.4269 12.2266 18.4269H21.2266C21.4918 18.4269 21.7461 18.5322 21.9337 18.7198C22.1212 18.9073 22.2266 19.1616 22.2266 19.4268C22.2266 19.6921 22.1212 19.9464 21.9337 20.1339C21.7461 20.3215 21.4918 20.4268 21.2266 20.4268H12.2266C11.9613 20.4268 11.707 20.3215 11.5195 20.1339C11.3319 19.9464 11.2266 19.6921 11.2266 19.4268Z" fill="#CD4342"/>
<path d="M39.7766 27.5126L37.586 27.0744C37.3669 27.0014 37.2209 26.9284 37.0748 26.7094L36.0525 24.8109C35.7605 24.2998 35.0303 24.2998 34.7382 24.8109L33.6429 26.7094C33.5699 26.9284 33.3508 27.0014 33.1317 27.0744L30.9411 27.5126C30.357 27.6586 30.1379 28.3157 30.576 28.7539L32.0364 30.3602C32.1825 30.5063 32.2555 30.7253 32.2555 30.9444L31.9634 33.1349C31.8904 33.7191 32.4746 34.1572 32.9857 33.8651L34.9572 32.9159C35.1763 32.8428 35.3954 32.8428 35.6144 32.9159L37.586 33.8651C38.0971 34.0842 38.6813 33.646 38.6083 33.1349L38.3162 30.9444C38.3162 30.7253 38.3892 30.5063 38.5352 30.3602L39.9956 28.7539C40.5798 28.3157 40.3607 27.6586 39.7766 27.5126Z" fill="#CD4342"/>
</svg>
