<svg width="265" height="144" viewBox="0 0 265 144" fill="none" xmlns="http://www.w3.org/2000/svg">
<ellipse opacity="0.02" rx="173" ry="174" transform="matrix(-1 0 0 1 92 72)" fill="white"/>
<path opacity="0.05" d="M-57.9 72.5C-57.9 156.117 9.21346 223.9 92 223.9C174.787 223.9 241.9 156.117 241.9 72.5C241.9 -11.1169 174.787 -78.9 92 -78.9C9.21346 -78.9 -57.9 -11.1169 -57.9 72.5Z" fill="#FAFAFA" stroke="#8BA285" stroke-width="0.2"/>
<path d="M-23.9 72.5C-23.9 136.233 27.9898 187.9 92 187.9C156.01 187.9 207.9 136.233 207.9 72.5C207.9 8.76675 156.01 -42.9 92 -42.9C27.9898 -42.9 -23.9 8.76675 -23.9 72.5Z" fill="white" fill-opacity="0.1" stroke="#8BA285" stroke-width="0.2"/>
<ellipse rx="78" ry="78.5" transform="matrix(-1 0 0 1 92 72.5)" fill="#F8F8F8" fill-opacity="0.2"/>
<path d="M92.5 17.0834V39.25" stroke="white" stroke-linecap="round" stroke-linejoin="round"/>
<path d="M92.5 105.75V127.917" stroke="white" stroke-linecap="round" stroke-linejoin="round"/>
<path d="M131.618 33.3823L119.882 45.1176" stroke="white" stroke-linecap="round" stroke-linejoin="round"/>
<path d="M65.1177 99.8823L53.3824 111.618" stroke="white" stroke-linecap="round" stroke-linejoin="round"/>
<path d="M147.917 72.5H125.75" stroke="white" stroke-linecap="round" stroke-linejoin="round"/>
<path d="M59.25 72.5H37.0833" stroke="white" stroke-linecap="round" stroke-linejoin="round"/>
<path d="M131.618 111.618L119.882 99.8823" stroke="white" stroke-linecap="round" stroke-linejoin="round"/>
<path d="M65.1177 45.1176L53.3824 33.3823" stroke="white" stroke-linecap="round" stroke-linejoin="round"/>
<g clip-path="url(#clip0)">
<path d="M74.3521 85.1101H109.677C111.259 85.1101 112.547 86.3973 112.547 87.9794V92.652C112.547 93.0059 112.26 93.2929 111.906 93.2929H72.1236C71.7696 93.2929 71.4826 93.0059 71.4826 92.652V87.9794C71.4826 86.3973 72.7698 85.1101 74.3521 85.1101ZM72.7645 92.0111H111.265V87.9794C111.265 87.104 110.553 86.3918 109.677 86.3918H74.3521C73.4768 86.3918 72.7645 87.1041 72.7645 87.9794V92.0111Z" fill="white" stroke="white" stroke-width="0.064"/>
<path d="M93.2973 65.8718H105.992C108.542 65.8718 110.617 67.9472 110.617 70.4982V76.1926C110.617 76.5466 110.33 76.8336 109.977 76.8336C109.623 76.8336 109.336 76.5466 109.336 76.1926V70.4982C109.336 68.654 107.836 67.1536 105.992 67.1536H93.2973C92.9434 67.1536 92.6564 66.8666 92.6564 66.5126C92.6564 66.1587 92.9434 65.8718 93.2973 65.8718Z" fill="white" stroke="white" stroke-width="0.064"/>
<path d="M76.3223 66.8429C76.1227 66.5506 75.7238 66.4755 75.4316 66.6752C74.1671 67.539 73.4123 68.9682 73.4123 70.4983V82.1635C73.4123 83.4328 74.4449 84.4655 75.7143 84.4655H108.315C109.585 84.4655 110.617 83.4328 110.617 82.1634V78.2225C110.617 77.8686 110.33 77.5816 109.977 77.5816C109.623 77.5816 109.336 77.8686 109.336 78.2225V82.1634C109.336 82.7259 108.878 83.1836 108.315 83.1836H75.7143C75.1518 83.1836 74.6941 82.7259 74.6941 82.1634V70.4982C74.6941 69.3919 75.24 68.3583 76.1546 67.7336C76.4468 67.5339 76.5219 67.1351 76.3223 66.8429ZM76.3223 66.8429C76.3223 66.8429 76.3223 66.8429 76.3223 66.8429L76.2958 66.8609L76.3223 66.8429Z" fill="white" stroke="white" stroke-width="0.064"/>
<path d="M95.6004 52.229H108.047C109.393 52.229 110.488 53.3238 110.488 54.6697V59.2919C110.488 60.6378 109.393 61.7326 108.047 61.7326H95.6004C94.2545 61.7326 93.1597 60.6377 93.1597 59.2919V54.6697C93.1597 53.3238 94.2545 52.229 95.6004 52.229ZM94.4415 59.2919C94.4415 59.9309 94.9614 60.4508 95.6004 60.4508H108.047C108.686 60.4508 109.206 59.9309 109.206 59.2919V54.6697C109.206 54.0307 108.686 53.5108 108.047 53.5108H95.6004C94.9614 53.5108 94.4415 54.0307 94.4415 54.6697V59.2919Z" fill="white" stroke="white" stroke-width="0.064"/>
<path d="M96.2363 54.6648H107.411C107.765 54.6648 108.052 54.9518 108.052 55.3057V58.6562C108.052 59.0102 107.765 59.2972 107.411 59.2972H96.2363C95.8824 59.2972 95.5954 59.0102 95.5954 58.6562V55.3057C95.5954 54.9517 95.8823 54.6648 96.2363 54.6648ZM96.8772 58.0153H106.77V55.9466H96.8772V58.0153Z" fill="white" stroke="white" stroke-width="0.064"/>
<path d="M100.119 61.9121C100.473 61.9121 100.76 62.1991 100.76 62.553V65.0514C100.76 65.4054 100.473 65.6924 100.119 65.6924C99.7647 65.6924 99.4777 65.4054 99.4777 65.0514V62.553C99.4777 62.1991 99.7646 61.9121 100.119 61.9121Z" fill="white" stroke="white" stroke-width="0.064"/>
<path d="M103.529 61.9121C103.882 61.9121 104.169 62.1991 104.169 62.553V65.0514C104.169 65.4054 103.882 65.6924 103.529 65.6924C103.175 65.6924 102.888 65.4054 102.888 65.0514V62.553C102.888 62.1991 103.175 61.9121 103.529 61.9121Z" fill="white" stroke="white" stroke-width="0.064"/>
<path d="M77.5631 68.7958C77.2092 68.7958 76.9222 68.5088 76.9222 68.1549V63.9323C76.9222 62.4602 78.1198 61.2627 79.5918 61.2627H89.4986C90.9707 61.2627 92.1682 62.4602 92.1682 63.9323V78.6084C92.1682 80.0804 90.9707 81.278 89.4986 81.278H79.5918C78.1198 81.278 76.9222 80.0804 76.9222 78.6084V70.1847C76.9222 69.8308 77.2092 69.5438 77.5631 69.5438C77.9171 69.5438 78.204 69.8308 78.204 70.1847V78.6083C78.204 79.3735 78.8267 79.9961 79.5918 79.9961H89.4986C90.2639 79.9961 90.8864 79.3735 90.8864 78.6083V63.9323C90.8864 63.167 90.2638 62.5445 89.4986 62.5445H79.5918C78.8266 62.5445 78.204 63.1671 78.204 63.9323V68.1549C78.204 68.5088 77.9171 68.7958 77.5631 68.7958Z" fill="white" stroke="white" stroke-width="0.064"/>
<path d="M79.9987 63.6985H89.0918C89.4457 63.6985 89.7327 63.9855 89.7327 64.3394V70.2661C89.7327 70.62 89.4457 70.907 89.0918 70.907H79.9987C79.6448 70.907 79.3578 70.62 79.3578 70.2661V64.3394C79.3577 63.9855 79.6447 63.6985 79.9987 63.6985ZM80.6396 69.6252H88.4509V64.9803H80.6396V69.6252Z" fill="white" stroke="white" stroke-width="0.064"/>
<path d="M87.468 72.6291H89.0918C89.4457 72.6291 89.7327 72.9161 89.7327 73.27C89.7327 73.624 89.4457 73.911 89.0918 73.911H87.468C87.1141 73.911 86.8271 73.624 86.8271 73.27C86.8271 72.9161 87.1139 72.6291 87.468 72.6291Z" fill="white" stroke="white" stroke-width="0.064"/>
<path d="M79.9985 72.6291H81.6223C81.9762 72.6291 82.2632 72.9161 82.2632 73.27C82.2632 73.624 81.9762 73.911 81.6223 73.911H79.9985C79.6446 73.911 79.3576 73.624 79.3576 73.27C79.3576 72.9161 79.6446 72.6291 79.9985 72.6291Z" fill="white" stroke="white" stroke-width="0.064"/>
<path d="M83.7332 72.6291H85.3569C85.7108 72.6291 85.9978 72.9161 85.9978 73.27C85.9978 73.624 85.7108 73.911 85.3569 73.911H83.7332C83.3793 73.911 83.0923 73.624 83.0923 73.27C83.0923 72.9161 83.3792 72.6291 83.7332 72.6291Z" fill="white" stroke="white" stroke-width="0.064"/>
<path d="M87.468 77.0132H89.0918C89.4457 77.0132 89.7327 77.3002 89.7327 77.6541C89.7327 78.008 89.4457 78.295 89.0918 78.295H87.468C87.1141 78.295 86.8271 78.008 86.8271 77.6541C86.8271 77.3002 87.1139 77.0132 87.468 77.0132Z" fill="white" stroke="white" stroke-width="0.064"/>
<path d="M79.9985 77.0132H81.6223C81.9762 77.0132 82.2632 77.3002 82.2632 77.6541C82.2632 78.008 81.9762 78.295 81.6223 78.295H79.9985C79.6446 78.295 79.3576 78.008 79.3576 77.6541C79.3576 77.3002 79.6446 77.0132 79.9985 77.0132Z" fill="white" stroke="white" stroke-width="0.064"/>
<path d="M83.7332 77.0132H85.3569C85.7108 77.0132 85.9978 77.3002 85.9978 77.6541C85.9978 78.008 85.7108 78.295 85.3569 78.295H83.7332C83.3793 78.295 83.0923 78.008 83.0923 77.6541C83.0923 77.3002 83.3792 77.0132 83.7332 77.0132Z" fill="white" stroke="white" stroke-width="0.064"/>
<path d="M87.468 74.8213H89.0918C89.4457 74.8213 89.7327 75.1083 89.7327 75.4622C89.7327 75.8161 89.4457 76.1031 89.0918 76.1031H87.468C87.1141 76.1031 86.8271 75.8161 86.8271 75.4622C86.8271 75.1083 87.1139 74.8213 87.468 74.8213Z" fill="white" stroke="white" stroke-width="0.064"/>
<path d="M79.9985 74.8213H81.6223C81.9762 74.8213 82.2632 75.1083 82.2632 75.4622C82.2632 75.8161 81.9762 76.1031 81.6223 76.1031H79.9985C79.6446 76.1031 79.3576 75.8161 79.3576 75.4622C79.3576 75.1083 79.6446 74.8213 79.9985 74.8213Z" fill="white" stroke="white" stroke-width="0.064"/>
<path d="M83.7332 74.8213H85.3569C85.7108 74.8213 85.9978 75.1083 85.9978 75.4622C85.9978 75.8161 85.7108 76.1031 85.3569 76.1031H83.7332C83.3793 76.1031 83.0923 75.8161 83.0923 75.4622C83.0923 75.1083 83.3792 74.8213 83.7332 74.8213Z" fill="white" stroke="white" stroke-width="0.064"/>
<path d="M105.703 80.3941L105.686 80.3668L105.703 80.3941C105.511 80.5103 105.273 80.5183 105.074 80.4149L103.34 79.5132L101.606 80.4149C101.606 80.4149 101.606 80.4149 101.606 80.4149C101.514 80.4631 101.412 80.4872 101.311 80.4872C101.209 80.4872 101.108 80.4631 101.015 80.4149L99.2808 79.5132L97.5467 80.4149C97.3481 80.5182 97.1098 80.5104 96.9184 80.3941C96.727 80.2779 96.6101 80.0701 96.6101 79.8463V70.8258H95.4243C95.0704 70.8258 94.7834 70.5388 94.7834 70.1848C94.7834 69.8309 95.0706 69.5439 95.4245 69.5439H107.197C107.551 69.5439 107.838 69.8309 107.838 70.1848C107.838 70.5388 107.551 70.8258 107.197 70.8258H106.011V79.8463C106.011 80.0702 105.894 80.2779 105.703 80.3941ZM97.8923 78.7904L98.9853 78.2221C99.1706 78.1257 99.3913 78.1257 99.5766 78.2221L101.311 79.1238L103.045 78.2221C103.045 78.2221 103.045 78.2221 103.045 78.2221C103.137 78.1739 103.239 78.1498 103.34 78.1498C103.442 78.1498 103.543 78.1739 103.636 78.2221L104.729 78.7905V70.8258H97.8923V78.7904Z" fill="white" stroke="white" stroke-width="0.064"/>
<path d="M100.62 71.9795H103.624C103.978 71.9795 104.265 72.2665 104.265 72.6204C104.265 72.9743 103.978 73.2613 103.624 73.2613H100.62C100.266 73.2613 99.9794 72.9743 99.9794 72.6204C99.9794 72.2665 100.266 71.9795 100.62 71.9795Z" fill="white" stroke="white" stroke-width="0.064"/>
<path d="M99.4024 73.9687H103.624C103.978 73.9687 104.265 74.2557 104.265 74.6096C104.265 74.9636 103.978 75.2506 103.624 75.2506H99.4024C99.0485 75.2506 98.7615 74.9636 98.7615 74.6096C98.7615 74.2556 99.0485 73.9687 99.4024 73.9687Z" fill="white" stroke="white" stroke-width="0.064"/>
</g>
<defs>
<clipPath id="clip0">
<rect width="41" height="41" fill="white" transform="matrix(-1 0 0 1 112.515 52.261)"/>
</clipPath>
</defs>
</svg>
