<svg xmlns="http://www.w3.org/2000/svg" viewBox="0 0 342.08 31.45"><defs><style>.cls-1{fill:#a8191a;}.cls-2{fill:#3e3e3d;}</style></defs><title>logo TDO 11</title><g id="Слой_2" data-name="Слой 2"><g id="Слой_1-2" data-name="Слой 1"><path class="cls-1" d="M173.54.18h-43c-3.5,0-7.68,2.85-9.31,6.35L113.6,22.89h-9.73L114.46.18H3.64L0,8H27L16.39,30.69h9.73L36.71,8H76.13c-4.85,4.49-17.62,14.92-31.49,14.92H39.48l-3.64,7.8H159.31c3.5,0,7.68-2.85,9.31-6.35l8.31-17.81C178.56,3,177,.18,173.54.18ZM94.14,22.89H67.61a82.18,82.18,0,0,0,13.8-9.65c1.86-1.58,6-5.2,12-5.27h7.67Zm65.43,0H123.32l7-14.92h36.24Z"/><path class="cls-2" d="M201.44.26V1.84h-3v8.7h-1.67V1.84h-3V.26Z"/><path class="cls-2" d="M208.53,9.55a4.48,4.48,0,0,1-6.06,0,4,4,0,0,1-1.21-3,4.18,4.18,0,0,1,.55-2.13A3.89,3.89,0,0,1,203.33,3a4.64,4.64,0,0,1,4.33,0,3.88,3.88,0,0,1,1.53,1.49,4.19,4.19,0,0,1,.55,2.13A4,4,0,0,1,208.53,9.55Zm-3-.37a2.67,2.67,0,0,0,1.34-.33,2.35,2.35,0,0,0,.92-.92,2.72,2.72,0,0,0,.33-1.34,2.54,2.54,0,0,0-.73-1.86,2.71,2.71,0,0,0-3.71,0,2.54,2.54,0,0,0-.73,1.86,2.54,2.54,0,0,0,.73,1.86A2.5,2.5,0,0,0,205.49,9.17Z"/><path class="cls-2" d="M215.73,2.42a4.19,4.19,0,0,1,2.11.54,3.8,3.8,0,0,1,1.47,1.49,4.32,4.32,0,0,1,.53,2.13,4.06,4.06,0,0,1-1.17,3,4,4,0,0,1-2.94,1.18,3.88,3.88,0,0,1-2.63-1v3.61h-1.63V2.61h1.1l.31,1A3.84,3.84,0,0,1,215.73,2.42Zm-2,6a2.7,2.7,0,0,0,3.71,0,2.53,2.53,0,0,0,.73-1.86,2.53,2.53,0,0,0-.73-1.86A2.49,2.49,0,0,0,215.61,4a2.69,2.69,0,0,0-1.34.34,2.37,2.37,0,0,0-.93.93A2.7,2.7,0,0,0,213,6.58,2.53,2.53,0,0,0,213.74,8.43Z"/><path class="cls-2" d="M226.65,2.61V4.07h-3.46v6.47h-1.6V2.61Z"/><path class="cls-2" d="M234.49,9.55a4.48,4.48,0,0,1-6.06,0,4,4,0,0,1-1.21-3,4.18,4.18,0,0,1,.55-2.13A3.89,3.89,0,0,1,229.3,3a4.64,4.64,0,0,1,4.33,0,3.88,3.88,0,0,1,1.53,1.49,4.19,4.19,0,0,1,.55,2.13A4,4,0,0,1,234.49,9.55Zm-3-.37a2.67,2.67,0,0,0,1.34-.33,2.35,2.35,0,0,0,.92-.92A2.72,2.72,0,0,0,234,6.58a2.54,2.54,0,0,0-.73-1.86,2.71,2.71,0,0,0-3.71,0,2.54,2.54,0,0,0-.73,1.86,2.54,2.54,0,0,0,.73,1.86A2.5,2.5,0,0,0,231.46,9.17Z"/><path class="cls-2" d="M242.81,6.4a2.13,2.13,0,0,1,.51.3,1.91,1.91,0,0,1,.39.42,2,2,0,0,1,.25.54,2.06,2.06,0,0,1,.09.6,2.12,2.12,0,0,1-.71,1.62,2.49,2.49,0,0,1-1.76.65h-4.14V2.61h4.08a2.38,2.38,0,0,1,1.64.57,1.86,1.86,0,0,1,.64,1.46,2.05,2.05,0,0,1-.26,1A1.92,1.92,0,0,1,242.81,6.4Zm-.63-1.5a.85.85,0,0,0-.27-.66,1,1,0,0,0-.71-.25H239V5.81h2.16a1,1,0,0,0,.71-.25A.86.86,0,0,0,242.18,4.9Zm-.9,4.21a1.11,1.11,0,0,0,.79-.28.93.93,0,0,0,.3-.71.91.91,0,0,0-.31-.71,1.13,1.13,0,0,0-.79-.28H239v2Z"/><path class="cls-2" d="M249.16,5a2.92,2.92,0,0,1,2.11.78,2.69,2.69,0,0,1,.81,2,2.65,2.65,0,0,1-.81,2,2.94,2.94,0,0,1-2.11.77h-3.29V2.61h1.6V5ZM249,9.13A1.53,1.53,0,0,0,250,8.76a1.28,1.28,0,0,0,.41-1,1.41,1.41,0,0,0-.18-.73,1.26,1.26,0,0,0-.52-.49,1.65,1.65,0,0,0-.78-.18h-1.5V9.13Zm4.49-6.52h1.63v7.93h-1.63Z"/><path class="cls-2" d="M263.23,2.61h.91v7.93h-1.56v-5l-4.23,5h-.94V2.61H259v5ZM262.8,0V1.22h-3.93V0Z"/><path class="cls-2" d="M202.9,27h1V30.6h-1.56v-2h-7v2h-1.56V27h.81a1.8,1.8,0,0,0,.32-.28,1.85,1.85,0,0,0,.26-.41,3.45,3.45,0,0,0,.22-.56,7.94,7.94,0,0,0,.18-.81q.1-.52.17-1.07t.17-1.45q.1-.9.18-1.82t.2-2.3h6.61ZM197.8,19.9q-.26,3.58-.54,5.06a4.15,4.15,0,0,1-.85,2.08h4.79V19.9Z"/><path class="cls-2" d="M212.24,27.62a4.48,4.48,0,0,1-6.06,0,4,4,0,0,1-1.21-3,4.18,4.18,0,0,1,.55-2.13A3.89,3.89,0,0,1,207,21a4.64,4.64,0,0,1,4.33,0,3.88,3.88,0,0,1,1.53,1.49,4.19,4.19,0,0,1,.55,2.13A4,4,0,0,1,212.24,27.62Zm-3-.37a2.67,2.67,0,0,0,1.34-.33,2.35,2.35,0,0,0,.92-.92,2.72,2.72,0,0,0,.33-1.34,2.54,2.54,0,0,0-.73-1.86,2.71,2.71,0,0,0-3.71,0,2.76,2.76,0,0,0,0,3.73A2.5,2.5,0,0,0,209.21,27.24Z"/><path class="cls-2" d="M225.18,28.61h-1.57l-1-5.4L220,28.52h-.34L217,23.2l-1,5.4h-1.57l1.42-7.93h1.38l2.54,5.06,2.55-5.06h1.37Z"/><path class="cls-2" d="M235.47,28.8a5.3,5.3,0,0,1-3.87-1.52,5.13,5.13,0,0,1-1.54-3.81,5.12,5.12,0,0,1,1.54-3.81,5.7,5.7,0,0,1,7.75,0,5.13,5.13,0,0,1,1.54,3.81,5.42,5.42,0,0,1-.7,2.72,5,5,0,0,1-1.94,1.92A5.62,5.62,0,0,1,235.47,28.8Zm-2.64-2.68a3.82,3.82,0,0,0,5.29,0,3.87,3.87,0,0,0,0-5.3,3.82,3.82,0,0,0-5.29,0,3.85,3.85,0,0,0,0,5.3Z"/><path class="cls-2" d="M246.73,21.06a3.83,3.83,0,0,1,2.8,1.06,3.68,3.68,0,0,1,1.08,2.75,3.76,3.76,0,0,1-1.14,2.84,4.11,4.11,0,0,1-3,1.09,3.92,3.92,0,0,1-3-1.21,4.74,4.74,0,0,1-1.11-3.33,7.35,7.35,0,0,1,1.11-4.4,6.23,6.23,0,0,1,3.71-2.14l2.48-.6v1.61l-2.45.59a3.57,3.57,0,0,0-3,2.66A3.68,3.68,0,0,1,246.73,21.06Zm-.23,6.19a2.41,2.41,0,0,0,1.75-.68,2.29,2.29,0,0,0,.7-1.71,2.41,2.41,0,0,0-.32-1.24,2.34,2.34,0,0,0-.88-.87,2.49,2.49,0,0,0-1.25-.32,2.53,2.53,0,0,0-1.26.32,2.27,2.27,0,0,0-.88.87,2.44,2.44,0,0,0-.32,1.24,2.29,2.29,0,0,0,.7,1.71A2.41,2.41,0,0,0,246.49,27.25Z"/><path class="cls-2" d="M259,27.62a4.48,4.48,0,0,1-6.06,0,4,4,0,0,1-1.21-3,4.18,4.18,0,0,1,.55-2.13A3.89,3.89,0,0,1,253.84,21a4.64,4.64,0,0,1,4.33,0,3.88,3.88,0,0,1,1.53,1.49,4.19,4.19,0,0,1,.55,2.13A4,4,0,0,1,259,27.62Zm-3-.37a2.67,2.67,0,0,0,1.34-.33,2.35,2.35,0,0,0,.92-.92,2.72,2.72,0,0,0,.33-1.34,2.54,2.54,0,0,0-.73-1.86,2.71,2.71,0,0,0-3.71,0,2.75,2.75,0,0,0,0,3.73A2.5,2.5,0,0,0,256,27.24Z"/><path class="cls-2" d="M266.24,20.49a4.19,4.19,0,0,1,2.11.54,3.8,3.8,0,0,1,1.47,1.49,4.32,4.32,0,0,1,.53,2.13,4.06,4.06,0,0,1-1.17,3,4,4,0,0,1-2.94,1.18,3.88,3.88,0,0,1-2.63-1v3.61H262V20.68h1.1l.31,1A3.84,3.84,0,0,1,266.24,20.49Zm-2,6a2.7,2.7,0,0,0,3.71,0,2.71,2.71,0,0,0,0-3.71,2.49,2.49,0,0,0-1.85-.74,2.69,2.69,0,0,0-1.34.34,2.37,2.37,0,0,0-.93.93,2.7,2.7,0,0,0-.33,1.33A2.53,2.53,0,0,0,264.25,26.5Z"/><path class="cls-2" d="M277.47,20.68h1.75l-3.64,8.07a6,6,0,0,1-1.4,2.11,2.88,2.88,0,0,1-1.9.59h-.81V30h.67a1.76,1.76,0,0,0,1.15-.31,3.82,3.82,0,0,0,.81-1.28l.18-.37-3.45-7.35h1.78l2.51,5.53Z"/><path class="cls-2" d="M286.92,27.06h1V30.6h-1.48v-2h-5.78v2H279.2V27.06H280a1.77,1.77,0,0,0,.52-.85,10.39,10.39,0,0,0,.33-1.74q.15-1.17.38-3.8h5.65Zm-4.21-4.95a30.47,30.47,0,0,1-.37,3.44,3.38,3.38,0,0,1-.6,1.51h3.58V22.12Z"/><path class="cls-2" d="M296.23,27.62a4.48,4.48,0,0,1-6.06,0,4,4,0,0,1-1.21-3,4.18,4.18,0,0,1,.55-2.13A3.89,3.89,0,0,1,291,21a4.64,4.64,0,0,1,4.33,0,3.88,3.88,0,0,1,1.53,1.49,4.19,4.19,0,0,1,.55,2.13A4,4,0,0,1,296.23,27.62Zm-3-.37a2.67,2.67,0,0,0,1.34-.33,2.35,2.35,0,0,0,.92-.92,2.72,2.72,0,0,0,.33-1.34,2.54,2.54,0,0,0-.73-1.86,2.71,2.71,0,0,0-3.71,0,2.75,2.75,0,0,0,0,3.73A2.5,2.5,0,0,0,293.2,27.24Z"/><path class="cls-2" d="M304.55,24.47a2.13,2.13,0,0,1,.51.3,1.92,1.92,0,0,1,.39.42,2,2,0,0,1,.25.54,2.06,2.06,0,0,1,.09.6,2.12,2.12,0,0,1-.71,1.62,2.49,2.49,0,0,1-1.76.65h-4.14V20.68h4.08a2.38,2.38,0,0,1,1.64.57,1.86,1.86,0,0,1,.64,1.46,2.05,2.05,0,0,1-.26,1A1.91,1.91,0,0,1,304.55,24.47Zm-.63-1.5a.86.86,0,0,0-.27-.66,1,1,0,0,0-.71-.25h-2.16v1.82h2.16a1,1,0,0,0,.71-.25A.86.86,0,0,0,303.92,23Zm-.9,4.21a1.11,1.11,0,0,0,.79-.28.93.93,0,0,0,.3-.71.92.92,0,0,0-.31-.71,1.13,1.13,0,0,0-.79-.28h-2.23v2Z"/><path class="cls-2" d="M314.25,20.68h1.26v7.93h-1.32l-.16-1a3.86,3.86,0,0,1-2.86,1.16,4,4,0,0,1-3-1.19,4.32,4.32,0,0,1,0-5.94,4,4,0,0,1,3-1.18,3.87,3.87,0,0,1,2.89,1.17Zm-4.82,5.82a2.53,2.53,0,0,0,1.86.74,2.48,2.48,0,0,0,1.85-.74,2.74,2.74,0,0,0,0-3.72,2.5,2.5,0,0,0-1.86-.73,2.65,2.65,0,0,0-1.33.34,2.45,2.45,0,0,0-.93.93,2.65,2.65,0,0,0-.34,1.33A2.52,2.52,0,0,0,309.43,26.5Z"/><path class="cls-2" d="M323.12,20.68h1.6v7.93h-1.6V25.29h-3.67v3.32h-1.62V20.68h1.62v3.11h3.67Z"/><path class="cls-2" d="M332.85,20.68h.91v7.93H332.2v-5l-4.23,5H327V20.68h1.57v5Z"/><path class="cls-2" d="M338.3,20.68h3.79v7.93H340.5V25.7h-1.66l-1.73,2.91h-1.78l1.89-3.17a2.48,2.48,0,0,1-1.13-.88,2.32,2.32,0,0,1-.41-1.37,2.38,2.38,0,0,1,.75-1.79A2.59,2.59,0,0,1,338.3,20.68Zm.22,3.6h2V22.12h-2a1.35,1.35,0,0,0-.62.14,1,1,0,0,0-.42.38,1.07,1.07,0,0,0-.15.57,1,1,0,0,0,.32.77A1.22,1.22,0,0,0,338.52,24.28Z"/></g></g></svg>