<svg xmlns="http://www.w3.org/2000/svg" viewBox="0 0 177.58 30.51"><defs><style>.cls-1{fill:#a8191a;}</style></defs><title>logo TDO 21</title><g id="Слой_2" data-name="Слой 2"><g id="Слой_1-2" data-name="Слой 1"><path class="cls-1" d="M173.54,0h-43c-3.5,0-7.68,2.85-9.31,6.35L113.6,22.71h-9.73L114.46,0H3.64L0,7.8H27L16.39,30.51h9.73L36.71,7.8H76.13c-4.85,4.49-17.62,14.92-31.49,14.92H39.48l-3.64,7.8H159.31c3.5,0,7.68-2.85,9.31-6.35l8.31-17.81C178.56,2.85,177,0,173.54,0ZM94.14,22.71H67.61a82.17,82.17,0,0,0,13.8-9.65c1.86-1.58,6-5.2,12-5.27h7.67Zm65.43,0H123.32l7-14.92h36.24Z"/></g></g></svg>