<svg width="82" height="83" viewBox="0 0 82 83" fill="none" xmlns="http://www.w3.org/2000/svg">
<ellipse cx="42.6182" cy="40.4083" rx="25.6182" ry="25.4083" fill="white" fill-opacity="0.1"/>
<path d="M67.7365 40.4083C67.7365 54.1609 56.4946 65.3165 42.6182 65.3165C28.7419 65.3165 17.5 54.1609 17.5 40.4083C17.5 26.6557 28.7419 15.5 42.6182 15.5C56.4946 15.5 67.7365 26.6557 67.7365 40.4083Z" stroke="white" stroke-opacity="0.2"/>
<path d="M58.466 41.0917C58.466 49.9712 51.206 57.1834 42.233 57.1834C33.26 57.1834 26 49.9712 26 41.0917C26 32.2123 33.26 25 42.233 25C51.206 25 58.466 32.2123 58.466 41.0917Z" stroke="white" stroke-width="2"/>
<ellipse cx="42.3678" cy="40.4426" rx="33.3678" ry="33.4426" fill="white" fill-opacity="0.05"/>
<path d="M75.4855 40.4426C75.4855 58.7749 60.6577 73.6352 42.3678 73.6352C24.0779 73.6352 9.25 58.7749 9.25 40.4426C9.25 22.1103 24.0779 7.25 42.3678 7.25C60.6577 7.25 75.4855 22.1103 75.4855 40.4426Z" stroke="white" stroke-opacity="0.1" stroke-width="0.5"/>
<circle cx="42.5" cy="40.5" r="42.5" fill="white" fill-opacity="0.05"/>
<circle cx="42.5" cy="40.5" r="42.25" stroke="white" stroke-opacity="0.1" stroke-width="0.5"/>
<path d="M43.3665 40.5215H49.6395V42.1074H43.3665V48.9326H41.6531V42.1074H35.5076V40.5215H41.6531V33.9229H43.3665V40.5215Z" fill="white"/>
</svg>
