<svg width="147" height="171" viewBox="0 0 147 171" fill="none" xmlns="http://www.w3.org/2000/svg">
<g opacity="0.8">
<path d="M120.824 38.513C119.914 36.9403 118.219 35.9634 116.399 35.9634H29.3891C27.5691 35.9634 25.8735 36.9403 24.9639 38.513L18.7543 49.2449C18.0602 50.4446 18.4722 51.9785 19.6744 52.6712C20.8763 53.3639 22.4139 52.9528 23.108 51.7531L27.8901 43.488L46.0383 74.855H9.74181L17.4149 61.5926C18.1091 60.3929 17.6971 58.8586 16.4949 58.1662C15.2926 57.4729 13.7551 57.8847 13.0613 59.0844L3.77495 75.1349C2.89371 76.6576 3.0905 78.5619 4.26393 79.8738L69.7889 153.107C70.5601 153.969 71.6665 154.464 72.8249 154.465H72.8269C73.9843 154.465 75.0904 153.971 75.8622 153.11L141.52 79.8758C142.697 78.5639 142.894 76.6586 142.012 75.1339L120.824 38.513ZM78.1967 74.8554H54.7453L72.8935 43.488L91.0418 74.8554H90.8239C89.4356 74.8554 88.3104 75.9786 88.3104 77.3636C88.3104 78.749 89.4359 79.8718 90.8239 79.8718H92.0341L72.8326 144.904L53.7472 79.8721H78.1967C79.585 79.8721 80.7102 78.749 80.7102 77.3639C80.7105 75.9786 79.585 74.8554 78.1967 74.8554ZM95.3958 72.3472L77.2475 40.9798H113.544L95.3958 72.3472ZM97.2757 79.8721H134.778L78.86 142.242L97.2757 79.8721ZM136.046 74.8554H99.7494L117.898 43.4884L136.046 74.8554ZM32.2437 40.9798H68.5402L50.392 72.3468L32.2437 40.9798ZM48.5087 79.8721L66.8159 142.252L11.0019 79.8721H48.5087Z" fill="#EEEEEE"/>
<path d="M133.727 145.115C133.607 145.036 133.481 144.966 133.349 144.908C131.754 144.204 130.282 143.372 128.975 142.436C127.848 141.629 126.277 141.886 125.467 143.012C124.658 144.137 124.916 145.704 126.044 146.512C126.811 147.061 127.621 147.579 128.469 148.063C123.041 151.154 119.276 155.583 117.432 161.058C115.588 155.584 111.824 151.156 106.396 148.065C111.824 144.974 115.589 140.545 117.432 135.071C117.458 135.146 117.484 135.221 117.509 135.297C117.966 136.605 119.398 137.296 120.71 136.841C122.021 136.385 122.714 134.955 122.257 133.647C122.066 133.1 121.899 132.532 121.758 131.959L120.713 127.699C120.342 126.187 118.992 125.13 117.432 125.13C115.871 125.13 114.522 126.187 114.151 127.699L113.106 131.959C111.325 139.219 105.819 143.008 101.514 144.909C101.382 144.967 101.256 145.036 101.136 145.116C100.146 145.775 99.5547 146.877 99.5547 148.065C99.5547 149.253 100.146 150.356 101.136 151.014C101.256 151.094 101.382 151.163 101.514 151.222C105.819 153.122 111.325 156.912 113.106 164.171L114.151 168.431C114.522 169.944 115.871 171 117.432 171C118.992 171 120.342 169.944 120.713 168.431L121.758 164.171C123.539 156.912 129.045 153.122 133.35 151.222C133.481 151.163 133.607 151.094 133.727 151.015C134.718 150.356 135.309 149.253 135.309 148.065C135.309 146.877 134.717 145.774 133.727 145.115Z" fill="#EEEEEE"/>
<path d="M145.647 34.6194C145.527 34.5395 145.401 34.4704 145.269 34.4123C142.484 33.1829 140.756 31.2695 140.132 28.7252L139.605 26.5777V26.5774C139.281 25.2568 138.103 24.3344 136.74 24.3344C136.74 24.3344 136.74 24.3344 136.74 24.3344C135.377 24.3347 134.199 25.2575 133.876 26.5777L133.349 28.7252C132.725 31.2695 130.996 33.1829 128.211 34.4123C128.08 34.4704 127.953 34.5395 127.833 34.6194C126.987 35.1828 126.481 36.126 126.481 37.1416C126.481 38.1572 126.987 39.1001 127.834 39.6632C127.954 39.7427 128.08 39.8118 128.211 39.8699C130.997 41.0993 132.725 43.0127 133.349 45.5573L133.876 47.7041C134.2 49.025 135.378 49.9475 136.74 49.9478H136.741C138.103 49.9478 139.281 49.0257 139.605 47.7045L140.132 45.5573C140.756 43.013 142.485 41.0996 145.27 39.8702C145.401 39.8121 145.527 39.7433 145.647 39.6635C146.494 39.1004 147 38.1576 147 37.1419C147 36.1256 146.494 35.1828 145.647 34.6194ZM136.74 40.7493C135.901 39.3723 134.796 38.1622 133.443 37.1413C134.796 36.1203 135.902 34.9103 136.74 33.5332C137.579 34.9103 138.685 36.1203 140.037 37.1413C138.684 38.1622 137.579 39.3719 136.74 40.7493Z" fill="#EEEEEE"/>
<path d="M9.80643 29.0572L10.5612 32.1332C10.9059 33.5382 12.1593 34.5198 13.6088 34.5198C15.0587 34.5198 16.3121 33.5382 16.6565 32.1332L17.4113 29.0572C18.6302 24.0895 22.4212 21.4861 25.3873 20.1766C25.5188 20.1185 25.645 20.0493 25.7645 19.9695C26.6745 19.3643 27.2177 18.3514 27.2177 17.2602C27.2177 16.1688 26.6748 15.1558 25.7648 14.5503C25.645 14.4705 25.5188 14.4014 25.3869 14.3432C22.4212 13.034 18.6302 10.4306 17.4113 5.46296L16.6565 2.38698C16.3118 0.981576 15.0584 0 13.6085 0C12.159 0 10.9055 0.981576 10.5608 2.38664L9.80609 5.46263C8.58782 10.4303 4.79645 13.0337 1.83076 14.3429C1.69922 14.401 1.57271 14.4702 1.45323 14.55C0.542867 15.1558 0 16.1688 0 17.2602C0 18.3517 0.543537 19.3647 1.45356 19.9699C1.57304 20.0493 1.69922 20.1185 1.83042 20.1766C4.79645 21.4858 8.58782 24.0895 9.80643 29.0572ZM13.6085 9.77335C14.9938 12.7992 17.2312 15.3288 20.2317 17.2599C17.2315 19.191 14.9938 21.7209 13.6085 24.7468C12.2232 21.7209 9.98548 19.1913 6.98532 17.2599C9.98548 15.3288 12.2232 12.7989 13.6085 9.77335Z" fill="#EEEEEE"/>
</g>
</svg>
