<svg width="18" height="16" viewBox="0 0 18 16" fill="none" xmlns="http://www.w3.org/2000/svg">
<path d="M16.1042 2.07287C15.6937 1.66927 15.2063 1.34911 14.6698 1.13067C14.1334 0.912234 13.5584 0.799805 12.9778 0.799805C12.3971 0.799805 11.8221 0.912234 11.2857 1.13067C10.7492 1.34911 10.2618 1.66927 9.85133 2.07287L8.9994 2.91009L8.14746 2.07287C7.31829 1.25801 6.19368 0.800227 5.02104 0.800227C3.8484 0.800227 2.7238 1.25801 1.89462 2.07287C1.06544 2.88773 0.599609 3.99291 0.599609 5.1453C0.599609 6.29768 1.06544 7.40287 1.89462 8.21773L2.74655 9.05495L8.9994 15.1998L15.2522 9.05495L16.1042 8.21773C16.5149 7.81432 16.8407 7.33534 17.0629 6.80817C17.2852 6.28099 17.3996 5.71594 17.3996 5.1453C17.3996 4.57466 17.2852 4.00961 17.0629 3.48243C16.8407 2.95525 16.5149 2.47628 16.1042 2.07287V2.07287Z" stroke="#EB5757" stroke-linecap="round" stroke-linejoin="round"/>
</svg>
