<svg width="18" height="10" viewBox="0 0 18 10" fill="none" xmlns="http://www.w3.org/2000/svg">
<path d="M4.84418 5.7984C4.95081 5.9136 5.09298 5.9712 5.21737 5.9712C5.35954 5.9712 5.48394 5.9136 5.59056 5.7984C5.80382 5.568 5.80382 5.2032 5.59056 4.9728L4.87973 4.2048H12.308L11.5972 4.9728C11.3839 5.2032 11.3839 5.568 11.5972 5.7984C11.8104 6.0288 12.1481 6.0288 12.3613 5.7984L13.9962 4.032C14.2095 3.8016 14.2095 3.4368 13.9962 3.2064L12.3613 1.44C12.2547 1.3248 12.1125 1.2672 11.9881 1.2672C11.8459 1.2672 11.7215 1.3248 11.6149 1.44C11.4017 1.6704 11.4017 2.0352 11.6149 2.2656L12.3258 3.0336H4.8975L5.60834 2.2656C5.82159 2.0352 5.82159 1.6704 5.60834 1.44C5.39508 1.2096 5.05744 1.2096 4.84418 1.44L3.20926 3.2064C2.996 3.4368 2.996 3.8016 3.20926 4.032L4.84418 5.7984Z" fill="#27AE60"/>
<path d="M16.8037 0H16.1818C16.0574 0 15.9507 0.1152 15.9507 0.2496V8.7744H14.3869V6.7008C14.3869 6.5664 14.2803 6.4512 14.1559 6.4512H13.5339C13.4095 6.4512 13.3029 6.5664 13.3029 6.7008V8.7744H11.739V7.5264C11.739 7.392 11.6324 7.2768 11.508 7.2768H10.886C10.7616 7.2768 10.655 7.392 10.655 7.5264V8.7744H9.12668V7.5264C9.12668 7.392 9.02005 7.2768 8.89566 7.2768H8.27367C8.14928 7.2768 8.04265 7.392 8.04265 7.5264V8.7744H6.47881V7.5264C6.47881 7.392 6.37218 7.2768 6.24778 7.2768H5.6258C5.5014 7.2768 5.39478 7.392 5.39478 7.5264V8.7744H3.83093V6.7008C3.83093 6.5664 3.72431 6.4512 3.59991 6.4512H2.97793C2.85353 6.4512 2.7469 6.5664 2.7469 6.7008V8.7744H1.2186V0.2496C1.2186 0.1152 1.11198 0 0.987579 0H0.383366C0.25897 0 0.152344 0.1152 0.152344 0.2496V9.696C0.152344 9.8304 0.25897 9.9456 0.383366 9.9456H16.8037C16.9281 9.9456 17.0348 9.8304 17.0348 9.696V0.2496C17.0348 0.1152 16.9281 0 16.8037 0Z" fill="#27AE60"/>
</svg>
