<svg width="38" height="46" viewBox="0 0 38 46" fill="none" xmlns="http://www.w3.org/2000/svg">
<path d="M37.9111 26.12C38.1031 24.968 37.7671 23.816 37.0471 22.952C36.2791 22.088 35.2231 21.56 34.0711 21.56H25.8151C26.0551 20.168 26.2951 19.16 26.5351 18.152C26.9191 16.664 27.2551 15.272 27.4951 12.968C27.7351 10.328 25.9111 8.79196 24.1351 8.50396C22.2151 8.21596 20.0071 9.17596 19.4311 11.624C18.0871 17.816 12.8551 21.992 11.3191 23.096C11.2711 23.144 11.1751 23.192 11.0791 23.24H2.58306C1.19106 23.24 0.0390625 24.392 0.0390625 25.784V40.28C0.0390625 41.672 1.19106 42.824 2.58306 42.824H11.2231C11.7031 42.968 12.1831 43.208 12.8071 43.496C14.5831 44.408 17.2231 45.8 22.7431 45.8H32.5831C34.5511 45.8 36.2791 44.408 36.6151 42.536C36.8071 41.384 36.4711 40.232 35.7511 39.368C36.4231 38.792 36.9031 38.024 37.0951 37.112C37.2871 35.96 36.9511 34.808 36.2311 33.944C36.2311 33.944 36.2311 33.944 36.2311 33.896C36.9031 33.32 37.3831 32.552 37.5751 31.64C37.7671 30.488 37.4311 29.336 36.7111 28.472C37.2871 27.848 37.7671 27.032 37.9111 26.12ZM2.39106 40.28V25.832C2.39106 25.736 2.48706 25.64 2.58306 25.64H10.2631V40.52H2.58306C2.48706 40.472 2.39106 40.376 2.39106 40.28ZM32.6311 29.384H33.6391C34.1191 29.384 34.5511 29.576 34.8391 29.96C35.1271 30.296 35.2711 30.776 35.1751 31.256C35.0311 31.976 34.3111 32.552 33.4471 32.552H32.1511C31.4791 32.552 30.9991 33.08 30.9991 33.704C30.9991 34.328 31.5271 34.856 32.1511 34.856H33.1591C33.6391 34.856 34.0711 35.048 34.3591 35.432C34.6471 35.768 34.7911 36.248 34.6951 36.728C34.5511 37.448 33.8311 38.024 32.9671 38.024H31.6711C30.9991 38.024 30.5191 38.552 30.5191 39.176C30.5191 39.8 31.0471 40.328 31.6711 40.328H32.6791C33.1591 40.328 33.5911 40.52 33.8791 40.904C34.1671 41.24 34.3111 41.72 34.2151 42.2C34.0711 42.92 33.3511 43.496 32.4871 43.496H22.7431C17.7991 43.496 15.5431 42.344 13.8631 41.48C13.4311 41.24 12.9991 41.048 12.5671 40.856V25.064C12.6151 25.064 12.6151 25.016 12.6631 25.016C14.3911 23.768 20.1511 19.112 21.6871 12.2C21.9751 10.952 23.0791 10.76 23.7031 10.856C24.4711 11 25.2391 11.528 25.0951 12.776C24.9031 14.888 24.5671 16.232 24.2311 17.624C23.9431 18.776 23.6551 19.976 23.3671 21.656C23.2711 22.232 23.4151 22.808 23.7991 23.288C24.1831 23.72 24.7111 23.96 25.2871 23.96H33.9751C34.4551 23.96 34.8871 24.152 35.1751 24.536C35.4631 24.872 35.6071 25.352 35.5111 25.832C35.3671 26.552 34.6471 27.128 33.8311 27.128H32.5351C31.8631 27.128 31.3831 27.656 31.3831 28.28C31.3831 28.904 31.9591 29.384 32.6311 29.384Z" fill="white"/>
<path d="M6.32494 38.3599C7.3323 38.3599 8.14894 37.5433 8.14894 36.5359C8.14894 35.5285 7.3323 34.7119 6.32494 34.7119C5.31757 34.7119 4.50094 35.5285 4.50094 36.5359C4.50094 37.5433 5.31757 38.3599 6.32494 38.3599Z" fill="white"/>
<path d="M23.3179 5.57595C23.9899 5.57595 24.4699 5.04795 24.4699 4.42395V1.35195C24.4699 0.679951 23.9419 0.199951 23.3179 0.199951C22.6459 0.199951 22.1659 0.727951 22.1659 1.35195V4.37595C22.1659 5.04795 22.6939 5.57595 23.3179 5.57595Z" fill="white"/>
<path d="M16.4572 7.63995C16.6972 7.87995 16.9852 7.97595 17.2732 7.97595C17.5612 7.97595 17.8972 7.87995 18.0892 7.63995C18.5692 7.15995 18.5692 6.43995 18.0892 5.95995L15.9292 3.79995C15.4492 3.31995 14.7292 3.31995 14.2492 3.79995C13.7692 4.27995 13.7692 4.99995 14.2492 5.47995L16.4572 7.63995Z" fill="white"/>
<path d="M11.6529 13.9759H14.6769C15.3489 13.9759 15.8289 13.4479 15.8289 12.8239C15.8289 12.1999 15.3009 11.6719 14.6769 11.6719H11.6529C10.9809 11.6719 10.5009 12.1999 10.5009 12.8239C10.5009 13.4479 11.0289 13.9759 11.6529 13.9759Z" fill="white"/>
<path d="M30.5691 13.0159C30.5691 13.6879 31.0971 14.1679 31.7211 14.1679H34.7451C35.4171 14.1679 35.8971 13.6399 35.8971 13.0159C35.8971 12.3919 35.3691 11.8639 34.7451 11.8639H31.7211C31.0971 11.8639 30.5691 12.3919 30.5691 13.0159Z" fill="white"/>
<path d="M29.319 8.16794C29.607 8.16794 29.943 8.07194 30.135 7.83194L32.295 5.67194C32.775 5.19194 32.775 4.47194 32.295 3.99194C31.815 3.51194 31.095 3.51194 30.615 3.99194L28.455 6.15194C27.975 6.63194 27.975 7.35194 28.455 7.83194C28.695 8.02394 29.031 8.16794 29.319 8.16794Z" fill="white"/>
</svg>
