<svg width="48" height="48" viewBox="0 0 48 48" fill="none" xmlns="http://www.w3.org/2000/svg">
<g clip-path="url(#clip0)">
<path d="M0.803071 44.8002H3.20291V47.2C3.20291 47.6418 3.56109 48 4.00286 48H36.0007C36.4425 48 36.8007 47.6418 36.8007 47.2V43.2003H35.2008V46.4001H4.8028V44.8002H33.6009V43.2003H1.60302V8.80259H8.00259C8.44436 8.80259 8.80254 8.44441 8.80254 8.00264V1.60307H32.001V17.602H33.6009V4.80285H35.2008V17.602H36.8007V4.00291C36.8007 3.56114 36.4425 3.20296 36.0007 3.20296H33.6009V0.80312C33.6009 0.361353 33.2427 0.00317383 32.8009 0.00317383H8.00259C7.9858 0.00317383 7.97134 0.0121576 7.95533 0.0129388C7.88385 0.0168448 7.81315 0.0309064 7.74519 0.0543423C7.72019 0.0633261 7.69558 0.0695757 7.67136 0.080903C7.58426 0.119572 7.50497 0.173866 7.437 0.240658L0.237484 7.44018C0.170692 7.50814 0.116398 7.58782 0.0777292 7.67454C0.0664018 7.69875 0.0601522 7.72414 0.0511685 7.74914C0.0281231 7.81593 0.0140616 7.88585 0.00976497 7.95616C0.00976497 7.97374 0 7.98897 0 8.00576V44.0002C0 44.2131 0.08476 44.417 0.235531 44.567C0.386302 44.717 0.590586 44.801 0.803071 44.8002ZM7.20264 2.73424V7.20269H2.73419L7.20264 2.73424Z" fill="#A72B2A"/>
<path d="M16.8019 14.4021C17.4464 14.4068 18.058 14.1205 18.4674 13.6228C19.108 13.6803 19.7408 13.4506 20.1954 12.9959C20.6501 12.5413 20.8797 11.9085 20.8223 11.2679C21.3164 10.8558 21.6016 10.2457 21.6016 9.60241C21.6016 8.95909 21.3164 8.34898 20.8223 7.9369C20.8797 7.29632 20.6501 6.66355 20.1954 6.20889C19.7408 5.75423 19.108 5.52456 18.4674 5.58198C18.0553 5.08826 17.4452 4.80273 16.8019 4.80273C16.1586 4.80273 15.5488 5.08826 15.1364 5.58198C14.4962 5.52456 13.863 5.75423 13.4084 6.20889C12.9537 6.66355 12.724 7.29632 12.7814 7.9369C12.2877 8.34898 12.0022 8.95909 12.0022 9.60241C12.0022 10.2457 12.2877 10.8558 12.7814 11.2679C12.724 11.9085 12.9537 12.5413 13.4084 12.9959C13.863 13.4506 14.4962 13.6803 15.1364 13.6228C15.5457 14.1205 16.1578 14.4068 16.8019 14.4021ZM14.5395 11.8648C14.3638 11.6999 14.3188 11.4386 14.4294 11.2246C14.5262 11.0203 14.5325 10.7844 14.4458 10.5754C14.3591 10.3664 14.188 10.2039 13.9751 10.1282C13.7513 10.0489 13.6017 9.83755 13.6017 9.60007C13.6017 9.36258 13.7513 9.15127 13.9751 9.07198C14.188 8.9962 14.3591 8.83371 14.4458 8.62474C14.5325 8.41577 14.5262 8.17985 14.4294 7.97518C14.3255 7.76074 14.3688 7.50411 14.5376 7.33538C14.7059 7.16703 14.9625 7.12367 15.1774 7.22757C15.3817 7.32444 15.6176 7.3303 15.8266 7.24398C16.0355 7.15726 16.198 6.98618 16.2742 6.77291C16.3531 6.5491 16.5648 6.3995 16.8019 6.3995C17.0394 6.3995 17.2507 6.5491 17.33 6.77291C17.4057 6.98618 17.5682 7.15726 17.7772 7.24398C17.9866 7.3303 18.2221 7.32444 18.4268 7.22757C18.6412 7.12367 18.8978 7.16703 19.0666 7.33538C19.2349 7.50411 19.2783 7.76074 19.1748 7.97518C19.0775 8.17985 19.0717 8.41577 19.1584 8.62474C19.2447 8.83371 19.4158 8.9962 19.629 9.07198C19.8529 9.15127 20.0025 9.36258 20.0025 9.60007C20.0025 9.83755 19.8529 10.0489 19.629 10.1282C19.4158 10.2039 19.2447 10.3664 19.1584 10.5754C19.0717 10.7844 19.0775 11.0203 19.1748 11.2246C19.2783 11.4394 19.2349 11.696 19.0666 11.8648C18.8978 12.0331 18.6412 12.0765 18.4268 11.9726C18.2221 11.8757 17.9866 11.8698 17.7772 11.9562C17.5682 12.0429 17.4057 12.214 17.33 12.4272C17.2507 12.6506 17.0394 12.8006 16.8019 12.8006C16.5648 12.8006 16.3531 12.6506 16.2742 12.4272C16.198 12.2136 16.0351 12.0425 15.8262 11.9558C15.7289 11.9159 15.6246 11.8952 15.5195 11.8952C15.4008 11.8956 15.284 11.923 15.1774 11.9749C14.9637 12.0835 14.7044 12.0386 14.5395 11.8648Z" fill="#A72B2A"/>
<path d="M11.2024 16.002H14.4022V17.6019H11.2024V16.002Z" fill="#A72B2A"/>
<path d="M16.002 16.002H22.4015V17.6019H16.002V16.002Z" fill="#A72B2A"/>
<path d="M4.80273 23.2017H14.4021V24.8016H4.80273V23.2017Z" fill="#A72B2A"/>
<path d="M4.80273 26.4014H14.4021V28.0013H4.80273V26.4014Z" fill="#A72B2A"/>
<path d="M4.80273 20.0017H11.2023V21.6016H4.80273V20.0017Z" fill="#A72B2A"/>
<path d="M4.80273 34.4009H14.4021V36.0008H4.80273V34.4009Z" fill="#A72B2A"/>
<path d="M4.80273 37.6006H14.4021V39.2005H4.80273V37.6006Z" fill="#A72B2A"/>
<path d="M4.80273 31.2012H11.2023V32.8011H4.80273V31.2012Z" fill="#A72B2A"/>
<path d="M44.8 19.2019H19.2017C17.4347 19.2019 16.002 20.6346 16.002 22.4017V38.4006C16.002 40.1677 17.4347 41.6004 19.2017 41.6004H44.8C46.5675 41.6004 47.9998 40.1677 47.9998 38.4006V22.4017C47.9998 20.6346 46.5675 19.2019 44.8 19.2019ZM46.3999 38.4006C46.3999 39.2842 45.6836 40.0005 44.8 40.0005H19.2017C18.3182 40.0005 17.6018 39.2842 17.6018 38.4006V22.4017C17.6018 21.5182 18.3182 20.8018 19.2017 20.8018H44.8C45.6836 20.8018 46.3999 21.5182 46.3999 22.4017V38.4006Z" fill="#A72B2A"/>
<path d="M25.6015 24.0016C25.6015 23.5598 25.2433 23.2017 24.8015 23.2017H20.0019C19.5601 23.2017 19.2019 23.5598 19.2019 24.0016V28.8013C19.2019 29.2431 19.5601 29.6012 20.0019 29.6012H24.8015C25.2433 29.6012 25.6015 29.2431 25.6015 28.8013V24.0016ZM24.0016 28.0013H20.8018V24.8016H24.0016V28.0013Z" fill="#A72B2A"/>
<path d="M19.2019 32.801H20.8018V34.4009H19.2019V32.801Z" fill="#A72B2A"/>
<path d="M22.4016 32.801H24.0015V34.4009H22.4016V32.801Z" fill="#A72B2A"/>
<path d="M25.6016 32.801H27.2015V34.4009H25.6016V32.801Z" fill="#A72B2A"/>
<path d="M28.8013 32.801H30.4012V34.4009H28.8013V32.801Z" fill="#A72B2A"/>
<path d="M32.001 32.801H33.6008V34.4009H32.001V32.801Z" fill="#A72B2A"/>
<path d="M19.2019 36.0007H24.0016V37.6006H19.2019V36.0007Z" fill="#A72B2A"/>
<path d="M25.6016 36.0007H30.4013V37.6006H25.6016V36.0007Z" fill="#A72B2A"/>
<path d="M39.2004 24.0015H44.0001V25.6014H39.2004V24.0015Z" fill="#A72B2A"/>
<path d="M36.0007 24.0015H37.6006V25.6014H36.0007V24.0015Z" fill="#A72B2A"/>
<path d="M36.0007 27.2014H44.0002V28.8013H36.0007V27.2014Z" fill="#A72B2A"/>
<path d="M41.6002 32.001C41.0378 32.0014 40.4851 32.1521 40.0004 32.4377C39.5156 32.1521 38.9633 32.0014 38.4005 32.001C36.6334 32.001 35.2007 33.4337 35.2007 35.2008C35.2007 36.9678 36.6334 38.4006 38.4005 38.4006C38.9633 38.4002 39.5156 38.2494 40.0004 37.9639C40.4851 38.2494 41.0378 38.4002 41.6002 38.4006C43.3677 38.4006 44.8 36.9678 44.8 35.2008C44.8 33.4337 43.3677 32.001 41.6002 32.001ZM41.6002 36.8007C41.2061 36.7975 40.8269 36.6491 40.5355 36.3839C40.2312 36.1101 39.7695 36.1101 39.4652 36.3839C38.8262 36.9655 37.8407 36.9346 37.2396 36.3144C36.6381 35.6937 36.6381 34.7078 37.2396 34.0872C37.8407 33.4669 38.8262 33.436 39.4652 34.0176C39.7695 34.2915 40.2312 34.2915 40.5355 34.0176C41.0655 33.5356 41.851 33.4642 42.4588 33.843C43.0669 34.2223 43.3486 34.959 43.149 35.6468C42.9494 36.3347 42.3166 36.8061 41.6002 36.8007Z" fill="#A72B2A"/>
</g>
<defs>
<clipPath id="clip0">
<rect width="48" height="48" fill="white"/>
</clipPath>
</defs>
</svg>
