<svg width="48" height="48" viewBox="0 0 48 48" fill="none" xmlns="http://www.w3.org/2000/svg">
<path d="M11.1999 31.6001C8.55268 31.6001 6.3999 33.7529 6.3999 36.4001C6.3999 39.0473 8.55268 41.2001 11.1999 41.2001C13.8471 41.2001 15.9999 39.0473 15.9999 36.4001C15.9999 33.7529 13.847 31.6001 11.1999 31.6001ZM11.1999 39.6001C9.43506 39.6001 7.99993 38.1648 7.99993 36.4001C7.99993 34.6353 9.43515 33.2001 11.1999 33.2001C12.9647 33.2001 14.3999 34.6353 14.3999 36.4001C14.3999 38.1648 12.9647 39.6001 11.1999 39.6001Z" fill="#A72B2A"/>
<path d="M38.4001 31.6001C35.7529 31.6001 33.6001 33.7529 33.6001 36.4001C33.6001 39.0473 35.7529 41.2001 38.4001 41.2001C41.0473 41.2001 43.2001 39.0473 43.2001 36.4001C43.2001 33.7529 41.0473 31.6001 38.4001 31.6001ZM38.4001 39.6001C36.6353 39.6001 35.2001 38.1648 35.2001 36.4001C35.2001 34.6353 36.6353 33.2001 38.4001 33.2001C40.1649 33.2001 41.6001 34.6353 41.6001 36.4001C41.6001 38.1648 40.1649 39.6001 38.4001 39.6001Z" fill="#A72B2A"/>
<path d="M47.8727 27.1671L40.6727 15.9671C40.5255 15.7382 40.2719 15.5999 39.9998 15.5999H31.1999C30.7575 15.5999 30.3999 15.9583 30.3999 16.3998V36.3998C30.3999 36.8422 30.7575 37.1998 31.1999 37.1998H34.3998V35.5997H31.9998V17.1999H39.563L46.3998 27.8351V35.5999H42.3998V37.1999H47.1998C47.6422 37.1999 47.9998 36.8423 47.9998 36.3999V27.5999C47.9999 27.447 47.9559 27.2958 47.8727 27.1671Z" fill="#A72B2A"/>
<path d="M35.2 26.0001V20.4001H41.6001V18.8H34.4001C33.9577 18.8 33.6001 19.1585 33.6001 19.6V26.8C33.6001 27.2424 33.9577 27.6 34.4001 27.6H46.4001V26H35.2V26.0001Z" fill="#A72B2A"/>
<path d="M31.2 10H0.799969C0.358406 10 0 10.3584 0 10.8V36.4C0 36.8424 0.358406 37.2 0.799969 37.2H7.2V35.5999H1.60003V11.5999H30.4V35.5999H15.2V37.2H31.2C31.6424 37.2 32 36.8424 32 36.4V10.8C32 10.3584 31.6424 10 31.2 10Z" fill="#A72B2A"/>
<path d="M5.60005 32.3999H0.800049V33.9999H5.60005V32.3999Z" fill="#A72B2A"/>
<path d="M30.4001 32.3999H16.8V33.9999H30.4001V32.3999Z" fill="#A72B2A"/>
<path d="M47.2 32.3999H44V33.9999H47.2V32.3999Z" fill="#A72B2A"/>
<path d="M31.2 13.2H3.19995V14.8H31.2V13.2Z" fill="#A72B2A"/>
<path d="M11.9999 35.6001H10.3999V37.2001H11.9999V35.6001Z" fill="#A72B2A"/>
<path d="M39.2001 35.6001H37.6001V37.2001H39.2001V35.6001Z" fill="#A72B2A"/>
<path d="M14.4 6.80005H3.19995V8.40008H14.4V6.80005Z" fill="#A72B2A"/>
<path d="M1.60003 6.80005H0V8.40008H1.60003V6.80005Z" fill="#A72B2A"/>
</svg>
