<svg width="48" height="48" viewBox="0 0 48 48" fill="none" xmlns="http://www.w3.org/2000/svg">
<g clip-path="url(#clip0)">
<path d="M45.6956 36.688H43.5008V3.75976C43.5008 3.37145 43.1859 3.05664 42.7976 3.05664H40.3321C39.9438 3.05664 39.629 3.37145 39.629 3.75976C39.629 4.14808 39.9438 4.46289 40.3321 4.46289H42.0945V20.9993H22.2299V4.46289H36.9421C37.3304 4.46289 37.6452 4.14808 37.6452 3.75976C37.6452 3.37145 37.3304 3.05664 36.9421 3.05664H21.5268C21.1385 3.05664 20.8237 3.37145 20.8237 3.75976V36.688H19.576V35.1984C19.576 34.2376 19.1241 33.3808 18.4222 32.8278L16.0181 5.70264C15.9959 5.45167 15.841 5.23173 15.6122 5.12626C15.6122 5.12626 4.79992 -0.00926869 3.97839 1.25651e-05C2.66757 1.25651e-05 1.60107 1.06651 1.60107 2.37742C1.60107 3.31932 2.15776 4.17282 3.01857 4.55176L11.2499 8.18495L11.7232 13.1623C11.7599 13.549 12.1029 13.8329 12.4897 13.7957C12.8763 13.759 13.1598 13.4157 13.123 13.0292L12.6108 7.64158C12.5867 7.38826 12.4276 7.16767 12.1948 7.06492L6.65954 4.62161V2.54636L14.6533 6.23261L16.9554 32.2077C16.3163 32.1233 15.5576 32.1674 14.9664 32.4173L13.4385 16.3469C13.4018 15.9604 13.059 15.6772 12.672 15.7135C12.2854 15.7503 12.0019 16.0935 12.0386 16.48L13.6554 33.4849C13.318 33.972 13.1198 34.5624 13.1198 35.1984V40.557C13.1198 40.9453 13.4346 41.2601 13.8229 41.2601H16.7601C16.8196 41.9875 16.9752 42.6185 17.2252 43.1504C17.0794 43.5477 17.0025 43.9719 17.0025 44.3963C17.0025 46.3834 18.6191 48 20.6063 48C22.5934 48 24.21 46.3834 24.21 44.3963C24.21 43.053 23.4708 41.8798 22.3782 41.2601H37.1168C37.1763 41.9876 37.332 42.6187 37.5819 43.1506C37.4363 43.5478 37.3594 43.972 37.3594 44.3963C37.3594 46.3834 38.976 48 40.9631 48C42.9503 48 44.5669 46.3834 44.5669 44.3963C44.5669 43.053 43.8277 41.8798 42.7351 41.2601H45.6957C46.084 41.2601 46.3988 40.9453 46.3988 40.557V37.3911C46.3988 37.0028 46.0839 36.688 45.6956 36.688ZM5.25329 4.0007L3.58614 3.26495C2.59567 2.91357 3.05514 1.13008 4.19251 1.43139C4.21089 1.40701 5.19648 1.87342 5.2532 1.89789V4.0007H5.25329ZM33.8817 22.4054V27.8731H30.4427V22.4054H33.8817ZM16.5583 33.587C17.4469 33.587 18.1698 34.3099 18.1698 35.1984V36.688H14.5259V35.1984C14.5259 34.3099 15.2488 33.587 16.1374 33.587H16.5583ZM19.9032 43.6608C19.3437 43.5619 18.8969 43.2403 18.6025 42.7531C18.3757 42.3689 18.2308 41.8705 18.1704 41.2601H19.9033V43.6608H19.9032ZM20.6062 46.5938C19.4487 46.5938 18.498 45.694 18.4152 44.5573C19.1095 45.0131 19.8451 45.0978 20.2947 45.0978C20.5427 45.0978 20.7038 45.0721 20.723 45.0688C21.0615 45.0119 21.3095 44.7188 21.3095 44.3755V42.3148C22.1772 42.6088 22.8037 43.4305 22.8037 44.3963C22.8037 45.608 21.8179 46.5938 20.6062 46.5938ZM40.2599 43.6608C39.6954 43.561 39.2564 43.2376 38.9571 42.7494C38.7315 42.3657 38.5873 41.8686 38.5269 41.2601H40.2599V43.6608ZM40.963 46.5938C39.8056 46.5938 38.855 45.6941 38.7721 44.5574C39.4664 45.0131 40.2019 45.0978 40.6514 45.0978C40.8994 45.0978 41.0604 45.0721 41.0797 45.0688C41.4182 45.0119 41.6662 44.7188 41.6662 44.3755V42.3147C42.5339 42.6086 43.1605 43.4304 43.1605 44.3962C43.1605 45.608 42.1748 46.5938 40.963 46.5938ZM44.9925 39.8539H14.5259V38.0942H24.5758C24.9641 38.0942 25.2789 37.7794 25.2789 37.3911C25.2789 37.0028 24.9641 36.688 24.5758 36.688H22.2299V22.4054H29.0364V28.5762C29.0364 28.9645 29.3513 29.2794 29.7396 29.2794H34.5849C34.9732 29.2794 35.288 28.9645 35.288 28.5762V22.4054H42.0945V36.688H27.8803C27.492 36.688 27.1772 37.0028 27.1772 37.3911C27.1772 37.7794 27.492 38.0942 27.8803 38.0942H44.9925V39.8539Z" fill="#A72B2A"/>
<path d="M30.4622 6.90503C30.4622 6.51672 30.1474 6.2019 29.7591 6.2019H25.1875C24.7992 6.2019 24.4844 6.51672 24.4844 6.90503C24.4844 7.29334 24.7992 7.60815 25.1875 7.60815H29.7591C30.1474 7.60815 30.4622 7.29334 30.4622 6.90503Z" fill="#A72B2A"/>
<path d="M25.1875 9.03418C24.7992 9.03418 24.4844 9.34899 24.4844 9.7373C24.4844 10.1256 24.7992 10.4404 25.1875 10.4404H27.2023C27.5906 10.4404 27.9054 10.1256 27.9054 9.7373C27.9054 9.34899 27.5906 9.03418 27.2023 9.03418H25.1875Z" fill="#A72B2A"/>
</g>
<defs>
<clipPath id="clip0">
<rect width="48" height="48" fill="white"/>
</clipPath>
</defs>
</svg>
