<svg width="52" height="96" viewBox="0 0 52 96" fill="none" xmlns="http://www.w3.org/2000/svg">
<path fill-rule="evenodd" clip-rule="evenodd" d="M1.62267 1.22924C1.28129 1.57004 1.01045 1.97491 0.825653 2.42064C0.640854 2.86637 0.545731 3.34422 0.545731 3.8268C0.545731 4.30938 0.640854 4.78723 0.825653 5.23296C1.01045 5.67869 1.28129 6.08356 1.62267 6.42437L43.0231 47.8533L1.62267 89.2822C0.934345 89.9712 0.547653 90.9055 0.547653 91.8798C0.547653 92.8541 0.934345 93.7884 1.62267 94.4774C2.31099 95.1663 3.24455 95.5533 4.21798 95.5533C5.19142 95.5533 6.12498 95.1663 6.8133 94.4774L50.8017 50.4509C51.1431 50.1101 51.4139 49.7052 51.5987 49.2595C51.7835 48.8137 51.8787 48.3359 51.8787 47.8533C51.8787 47.3707 51.7835 46.8929 51.5987 46.4471C51.4139 46.0014 51.1431 45.5965 50.8017 45.2557L6.8133 1.22924C6.47279 0.887568 6.06827 0.616491 5.62292 0.431532C5.17758 0.246573 4.70015 0.151367 4.21798 0.151367C3.73582 0.151367 3.25839 0.246573 2.81304 0.431532C2.36769 0.616491 1.96318 0.887568 1.62267 1.22924Z" fill="#EDEDED"/>
</svg>
