<svg width="20" height="18" viewBox="0 0 20 18" fill="none" xmlns="http://www.w3.org/2000/svg">
<path d="M0.666672 1.52588e-05C0.298469 1.52588e-05 0 0.292729 0 0.653809C0 1.01489 0.298469 1.3076 0.666672 1.3076H2.88198C3.98536 3.98761 5.0722 6.67252 6.16671 9.35743L5.15977 11.7342C5.07542 11.9324 5.09915 12.1714 5.22091 12.3498C5.34269 12.5283 5.55887 12.6409 5.77782 12.64H16.889C17.2412 12.6448 17.5652 12.3317 17.5652 11.9862C17.5652 11.6408 17.2412 11.3276 16.889 11.3324H6.77783L7.35424 9.98399L18.0557 9.14631C18.3358 9.12474 18.5894 8.91075 18.6529 8.64235L19.9863 2.97614C20.0735 2.59449 19.7323 2.17805 19.3335 2.17933H4.67364L3.95141 0.408636C3.85252 0.168951 3.59701 2.17967e-05 3.33336 1.52588e-05H0.666672ZM5.20837 3.48691H18.4932L17.4585 7.8864L7.32646 8.6764L5.20837 3.48691ZM8.00006 13.5118C6.78065 13.5118 5.77782 14.4952 5.77782 15.6911C5.77782 16.8869 6.78065 17.8704 8.00006 17.8704C9.21947 17.8704 10.2223 16.8869 10.2223 15.6911C10.2223 14.4952 9.21947 13.5118 8.00006 13.5118ZM14.6668 13.5118C13.4474 13.5118 12.4445 14.4952 12.4445 15.6911C12.4445 16.8869 13.4474 17.8704 14.6668 17.8704C15.8862 17.8704 16.889 16.8869 16.889 15.6911C16.889 14.4952 15.8862 13.5118 14.6668 13.5118ZM8.00006 14.8193C8.49889 14.8193 8.88896 15.2019 8.88896 15.6911C8.88896 16.1803 8.49889 16.5628 8.00006 16.5628C7.50128 16.5628 7.11117 16.1802 7.11117 15.6911C7.11117 15.2019 7.50128 14.8193 8.00006 14.8193ZM14.6668 14.8193C15.1656 14.8193 15.5557 15.2019 15.5557 15.6911C15.5557 16.1802 15.1656 16.5628 14.6668 16.5628C14.168 16.5628 13.7779 16.1803 13.7779 15.6911C13.7779 15.2019 14.168 14.8193 14.6668 14.8193Z" fill="#4F4F4F"/>
</svg>
