<svg width="22" height="20" viewBox="0 0 22 20" fill="none" xmlns="http://www.w3.org/2000/svg">
<path d="M10.5574 18.9481L10.5575 18.9481C10.684 19.0461 10.8395 19.0995 10.9997 19.1L11.0003 19.1C11.1605 19.0995 11.316 19.0461 11.4425 18.9481L11.4426 18.9481C14.922 16.251 17.3241 13.9246 19.007 11.6254L19.007 11.6253C21.1578 8.6828 21.6636 5.94231 20.4663 3.49627C19.6068 1.73655 17.1437 0.325439 14.2917 1.14291L14.2916 1.14295C12.9732 1.52288 11.8173 2.32349 11 3.42025C10.1827 2.32351 9.02688 1.52291 7.70848 1.14297C4.84964 0.312751 2.39301 1.73696 1.53367 3.49627C0.336424 5.94231 0.842191 8.6828 2.99299 11.6253L2.99303 11.6254C4.67594 13.9246 7.07801 16.251 10.5574 18.9481ZM6.07658 2.35548L6.07658 2.35553L6.07993 2.35555C6.49378 2.35775 6.90532 2.41728 7.30275 2.53243C7.95989 2.72339 8.56914 3.05075 9.09057 3.49302C9.61133 3.93473 10.0327 4.4811 10.3273 5.0964C10.3821 5.22799 10.4746 5.34051 10.5932 5.41983C10.7127 5.49969 10.8532 5.54232 10.9969 5.54232C11.1406 5.54232 11.2811 5.49969 11.4005 5.41983C11.5191 5.34055 11.6116 5.2281 11.6664 5.09658C11.9632 4.48278 12.3854 3.93765 12.9059 3.49618C13.4269 3.05423 14.0349 2.72596 14.6908 2.5325C16.7368 1.95834 18.5602 2.93363 19.1618 4.13358C20.1072 6.06307 19.6969 8.22948 17.8338 10.7702C15.868 13.2968 13.5693 15.547 11 17.4598C8.43032 15.5451 6.13158 13.2928 4.16621 10.764C2.31019 8.23063 1.89319 6.06501 2.83691 4.12998C3.16437 3.56941 3.63844 3.10813 4.20845 2.79552C4.77954 2.48232 5.42535 2.33019 6.07658 2.35548Z" fill="#4F4F4F" stroke="#4F4F4F" stroke-width="0.2"/>
</svg>
