<svg width="22" height="22" viewBox="0 0 22 22" fill="none" xmlns="http://www.w3.org/2000/svg">
<path d="M13.4671 10.9998L20.9921 3.49234C21.3217 3.1628 21.5068 2.71586 21.5068 2.24984C21.5068 1.78381 21.3217 1.33687 20.9921 1.00734C20.6626 0.677805 20.2157 0.492676 19.7496 0.492676C19.2836 0.492676 18.8367 0.677805 18.5072 1.00734L10.9996 8.53234L3.49215 1.00734C3.16262 0.677805 2.71568 0.492676 2.24965 0.492676C1.78362 0.492676 1.33668 0.677805 1.00715 1.00734C0.677617 1.33687 0.492489 1.78381 0.492489 2.24984C0.492488 2.71586 0.677617 3.1628 1.00715 3.49234L8.53215 10.9998L1.00715 18.5073C0.843124 18.67 0.712935 18.8636 0.624089 19.0768C0.535244 19.2901 0.489502 19.5188 0.489502 19.7498C0.489502 19.9809 0.535244 20.2096 0.624089 20.4228C0.712935 20.6361 0.843124 20.8296 1.00715 20.9923C1.16983 21.1564 1.36339 21.2866 1.57664 21.3754C1.78989 21.4642 2.01863 21.51 2.24965 21.51C2.48067 21.51 2.7094 21.4642 2.92266 21.3754C3.13591 21.2866 3.32946 21.1564 3.49215 20.9923L10.9996 13.4673L18.5072 20.9923C18.6698 21.1564 18.8634 21.2866 19.0766 21.3754C19.2899 21.4642 19.5186 21.51 19.7496 21.51C19.9807 21.51 20.2094 21.4642 20.4227 21.3754C20.6359 21.2866 20.8295 21.1564 20.9921 20.9923C21.1562 20.8296 21.2864 20.6361 21.3752 20.4228C21.4641 20.2096 21.5098 19.9809 21.5098 19.7498C21.5098 19.5188 21.4641 19.2901 21.3752 19.0768C21.2864 18.8636 21.1562 18.67 20.9921 18.5073L13.4671 10.9998Z" fill="black"/>
</svg>
