<svg width="10" height="13" viewBox="0 0 10 13" fill="none" xmlns="http://www.w3.org/2000/svg">
<path d="M5.09513 12.2882C4.25309 11.5699 3.47259 10.7825 2.7618 9.93418C1.69513 8.66018 0.428467 6.76285 0.428467 4.95485C0.427522 3.06654 1.56463 1.36377 3.30918 0.641112C5.05373 -0.0815499 7.06184 0.318341 8.39647 1.65418C9.27411 2.52792 9.76574 3.71644 9.76183 4.95485C9.76183 6.76285 8.49514 8.66018 7.42847 9.93418C6.71768 10.7825 5.93718 11.5699 5.09513 12.2882ZM5.09513 2.95485C4.3806 2.95485 3.72035 3.33605 3.36308 3.95485C3.00582 4.57365 3.00582 5.33605 3.36308 5.95485C3.72035 6.57365 4.3806 6.95485 5.09513 6.95485C6.1997 6.95485 7.09513 6.05942 7.09513 4.95485C7.09513 3.85028 6.1997 2.95485 5.09513 2.95485Z" fill="#2E72D3"/>
</svg>
