<svg width="103" height="103" viewBox="0 0 103 103" fill="none" xmlns="http://www.w3.org/2000/svg">
<path d="M57.493 22.2545C57.1736 22.5739 56.9942 23.0071 56.9942 23.4589C56.9942 23.9106 57.1736 24.3438 57.493 24.6632C57.8125 24.9826 58.2457 25.162 58.6974 25.162C59.1491 25.162 59.5823 24.9826 59.9017 24.6632L60.022 24.5429C61.6599 25.6246 63.6211 26.1075 65.574 25.9098C67.5269 25.7121 69.3516 24.8461 70.7395 23.4582C72.1274 22.0702 72.9935 20.2455 73.1911 18.2927C73.3888 16.3398 72.9059 14.3786 71.8242 12.7407L71.9445 12.6204C72.1027 12.4622 72.2281 12.2745 72.3137 12.0678C72.3993 11.8612 72.4434 11.6397 72.4434 11.4161C72.4434 11.1924 72.3993 10.9709 72.3137 10.7643C72.2281 10.5577 72.1027 10.3699 71.9445 10.2117C71.7864 10.0536 71.5986 9.92813 71.392 9.84254C71.1853 9.75695 70.9638 9.71289 70.7402 9.71289C70.5165 9.71289 70.295 9.75695 70.0884 9.84254C69.8818 9.92813 69.694 10.0536 69.5359 10.2117L69.4156 10.332C67.7777 9.25032 65.8165 8.76747 63.8636 8.96512C61.9107 9.16277 60.086 10.0288 58.6981 11.4167C57.3101 12.8047 56.4441 14.6294 56.2464 16.5823C56.0488 18.5351 56.5316 20.4964 57.6133 22.1343L57.493 22.2545ZM69.8282 17.4375C69.83 18.1087 69.6986 18.7736 69.4418 19.3937C69.1849 20.0138 68.8076 20.5769 68.3317 21.0502C67.5841 21.7969 66.6236 22.2938 65.5822 22.4727C64.5408 22.6517 63.4696 22.5038 62.5156 22.0495L69.3311 15.234C69.6597 15.922 69.8295 16.675 69.8282 17.4375ZM59.6094 17.4375C59.6101 16.5744 59.8293 15.7256 60.2464 14.9701C60.6635 14.2146 61.2651 13.577 61.9951 13.1166C62.725 12.6562 63.5596 12.388 64.4211 12.3371C65.2827 12.2861 66.1431 12.454 66.9222 12.8252L60.1065 19.6409C59.7779 18.9529 59.608 18.1999 59.6094 17.4375Z" fill="#95AC8F"/>
<path d="M97.0781 37.875H81.75V34.4688H86.8594C87.3111 34.4688 87.7443 34.2893 88.0637 33.9699C88.3831 33.6505 88.5625 33.2173 88.5625 32.7656V2.10938C88.5625 1.65768 88.3831 1.22448 88.0637 0.905084C87.7443 0.585686 87.3111 0.40625 86.8594 0.40625H1.70312C1.25143 0.40625 0.818232 0.585686 0.498834 0.905084C0.179436 1.22448 0 1.65768 0 2.10938V100.891C0 101.342 0.179436 101.776 0.498834 102.095C0.818232 102.414 1.25143 102.594 1.70312 102.594H93.6719C94.1236 102.594 94.5568 102.414 94.8762 102.095C95.1956 101.776 95.375 101.342 95.375 100.891V90.6719C95.3725 88.4142 94.4745 86.2497 92.878 84.6532C91.2816 83.0568 89.1171 82.1588 86.8594 82.1562H79.8274C80.7643 81.4883 81.6316 80.7276 82.4161 79.8858C82.7589 79.5176 83.0829 79.139 83.3882 78.75H90.2656C91.6202 78.7484 92.9189 78.2096 93.8768 77.2518C94.8346 76.2939 95.3734 74.9952 95.375 73.6406V68.5312C95.3734 67.1766 94.8346 65.878 93.8768 64.9201C92.9189 63.9623 91.6202 63.4235 90.2656 63.4219H88.5399C88.6166 62.2474 88.6227 61.0694 88.558 59.8943C88.5273 59.4647 88.3351 59.0627 88.0199 58.7692C87.7047 58.4757 87.29 58.3125 86.8594 58.3125H49.3906C48.96 58.3125 48.5453 58.4757 48.2301 58.7692C47.9149 59.0627 47.7227 59.4647 47.692 59.8943C47.6556 60.4022 46.883 72.421 53.8339 79.8847C54.6183 80.7269 55.4856 81.4879 56.4226 82.1562H44.2812V34.4688H47.6875V39.5781C47.6875 40.0298 47.8669 40.463 48.1863 40.7824C48.5057 41.1018 48.9389 41.2812 49.3906 41.2812H51.0938V49.7969C51.0938 50.2486 51.2732 50.6818 51.5926 51.0012C51.912 51.3206 52.3452 51.5 52.7969 51.5H61.3125V53.2031C61.3125 53.6548 61.4919 54.088 61.8113 54.4074C62.1307 54.7268 62.5639 54.9062 63.0156 54.9062C63.4673 54.9062 63.9005 54.7268 64.2199 54.4074C64.5393 54.088 64.7188 53.6548 64.7188 53.2031V51.5H73.2344C73.6861 51.5 74.1193 51.3206 74.4387 51.0012C74.7581 50.6818 74.9375 50.2486 74.9375 49.7969V48.0938H97.0781C98.4332 48.0938 99.7328 47.5554 100.691 46.5972C101.649 45.6391 102.188 44.3395 102.188 42.9844C102.188 41.6293 101.649 40.3297 100.691 39.3715C99.7328 38.4133 98.4332 37.875 97.0781 37.875ZM85.1562 31.0625H44.2812V3.8125H85.1562V31.0625ZM3.40625 99.1875V95.7812H91.9688V99.1875H3.40625ZM88.1793 66.8281H90.2656C90.7172 66.8286 91.1501 67.0082 91.4694 67.3275C91.7887 67.6468 91.9682 68.0797 91.9688 68.5312V73.6406C91.9682 74.0922 91.7887 74.5251 91.4694 74.8444C91.1501 75.1637 90.7172 75.3432 90.2656 75.3438H85.5509C87.0041 72.4806 87.7765 69.445 88.1793 66.8281ZM85.1869 61.7188C85.1703 62.8572 85.0959 63.9941 84.964 65.125H51.2917C51.1592 63.9941 51.0835 62.8572 51.065 61.7188H85.1869ZM56.3377 77.5761C53.9122 74.9771 52.5908 71.6116 51.878 68.5312H84.3792C83.6673 71.6028 82.3484 74.9605 79.9232 77.5646C77.0862 80.6113 73.1166 82.1562 68.125 82.1562C63.1395 82.1562 59.1736 80.6153 56.3377 77.5761ZM86.8594 85.5625C88.214 85.5641 89.5126 86.1029 90.4705 87.0607C91.4284 88.0186 91.9672 89.3173 91.9688 90.6719V92.375H3.40625V3.8125H40.875V83.8594C40.875 84.3111 41.0544 84.7443 41.3738 85.0637C41.6932 85.3831 42.1264 85.5625 42.5781 85.5625H86.8594ZM78.3438 34.4688V37.875H51.0938V34.4688H78.3438ZM71.5312 48.0938H54.5V41.2812H71.5312V48.0938ZM74.9375 41.2812H78.3438V44.6875H74.9375V41.2812ZM97.0781 44.6875H81.75V41.2812H97.0781C97.5298 41.2812 97.963 41.4607 98.2824 41.7801C98.6018 42.0995 98.7812 42.5327 98.7812 42.9844C98.7812 43.4361 98.6018 43.8693 98.2824 44.1887C97.963 44.5081 97.5298 44.6875 97.0781 44.6875Z" fill="#95AC8F"/>
</svg>

