<svg width="104" height="103" viewBox="0 0 104 103" fill="none" xmlns="http://www.w3.org/2000/svg">
<path d="M91.5771 92.7H12.6104C11.6624 92.7 10.8938 91.9314 10.8938 90.9833C10.8938 90.0353 10.1251 89.2667 9.17712 89.2667C8.22909 89.2667 7.46045 90.0353 7.46045 90.9833C7.46045 93.8274 9.76638 96.1333 12.6104 96.1333H91.5771C94.4212 96.1333 96.7271 93.8274 96.7271 90.9833C96.7271 90.0353 95.9585 89.2667 95.0105 89.2667C94.0624 89.2667 93.2938 90.0353 93.2938 90.9833C93.2938 91.9314 92.5251 92.7 91.5771 92.7Z" fill="#95AC8F"/>
<path d="M101.877 82.4H95.0104V77.25C95.0104 76.302 94.2418 75.5333 93.2938 75.5333H70.366C73.5387 72.9818 75.5755 69.2794 76.0307 65.2333H77.8438C82.5839 65.2333 86.4271 61.3901 86.4271 56.65C86.4271 51.9099 82.5839 48.0667 77.8438 48.0667H76.1271V46.35C76.1271 45.402 75.3584 44.6333 74.4104 44.6333H46.9438C45.9957 44.6333 45.2271 45.402 45.2271 46.35V63.5167C45.2279 68.188 47.3469 72.6071 50.9881 75.5333H41.7938V24.0333H46.9438V25.75C46.9496 30.4884 50.7886 34.3275 55.5271 34.3333V39.4833C55.5271 40.4314 56.2957 41.2 57.2438 41.2H64.1104C65.0584 41.2 65.8271 40.4314 65.8271 39.4833V34.3333C67.6703 34.33 69.4633 33.7273 70.9343 32.6167H70.9771H82.9938V34.3333C82.9938 35.2814 83.7624 36.05 84.7104 36.05H98.4437C101.288 36.05 103.594 33.7441 103.594 30.9C103.594 28.0559 101.288 25.75 98.4437 25.75H84.7104C83.7624 25.75 82.9938 26.5186 82.9938 27.4667V29.1833H73.6828C74.1615 28.102 74.4096 26.9327 74.4104 25.75V24.0333H86.4271C87.3751 24.0333 88.1438 23.2647 88.1438 22.3167V15.45C88.1345 6.92115 81.2226 0.00922039 72.6937 0H2.31042C1.36239 0 0.59375 0.768644 0.59375 1.71667V90.9833C0.601294 97.617 5.97677 102.992 12.6104 103H91.5771C98.2107 102.992 103.586 97.617 103.594 90.9833V84.1167C103.594 83.1686 102.825 82.4 101.877 82.4ZM86.4271 29.1833H98.4437C99.3918 29.1833 100.16 29.952 100.16 30.9C100.16 31.848 99.3918 32.6167 98.4437 32.6167H86.4271V29.1833ZM77.8438 51.5C80.6878 51.5 82.9938 53.8059 82.9938 56.65C82.9938 59.4941 80.6878 61.8 77.8438 61.8H76.1271V51.5H77.8438ZM72.6937 48.0667V52.702L72.2026 52.5813C68.9964 51.8043 65.6435 51.8789 62.4742 52.7959L59.0836 53.7816C56.6981 54.4715 54.1817 54.5796 51.7451 54.096L48.6554 53.4774V48.0667H72.6937ZM48.6604 63.5167V56.9811L51.0636 57.4639C54.0418 58.0557 57.118 57.9241 60.035 57.0808L63.4256 56.0951C66.0182 55.3457 68.7617 55.2862 71.3836 55.9241L72.687 56.2401V63.5167C72.687 70.1537 67.3065 75.5333 60.6704 75.5333C54.0334 75.5333 48.6537 70.1537 48.6537 63.5167H48.6604ZM91.5771 78.9667V82.4H41.7938V78.9667H91.5771ZM62.3938 37.7667H58.9604V34.3333H62.3938V37.7667ZM70.9771 25.75C70.9771 28.5941 68.6712 30.9 65.8271 30.9H55.5271C52.683 30.9 50.3771 28.5941 50.3771 25.75V24.0333H70.9771V25.75ZM4.02708 3.43333H72.6937C79.3274 3.44088 84.7029 8.81636 84.7104 15.45V20.6H40.0771C39.1291 20.6 38.3604 21.3686 38.3604 22.3167V82.4H4.02708V3.43333ZM100.16 90.9833C100.155 95.7218 96.3155 99.5608 91.5771 99.5667H12.6104C7.87198 99.5608 4.03295 95.7218 4.02708 90.9833V85.8333H100.16V90.9833Z" fill="#95AC8F"/>
<path d="M26.344 34.3333H16.044C13.2 34.3333 10.894 36.6392 10.894 39.4833V70.3833C10.894 73.2274 13.2 75.5333 16.044 75.5333H26.344C29.1881 75.5333 31.494 73.2274 31.494 70.3833V39.4833C31.494 36.6392 29.1881 34.3333 26.344 34.3333ZM28.0607 70.3833C28.0607 71.3313 27.2921 72.1 26.344 72.1H16.044C15.096 72.1 14.3274 71.3313 14.3274 70.3833V39.4833C14.3274 38.5353 15.096 37.7666 16.044 37.7666H26.344C27.2921 37.7666 28.0607 38.5353 28.0607 39.4833V70.3833Z" fill="#95AC8F"/>
<path d="M21.1935 41.2C18.3494 41.2 16.0435 43.5059 16.0435 46.35C16.0435 49.1941 18.3494 51.5 21.1935 51.5C24.0375 51.5 26.3435 49.1941 26.3435 46.35C26.3435 43.5059 24.0375 41.2 21.1935 41.2ZM21.1935 48.0667C20.2454 48.0667 19.4768 47.298 19.4768 46.35C19.4768 45.402 20.2454 44.6333 21.1935 44.6333C22.1415 44.6333 22.9101 45.402 22.9101 46.35C22.9101 47.298 22.1415 48.0667 21.1935 48.0667Z" fill="#95AC8F"/>
<path d="M21.1935 56.65C18.3494 56.65 16.0435 58.956 16.0435 61.8C16.0435 64.6441 18.3494 66.95 21.1935 66.95C24.0375 66.95 26.3435 64.6441 26.3435 61.8C26.3435 58.956 24.0375 56.65 21.1935 56.65ZM21.1935 63.5167C20.2454 63.5167 19.4768 62.748 19.4768 61.8C19.4768 60.852 20.2454 60.0834 21.1935 60.0834C22.1415 60.0834 22.9101 60.852 22.9101 61.8C22.9101 62.748 22.1415 63.5167 21.1935 63.5167Z" fill="#95AC8F"/>
<path d="M16.0438 13.7333H70.9771C71.9252 13.7333 72.6938 12.9647 72.6938 12.0167C72.6938 11.0686 71.9252 10.3 70.9771 10.3H16.0438C15.0958 10.3 14.3271 11.0686 14.3271 12.0167C14.3271 12.9647 15.0958 13.7333 16.0438 13.7333Z" fill="#95AC8F"/>
<path d="M76.1268 13.7333H77.8435C78.7915 13.7333 79.5602 12.9647 79.5602 12.0167C79.5602 11.0686 78.7915 10.3 77.8435 10.3H76.1268C75.1788 10.3 74.4102 11.0686 74.4102 12.0167C74.4102 12.9647 75.1788 13.7333 76.1268 13.7333Z" fill="#95AC8F"/>
<path d="M12.6105 12.0167C12.6105 11.0686 11.8418 10.3 10.8938 10.3H9.17712C8.22909 10.3 7.46045 11.0686 7.46045 12.0167C7.46045 12.9647 8.22909 13.7333 9.17712 13.7333H10.8938C11.8418 13.7333 12.6105 12.9647 12.6105 12.0167Z" fill="#95AC8F"/>
</svg>
