 <svg width="110" height="109" viewBox="0 0 110 109" fill="none" xmlns="http://www.w3.org/2000/svg">
<path d="M106.4 0H3.78711C2.0265 0 0.59375 1.43275 0.59375 3.19336V6.38672C0.59375 8.14732 2.0265 9.58008 3.78711 9.58008H100.014C100.895 9.58008 101.61 8.86477 101.61 7.9834C101.61 7.10203 100.895 6.38672 100.014 6.38672H3.78711V3.19336H106.4V6.38672C105.519 6.38672 104.804 7.10416 104.804 7.9834C104.804 8.86477 105.519 9.58008 106.4 9.58008C108.046 9.57795 109.411 8.34318 109.577 6.71244C109.579 6.69328 109.581 6.67625 109.583 6.65709C109.589 6.56342 109.594 6.474 109.594 6.38672V3.19336C109.594 1.43275 108.161 0 106.4 0Z" fill="#95AC8F"/>
<path d="M106.4 99.4199H98.8332V89.4317C98.8332 87.798 97.8467 86.3904 96.4382 85.7734V80.65C96.4382 79.7682 95.7235 79.0533 94.8415 79.0533H88.4548C87.5728 79.0533 86.8581 79.7682 86.8581 80.65V85.7734C85.4496 86.3904 84.4631 87.798 84.4631 89.4317V99.4199H76.8024V94.0268C76.8024 92.8009 76.339 91.6816 75.5787 90.8334C76.339 89.9852 76.8024 88.8659 76.8024 87.64V83.8436C76.8024 81.2022 74.6535 79.0535 72.0124 79.0535H61.4805C60.2546 79.0535 59.1353 79.517 58.2871 80.277C57.439 79.5168 56.3198 79.0535 55.0938 79.0535H44.562C43.3362 79.0535 42.2168 79.517 41.3687 80.2772C40.5205 79.517 39.4012 79.0535 38.1753 79.0535H27.6436C26.4178 79.0535 25.2984 79.517 24.4503 80.2772C23.6021 79.517 22.4827 79.0535 21.2569 79.0535H10.7252C8.08388 79.0535 5.93518 81.2022 5.93518 83.8436V87.64C5.93518 88.8659 6.39864 89.9852 7.15866 90.8334C6.39843 91.6816 5.93518 92.8009 5.93518 94.0268V99.4199H3.78711C2.0265 99.4199 0.59375 100.853 0.59375 102.613V105.807C0.59375 105.898 0.598008 105.99 0.604395 106.077C0.67252 106.873 1.03443 107.612 1.62201 108.153C2.21172 108.698 2.98025 108.998 3.78711 109C4.66848 109 5.38379 108.285 5.38379 107.403C5.38379 106.524 4.66848 105.809 3.78924 105.807C3.78711 105.807 3.78711 105.805 3.78711 105.805V102.613H7.53207H24.4505H41.3689H58.2871H75.2057H86.0598H97.2365H106.4V105.807H10.1738C9.29246 105.807 8.57715 106.522 8.57715 107.403C8.57715 108.285 9.29246 109 10.1738 109H106.4C108.161 109 109.594 107.567 109.594 105.807V102.613C109.594 100.853 108.161 99.4199 106.4 99.4199ZM61.4805 82.2467H72.0124C72.8929 82.2467 73.6091 82.9628 73.6091 83.8434V87.6398C73.6091 88.5203 72.8929 89.2365 72.0124 89.2365H59.8838V83.8434C59.8838 82.9628 60.6 82.2467 61.4805 82.2467ZM44.5623 82.2467H55.0938C55.9741 82.2467 56.6904 82.9628 56.6904 83.8434V89.2365H42.9656V83.8434C42.9656 82.9628 43.6817 82.2467 44.5623 82.2467ZM26.0472 92.4301H39.7722V99.4199H26.0472V92.4301ZM27.6438 82.2467H38.1755C39.0561 82.2467 39.7722 82.9628 39.7722 83.8434V89.2365H26.0472V83.8434C26.0472 82.9628 26.7633 82.2467 27.6438 82.2467ZM9.12875 83.8434C9.12875 82.9628 9.84491 82.2467 10.7254 82.2467H21.2571C22.1376 82.2467 22.8538 82.9628 22.8538 83.8434V89.2365H10.7254C9.84491 89.2365 9.12875 88.5203 9.12875 87.6398V83.8434ZM9.12875 99.4199V94.0268C9.12875 93.1462 9.84491 92.4301 10.7254 92.4301H22.8538V99.4199H9.12875ZM42.9656 92.4301H56.6904V99.4199H42.9656V92.4301ZM59.8838 99.4199V92.4301H72.0124C72.8929 92.4301 73.6091 93.1462 73.6091 94.0268V99.4199H59.8838ZM87.6564 99.4199V89.4317C87.6564 88.9915 88.0147 88.6334 88.4548 88.6334C89.3368 88.6334 90.0515 87.9185 90.0515 87.0367V82.2467H93.2448V87.0367C93.2448 87.9185 93.9595 88.6334 94.8415 88.6334C95.2815 88.6334 95.6398 88.9915 95.6398 89.4317V99.4199H87.6564Z" fill="#95AC8F"/>
<path d="M106.4 33.1407H104.422V23.1519C104.422 21.5181 103.435 20.1105 102.027 19.4935V14.3701C102.027 13.4883 101.312 12.7734 100.43 12.7734H94.0432C93.1611 12.7734 92.4465 13.4883 92.4465 14.3701V19.4935C91.038 20.1105 90.0515 21.5181 90.0515 23.1519V33.1407H86.8581V23.1519C86.8581 21.5181 85.8716 20.1105 84.4631 19.4935V14.3701C84.4631 13.4883 83.7484 12.7734 82.8664 12.7734H76.4797C75.5977 12.7734 74.883 13.4883 74.883 14.3701V19.4935C73.4745 20.1105 72.488 21.5181 72.488 23.1519V33.1407H69.2946V14.3701C69.2946 13.4883 68.5799 12.7734 67.6979 12.7734H51.844C50.9622 12.7734 50.2473 13.4883 50.2473 14.3701V33.1407H47.0539V14.3701C47.0539 13.4883 46.3391 12.7734 45.4573 12.7734H29.6033C28.7215 12.7734 28.0066 13.4883 28.0066 14.3701V33.1407H24.8133V14.3701C24.8133 13.4883 24.0984 12.7734 23.2166 12.7734H7.36261C6.48081 12.7734 5.76593 13.4883 5.76593 14.3701V33.1407H3.78711C2.0265 33.1407 0.59375 34.5734 0.59375 36.334V39.5274C0.59375 39.6189 0.598008 39.7105 0.604395 39.7978C0.67252 40.594 1.03443 41.3306 1.62201 41.8735C2.21172 42.4185 2.98025 42.7186 3.78711 42.7208C4.66848 42.7208 5.38379 42.0033 5.38379 41.1241C5.38379 40.2427 4.66848 39.5274 3.78924 39.5274C3.78711 39.5253 3.78711 39.5253 3.78711 39.5253V36.334H106.4V39.5274H10.1738C9.29246 39.5274 8.57715 40.2427 8.57715 41.1241C8.57715 42.0033 9.29246 42.7208 10.1738 42.7208H10.1781H106.4C108.161 42.7186 109.594 41.2859 109.594 39.5274V36.334C109.594 34.5734 108.161 33.1407 106.4 33.1407ZM93.2448 23.1519C93.2448 22.7116 93.6031 22.3535 94.0432 22.3535C94.9252 22.3535 95.6398 21.6386 95.6398 20.7568V15.9668H98.8332V20.7568C98.8332 21.6386 99.5479 22.3535 100.43 22.3535C100.87 22.3535 101.228 22.7116 101.228 23.1519V33.14H93.2448V23.1519ZM75.6813 23.1519C75.6813 22.7116 76.0396 22.3535 76.4797 22.3535C77.3617 22.3535 78.0764 21.6386 78.0764 20.7568V15.9668H81.2697V20.7568C81.2697 21.6386 81.9844 22.3535 82.8664 22.3535C83.3064 22.3535 83.6647 22.7116 83.6647 23.1519V33.14H75.6813V23.1519ZM53.4407 15.9668H66.1013V33.14H53.4407V15.9668ZM31.2 15.9668H43.8606V33.14H31.2V15.9668ZM8.95929 15.9668H21.6199V33.14H8.95929V15.9668Z" fill="#95AC8F"/>
<path d="M106.4 66.2792H104.252V54.9613C104.252 52.32 102.103 50.1713 99.4621 50.1713H92.1237C90.8979 50.1713 89.7785 50.6348 88.9304 51.395C88.0822 50.6348 86.9628 50.1713 85.737 50.1713H78.3989C77.1731 50.1713 76.0537 50.6348 75.2055 51.395C74.3574 50.6348 73.238 50.1713 72.0122 50.1713H64.6738C62.0327 50.1713 59.8838 52.32 59.8838 54.9613V66.2792H56.6904V50.7033C56.6904 48.062 54.5417 45.9133 51.9004 45.9133H42.4331C41.2073 45.9133 40.0879 46.3767 39.2398 47.1367C38.3916 46.3765 37.2723 45.9133 36.0464 45.9133H26.5792C25.3534 45.9133 24.234 46.3767 23.3858 47.1367C22.5377 46.3765 21.4183 45.9133 20.1925 45.9133H10.7252C8.08388 45.9133 5.93518 48.062 5.93518 50.7033V66.2792H3.78711C2.0265 66.2814 0.59375 67.7141 0.59375 69.4726V72.6659C0.59375 74.4265 2.0265 75.8593 3.78711 75.8593H100.014C100.895 75.8593 101.61 75.144 101.61 74.2626C101.61 73.3834 100.895 72.6659 100.014 72.6659H3.78711V69.4726H7.51759C7.52249 69.4726 7.52717 69.4732 7.53207 69.4732H23.386H39.24H55.094C55.0989 69.4732 55.1035 69.4726 55.1084 69.4726H61.4664C61.4713 69.4726 61.476 69.4732 61.4809 69.4732H75.2059H88.9308H102.656C102.661 69.4732 102.665 69.4726 102.67 69.4726H106.4V72.6659C105.519 72.6659 104.804 73.3834 104.804 74.2626C104.804 75.144 105.519 75.8593 106.4 75.8593C108.046 75.8572 109.411 74.6245 109.577 72.9917C109.579 72.9746 109.581 72.9555 109.583 72.9384C109.589 72.8448 109.594 72.7532 109.594 72.6659V69.4726C109.594 67.7141 108.161 66.2814 106.4 66.2792ZM92.1237 53.3647H99.4621C100.343 53.3647 101.059 54.0808 101.059 54.9613V66.2792H90.5271V54.9613C90.5271 54.081 91.2434 53.3647 92.1237 53.3647ZM78.3991 53.3647H85.7372C86.6177 53.3647 87.3339 54.0808 87.3339 54.9613V66.2792H76.8024V54.9613C76.8024 54.081 77.5186 53.3647 78.3991 53.3647ZM63.0774 54.9613C63.0774 54.0808 63.7935 53.3647 64.674 53.3647H72.0124C72.8929 53.3647 73.6091 54.0808 73.6091 54.9613V66.2792H63.0774V54.9613ZM42.4334 49.1068H51.9006C52.7811 49.1068 53.4973 49.823 53.4973 50.7035V66.2794H40.8367V50.7035C40.8367 49.823 41.5528 49.1068 42.4334 49.1068ZM26.5794 49.1068H36.0466C36.9272 49.1068 37.6433 49.823 37.6433 50.7035V66.2794H24.9827V50.7035C24.9827 49.823 25.6989 49.1068 26.5794 49.1068ZM9.12875 50.7035C9.12875 49.823 9.84491 49.1068 10.7254 49.1068H20.1927C21.0732 49.1068 21.7894 49.823 21.7894 50.7035V66.2794H9.12875V50.7035Z" fill="#95AC8F"/>
</svg>
