<svg width="110" height="109" viewBox="0 0 110 109" fill="none" xmlns="http://www.w3.org/2000/svg">
<path d="M105.96 7.26656H102.327V5.45033C102.327 2.43993 99.8873 0 96.8769 0H69.6269C66.6173 0 64.1774 2.43993 64.1774 5.45033V7.26656H46.0101V5.45033C46.0101 2.43993 43.5702 0 40.5606 0H13.3106C10.3002 0 7.86031 2.43993 7.86031 5.45033V7.26656H4.22703C2.22037 7.26656 0.59375 8.89317 0.59375 10.8998V14.5331C0.597908 15.8254 1.2898 17.0179 2.4108 17.6616V98.6049C1.2898 99.2486 0.597908 100.441 0.59375 101.733V105.367C0.59375 107.373 2.22037 109 4.22703 109H105.96C107.967 109 109.594 107.373 109.594 105.367V101.733C109.59 100.441 108.898 99.2486 107.777 98.6049V17.6616C108.898 17.0179 109.59 15.8254 109.594 14.5331V10.8998C109.594 8.89317 107.967 7.26656 105.96 7.26656ZM67.8106 5.45033C67.8106 4.44659 68.6239 3.63328 69.6269 3.63328H96.8769C97.8806 3.63328 98.6939 4.44659 98.6939 5.45033V7.26656H67.8106V5.45033ZM11.4936 5.45033C11.4936 4.44659 12.3069 3.63328 13.3106 3.63328H40.5606C41.5636 3.63328 42.3769 4.44659 42.3769 5.45033V7.26656H11.4936V5.45033ZM4.22703 10.8998H105.96V14.5331H4.22703V10.8998ZM104.143 98.1002H6.04408V18.1664H104.143V98.1002ZM4.22703 105.367V101.733H105.96V105.367H4.22703Z" fill="white"/>
<path d="M11.4935 43.6002C10.4906 43.6002 9.67725 44.4135 9.67725 45.4164C9.67725 46.4202 10.4906 47.2335 11.4935 47.2335H13.3105V50.8667C13.3105 52.8734 14.9371 54.5 16.9438 54.5H49.6433C51.65 54.5 53.2766 52.8734 53.2766 50.8667V25.433C53.2766 23.4263 51.65 21.7997 49.6433 21.7997H16.9438C14.9371 21.7997 13.3105 23.4263 13.3105 25.433V29.0671H11.4935C10.4906 29.0671 9.67725 29.8804 9.67725 30.8833C9.67725 31.887 10.4906 32.7003 11.4935 32.7003H13.3105V43.6002H11.4935ZM16.9438 32.7003H20.5771C21.58 32.7003 22.3933 31.887 22.3933 30.8833C22.3933 29.8804 21.58 29.0671 20.5771 29.0671H16.9438V25.433H49.6433V36.3336H44.1938C43.1901 36.3336 42.3767 37.1469 42.3767 38.1498C42.3767 39.1536 43.1901 39.9669 44.1938 39.9669H49.6433V50.8667H16.9438V47.2335H20.5771C21.58 47.2335 22.3933 46.4202 22.3933 45.4164C22.3933 44.4135 21.58 43.6002 20.5771 43.6002H16.9438V32.7003Z" fill="white"/>
<path d="M11.4935 83.567C10.4906 83.567 9.67725 84.3803 9.67725 85.3833C9.67725 86.387 10.4906 87.2003 11.4935 87.2003H13.3105V90.8336C13.3105 92.8403 14.9371 94.4669 16.9438 94.4669H49.6433C51.65 94.4669 53.2766 92.8403 53.2766 90.8336V65.3998C53.2766 63.3932 51.65 61.7665 49.6433 61.7665H16.9438C14.9371 61.7665 13.3105 63.3932 13.3105 65.3998V69.0331H11.4935C10.4906 69.0331 9.67725 69.8464 9.67725 70.8502C9.67725 71.8531 10.4906 72.6664 11.4935 72.6664H13.3105V83.567H11.4935ZM16.9438 72.6664H20.5771C21.58 72.6664 22.3933 71.8531 22.3933 70.8502C22.3933 69.8464 21.58 69.0331 20.5771 69.0331H16.9438V65.3998H49.6433V76.2997H44.1938C43.1901 76.2997 42.3767 77.113 42.3767 78.1167C42.3767 79.1196 43.1901 79.9329 44.1938 79.9329H49.6433V90.8336H16.9438V87.2003H20.5771C21.58 87.2003 22.3933 86.387 22.3933 85.3833C22.3933 84.3803 21.58 83.567 20.5771 83.567H16.9438V72.6664Z" fill="white"/>
<path d="M60.5439 54.5H93.2434C95.2501 54.5 96.8767 52.8734 96.8767 50.8667V47.2335H98.6938C99.6967 47.2335 100.51 46.4202 100.51 45.4164C100.51 44.4135 99.6967 43.6002 98.6938 43.6002H96.8767V32.7003H98.6938C99.6967 32.7003 100.51 31.887 100.51 30.8833C100.51 29.8804 99.6967 29.0671 98.6938 29.0671H96.8767V25.433C96.8767 23.4263 95.2501 21.7997 93.2434 21.7997H60.5439C58.5373 21.7997 56.9106 23.4263 56.9106 25.433V50.8667C56.9106 52.8734 58.5373 54.5 60.5439 54.5ZM93.2434 25.433V29.0671H89.6101C88.6072 29.0671 87.7939 29.8804 87.7939 30.8833C87.7939 31.887 88.6072 32.7003 89.6101 32.7003H93.2434V43.6002H89.6101C88.6072 43.6002 87.7939 44.4135 87.7939 45.4164C87.7939 46.4202 88.6072 47.2335 89.6101 47.2335H93.2434V50.8667H60.5439V39.9669H65.9934C66.9972 39.9669 67.8105 39.1536 67.8105 38.1498C67.8105 37.1469 66.9972 36.3336 65.9934 36.3336H60.5439V25.433H93.2434Z" fill="white"/>
<path d="M60.5439 94.4669H93.2434C95.2501 94.4669 96.8767 92.8403 96.8767 90.8336V87.2003H98.6938C99.6967 87.2003 100.51 86.387 100.51 85.3833C100.51 84.3803 99.6967 83.567 98.6938 83.567H96.8767V72.6664H98.6938C99.6967 72.6664 100.51 71.8531 100.51 70.8502C100.51 69.8464 99.6967 69.0331 98.6938 69.0331H96.8767V65.3998C96.8767 63.3932 95.2501 61.7665 93.2434 61.7665H60.5439C58.5373 61.7665 56.9106 63.3932 56.9106 65.3998V90.8336C56.9106 92.8403 58.5373 94.4669 60.5439 94.4669ZM93.2434 65.3998V69.0331H89.6101C88.6072 69.0331 87.7939 69.8464 87.7939 70.8502C87.7939 71.8531 88.6072 72.6664 89.6101 72.6664H93.2434V83.567H89.6101C88.6072 83.567 87.7939 84.3803 87.7939 85.3833C87.7939 86.387 88.6072 87.2003 89.6101 87.2003H93.2434V90.8336H60.5439V79.9329H65.9934C66.9972 79.9329 67.8105 79.1196 67.8105 78.1167C67.8105 77.113 66.9972 76.2997 65.9934 76.2997H60.5439V65.3998H93.2434Z" fill="white"/>
</svg>
