<svg width="38" height="38" viewBox="0 0 38 38" fill="none" xmlns="http://www.w3.org/2000/svg">
<path d="M36.1 0H10.7667C9.71733 0 8.86667 0.850659 8.86667 1.9V2.53333H1.9C0.850659 2.53333 0 3.38399 0 4.43333V31.0333C0 32.0827 0.850659 32.9333 1.9 32.9333H8.86667V36.7333C8.86667 37.4329 9.43377 38 10.1333 38H12.35C12.7485 37.9992 13.1236 37.8117 13.3633 37.4933L14.8833 35.4667H31.9833L33.5033 37.4933C33.7432 37.8115 34.1182 37.999 34.5167 38H36.7333C37.4329 38 38 37.4329 38 36.7333V1.9C38 0.850659 37.1493 0 36.1 0ZM1.26667 31.0333V4.43333C1.26667 4.08355 1.55022 3.8 1.9 3.8H11.4V31.6667H1.9C1.55022 31.6667 1.26667 31.3831 1.26667 31.0333ZM12.6667 3.8H22.8V12.0333H20.7835C20.8585 11.8305 20.8979 11.6162 20.9 11.4V8.8369C21.5261 8.19963 21.7085 7.24876 21.3626 6.42504C21.0167 5.60133 20.2101 5.06579 19.3167 5.06667H16.15C15.2574 5.06654 14.4518 5.60178 14.1061 6.42468C13.7603 7.24757 13.9419 8.19757 14.5667 8.835V11.4C14.5688 11.6162 14.6082 11.8305 14.6832 12.0333H12.6667V3.8ZM34.2 3.8V31.6667H24.0667V3.8H34.2ZM20.7835 31.6667C20.8585 31.4638 20.8979 31.2496 20.9 31.0333V28.4709C21.5266 27.8337 21.7093 26.8825 21.3633 26.0585C21.0173 25.2345 20.2103 24.6989 19.3167 24.7H16.15C15.5615 24.6977 14.9966 24.931 14.5812 25.3479C14.1671 25.7651 13.9343 26.3288 13.9333 26.9167C13.9311 27.4973 14.1588 28.0551 14.5667 28.4683V31.0333C14.5688 31.2496 14.6082 31.4638 14.6832 31.6667H12.6667V22.8H22.8V31.6667H20.7835ZM15.8333 31.0333V28.1833C15.8333 27.984 15.7395 27.7963 15.58 27.6767C15.3401 27.4979 15.1991 27.2159 15.2 26.9167C15.199 26.6644 15.2987 26.4222 15.4771 26.2438C15.6555 26.0654 15.8977 25.9657 16.15 25.9667H19.3167C19.7012 25.9655 20.0485 26.1962 20.1965 26.5511C20.3444 26.906 20.2639 27.3151 19.9924 27.5874C19.9648 27.6159 19.9347 27.642 19.9025 27.6653C19.7338 27.7838 19.6334 27.9771 19.6333 28.1833V31.0333C19.6333 31.3831 19.3498 31.6667 19 31.6667H16.4667C16.1169 31.6667 15.8333 31.3831 15.8333 31.0333ZM15.8333 11.4V8.55C15.8333 8.35065 15.7395 8.16294 15.58 8.04333C15.3588 7.87853 15.2202 7.62572 15.2001 7.35061C15.18 7.07549 15.2805 6.80525 15.4755 6.6101C15.655 6.4324 15.8974 6.3329 16.15 6.33333H19.3167C19.7018 6.33213 20.0496 6.5636 20.1972 6.91938C20.3447 7.27516 20.2629 7.68482 19.9899 7.95657C19.9631 7.98427 19.9338 8.00949 19.9025 8.03193C19.7338 8.15051 19.6334 8.34379 19.6333 8.55V11.4C19.6333 11.7498 19.3498 12.0333 19 12.0333H16.4667C16.1169 12.0333 15.8333 11.7498 15.8333 11.4ZM16.4667 13.3H22.8V21.5333H20.7835C20.8585 21.3305 20.8979 21.1162 20.9 20.9V18.3375C21.5266 17.7003 21.7093 16.7492 21.3633 15.9252C21.0173 15.1012 20.2103 14.5655 19.3167 14.5667H16.15C15.5615 14.5643 14.9966 14.7977 14.5812 15.2146C14.1671 15.6318 13.9343 16.1955 13.9333 16.7833C13.9311 17.3639 14.1588 17.9218 14.5667 18.335V20.9C14.5688 21.1162 14.6082 21.3305 14.6832 21.5333H12.6667V13.3H16.4667ZM15.8333 20.9V18.05C15.8333 17.8507 15.7395 17.6629 15.58 17.5433C15.3401 17.3645 15.1991 17.0826 15.2 16.7833C15.199 16.5311 15.2987 16.2888 15.4771 16.1105C15.6555 15.9321 15.8977 15.8323 16.15 15.8333H19.3167C19.7012 15.8321 20.0485 16.0628 20.1965 16.4177C20.3444 16.7726 20.2639 17.1817 19.9924 17.454C19.9648 17.4826 19.9347 17.5086 19.9025 17.5319C19.7338 17.6505 19.6334 17.8438 19.6333 18.05V20.9C19.6333 21.2498 19.3498 21.5333 19 21.5333H16.4667C16.1169 21.5333 15.8333 21.2498 15.8333 20.9ZM12.0333 32.9333H34.2C34.8996 32.9333 35.4667 32.3662 35.4667 31.6667V3.8C35.4667 3.10044 34.8996 2.53333 34.2 2.53333H10.1333V1.9C10.1333 1.55022 10.4169 1.26667 10.7667 1.26667H36.1C36.4498 1.26667 36.7333 1.55022 36.7333 1.9V34.2H10.1333V32.9333H12.0333ZM12.35 36.7333H10.1333V35.4667H13.3L12.35 36.7333ZM36.7333 36.7333H34.5167L33.5667 35.4667H36.7333V36.7333Z" fill="#95AC8F"/>
<path d="M27.2335 13.3H31.0335C32.0828 13.3 32.9335 12.4494 32.9335 11.4V9.50004C32.9335 8.4507 32.0828 7.60004 31.0335 7.60004H27.2335C26.1842 7.60004 25.3335 8.4507 25.3335 9.50004V11.4C25.3335 12.4494 26.1842 13.3 27.2335 13.3ZM26.6002 9.50004C26.6002 9.15026 26.8837 8.8667 27.2335 8.8667H31.0335C31.3833 8.8667 31.6668 9.15026 31.6668 9.50004V11.4C31.6668 11.7498 31.3833 12.0334 31.0335 12.0334H27.2335C26.8837 12.0334 26.6002 11.7498 26.6002 11.4V9.50004Z" fill="#95AC8F"/>
<path d="M10.1332 11.4V9.50004C10.1332 8.4507 9.28254 7.60004 8.2332 7.60004H4.4332C3.38386 7.60004 2.5332 8.4507 2.5332 9.50004V11.4C2.5332 12.4494 3.38386 13.3 4.4332 13.3H8.2332C9.28254 13.3 10.1332 12.4494 10.1332 11.4ZM8.86654 11.4C8.86654 11.7498 8.58298 12.0334 8.2332 12.0334H4.4332C4.08342 12.0334 3.79987 11.7498 3.79987 11.4V9.50004C3.79987 9.15026 4.08342 8.8667 4.4332 8.8667H8.2332C8.58298 8.8667 8.86654 9.15026 8.86654 9.50004V11.4Z" fill="#95AC8F"/>
<path d="M27.2334 15.8334H31.0334C31.3832 15.8334 31.6668 15.5498 31.6668 15.2C31.6668 14.8503 31.3832 14.5667 31.0334 14.5667H27.2334C26.8837 14.5667 26.6001 14.8503 26.6001 15.2C26.6001 15.5498 26.8837 15.8334 27.2334 15.8334Z" fill="#95AC8F"/>
<path d="M27.2334 18.3667H31.0334C31.3832 18.3667 31.6668 18.0831 31.6668 17.7334C31.6668 17.3836 31.3832 17.1 31.0334 17.1H27.2334C26.8837 17.1 26.6001 17.3836 26.6001 17.7334C26.6001 18.0831 26.8837 18.3667 27.2334 18.3667Z" fill="#95AC8F"/>
<path d="M27.2334 20.9H31.0334C31.3832 20.9 31.6668 20.6165 31.6668 20.2667C31.6668 19.9169 31.3832 19.6334 31.0334 19.6334H27.2334C26.8837 19.6334 26.6001 19.9169 26.6001 20.2667C26.6001 20.6165 26.8837 20.9 27.2334 20.9Z" fill="#95AC8F"/>
<path d="M31.0334 22.1667H27.2334C26.8837 22.1667 26.6001 22.4502 26.6001 22.8C26.6001 23.1498 26.8837 23.4334 27.2334 23.4334H31.0334C31.3832 23.4334 31.6668 23.1498 31.6668 22.8C31.6668 22.4502 31.3832 22.1667 31.0334 22.1667Z" fill="#95AC8F"/>
<path d="M25.9668 30.4C26.3166 30.4 26.6002 30.1165 26.6002 29.7667C26.6002 29.4169 26.3166 29.1334 25.9668 29.1334C25.617 29.1334 25.3335 29.4169 25.3335 29.7667C25.3335 30.1165 25.617 30.4 25.9668 30.4Z" fill="#95AC8F"/>
<path d="M32.2998 30.4C32.6496 30.4 32.9332 30.1165 32.9332 29.7667C32.9332 29.4169 32.6496 29.1334 32.2998 29.1334C31.9501 29.1334 31.6665 29.4169 31.6665 29.7667C31.6665 30.1165 31.9501 30.4 32.2998 30.4Z" fill="#95AC8F"/>
<path d="M25.9668 6.33332C26.3166 6.33332 26.6002 6.04976 26.6002 5.69998C26.6002 5.3502 26.3166 5.06665 25.9668 5.06665C25.617 5.06665 25.3335 5.3502 25.3335 5.69998C25.3335 6.04976 25.617 6.33332 25.9668 6.33332Z" fill="#95AC8F"/>
<path d="M32.2998 6.33332C32.6496 6.33332 32.9332 6.04976 32.9332 5.69998C32.9332 5.3502 32.6496 5.06665 32.2998 5.06665C31.9501 5.06665 31.6665 5.3502 31.6665 5.69998C31.6665 6.04976 31.9501 6.33332 32.2998 6.33332Z" fill="#95AC8F"/>
</svg>
