<svg width="30" height="38" viewBox="0 0 30 38" fill="none" xmlns="http://www.w3.org/2000/svg">
<path d="M3.69215 36.7304H4.43942C5.48868 36.7304 6.33927 35.8798 6.33927 34.8305V31.6641H22.8046V34.8305C22.8046 35.8798 23.6552 36.7304 24.7045 36.7304H25.4517C25.7069 37.4561 26.3746 37.9563 27.1429 37.9973C27.9111 38.0382 28.6282 37.6118 28.9591 36.9173C29.29 36.2228 29.1694 35.3972 28.6536 34.8264C28.1378 34.2556 27.3287 34.0522 26.6043 34.3112V1.89985C26.6043 0.85059 25.7537 0 24.7045 0C23.6552 0 22.8046 0.85059 22.8046 1.89985V7.59939H22.1713V6.9661C22.1713 5.91685 21.3207 5.06626 20.2715 5.06626H19.0049C17.9557 5.06626 17.1051 5.91685 17.1051 6.9661V7.59939H6.33927V1.89985C6.33927 0.85059 5.48868 3.79969e-08 4.43942 3.79969e-08C3.39017 3.79969e-08 2.53958 0.85059 2.53958 1.89985V34.3112C1.81517 34.0522 1.00605 34.2556 0.490258 34.8264C-0.0255298 35.3972 -0.146152 36.2228 0.18475 36.9173C0.515653 37.6118 1.23275 38.0382 2.00099 37.9973C2.76923 37.9563 3.43694 37.4561 3.69215 36.7304ZM6.33927 27.8644V25.9646C6.33927 25.6148 6.6228 25.3313 6.97255 25.3313H14.5719C14.9217 25.3313 15.2052 25.6148 15.2052 25.9646V27.8644H6.33927ZM9.50568 14.5655C9.50568 14.2157 9.78921 13.9322 10.139 13.9322H18.3716V15.1988H10.139C9.78921 15.1988 9.50568 14.9152 9.50568 14.5655ZM9.50568 17.0986C9.50568 16.7489 9.78921 16.4653 10.139 16.4653H18.3716V17.7319H10.139C9.78921 17.7319 9.50568 17.4484 9.50568 17.0986ZM22.8046 18.9985V20.265H6.33927V18.9985H22.8046ZM16.4718 27.2311C16.4718 26.8814 16.7553 26.5979 17.1051 26.5979H18.3716C18.7214 26.5979 19.0049 26.8814 19.0049 27.2311V27.8644H16.4718V27.2311ZM18.3716 25.3313C17.0671 25.3313 16.8454 25.287 16.3958 25.4706C16.1735 24.6449 15.427 24.0695 14.5719 24.0647C6.33927 24.0647 6.80157 24.0141 6.33927 24.1787V21.5316H22.8046V27.8644H20.2715V27.2311C20.2715 26.1819 19.4209 25.3313 18.3716 25.3313ZM22.8046 17.7319H19.6382V16.4653H20.2715C20.6212 16.4653 20.9048 16.1818 20.9048 15.8321C20.9048 15.4823 20.6212 15.1988 20.2715 15.1988H19.6382V13.9322H20.2715C20.6212 13.9322 20.9048 13.6487 20.9048 13.2989C20.9048 12.9492 20.6212 12.6656 20.2715 12.6656H10.139C9.3916 12.6696 8.71601 13.1114 8.41273 13.7945C8.10944 14.4776 8.23482 15.275 8.73308 15.8321C8.2596 16.3437 8.11283 17.0775 8.35311 17.7319H6.33927V11.3991H22.8046V17.7319ZM6.33927 30.3975V29.131H22.8046V30.3975H6.33927ZM27.2376 35.4638C27.5873 35.4638 27.8709 35.7473 27.8709 36.0971C27.8709 36.4468 27.5873 36.7304 27.2376 36.7304C26.8878 36.7304 26.6043 36.4468 26.6043 36.0971C26.6043 35.7473 26.8878 35.4638 27.2376 35.4638ZM24.0712 1.89985C24.0712 1.55009 24.3547 1.26656 24.7045 1.26656C25.0542 1.26656 25.3377 1.55009 25.3377 1.89985V35.4638H24.7045C24.3547 35.4638 24.0712 35.1803 24.0712 34.8305V1.89985ZM18.3716 6.9661C18.3716 6.61635 18.6552 6.33282 19.0049 6.33282H20.2715C20.6212 6.33282 20.9048 6.61635 20.9048 6.9661V7.59939H18.3716V6.9661ZM22.8046 8.86595V10.1325H6.33927V8.86595H22.8046ZM3.80614 1.89985C3.80614 1.55009 4.08967 1.26656 4.43942 1.26656C4.78918 1.26656 5.07271 1.55009 5.07271 1.89985V34.8305C5.07271 35.1803 4.78918 35.4638 4.43942 35.4638H3.80614V1.89985ZM1.9063 36.7304C1.55654 36.7304 1.27301 36.4468 1.27301 36.0971C1.27301 35.7473 1.55654 35.4638 1.9063 35.4638C2.25605 35.4638 2.53958 35.7473 2.53958 36.0971C2.53958 36.4468 2.25605 36.7304 1.9063 36.7304Z" fill="#95AC8F"/>
</svg>
