<svg width="38" height="38" viewBox="0 0 38 38" fill="none" xmlns="http://www.w3.org/2000/svg">
<path d="M35.7495 11.4C36.7886 11.4 37.6311 10.5493 37.6311 9.5V1.9C37.6311 0.850732 36.7886 0 35.7495 0H1.88155C0.842473 0 0 0.850732 0 1.9V9.5C0 10.5493 0.842473 11.4 1.88155 11.4H3.13592V22.2935L1.75599 24.7C1.58297 25.0028 1.68525 25.3899 1.98506 25.5653L3.13592 26.2345V32.9333H1.88155C0.842473 32.9333 0 33.7841 0 34.8333V36.1C0 37.1493 0.842473 38 1.88155 38H35.7495C36.7886 38 37.6311 37.1493 37.6311 36.1V34.8333C37.6311 33.7841 36.7886 32.9333 35.7495 32.9333H34.4951V18.0336L35.4987 18.1691C35.5817 18.1799 35.6656 18.1854 35.7495 18.1854C36.7886 18.1854 37.6311 17.335 37.6311 16.2854V14.7479C37.6311 14.1996 37.3968 13.6782 36.9883 13.3173C36.5797 12.9564 36.0368 12.7913 35.4987 12.8643L34.4951 12.9997V11.4H35.7495ZM1.25437 9.5V1.9C1.25437 1.55024 1.53519 1.26667 1.88155 1.26667H35.7495C36.0959 1.26667 36.3767 1.55024 36.3767 1.9V9.5C36.3767 9.84976 36.0959 10.1333 35.7495 10.1333H1.88155C1.53519 10.1333 1.25437 9.84976 1.25437 9.5ZM26.9689 15.8333H24.4602V15.2H26.9689V15.8333ZM23.2058 17.1C23.2058 18.1493 22.3634 19 21.3243 19H16.3068C15.2677 19 14.4252 18.1493 14.4252 17.1V13.9333H23.2058V17.1ZM18.1884 20.2667H19.4427V21.5333H18.1884V20.2667ZM21.9515 12.6667H15.6796V11.4H21.9515V12.6667ZM3.15858 24.7863L5.35373 20.9476L6.98447 21.8976L4.78933 25.7347L3.15858 24.7863ZM7.09962 20.5035L6.91159 20.3941L6.71773 20.2806L8.6979 16.7833C8.75272 16.6872 8.7812 16.5777 8.78058 16.4667V11.4H9.40777V16.3028L7.09962 20.5035ZM4.39029 11.4H7.52621V16.2981L5.63149 19.6479L5.43703 19.5347C5.29279 19.45 5.12129 19.4268 4.96021 19.4704C4.79882 19.514 4.66162 19.6203 4.57832 19.7663L4.39029 20.0994V11.4ZM36.3767 34.8333V36.1C36.3767 36.4498 36.0959 36.7333 35.7495 36.7333H1.88155C1.53519 36.7333 1.25437 36.4498 1.25437 36.1V34.8333C1.25437 34.4836 1.53519 34.2 1.88155 34.2H35.7495C36.0959 34.2 36.3767 34.4836 36.3767 34.8333ZM25.0874 27.8667V27.2333C25.7801 27.2333 26.3417 27.8005 26.3417 28.5C26.3417 29.1995 25.7801 29.7667 25.0874 29.7667H24.7582C24.9747 29.1571 25.0862 28.5142 25.0874 27.8667ZM23.833 27.8667C23.8303 30.314 21.8663 32.2972 19.4427 32.3H18.1884C15.7647 32.2972 13.8008 30.314 13.7981 27.8667V25.9667H23.833V27.8667ZM33.2408 32.9333H22.0142C22.8671 32.4905 23.5951 31.8368 24.1304 31.0333H25.0874C26.4728 31.0333 27.5961 29.899 27.5961 28.5C27.5961 27.101 26.4728 25.9667 25.0874 25.9667V25.3333C25.0874 24.9836 24.8066 24.7 24.4602 24.7H13.1709C12.8245 24.7 12.5437 24.9836 12.5437 25.3333V27.8667C12.5464 30.0039 13.7328 31.9598 15.6168 32.9333H4.39029V26.9661L4.70388 27.1492C4.76973 27.1851 4.84108 27.2092 4.91519 27.22C4.93203 27.2231 4.94857 27.225 4.96542 27.2271C4.98226 27.229 5.00002 27.2333 5.01748 27.2333C5.07229 27.233 5.1268 27.2259 5.17978 27.2117L5.18683 27.2086C5.25267 27.1888 5.31514 27.1582 5.37119 27.118C5.38619 27.1072 5.39997 27.0966 5.41437 27.0846C5.47317 27.0379 5.52278 26.981 5.56136 26.9167L8.38369 21.983C8.55182 21.6945 8.46332 21.3234 8.18341 21.1437L10.5844 16.7737C10.6358 16.6797 10.6624 16.574 10.6621 16.4667V11.4H14.4252V12.6667H13.7981C13.4517 12.6667 13.1709 12.9502 13.1709 13.3V17.1C13.173 18.8482 14.5756 20.2645 16.3068 20.2667H16.934V22.1667C16.934 22.5164 17.2148 22.8 17.5612 22.8H20.0699C20.4163 22.8 20.6971 22.5164 20.6971 22.1667V20.2667H21.3243C23.0555 20.2645 24.4581 18.8482 24.4602 17.1H27.5548L33.2408 17.8651V32.9333ZM35.6668 14.1232C35.8454 14.0994 36.0254 14.1541 36.1614 14.2735C36.2974 14.3932 36.3758 14.5657 36.3767 14.7479V16.2854C36.3776 16.4685 36.2992 16.6426 36.1623 16.7623C36.0261 16.8826 35.8454 16.9373 35.6662 16.9132L33.9565 16.6831H33.9506L28.2233 15.9119V15.1215L33.9506 14.3521H33.9565L35.6668 14.1232ZM33.2408 13.1683L27.5548 13.9333H24.4602V13.3C24.4602 12.9502 24.1794 12.6667 23.833 12.6667H23.2058V11.4H33.2408V13.1683Z" fill="#95AC8F"/>
<path d="M18.8154 9.50002C20.8935 9.50002 22.5785 7.79856 22.5785 5.70002C22.5785 3.60149 20.8935 1.90002 18.8154 1.90002C16.7372 1.90002 15.0522 3.60149 15.0522 5.70002C15.0544 7.79794 16.7378 9.49786 18.8154 9.50002ZM18.8154 8.23336C17.9233 8.23057 17.1001 7.74784 16.6554 6.96669H20.9753C20.5306 7.74784 19.7074 8.23057 18.8154 8.23336ZM18.8154 3.16669C20.2008 3.16669 21.3241 4.301 21.3241 5.70002H19.2677L18.7835 4.23328C18.6739 3.90084 18.3183 3.72117 17.9894 3.83157C17.6602 3.94228 17.4823 4.30131 17.5916 4.63344L17.9447 5.70002H16.3066C16.3066 4.301 17.4299 3.16669 18.8154 3.16669Z" fill="#95AC8F"/>
<path d="M5.64448 8.23335C7.02992 8.23335 8.15322 7.09904 8.15322 5.70002C8.15322 4.301 7.02992 3.16669 5.64448 3.16669C4.25904 3.16669 3.13574 4.301 3.13574 5.70002C3.13574 7.09904 4.25904 8.23335 5.64448 8.23335ZM5.64448 4.43335C6.3372 4.43335 6.89885 5.00051 6.89885 5.70002C6.89885 6.39953 6.3372 6.96669 5.64448 6.96669C4.95176 6.96669 4.39011 6.39953 4.39011 5.70002C4.39011 5.00051 4.95176 4.43335 5.64448 4.43335Z" fill="#95AC8F"/>
<path d="M10.0349 5.06665H11.2893C11.6356 5.06665 11.9165 4.78308 11.9165 4.43332C11.9165 4.08357 11.6356 3.79999 11.2893 3.79999H10.0349C9.68854 3.79999 9.40771 4.08357 9.40771 4.43332C9.40771 4.78308 9.68854 5.06665 10.0349 5.06665Z" fill="#95AC8F"/>
<path d="M10.0349 7.59998H11.2893C11.6356 7.59998 11.9165 7.3164 11.9165 6.96665C11.9165 6.61689 11.6356 6.33331 11.2893 6.33331H10.0349C9.68854 6.33331 9.40771 6.61689 9.40771 6.96665C9.40771 7.3164 9.68854 7.59998 10.0349 7.59998Z" fill="#95AC8F"/>
<path d="M26.342 8.23335H33.8682C34.2146 8.23335 34.4954 7.94978 34.4954 7.60002V3.80002C34.4954 3.45026 34.2146 3.16669 33.8682 3.16669H26.342C25.9957 3.16669 25.7148 3.45026 25.7148 3.80002V7.60002C25.7148 7.94978 25.9957 8.23335 26.342 8.23335ZM26.9692 4.43335H33.2411V6.96669H26.9692V4.43335Z" fill="#95AC8F"/>
<path d="M30.7322 34.8333H6.89916C6.5528 34.8333 6.27197 35.1169 6.27197 35.4666C6.27197 35.8164 6.5528 36.1 6.89916 36.1H30.7322C31.0785 36.1 31.3593 35.8164 31.3593 35.4666C31.3593 35.1169 31.0785 34.8333 30.7322 34.8333Z" fill="#95AC8F"/>
<path d="M32.6138 35.4666C32.6138 35.8164 32.8946 36.1 33.241 36.1H34.4953C34.8417 36.1 35.1225 35.8164 35.1225 35.4666C35.1225 35.1169 34.8417 34.8333 34.4953 34.8333H33.241C32.8946 34.8333 32.6138 35.1169 32.6138 35.4666Z" fill="#95AC8F"/>
<path d="M4.39034 34.8333H3.13597C2.78961 34.8333 2.50879 35.1169 2.50879 35.4666C2.50879 35.8164 2.78961 36.1 3.13597 36.1H4.39034C4.7367 36.1 5.01753 35.8164 5.01753 35.4666C5.01753 35.1169 4.7367 34.8333 4.39034 34.8333Z" fill="#95AC8F"/>
</svg>
