<svg width="39" height="38" viewBox="0 0 39 38" fill="none" xmlns="http://www.w3.org/2000/svg">
<path d="M38.0612 28.9713L33.2499 13.4839H31.002L30.8782 12.2581H27.2246V9.80645H33.412V0H17.3247V9.80645H23.5121V12.2581H19.8585L19.7347 13.4839H16.0872V5.13735L14.231 6.05671L12.9935 5.44381L11.7561 6.05671L10.5186 5.44381L9.28111 6.05671L7.42488 5.13735V13.4839H5.11203L0.300708 28.9713C0.101473 29.6149 0 30.2817 0 30.9541V35.5484C0 36.9005 1.11002 38 2.47496 38H35.8869C37.2519 38 38.3619 36.9005 38.3619 35.5484V30.9541C38.3619 30.2817 38.2604 29.6149 38.0612 28.9713ZM18.5622 8.58065V1.22581H32.1745V8.58065H18.5622ZM25.9871 9.80645V12.2581H24.7496V9.80645H25.9871ZM20.9784 13.4839H29.7577L30.2527 18.3871H20.4834L20.9784 13.4839ZM8.66236 7.12071L9.28111 7.42716L10.5186 6.81426L11.7561 7.42716L12.9935 6.81426L14.231 7.42716L14.8498 7.12071V17.7742H8.66236V7.12071ZM37.1244 35.5484C37.1244 36.2244 36.5694 36.7742 35.8869 36.7742H2.47496C1.79249 36.7742 1.23748 36.2244 1.23748 35.5484V30.9541C1.23748 30.4043 1.32039 29.8582 1.48374 29.3317L6.02529 14.7097H7.42488V17.7742H6.1874V19H17.3247V17.7742H16.0872V14.7097H19.611L19.116 19.6129H31.6213L31.1264 14.7097H32.3366L36.8782 29.3317C37.0415 29.8582 37.1244 30.4043 37.1244 30.9541V35.5484Z" fill="#95AC8F"/>
<path d="M35.2683 29.4194H3.09375V30.6452H35.2683V29.4194Z" fill="#95AC8F"/>
<path d="M23.512 33.0967H14.8496V34.3225H23.512V33.0967Z" fill="#95AC8F"/>
<path d="M31.4436 20.8387H21.6558V28.1935H32.9292L31.4436 20.8387ZM29.0806 22.0645H30.4301L30.8014 23.9032H29.0806V22.0645ZM24.7495 26.9677H22.8932V25.129H24.7495V26.9677ZM24.7495 23.9032H22.8932V22.0645H24.7495V23.9032ZM27.8432 26.9677H25.9869V25.129H27.8432V26.9677ZM27.8432 23.9032H25.9869V22.0645H27.8432V23.9032ZM29.0806 26.9677V25.129H31.0482L31.4195 26.9677H29.0806Z" fill="#95AC8F"/>
<path d="M6.91808 20.8387L5.43311 28.1935H16.7059V20.8387H6.91808ZM9.28105 26.9677H6.94221L7.31346 25.129H9.28105V26.9677ZM9.28105 23.9032H7.56033L7.93158 22.0645H9.28105V23.9032ZM12.3748 26.9677H10.5185V25.129H12.3748V26.9677ZM12.3748 23.9032H10.5185V22.0645H12.3748V23.9032ZM15.4685 26.9677H13.6122V25.129H15.4685V26.9677ZM15.4685 23.9032H13.6122V22.0645H15.4685V23.9032Z" fill="#95AC8F"/>
<path d="M13.6123 8.58063H9.8999V9.80643H13.6123V8.58063Z" fill="#95AC8F"/>
<path d="M13.6123 11.0323H9.8999V12.2581H13.6123V11.0323Z" fill="#95AC8F"/>
<path d="M13.6123 13.4839H9.8999V14.7097H13.6123V13.4839Z" fill="#95AC8F"/>
<path d="M19.7998 2.4516V7.35483H30.9371V2.4516H19.7998ZM29.6996 6.12902H21.0373V3.67741H29.6996V6.12902Z" fill="#95AC8F"/>
<path d="M23.5119 15.3226H22.2744V16.5484H23.5119V15.3226Z" fill="#95AC8F"/>
<path d="M28.4621 15.3226H27.2246V16.5484H28.4621V15.3226Z" fill="#95AC8F"/>
<path d="M19.7995 26.9677H18.562V28.1935H19.7995V26.9677Z" fill="#95AC8F"/>
<path d="M19.7995 23.9033H18.562V25.1291H19.7995V23.9033Z" fill="#95AC8F"/>
<path d="M19.7995 20.8387H18.562V22.0645H19.7995V20.8387Z" fill="#95AC8F"/>
</svg>
