<svg width="39" height="38" viewBox="0 0 39 38" fill="none" xmlns="http://www.w3.org/2000/svg">
<path d="M31.5448 25.7419C30.5218 25.7419 29.6893 26.5669 29.6893 27.5806C29.6893 28.5944 30.5218 29.4194 31.5448 29.4194C32.5679 29.4194 33.4004 28.5944 33.4004 27.5806C33.4004 26.5669 32.5679 25.7419 31.5448 25.7419ZM31.5448 28.1935C31.204 28.1935 30.9263 27.9184 30.9263 27.5806C30.9263 27.2429 31.204 26.9677 31.5448 26.9677C31.8856 26.9677 32.1634 27.2429 32.1634 27.5806C32.1634 27.9184 31.8856 28.1935 31.5448 28.1935ZM33.4004 33.0968V31.8348C36.1795 31.5284 38.3486 29.1889 38.3486 26.3548C38.3486 23.3136 35.851 20.8387 32.7819 20.8387H27.2152V18.3871H29.6893L26.9059 14.7097H23.504V13.4839H24.741V9.19355C24.741 8.17981 23.9085 7.35484 22.8855 7.35484H22.2669V6.12903H25.9781C26.6603 6.12903 27.2152 5.57926 27.2152 4.90323V3.67742C27.2152 3.00139 26.6603 2.45161 25.9781 2.45161H24.6786C24.391 1.05481 23.1415 0 21.6484 0C20.1553 0 18.9059 1.05481 18.6183 2.45161H1.23705C0.554818 2.45161 0 3.00139 0 3.67742V4.90323C0 5.57926 0.554818 6.12903 1.23705 6.12903H2.4741V12.2581H1.23705C0.554818 12.2581 0 12.8078 0 13.4839V19.6129C0 20.2889 0.554818 20.8387 1.23705 20.8387H2.4741V34.3226H0V38H34.6375V36.7742H32.1634V34.3226C32.8456 34.3226 33.4004 33.7728 33.4004 33.0968ZM24.741 3.67742H25.9781L25.9787 4.90323H24.741V3.67742ZM31.5448 30.6452C29.8396 30.6452 28.4522 29.2704 28.4522 27.5806C28.4522 25.8909 29.8396 24.5161 31.5448 24.5161C33.2501 24.5161 34.6375 25.8909 34.6375 27.5806C34.6375 29.2704 33.2501 30.6452 31.5448 30.6452ZM16.0817 27.5806C16.0817 26.3806 15.5807 25.2957 14.7766 24.5161H18.6244C17.8204 25.2957 17.3194 26.3806 17.3194 27.5806C17.3194 28.7807 17.8204 29.8655 18.6244 30.6452H14.7766C15.5807 29.8655 16.0817 28.7807 16.0817 27.5806ZM11.752 30.6452C10.0467 30.6452 8.65937 29.2704 8.65937 27.5806C8.65937 25.8909 10.0467 24.5161 11.752 24.5161C13.4573 24.5161 14.8446 25.8909 14.8446 27.5806C14.8446 29.2704 13.4573 30.6452 11.752 30.6452ZM18.5558 27.5806C18.5558 25.8909 19.9431 24.5161 21.6484 24.5161C23.3537 24.5161 24.741 25.8909 24.741 27.5806C24.741 29.2704 23.3537 30.6452 21.6484 30.6452C19.9431 30.6452 18.5558 29.2704 18.5558 27.5806ZM25.9781 27.5806C25.9781 26.3806 25.4771 25.2957 24.673 24.5161H28.5209C27.7168 25.2957 27.2158 26.3806 27.2158 27.5806C27.2158 28.7807 27.7168 29.8655 28.5209 30.6452H24.673C25.4771 29.8655 25.9781 28.7807 25.9781 27.5806ZM32.7819 22.0645C35.1694 22.0645 37.1116 23.989 37.1116 26.3548C37.1116 27.8509 36.3341 29.1687 35.1595 29.9366C35.6104 29.2594 35.8745 28.4504 35.8745 27.5806C35.8745 25.2148 33.9324 23.2903 31.5448 23.2903H11.752C9.36449 23.2903 7.42231 25.2148 7.42231 27.5806C7.42231 28.4504 7.68643 29.2594 8.13733 29.9366C6.96275 29.1687 6.18526 27.8509 6.18526 26.3548C6.18526 23.989 8.12743 22.0645 10.5149 22.0645H32.7819ZM7.42231 12.2581H6.18526V6.12903H14.8446V7.96774C14.8446 10.1245 16.4608 11.9099 18.5558 12.209V13.4839H19.7928V14.7097H16.3909L13.6076 18.3871H16.0817V20.8387H10.5149C8.76699 20.8387 7.20645 21.6428 6.18526 22.8956V20.8387H7.42231C8.10455 20.8387 8.65937 20.2889 8.65937 19.6129V13.4839C8.65937 12.8078 8.10455 12.2581 7.42231 12.2581ZM19.4836 17.1613H16.0817L17.0095 15.9355H20.4114L19.4836 17.1613ZM21.0299 17.1613V20.8387H17.3187V18.3871H20.1021L21.0299 17.1613ZM22.2669 14.7097H21.9577H21.3392H21.0299V13.4839H22.2669V14.7097ZM23.1947 18.3871H25.9781V20.8387H22.2669V17.1613L23.1947 18.3871ZM26.2874 15.9355L27.2152 17.1613H23.8133L22.8855 15.9355H26.2874ZM23.504 12.2581H19.7928V11.0323H23.504V12.2581ZM22.8855 8.58065C23.2263 8.58065 23.504 8.85584 23.504 9.19355V9.80645H19.7928V9.19355C19.7928 8.85584 20.0706 8.58065 20.4114 8.58065H22.8855ZM21.6484 1.22581C22.4537 1.22581 23.1341 1.74003 23.3902 2.45161H19.9073C20.1627 1.74003 20.8431 1.22581 21.6484 1.22581ZM19.7928 3.67742H23.504V4.90323H19.7928V3.67742ZM21.0299 6.12903V7.35484H20.4114C19.3883 7.35484 18.5558 8.17981 18.5558 9.19355V10.9704C17.1462 10.6854 16.0817 9.4479 16.0817 7.96774V6.12903H21.0299ZM1.23705 4.90323V3.67742H18.5558V4.90323H1.23705ZM4.94821 6.12903V12.2581H3.71116V6.12903H4.94821ZM1.23705 13.4839H7.42231L7.42293 17.1613H1.23705V13.4839ZM1.23705 19.6129V18.3871H7.42293V19.6129H1.23705ZM4.94821 20.8387V34.3226H3.71116V20.8387H4.94821ZM11.1335 36.7742H1.23705V35.5484H8.65937V34.3226H6.18526V29.8141C7.0846 30.9167 8.40144 31.6699 9.89642 31.8348V33.0968C9.89642 33.7728 10.4512 34.3226 11.1335 34.3226V36.7742ZM13.6076 36.7742H12.3705V34.3226H13.6076V36.7742ZM28.4522 36.7742H14.8446V34.3226H28.4522V36.7742ZM30.9263 36.7742H29.6893V34.3226H30.9263V36.7742ZM11.1335 33.0968V31.871H32.1634V33.0968H11.1335ZM2.4741 14.7097H3.71116V15.9355H2.4741V14.7097ZM4.94821 14.7097H6.18526V15.9355H4.94821V14.7097ZM21.6484 29.4194C22.6715 29.4194 23.504 28.5944 23.504 27.5806C23.504 26.5669 22.6715 25.7419 21.6484 25.7419C20.6254 25.7419 19.7928 26.5669 19.7928 27.5806C19.7928 28.5944 20.6254 29.4194 21.6484 29.4194ZM21.6484 26.9677C21.9892 26.9677 22.2669 27.2429 22.2669 27.5806C22.2669 27.9184 21.9892 28.1935 21.6484 28.1935C21.3076 28.1935 21.0299 27.9184 21.0299 27.5806C21.0299 27.2429 21.3076 26.9677 21.6484 26.9677ZM11.752 25.7419C10.729 25.7419 9.89642 26.5669 9.89642 27.5806C9.89642 28.5944 10.729 29.4194 11.752 29.4194C12.775 29.4194 13.6076 28.5944 13.6076 27.5806C13.6076 26.5669 12.775 25.7419 11.752 25.7419ZM11.752 28.1935C11.4112 28.1935 11.1335 27.9184 11.1335 27.5806C11.1335 27.2429 11.4112 26.9677 11.752 26.9677C12.0928 26.9677 12.3705 27.2429 12.3705 27.5806C12.3705 27.9184 12.0928 28.1935 11.752 28.1935Z" fill="#95AC8F"/>
</svg>
