<svg width="38" height="38" viewBox="0 0 38 38" fill="none" xmlns="http://www.w3.org/2000/svg">
<path d="M0 0V35.4667H1.25437V38H36.3767V35.4667H37.6311V0H0ZM35.1223 36.7333H2.50874V35.4667H35.1223V36.7333ZM36.3767 34.2H1.25437V10.1333H36.3767V34.2ZM36.3767 8.86667H1.25437V1.26667H36.3767V8.86667Z" fill="#95AC8F"/>
<path d="M5.01753 2.53333C3.632 2.53333 2.50879 3.66755 2.50879 5.06666C2.50879 6.46577 3.632 7.59999 5.01753 7.59999C6.40306 7.59999 7.52627 6.46577 7.52627 5.06666C7.52627 3.66755 6.40306 2.53333 5.01753 2.53333ZM5.01753 6.33333C4.32472 6.33333 3.76316 5.76625 3.76316 5.06666C3.76316 4.36706 4.32472 3.79999 5.01753 3.79999C5.71033 3.79999 6.2719 4.36706 6.2719 5.06666C6.2719 5.76625 5.71033 6.33333 5.01753 6.33333Z" fill="#95AC8F"/>
<path d="M12.5439 2.53333C11.1584 2.53333 10.0352 3.66755 10.0352 5.06666C10.0352 6.46577 11.1584 7.59999 12.5439 7.59999C13.9294 7.59999 15.0526 6.46577 15.0526 5.06666C15.0526 3.66755 13.9294 2.53333 12.5439 2.53333ZM12.5439 6.33333C11.8511 6.33333 11.2895 5.76625 11.2895 5.06666C11.2895 4.36706 11.8511 3.79999 12.5439 3.79999C13.2367 3.79999 13.7983 4.36706 13.7983 5.06666C13.7983 5.76625 13.2367 6.33333 12.5439 6.33333Z" fill="#95AC8F"/>
<path d="M20.0698 2.53333C18.6842 2.53333 17.561 3.66755 17.561 5.06666C17.561 6.46577 18.6842 7.59999 20.0698 7.59999C21.4553 7.59999 22.5785 6.46577 22.5785 5.06666C22.5785 3.66755 21.4553 2.53333 20.0698 2.53333ZM20.0698 6.33333C19.377 6.33333 18.8154 5.76625 18.8154 5.06666C18.8154 4.36706 19.377 3.79999 20.0698 3.79999C20.7626 3.79999 21.3241 4.36706 21.3241 5.06666C21.3241 5.76625 20.7626 6.33333 20.0698 6.33333Z" fill="#95AC8F"/>
<path d="M32.6136 3.16669H26.3418V4.43335H32.6136V3.16669Z" fill="#95AC8F"/>
<path d="M32.6136 5.70001H26.3418V6.96668H32.6136V5.70001Z" fill="#95AC8F"/>
<path d="M3.13574 13.3V28.5H34.495V13.3H3.13574ZM33.2406 27.2333H4.39011V19H33.2406V27.2333ZM33.2406 17.7333H4.39011V14.5667H33.2406V17.7333Z" fill="#95AC8F"/>
<path d="M18.9723 21.9539L19.9444 20.6473L18.9409 19.886L17.4043 21.9532L18.6587 23.6436L17.6865 24.9533L18.69 25.7133L20.2266 23.6436L18.9723 21.9539Z" fill="#95AC8F"/>
<path d="M24.6168 21.9539L25.5889 20.6473L24.5854 19.886L23.0488 21.9532L24.3032 23.6436L23.3311 24.9533L24.3346 25.7133L25.8712 23.6436L24.6168 21.9539Z" fill="#95AC8F"/>
<path d="M13.3277 21.9539L14.2999 20.6473L13.2964 19.886L11.7598 21.9532L13.0141 23.6436L12.042 24.9533L13.0455 25.7133L14.5821 23.6436L13.3277 21.9539Z" fill="#95AC8F"/>
<path d="M34.4951 31.6667H33.2407V32.9334H34.4951V31.6667Z" fill="#95AC8F"/>
<path d="M34.4951 29.7667H33.2407V31.0333H34.4951V29.7667Z" fill="#95AC8F"/>
<path d="M32.6137 31.6667H31.3594V32.9334H32.6137V31.6667Z" fill="#95AC8F"/>
</svg>
