<svg width="38" height="38" viewBox="0 0 38 38" fill="none" xmlns="http://www.w3.org/2000/svg">
<path d="M37.3667 0H0.633333C0.283575 0 0 0.283575 0 0.633333V37.3667C0 37.7164 0.283575 38 0.633333 38H37.3667C37.7164 38 38 37.7164 38 37.3667V0.633333C38 0.283575 37.7164 0 37.3667 0ZM1.26667 1.26667H21.5333V7.6H1.26667V1.26667ZM36.7333 36.7333H1.26667V8.86667H36.7333V36.7333ZM36.7333 7.6H22.8V1.26667H36.7333V7.6Z" fill="#95AC8F"/>
<path d="M17.1002 2.53333H5.70023C5.35047 2.53333 5.06689 2.8169 5.06689 3.16666V5.69999C5.06689 6.04975 5.35047 6.33333 5.70023 6.33333H17.1002C17.45 6.33333 17.7336 6.04975 17.7336 5.69999V3.16666C17.7336 2.8169 17.45 2.53333 17.1002 2.53333ZM16.4669 5.06666H6.33356V3.79999H16.4669V5.06666Z" fill="#95AC8F"/>
<path d="M20.2667 3.79999H19V5.06665H20.2667V3.79999Z" fill="#95AC8F"/>
<path d="M3.79987 3.79999H2.5332V5.06665H3.79987V3.79999Z" fill="#95AC8F"/>
<path d="M34.8332 10.1334H3.16654C2.81678 10.1334 2.5332 10.4169 2.5332 10.7667V34.8334C2.5332 35.1831 2.81678 35.4667 3.16654 35.4667H34.8332C35.183 35.4667 35.4665 35.1831 35.4665 34.8334V10.7667C35.4665 10.4169 35.183 10.1334 34.8332 10.1334ZM34.1999 34.2H3.79987V20.2667H34.1999V34.2ZM8.2332 19V17.1C8.2332 16.7503 8.51678 16.4667 8.86654 16.4667H10.1332C10.483 16.4667 10.7665 16.7503 10.7665 17.1V19H8.2332ZM14.5665 19V17.1C14.5665 16.7503 14.8501 16.4667 15.1999 16.4667H16.4665C16.8163 16.4667 17.0999 16.7503 17.0999 17.1V19H14.5665ZM20.8999 19V17.1C20.8999 16.7503 21.1834 16.4667 21.5332 16.4667H22.7999C23.1496 16.4667 23.4332 16.7503 23.4332 17.1V19H20.8999ZM27.2332 19V17.1C27.2332 16.7503 27.5168 16.4667 27.8665 16.4667H29.1332C29.483 16.4667 29.7665 16.7503 29.7665 17.1V19H27.2332ZM34.1999 19H31.0332V17.1C31.0332 16.0507 30.1826 15.2 29.1332 15.2V13.9334H30.3999V12.6667H26.5999V13.9334H27.8665V15.2C26.8172 15.2 25.9665 16.0507 25.9665 17.1V19H24.6999V17.1C24.6999 16.0507 23.8492 15.2 22.7999 15.2V13.9334H24.0665V12.6667H20.2665V13.9334H21.5332V15.2C20.4838 15.2 19.6332 16.0507 19.6332 17.1V19H18.3665V17.1C18.3665 16.0507 17.5159 15.2 16.4665 15.2H15.1999C14.1505 15.2 13.2999 16.0507 13.2999 17.1V19H12.0332V17.1C12.0332 16.0507 11.1826 15.2 10.1332 15.2H8.86654C7.81718 15.2 6.96654 16.0507 6.96654 17.1V19H3.79987V11.4H34.1999V19Z" fill="#95AC8F"/>
<path d="M11.4001 24.0667C9.65119 24.0667 8.2334 25.4844 8.2334 27.2333C8.2334 28.9822 9.65119 30.4 11.4001 30.4C13.1489 30.4 14.5667 28.9822 14.5667 27.2333C14.5647 25.4853 13.1481 24.0687 11.4001 24.0667ZM11.4001 29.1333C10.3507 29.1333 9.50007 28.2827 9.50007 27.2333C9.50007 26.184 10.3507 25.3333 11.4001 25.3333C12.4494 25.3333 13.3001 26.184 13.3001 27.2333C13.3001 28.2827 12.4494 29.1333 11.4001 29.1333Z" fill="#95AC8F"/>
<path d="M30.4186 22.9951C29.3703 22.0524 28.0099 21.5316 26.6001 21.5334C25.1959 21.5337 23.8411 22.0524 22.7957 22.99C20.636 21.0443 17.3555 21.0443 15.1957 22.99C12.8536 20.8866 9.24973 21.08 7.14628 23.4222C5.04282 25.7643 5.2363 29.3682 7.57845 31.4716C9.74484 33.4172 13.0293 33.4172 15.1957 31.4716C17.3555 33.4174 20.636 33.4174 22.7957 31.4716C25.1364 33.5766 28.7404 33.3856 30.8454 31.0448C32.9504 28.704 32.7593 25.1001 30.4186 22.9951ZM11.4001 31.6667C8.95167 31.6667 6.96681 29.6818 6.96681 27.2334C6.96681 24.7849 8.95167 22.8 11.4001 22.8C13.8486 22.8 15.8335 24.7849 15.8335 27.2334C15.8303 29.6805 13.8473 31.6635 11.4001 31.6667ZM21.9665 30.5311C21.1519 31.263 20.0953 31.6676 19.0001 31.6667C17.9074 31.6658 16.8535 31.2614 16.0406 30.5311C16.2983 30.1711 16.513 29.7821 16.6802 29.3721C17.8615 30.6618 19.8646 30.7499 21.1543 29.5686C22.444 28.3874 22.532 26.3843 21.3508 25.0946C20.1695 23.8049 18.1664 23.7169 16.8767 24.8981C16.8084 24.9607 16.7429 25.0263 16.6802 25.0946C16.513 24.6846 16.2983 24.2956 16.0406 23.9356C17.8619 22.2992 20.6649 22.4491 22.3013 24.2704C23.9377 26.0917 23.7878 28.8948 21.9665 30.5311ZM17.1001 27.2334C17.1001 26.184 17.9508 25.3334 19.0001 25.3334C20.0495 25.3334 20.9001 26.184 20.9001 27.2334C20.9001 28.2827 20.0495 29.1334 19.0001 29.1334C17.9508 29.1334 17.1001 28.2827 17.1001 27.2334ZM29.5665 30.5311C28.7519 31.263 27.6952 31.6676 26.6001 31.6667C25.5074 31.6658 24.4535 31.2614 23.6406 30.5311C23.8983 30.1711 24.113 29.7821 24.2802 29.3721C25.4615 30.6618 27.4646 30.7499 28.7543 29.5686C30.044 28.3874 30.132 26.3843 28.9508 25.0946C27.7695 23.8049 25.7664 23.7169 24.4767 24.8981C24.4084 24.9607 24.3429 25.0263 24.2802 25.0946C24.113 24.6846 23.8983 24.2956 23.6406 23.9356C25.4619 22.2992 28.2649 22.4491 29.9013 24.2704C31.5377 26.0917 31.3878 28.8948 29.5665 30.5311ZM24.7001 27.2334C24.7001 26.184 25.5508 25.3334 26.6001 25.3334C27.6495 25.3334 28.5001 26.184 28.5001 27.2334C28.5001 28.2827 27.6495 29.1334 26.6001 29.1334C25.5508 29.1334 24.7001 28.2827 24.7001 27.2334Z" fill="#95AC8F"/>
<path d="M34.8335 3.79999H24.7002V5.06665H34.8335V3.79999Z" fill="#95AC8F"/>
</svg>
