<svg width="38" height="38" viewBox="0 0 38 38" fill="none" xmlns="http://www.w3.org/2000/svg">
<g opacity="0.9">
<path d="M28.5001 0H9.5001C8.45074 0 7.6001 0.850646 7.6001 1.9V34.8333C7.6001 35.8827 8.45074 36.7333 9.5001 36.7333H10.1334V38H12.6668V36.7333H25.3334V38H27.8668V36.7333H28.5001C29.5495 36.7333 30.4001 35.8827 30.4001 34.8333V1.9C30.4001 0.850646 29.5495 0 28.5001 0ZM29.1334 34.8333C29.1334 35.1831 28.8499 35.4667 28.5001 35.4667H9.5001C9.15034 35.4667 8.86676 35.1831 8.86676 34.8333V22.8H29.1334V34.8333ZM29.1334 21.5333H8.86676V5.06667H29.1334V21.5333ZM29.1334 3.8H8.86676V1.9C8.86676 1.55024 9.15034 1.26667 9.5001 1.26667H28.5001C28.8499 1.26667 29.1334 1.55024 29.1334 1.9V3.8Z" fill="#95AC8F"/>
<path d="M11.4 1.90002H10.1333V3.16669H11.4V1.90002Z" fill="#95AC8F"/>
<path d="M13.9334 1.90002H12.6667V3.16669H13.9334V1.90002Z" fill="#95AC8F"/>
<path d="M22.8 1.90002H15.2V3.16669H22.8V1.90002Z" fill="#95AC8F"/>
<path d="M25.3333 1.90002H24.0667V3.16669H25.3333V1.90002Z" fill="#95AC8F"/>
<path d="M27.8668 1.90002H26.6001V3.16669H27.8668V1.90002Z" fill="#95AC8F"/>
<path d="M15.8333 19H10.7666C10.4169 19 10.1333 19.2836 10.1333 19.6333C10.1333 19.9831 10.4169 20.2667 10.7666 20.2667H15.8333C16.1831 20.2667 16.4666 19.9831 16.4666 19.6333C16.4666 19.2836 16.1831 19 15.8333 19Z" fill="#95AC8F"/>
<path d="M15.8333 24.0667H10.7666C10.4169 24.0667 10.1333 24.3502 10.1333 24.7C10.1333 25.0497 10.4169 25.3333 10.7666 25.3333H15.8333C16.1831 25.3333 16.4666 25.0497 16.4666 24.7C16.4666 24.3502 16.1831 24.0667 15.8333 24.0667Z" fill="#95AC8F"/>
</g>
</svg>
