<svg width="56" height="25" viewBox="0 0 56 25" fill="none" xmlns="http://www.w3.org/2000/svg">
<path d="M8.21142 9.58898L8.20611 15.729C8.2035 16.4025 7.92395 16.7436 7.36747 16.7525C6.81704 16.7471 6.53917 16.4104 6.53917 15.733V9.59691C6.53917 8.91557 6.81704 8.57008 7.37278 8.56045C7.93103 8.563 8.21142 8.90764 8.21142 9.58898ZM12.3691 9.5836L12.3638 15.7288C12.3638 16.4101 12.0877 16.7512 11.5355 16.7522H11.5252C10.9694 16.7522 10.6933 16.4155 10.6969 15.7421V13.6779L9.47386 13.6833C8.90507 13.6833 8.61686 13.3435 8.60922 12.6638C8.60922 11.9771 8.89743 11.6378 9.47386 11.6404L10.6969 11.622V9.58304C10.6969 8.8964 10.9764 8.55356 11.5355 8.5545C12.0887 8.55224 12.3666 8.89716 12.3691 9.58389V9.5836Z" fill="#00A7D0"/>
<path d="M14.4699 8.57886C15.0257 8.58415 15.3087 8.92085 15.3192 9.58899V15.7398C15.3114 16.4194 15.0335 16.7632 14.4805 16.7763C13.9248 16.7574 13.6469 16.4119 13.6469 15.7398V9.59692C13.6417 8.91821 13.916 8.57886 14.4699 8.57886Z" fill="#00A7D0"/>
<path d="M23.0867 8.56045L27.3014 8.57348C27.8182 8.5814 28.0791 8.91179 28.0841 9.56463C28.0841 10.2592 27.8028 10.6135 27.2402 10.6274H25.9951L26.0004 15.7364C25.9926 16.4047 25.7147 16.744 25.1618 16.7559C24.606 16.7559 24.3281 16.4255 24.3281 15.7647L24.3335 10.6294H23.0867C22.5302 10.6287 22.2519 10.2855 22.2519 9.60003C22.2581 8.91811 22.536 8.57348 23.0867 8.56045Z" fill="#00A7D0"/>
<path d="M30.1268 8.56045L34.3415 8.57348C34.8583 8.5814 35.1192 8.91179 35.1243 9.56463C35.1243 10.2592 34.8429 10.6135 34.2803 10.6274H30.9632V14.7005H34.2742C34.8333 14.7058 35.1128 15.0513 35.1128 15.737C35.1128 16.4051 34.8384 16.7449 34.2895 16.7564H30.1268C29.5763 16.7564 29.2984 16.4261 29.2932 15.7653V9.59691C29.2954 8.91821 29.5733 8.57272 30.1268 8.56045ZM29.7581 12.6828C29.7633 12.0014 30.1693 11.656 30.9761 11.6463H33.4587C34.2795 11.6517 34.6974 11.991 34.7077 12.6698C34.6921 13.3511 34.2757 13.6923 33.4587 13.6932H30.9839C30.1659 13.6983 29.7573 13.3615 29.7581 12.6828Z" fill="#00A7D0"/>
<path d="M39.72 8.57348L41.3897 8.58141C41.9403 8.58934 42.2181 8.92604 42.2234 9.59153C42.2207 10.2835 41.9412 10.6263 41.3847 10.6201L39.7253 10.628C38.6191 10.6148 38.0659 11.2944 38.0659 12.6669C38.0659 14.0217 38.6208 14.7039 39.7306 14.7135H41.385C41.9407 14.7267 42.2186 15.0635 42.2186 15.7237C42.2186 16.405 41.9432 16.7496 41.3953 16.7522H39.7306C37.5101 16.7524 36.3989 15.3878 36.397 12.6584C36.397 9.9357 37.5025 8.57385 39.7133 8.57291L39.72 8.57348Z" fill="#00A7D0"/>
<path d="M45.1656 9.58898L45.1603 15.7265C45.1577 16.3999 44.8781 16.7411 44.3216 16.7499C43.7712 16.7445 43.4933 16.4078 43.4933 15.7305V9.59691C43.4933 8.91557 43.7712 8.57008 44.327 8.56045C44.8877 8.563 45.1656 8.90764 45.1656 9.58898ZM49.3233 9.5836L49.318 15.7288C49.318 16.4101 49.0419 16.7512 48.4897 16.7522H48.4793C47.9236 16.7522 47.6475 16.4155 47.651 15.7421V13.6779L46.428 13.6833C45.8592 13.6833 45.571 13.3435 45.5634 12.6638C45.5634 11.9771 45.8516 11.6378 46.428 11.6404L47.651 11.622V9.58304C47.651 8.8964 47.9306 8.55356 48.4897 8.5545C49.0429 8.55224 49.3208 8.89716 49.3233 9.58389V9.5836Z" fill="#00A7D0"/>
<path d="M19.4794 13.4038C20.1407 13.4038 20.6767 12.8608 20.6767 12.1909C20.6767 11.521 20.1407 10.978 19.4794 10.978C18.8182 10.978 18.2821 11.521 18.2821 12.1909C18.2821 12.8608 18.8182 13.4038 19.4794 13.4038Z" fill="#00A7D0"/>
<path d="M20.1755 20.8329C20.3183 20.8383 20.4248 20.883 20.4922 20.9671C20.5596 21.0512 20.8791 21.4432 21.4505 22.1432C22.0141 21.4513 22.3317 21.0593 22.4035 20.9671C22.4736 20.8776 22.5801 20.8329 22.7177 20.8329C22.9972 20.8355 23.137 21.0065 23.1409 21.3511L23.1434 24.4713C23.1434 24.8185 23.0006 24.9921 22.7149 24.9974C22.437 24.9949 22.2956 24.8213 22.2888 24.4713V22.6348L21.7577 23.3031C21.6875 23.3901 21.5838 23.4345 21.4435 23.4345C21.3084 23.4345 21.2045 23.3898 21.1318 23.3003C21.0591 23.2108 20.8824 22.9925 20.6007 22.6453V24.4736C20.5981 24.8182 20.4578 24.9918 20.1774 24.9943C19.897 24.9969 19.7514 24.8244 19.7542 24.4736V21.3483C19.7573 21.0037 19.8951 20.8329 20.1755 20.8329Z" fill="#00A7D0"/>
<path d="M24.2163 20.825L26.3588 20.8304C26.621 20.8357 26.7535 21.0003 26.756 21.3356C26.756 21.6881 26.6132 21.8697 26.3275 21.8736H24.6421V23.944H26.325C26.6081 23.9466 26.751 24.1201 26.751 24.4702C26.751 24.81 26.6112 24.9833 26.3317 24.9884H24.2163C23.9368 24.9884 23.797 24.8199 23.7931 24.4832V21.3523C23.7956 21.0065 23.9359 20.8329 24.2163 20.825ZM23.7931 22.9206C23.7956 22.5734 24.0215 22.3998 24.471 22.3944H25.8497C26.3067 22.397 26.5378 22.5706 26.543 22.9152C26.5352 23.2624 26.3041 23.436 25.8497 23.436H24.4735C24.0218 23.436 23.7931 23.2661 23.7931 22.9203V22.9206Z" fill="#00A7D0"/>
<path d="M27.8261 20.8329H29.0961C30.2258 20.8355 30.7911 21.5292 30.7918 22.9138C30.7893 24.2949 30.2414 24.9867 29.1403 24.9921H27.8264C27.5432 24.9946 27.4032 24.8222 27.4032 24.4713V21.3523C27.4026 21.0065 27.5455 20.8329 27.8261 20.8329ZM28.2521 21.8747V23.9451H29.1009C29.6618 23.9504 29.9405 23.6023 29.937 22.9007C29.9395 22.2194 29.6616 21.8773 29.0983 21.8747H28.2521Z" fill="#00A7D0"/>
<path d="M31.8538 20.8355C32.137 20.838 32.2799 21.0091 32.2849 21.3486V24.4738C32.2824 24.8185 32.1395 24.9946 31.8589 25C31.5757 24.9921 31.4356 24.8159 31.4356 24.4738V21.3523C31.4331 21.0065 31.5734 20.8355 31.8538 20.8355Z" fill="#00A7D0"/>
<path d="M33.3575 24.9921C33.2826 24.9917 33.2094 24.9688 33.1473 24.9264C33.0772 24.8793 33.0221 24.8126 32.9888 24.7344C32.9507 24.6521 32.9316 24.5621 32.9329 24.4713C32.9329 24.3792 33.1432 23.8135 33.5638 22.7744C33.9831 21.7326 34.2157 21.1725 34.2521 21.0881C34.2854 21.0099 34.3405 20.9432 34.4106 20.8961C34.4723 20.8513 34.5463 20.8272 34.6222 20.8272C34.6981 20.8272 34.7721 20.8513 34.8338 20.8961C34.9013 20.9453 34.9549 21.0115 34.9895 21.0881C35.0268 21.1696 35.257 21.7317 35.6803 22.7744C36.1035 23.8171 36.3156 24.3828 36.3165 24.4713C36.3178 24.5621 36.2987 24.6521 36.2606 24.7344C36.2273 24.8126 36.1722 24.8793 36.1021 24.9264C36.0409 24.9688 35.9686 24.9917 35.8944 24.9921H33.3575ZM35.2039 23.9443L34.6222 22.4791L34.0405 23.9443H35.2039Z" fill="#00A7D0"/>
<path d="M44.1061 0H11.8964C5.33655 0 0 5.57878 0 12.4407C0 19.3026 5.33655 24.8813 11.8964 24.8813H18.5706C18.5706 24.4158 18.5809 23.7344 18.5784 23.0531H11.8972C6.30099 23.0531 1.74969 18.2916 1.74969 12.4407C1.74969 6.58975 6.30211 1.82825 11.8972 1.82825H44.1061C49.7024 1.82825 54.2537 6.58975 54.2537 12.4407C54.2537 18.2916 49.7012 23.0531 44.1061 23.0531H36.9595C37.0607 23.3162 37.1882 23.6291 37.2815 23.8554C37.4685 24.3025 37.5052 24.4079 37.6709 24.8525L44.1036 24.8808C50.6634 24.8808 56 19.302 56 12.4401C56 5.57821 50.666 0 44.1061 0Z" fill="#00A7D0"/>
</svg>