<svg width="50" height="50" viewBox="0 0 50 50" fill="none" xmlns="http://www.w3.org/2000/svg">
<path d="M7.91712 27.1813C7.91811 27.1781 7.91687 27.1813 7.91564 27.1848C7.91441 27.1878 7.91342 27.1906 7.91457 27.1879C7.91383 27.1903 7.91375 27.1908 7.91605 27.1846C7.91835 27.1785 7.91803 27.179 7.91712 27.1813Z" fill="#95AC8F"/>
<path d="M42.6101 29.0973C42.5433 26.0748 41.7802 22.9861 40.342 19.9171C37.9111 14.7297 34.4232 11.4224 34.2759 11.2842C33.9859 11.0119 33.5459 10.9706 33.2129 11.1891C32.8803 11.4075 32.7396 11.8222 32.8741 12.1967C32.8928 12.2514 33.324 13.5575 32.7047 15.378C32.5772 15.7529 32.2545 15.7749 32.1203 15.7674C32.0155 15.7613 31.6668 15.7101 31.5808 15.3085C31.1734 13.4072 30.2578 10.6219 28.2098 8.15005C26.0002 5.48295 22.976 3.75573 19.2211 3.01627C18.9248 2.95782 18.6194 3.05915 18.4167 3.28308C18.2139 3.50701 18.1433 3.82082 18.2306 4.10992C19.4771 8.23622 18.7088 11.0746 17.0481 13.729C14.295 10.4834 11.0349 10.1258 10.885 10.1111C10.5827 10.0812 10.2872 10.2141 10.1073 10.4592C9.92742 10.7042 9.8904 11.0266 10.0093 11.3062C10.0159 11.3218 10.6719 12.8852 10.9176 15.2409C11.2437 18.3675 10.7324 21.3393 9.39785 24.0741C8.86106 25.022 8.34536 26.0887 7.91644 27.1848C7.75579 27.6251 7.59496 28.1294 7.4771 28.5791C7.35648 29.0391 7.63155 29.5097 8.09155 29.6303C8.55138 29.7507 9.02214 29.4758 9.14267 29.0158C9.2502 28.6058 9.37951 28.1946 9.52725 27.7932C10.9563 24.1232 13.1463 21.477 15.2641 18.918C18.5067 15 21.5818 11.2846 20.2458 5.03078C27.0375 6.96367 29.2063 12.4453 29.897 15.6691C30.1167 16.6946 30.9698 17.4249 32.0198 17.4863C33.0652 17.5475 33.9978 16.9232 34.3347 15.9325C34.5338 15.3474 34.6476 14.7979 34.7054 14.2994C35.8949 15.7256 37.5238 17.9467 38.8056 20.6966C41.8223 27.1687 41.5893 33.3796 38.1133 39.1571C36.8297 41.2904 34.9437 42.9722 32.7426 44.0433C35.214 41.8436 36.7737 38.6405 36.7737 35.0795C36.7737 35.0753 36.7737 35.0711 36.7736 35.0669C36.6707 27.985 31.203 22.7722 30.9703 22.5538C30.6768 22.2784 30.2271 22.2318 29.8937 22.4579C29.5603 22.6839 29.424 23.0997 29.5715 23.4745L29.5699 23.4707C29.6741 23.8118 29.4722 23.9583 29.2844 24.0213C29.1267 24.074 28.8426 24.1088 28.711 23.7477C27.7585 21.1342 25.5631 17.8098 20.512 16.815C20.2594 16.7651 19.9977 16.8312 19.7988 16.9948C19.5999 17.1583 19.4847 17.4022 19.4847 17.6598C19.4847 21.4107 17.8581 23.8354 16.1361 26.4024C14.4825 28.8673 12.7728 31.416 12.7728 35.0796C12.7728 39.0252 14.6871 42.5318 17.6354 44.7203C13.7544 43.4434 10.6206 40.337 9.32071 36.2081C9.17788 35.7545 8.69447 35.5028 8.24093 35.6455C7.78738 35.7882 7.53547 36.2716 7.67822 36.7252C9.62815 42.9187 15.233 47.08 21.6251 47.08H27.0554C29.572 47.08 32.0594 46.433 34.2485 45.2092C36.45 43.9782 38.2967 42.1925 39.5888 40.0449C41.6774 36.5736 42.6938 32.8903 42.6101 29.0973V29.0973ZM13.9377 17.8202C13.4873 18.3645 13.0239 18.9244 12.559 19.5068C12.7974 17.7721 12.7552 16.2182 12.6231 14.9942C12.503 13.8811 12.3019 12.9328 12.1089 12.207C13.1768 12.6231 14.6899 13.4776 16.0298 15.2068C15.392 16.0628 14.6819 16.9211 13.9377 17.8202ZM24.7733 45.3581C19.1057 45.3581 14.4947 40.7471 14.4947 35.0795C14.4947 31.9401 15.9866 29.7161 17.566 27.3616C19.1997 24.9263 20.8842 22.4153 21.1656 18.7447C24.7348 19.7916 26.3572 22.3172 27.0933 24.3372C27.5695 25.644 28.8309 25.9891 29.8313 25.6539C30.2215 25.5232 30.581 25.2854 30.8495 24.9647C32.3658 26.7775 34.9839 30.5539 35.052 35.0856C35.0486 40.7506 30.4389 45.3581 24.7733 45.3581Z" fill="#95AC8F"/>
<path d="M8.46962 33.2534C8.62975 33.0934 8.72187 32.872 8.72187 32.6456C8.72187 32.4183 8.62975 32.1971 8.46962 32.0369C8.30949 31.8759 8.08736 31.7847 7.86094 31.7847C7.63451 31.7847 7.41239 31.8759 7.25225 32.0369C7.09212 32.1971 7 32.4184 7 32.6456C7 32.872 7.09212 33.0933 7.25225 33.2534C7.41239 33.4144 7.63451 33.5065 7.86094 33.5065C8.08822 33.5065 8.30949 33.4144 8.46962 33.2534Z" fill="#95AC8F"/>
<path d="M27.5497 29.6451C27.1222 29.4373 26.6069 29.6156 26.3992 30.0434L21.6619 39.7983C21.4542 40.226 21.6325 40.7411 22.0603 40.9487C22.1814 41.0076 22.3095 41.0354 22.4357 41.0354C22.755 41.0354 23.0619 40.857 23.2108 40.5504L27.9479 30.7955C28.1558 30.3678 27.9774 29.8527 27.5497 29.6451V29.6451Z" fill="#95AC8F"/>
<path d="M29.2316 35.8767C27.7124 35.8767 26.4766 37.1126 26.4766 38.6317C26.4766 40.1508 27.7124 41.3867 29.2316 41.3867C30.7507 41.3867 31.9866 40.1508 31.9866 38.6317C31.9866 37.1126 30.7507 35.8767 29.2316 35.8767ZM29.2316 39.6648C28.6619 39.6648 28.1984 39.2014 28.1984 38.6317C28.1984 38.062 28.6619 37.5986 29.2316 37.5986C29.8012 37.5986 30.2647 38.062 30.2647 38.6317C30.2647 39.2014 29.8012 39.6648 29.2316 39.6648Z" fill="#95AC8F"/>
<path d="M23.134 31.9618C23.134 30.4427 21.8981 29.2068 20.379 29.2068C18.8599 29.2068 17.624 30.4427 17.624 31.9618C17.624 33.4809 18.8599 34.7168 20.379 34.7168C21.8981 34.7168 23.134 33.4808 23.134 31.9618ZM20.379 32.9949C19.8093 32.9949 19.3459 32.5315 19.3459 31.9618C19.3459 31.3921 19.8093 30.9287 20.379 30.9287C20.9487 30.9287 21.4121 31.3921 21.4121 31.9618C21.4121 32.5315 20.9487 32.9949 20.379 32.9949Z" fill="#95AC8F"/>
</svg>
