<svg width="51" height="50" viewBox="0 0 51 50" fill="none" xmlns="http://www.w3.org/2000/svg">
<path d="M0 50H50.1365V0H0V50ZM2.00546 2H48.1311V48H2.00546V2Z" fill="#CC0000"/>
<path d="M32.3379 31H30.5129V19H31.9769V18.32H18.6005V18.97H19.182C19.4725 18.931 19.7674 18.9412 20.0544 19C20.1766 19.0444 20.28 19.1291 20.3475 19.24C20.4149 19.3509 20.4424 19.4814 20.4254 19.61V22.33C20.4254 23.39 20.392 24.39 20.3252 25.33C20.2817 26.1279 20.1913 26.9226 20.0544 27.71C19.9809 28.05 19.8973 28.3833 19.8037 28.71C19.701 29.0821 19.5634 29.4437 19.3926 29.79C19.2441 30.0854 19.0588 30.3609 18.8411 30.61C18.7477 30.731 18.6277 30.8291 18.4904 30.8967C18.3531 30.9643 18.2021 30.9996 18.049 31H16.7153V35.7H17.3771C17.4009 34.8019 17.6528 33.9246 18.1091 33.15C18.3727 32.753 18.7137 32.4129 19.1119 32.15C19.5151 31.8637 20.0008 31.7162 20.4956 31.73H28.6378C29.1326 31.7162 29.6184 31.8637 30.0216 32.15C30.42 32.4125 30.7611 32.7526 31.0243 33.15C31.4799 33.9249 31.7317 34.8021 31.7563 35.7H32.4181L32.3379 31ZM23.7746 31H19.4227C20.1219 30.0575 20.5797 28.959 20.7563 27.8C20.7964 27.5933 20.8366 27.29 20.8767 26.89C20.9168 26.49 20.9535 26.0467 20.987 25.56C20.987 25.0667 21.0104 24.5433 21.0572 23.99C21.1039 23.4367 21.1039 22.8933 21.0572 22.36V19.67C21.0572 19.35 21.1507 19.1433 21.3379 19.05C21.5615 18.9385 21.8103 18.8868 22.0599 18.9H23.8046L23.7746 31Z" fill="#CC0000"/>
<path d="M44.5913 34.35C43.9148 33.7144 43.1214 33.2152 42.2549 32.88C41.3636 32.5321 40.4144 32.3557 39.4573 32.36C38.5119 32.357 37.574 32.5264 36.6898 32.86C35.8235 33.1819 35.0295 33.6712 34.3534 34.3C33.6698 34.9425 33.121 35.7141 32.739 36.57C32.1479 37.9076 31.9696 39.3903 32.2268 40.8294C32.4839 42.2684 33.1649 43.5984 34.1829 44.65C34.8456 45.3207 35.6322 45.8572 36.4992 46.23C37.4298 46.63 38.434 46.831 39.4473 46.82C40.4284 46.8276 41.4019 46.6477 42.3151 46.29C43.1843 45.9509 43.9781 45.4446 44.6514 44.8C45.3225 44.1498 45.8547 43.3708 46.2157 42.51C46.6041 41.5823 46.7986 40.5853 46.7872 39.58C46.8017 38.6036 46.6131 37.6348 46.2334 36.7346C45.8537 35.8345 45.2912 35.0226 44.5812 34.35H44.5913ZM40.7207 44.78C40.7264 45.1551 40.6219 45.5236 40.4199 45.84C40.3102 46.0001 40.159 46.1274 39.9824 46.2085C39.8058 46.2895 39.6104 46.3211 39.4172 46.3C39.2335 46.3122 39.0497 46.2762 38.8843 46.1955C38.7189 46.1147 38.5777 45.9922 38.4746 45.84C38.2664 45.5259 38.158 45.1565 38.1638 44.78V35.45C38.1638 35.1967 38.1638 34.9233 38.1638 34.63C38.1807 34.3484 38.2311 34.0697 38.3142 33.8C38.3846 33.5571 38.5118 33.3344 38.6852 33.15C38.7778 33.0606 38.888 32.9914 39.0088 32.9467C39.1296 32.9019 39.2584 32.8826 39.3871 32.89C39.5203 32.8826 39.6537 32.9018 39.7794 32.9464C39.9051 32.9911 40.0206 33.0603 40.1191 33.15C40.2977 33.3321 40.4286 33.5554 40.5001 33.8C40.5827 34.0695 40.6299 34.3484 40.6405 34.63C40.6405 34.9233 40.6405 35.1967 40.6405 35.45L40.7207 44.78Z" fill="#CC0000"/>
<path d="M7.58066 18.41V19H17.5378V18.44H15.6827V4.55C16.2336 4.58958 16.7619 4.78372 17.2069 5.11C17.6344 5.43793 17.9981 5.84126 18.2798 6.3C18.5817 6.78602 18.8241 7.3064 19.0018 7.85C19.1823 8.40333 19.3327 8.95 19.453 9.49H20.0546L19.9844 4H5.14403L5.01367 9.5H5.64539C5.76572 8.96667 5.91613 8.42 6.09662 7.86C6.27318 7.31767 6.51208 6.79755 6.80856 6.31C7.09507 5.84553 7.46975 5.44131 7.91156 5.12C8.36136 4.79577 8.89234 4.60195 9.44574 4.56V18.41H7.58066Z" fill="#CC0000"/>
</svg>
