<svg width="202" height="50" viewBox="0 0 202 50" fill="none" xmlns="http://www.w3.org/2000/svg">
<g clip-path="url(#clip0)">
<path d="M73.5802 13.4002H76.6787V5.89018H79.8272V3.43018H70.4316V5.89018H73.5802V13.4002Z" fill="#CC0000"/>
<path d="M86.1246 13.5701C87.0874 13.621 88.0472 13.4248 88.9122 13.0001C89.6401 12.6005 90.2332 11.9951 90.6168 11.2601C91.0652 10.3535 91.2822 9.35044 91.2486 8.34008C91.2928 7.65586 91.1955 6.96987 90.9626 6.32476C90.7297 5.67964 90.3663 5.08918 89.8949 4.59008C89.3756 4.12113 88.7673 3.76089 88.1059 3.53072C87.4445 3.30054 86.7435 3.20511 86.0444 3.25008C85.3477 3.20743 84.6495 3.30692 83.9926 3.54248C83.3358 3.77803 82.734 4.14471 82.224 4.62008C81.7513 5.12895 81.3869 5.72795 81.1525 6.38101C80.9181 7.03408 80.8187 7.72769 80.8603 8.42008C80.8246 9.43445 81.0636 10.4397 81.5522 11.3301C81.966 12.0488 82.5834 12.6298 83.327 13.0001C84.2046 13.3979 85.1609 13.5927 86.1246 13.5701V13.5701ZM84.5002 6.25008C84.6842 6.03341 84.9153 5.86137 85.1759 5.74702C85.4365 5.63266 85.7198 5.579 86.0043 5.59008C86.294 5.57678 86.583 5.62825 86.8502 5.74072C87.1174 5.85318 87.356 6.0238 87.5485 6.24008C87.9787 6.83708 88.1813 7.56748 88.12 8.30008C88.2017 9.11185 88.0113 9.92771 87.5786 10.6201C87.3793 10.8267 87.1403 10.991 86.8758 11.1033C86.6113 11.2155 86.3268 11.2734 86.0394 11.2734C85.7519 11.2734 85.4675 11.2155 85.203 11.1033C84.9385 10.991 84.6995 10.8267 84.5002 10.6201C84.068 9.98283 83.8697 9.21633 83.9387 8.45008C83.8634 7.67393 84.062 6.89589 84.5002 6.25008V6.25008Z" fill="#CC0000"/>
<path d="M95.9615 9.69985H97.6561C98.6566 9.77863 99.6497 9.47473 100.434 8.84985C100.745 8.5433 100.987 8.17441 101.144 7.76757C101.301 7.36073 101.37 6.92522 101.346 6.48985C101.373 6.0746 101.313 5.65835 101.169 5.26756C101.026 4.87677 100.803 4.51997 100.514 4.21985C99.8109 3.63741 98.9083 3.35051 97.997 3.41985H92.853V13.4198H95.9615V9.69985ZM95.9615 5.44985H96.8439C97.2663 5.4022 97.6908 5.52057 98.0271 5.77985C98.1296 5.88595 98.2098 6.01134 98.2632 6.14868C98.3165 6.28603 98.342 6.4326 98.338 6.57985C98.3412 6.73011 98.3104 6.87918 98.2479 7.01595C98.1854 7.15272 98.0928 7.27369 97.977 7.36985C97.6068 7.6125 97.1646 7.72186 96.7236 7.67985H95.9615V5.44985Z" fill="#CC0000"/>
<path d="M106.049 5.88018H110.882V3.43018H102.96V13.4002H106.049V5.88018Z" fill="#CC0000"/>
<path d="M119.967 12.9999C120.694 12.6003 121.288 11.9949 121.671 11.2599C122.098 10.3649 122.301 9.38015 122.263 8.38989C122.307 7.70566 122.21 7.01968 121.977 6.37456C121.744 5.72945 121.381 5.13899 120.909 4.63989C120.39 4.17094 119.782 3.8107 119.12 3.58052C118.459 3.35035 117.758 3.25492 117.059 3.29989C116.377 3.26012 115.694 3.35639 115.05 3.58304C114.406 3.8097 113.814 4.16219 113.308 4.61989C112.836 5.12875 112.471 5.72775 112.237 6.38082C112.003 7.03388 111.903 7.7275 111.945 8.41989C111.909 9.43426 112.148 10.4395 112.637 11.3299C113.051 12.0631 113.676 12.6553 114.432 13.0299C115.311 13.4174 116.268 13.6019 117.229 13.5699C118.175 13.6123 119.117 13.4162 119.967 12.9999V12.9999ZM115.555 10.6599C115.123 10.0223 114.925 9.25606 114.993 8.48989C114.925 7.7192 115.127 6.94894 115.565 6.30989C115.749 6.09322 115.98 5.92118 116.24 5.80682C116.501 5.69247 116.784 5.6388 117.069 5.64989C117.358 5.63659 117.647 5.68806 117.915 5.80052C118.182 5.91299 118.42 6.0836 118.613 6.29989C119.044 6.8965 119.247 7.6272 119.184 8.35989C119.266 9.17165 119.076 9.98752 118.643 10.6799C118.444 10.8865 118.205 11.0508 117.94 11.1631C117.676 11.2753 117.391 11.3332 117.104 11.3332C116.816 11.3332 116.532 11.2753 116.267 11.1631C116.003 11.0508 115.764 10.8865 115.565 10.6799L115.555 10.6599Z" fill="#CC0000"/>
<path d="M130.656 13.2698C131.064 13.2344 131.462 13.1224 131.829 12.9398C132.248 12.7028 132.594 12.3573 132.832 11.9398C133.076 11.5142 133.201 11.0304 133.193 10.5398C133.2 9.98215 133.016 9.43864 132.671 8.99983C132.257 8.5355 131.7 8.22228 131.087 8.10983C131.501 7.98538 131.874 7.75427 132.17 7.43983C132.538 7.01977 132.735 6.47745 132.721 5.91983C132.728 5.58682 132.662 5.25637 132.529 4.95095C132.395 4.64552 132.198 4.37229 131.949 4.14983C131.329 3.63956 130.536 3.38552 129.733 3.43983H123.938V13.4398H129.272C129.736 13.407 130.198 13.3502 130.656 13.2698V13.2698ZM127.056 5.44983H128.42C128.773 5.41414 129.128 5.50256 129.422 5.69983C129.517 5.78542 129.591 5.8908 129.639 6.00839C129.688 6.12597 129.71 6.25283 129.703 6.37983C129.712 6.51303 129.692 6.64658 129.643 6.77101C129.595 6.89544 129.519 7.0077 129.422 7.09983C129.127 7.29555 128.773 7.38383 128.42 7.34983H127.076L127.056 5.44983ZM127.056 11.2598V9.25983H128.63C129.027 9.22321 129.426 9.3181 129.763 9.52983C129.868 9.61568 129.951 9.72438 130.007 9.8475C130.062 9.97062 130.089 10.1049 130.084 10.2398C130.087 10.3827 130.059 10.5245 130.001 10.6556C129.944 10.7867 129.86 10.9041 129.753 10.9998C129.422 11.2186 129.026 11.3175 128.63 11.2798L127.056 11.2598Z" fill="#CC0000"/>
<path d="M143.009 12.6702C143.339 12.4295 143.604 12.1104 143.779 11.742C143.954 11.3735 144.034 10.9673 144.012 10.5602C144.049 10.0865 143.968 9.61106 143.775 9.17646C143.583 8.74187 143.285 8.36174 142.909 8.07018C141.895 7.46365 140.719 7.18425 139.54 7.27018H137.885V3.43018H134.797V13.4302H140.111C141.134 13.488 142.148 13.222 143.009 12.6702V12.6702ZM137.895 11.2602V9.26018H139.48C140.449 9.26018 140.934 9.56684 140.934 10.1802C140.934 10.7935 140.449 11.1268 139.48 11.1802L137.895 11.2602Z" fill="#CC0000"/>
<path d="M147.873 3.43018H144.774V13.4102H147.873V3.43018Z" fill="#CC0000"/>
<path d="M153.137 2.35C153.606 2.70726 154.182 2.89425 154.772 2.88C155.368 2.89804 155.952 2.71089 156.426 2.35C156.86 2.01996 157.15 1.53693 157.238 1H156.055C155.971 1.27063 155.794 1.5035 155.557 1.65861C155.319 1.81371 155.034 1.88139 154.752 1.85C154.476 1.87703 154.2 1.80676 153.97 1.65143C153.741 1.49611 153.574 1.26558 153.498 1H152.315C152.403 1.53919 152.698 2.02314 153.137 2.35V2.35Z" fill="#CC0000"/>
<path d="M156.596 7.93018V13.4002H159.494V3.43018H156.606L152.846 8.95018V3.43018H149.928V13.4002H152.846L156.596 7.93018Z" fill="#CC0000"/>
<path d="M80.5494 20.1499H72.1966V22.3799C72.2254 24.2325 71.9337 26.0762 71.3343 27.8299H70.3315V32.2999H72.8183V30.1299H79.2057V32.2999H81.6925V27.8299H80.5494V20.1499ZM77.461 27.8299H74.2723C74.6943 26.1609 74.9297 24.4505 74.9742 22.7299V22.5999H77.461V27.8299Z" fill="#CC0000"/>
<path d="M87.6186 19.9998C86.9258 19.9586 86.2319 20.0579 85.5787 20.2916C84.9255 20.5254 84.3266 20.8888 83.8182 21.3598C83.3456 21.8687 82.9811 22.4677 82.7467 23.1208C82.5124 23.7738 82.413 24.4674 82.4545 25.1598C82.4189 26.1742 82.6579 27.1794 83.1464 28.0698C83.5609 28.8026 84.1861 29.3948 84.9413 29.7698C85.8213 30.1573 86.7775 30.3419 87.7389 30.3098C88.7027 30.3436 89.6591 30.1301 90.5165 29.6898C91.2569 29.2923 91.8611 28.6828 92.2512 27.9398C92.6777 27.0448 92.8807 26.0601 92.8428 25.0698C92.887 24.3856 92.7897 23.6996 92.5568 23.0545C92.3239 22.4094 91.9605 21.8189 91.4891 21.3198C90.9659 20.8519 90.3535 20.4939 89.6885 20.2671C89.0235 20.0404 88.3195 19.9495 87.6186 19.9998V19.9998ZM89.1828 27.3598C88.9836 27.5664 88.7445 27.7308 88.48 27.843C88.2156 27.9553 87.9311 28.0131 87.6436 28.0131C87.3562 28.0131 87.0717 27.9553 86.8073 27.843C86.5428 27.7308 86.3037 27.5664 86.1045 27.3598C85.6723 26.7226 85.4739 25.9561 85.5429 25.1898C85.473 24.4158 85.675 23.6416 86.1145 22.9998C86.2985 22.7832 86.5296 22.6111 86.7902 22.4968C87.0508 22.3824 87.3341 22.3287 87.6186 22.3398C87.9083 22.3265 88.1973 22.378 88.4645 22.4905C88.7317 22.6029 88.9702 22.7735 89.1628 22.9898C89.578 23.5746 89.7765 24.2852 89.7243 24.9998C89.8128 25.8215 89.6221 26.6491 89.1828 27.3498V27.3598Z" fill="#CC0000"/>
<path d="M98.5183 20.1499H94.4473V30.1299H96.9842V22.5199L98.9295 30.1299H101.226L103.171 22.5199V30.1299H105.708V20.1499H101.647L100.083 26.2299L98.5183 20.1499Z" fill="#CC0000"/>
<path d="M75.9065 36.7098C75.2099 36.6428 74.5071 36.7306 73.8486 36.967C73.1901 37.2034 72.5924 37.5824 72.0985 38.0769C71.6046 38.5714 71.2268 39.1689 70.9923 39.8265C70.7578 40.4841 70.6725 41.1854 70.7425 41.8798C70.7068 42.8942 70.9458 43.8994 71.4343 44.7898C71.8409 45.5183 72.4551 46.1099 73.1991 46.4898C74.0791 46.8773 75.0354 47.0619 75.9968 47.0298C76.9606 47.0636 77.9169 46.8501 78.7743 46.4098C79.5022 46.0102 80.0953 45.4048 80.479 44.6698C80.9055 43.7748 81.1085 42.7901 81.0706 41.7998C81.1272 41.1103 81.0396 40.4165 80.8135 39.7624C80.5874 39.1083 80.2277 38.5081 79.757 37.9998C79.2338 37.5398 78.6236 37.1887 77.9624 36.9672C77.3011 36.7456 76.6021 36.6581 75.9065 36.7098V36.7098ZM77.4708 44.0698C77.2715 44.2764 77.0325 44.4408 76.768 44.553C76.5035 44.6653 76.219 44.7231 75.9316 44.7231C75.6441 44.7231 75.3597 44.6653 75.0952 44.553C74.8307 44.4408 74.5917 44.2764 74.3924 44.0698C73.9602 43.4326 73.7619 42.6661 73.8309 41.8998C73.7603 41.1303 73.9587 40.3602 74.3924 39.7198C74.5714 39.4908 74.8014 39.3065 75.0642 39.1816C75.327 39.0566 75.6154 38.9944 75.9065 38.9998C76.1962 38.9865 76.4852 39.038 76.7524 39.1505C77.0196 39.2629 77.2582 39.4336 77.4507 39.6498C77.8809 40.2468 78.0835 40.9772 78.0223 41.7098C78.1124 42.5393 77.918 43.3747 77.4708 44.0798V44.0698Z" fill="#CC0000"/>
<path d="M90.8977 41.5299C89.8841 40.9234 88.7074 40.644 87.5285 40.7299H85.874V38.8999H91.2486V36.8999H82.8257V46.8999H88.1301C89.1457 46.9645 90.1559 46.7092 91.018 46.1699C91.3473 45.9286 91.6113 45.6094 91.7864 45.2411C91.9614 44.8728 92.0419 44.4669 92.0207 44.0599C92.0625 43.578 91.9814 43.0933 91.7851 42.651C91.5887 42.2087 91.2835 41.8231 90.8977 41.5299V41.5299ZM87.4583 44.7199H85.874V42.7199H87.4583C88.4276 42.7199 88.9123 43.0266 88.9123 43.6399C88.9123 44.2532 88.4276 44.6099 87.4583 44.7099V44.7199Z" fill="#CC0000"/>
<path d="M98.4279 36.7098C97.7305 36.6412 97.0265 36.7278 96.3668 36.9635C95.707 37.1992 95.108 37.578 94.613 38.0727C94.1179 38.5674 93.7392 39.1655 93.5042 39.8239C93.2691 40.4823 93.1836 41.1845 93.2538 41.8799C93.2181 42.8942 93.4571 43.8994 93.9457 44.7899C94.3602 45.5227 94.9854 46.1148 95.7406 46.4899C96.6205 46.8773 97.5768 47.0619 98.5382 47.0298C99.502 47.0636 100.458 46.8501 101.316 46.4099C102.044 46.0102 102.637 45.4048 103.02 44.6698C103.447 43.7748 103.65 42.7901 103.612 41.7998C103.666 41.1089 103.575 40.4142 103.346 39.7601C103.116 39.1059 102.753 38.5065 102.278 37.9999C101.755 37.5398 101.145 37.1887 100.484 36.9672C99.8225 36.7456 99.1235 36.6582 98.4279 36.7098ZM99.9921 44.0698C99.7929 44.2764 99.5538 44.4408 99.2893 44.553C99.0249 44.6653 98.7404 44.7231 98.4529 44.7231C98.1655 44.7231 97.881 44.6653 97.6166 44.553C97.3521 44.4408 97.113 44.2764 96.9138 44.0698C96.4816 43.4326 96.2832 42.6661 96.3522 41.8999C96.2817 41.1303 96.4801 40.3602 96.9138 39.7199C97.0978 39.5032 97.3288 39.3311 97.5894 39.2168C97.8501 39.1024 98.1334 39.0488 98.4179 39.0599C98.7076 39.0466 98.9966 39.098 99.2638 39.2105C99.5309 39.3229 99.7695 39.4936 99.9621 39.7098C100.392 40.3068 100.595 41.0372 100.534 41.7699C100.61 42.5794 100.416 43.3915 99.9821 44.0799L99.9921 44.0698Z" fill="#CC0000"/>
<path d="M110.421 36.8798H105.287V46.8798H108.395V43.1798H110.09C111.09 43.2586 112.083 42.9547 112.867 42.3298C113.178 42.0233 113.42 41.6544 113.578 41.2476C113.735 40.8407 113.804 40.4052 113.78 39.9698C113.806 39.5546 113.746 39.1383 113.603 38.7475C113.46 38.3568 113.236 38 112.947 37.6998C112.245 37.1077 111.338 36.8134 110.421 36.8798V36.8798ZM110.421 40.8198C110.049 41.0582 109.608 41.1671 109.167 41.1298H108.415V38.9098H109.298C109.72 38.8611 110.145 38.9796 110.481 39.2398C110.583 39.3459 110.663 39.4713 110.717 39.6087C110.77 39.746 110.796 39.8926 110.792 40.0398C110.79 40.1934 110.753 40.3445 110.684 40.4815C110.614 40.6185 110.514 40.7377 110.391 40.8298L110.421 40.8198Z" fill="#CC0000"/>
<path d="M119.184 41.0001L117.801 36.8901H114.441L117.77 44.1001C117.617 44.6335 117.182 44.9001 116.467 44.9001C116.226 44.9001 115.845 44.8735 115.324 44.8201V46.8801C115.946 46.9651 116.572 47.0185 117.199 47.0401C117.756 47.0649 118.312 46.9623 118.823 46.7401C119.184 46.5714 119.492 46.3088 119.716 45.9801C119.986 45.5361 120.221 45.0713 120.418 44.5901L123.707 36.8901H120.558L119.184 41.0001Z" fill="#CC0000"/>
<path d="M134.195 36.8799H125.812V39.1099C125.841 40.9625 125.549 42.8061 124.95 44.5599H123.947V48.9999H126.344V46.8599H132.731V48.9999H135.218V44.5599H134.135L134.195 36.8799ZM131.107 44.5599H127.918C128.34 42.891 128.576 41.1805 128.62 39.4599V39.3299H131.107V44.5599Z" fill="#CC0000"/>
<path d="M141.264 36.7098C140.568 36.6428 139.865 36.7306 139.207 36.967C138.548 37.2034 137.95 37.5824 137.456 38.0769C136.963 38.5714 136.585 39.1689 136.35 39.8265C136.116 40.4841 136.03 41.1854 136.1 41.8798C136.065 42.8942 136.304 43.8994 136.792 44.7898C137.206 45.523 137.832 46.1153 138.587 46.4898C139.47 46.867 140.426 47.0413 141.385 46.9998C142.349 47.0336 143.305 46.8201 144.162 46.3798C144.89 45.9802 145.483 45.3748 145.867 44.6398C146.294 43.7448 146.497 42.7601 146.459 41.7698C146.507 41.083 146.413 40.3937 146.181 39.745C145.95 39.0962 145.587 38.5021 145.115 37.9998C144.592 37.5398 143.982 37.1887 143.32 36.9672C142.659 36.7456 141.96 36.6581 141.264 36.7098V36.7098ZM142.829 44.0698C142.629 44.2764 142.39 44.4408 142.126 44.553C141.861 44.6653 141.577 44.7231 141.29 44.7231C141.002 44.7231 140.718 44.6653 140.453 44.553C140.189 44.4408 139.95 44.2764 139.75 44.0698C139.319 43.4322 139.121 42.666 139.189 41.8998C139.121 41.1292 139.323 40.3589 139.76 39.7198C139.944 39.5032 140.175 39.3311 140.436 39.2168C140.697 39.1024 140.98 39.0488 141.264 39.0598C141.554 39.0465 141.843 39.098 142.11 39.2105C142.378 39.3229 142.616 39.4936 142.809 39.7098C143.24 40.3065 143.442 41.0371 143.38 41.7698C143.457 42.5794 143.263 43.3915 142.829 44.0798V44.0698Z" fill="#CC0000"/>
<path d="M155.293 41.5498C155.707 41.4253 156.08 41.1942 156.376 40.8798C156.744 40.4597 156.94 39.9174 156.927 39.3598C156.933 39.0268 156.868 38.6963 156.735 38.3909C156.601 38.0855 156.404 37.8122 156.155 37.5898C155.534 37.0795 154.742 36.8255 153.939 36.8798H148.153V46.8798H153.488C153.951 46.8568 154.413 46.8101 154.872 46.7398C155.28 46.7043 155.678 46.5924 156.045 46.4098C156.463 46.1728 156.81 45.8272 157.048 45.4098C157.301 44.9832 157.433 44.4956 157.429 43.9998C157.449 43.4297 157.268 42.8706 156.917 42.4198C156.49 41.955 155.917 41.6484 155.293 41.5498V41.5498ZM151.282 38.8998H152.646C152.999 38.8641 153.353 38.9525 153.648 39.1498C153.743 39.2354 153.817 39.3407 153.865 39.4583C153.914 39.5759 153.936 39.7028 153.929 39.8298C153.938 39.963 153.918 40.0965 153.869 40.221C153.821 40.3454 153.745 40.4576 153.648 40.5498C153.353 40.7455 152.999 40.8338 152.646 40.7998H151.302L151.282 38.8998ZM153.989 44.4298C153.658 44.6486 153.262 44.7474 152.866 44.7098H151.292V42.7098H152.866C153.263 42.6731 153.662 42.768 153.999 42.9798C154.104 43.0656 154.187 43.1743 154.243 43.2974C154.298 43.4206 154.325 43.5548 154.32 43.6898C154.316 43.8316 154.282 43.9709 154.219 44.0985C154.157 44.2261 154.068 44.339 153.959 44.4298H153.989Z" fill="#CC0000"/>
<path d="M161.76 36.8799L158 46.8799H161.159L161.65 45.2299H165.159L165.661 46.8799H168.9L165.139 36.8799H161.76ZM162.312 43.0499L163.445 39.4699L164.548 43.0599L162.312 43.0499Z" fill="#CC0000"/>
<path d="M176.36 40.3699H172.981V36.8799H169.882V46.8599H172.981V42.8199H176.36V46.8599H179.458V36.8799H176.36V40.3699Z" fill="#CC0000"/>
<path d="M184.432 42.3999V36.8799H181.524V46.8599H184.442L188.183 41.3799V46.8599H191.09V36.8799H188.203L184.432 42.3999Z" fill="#CC0000"/>
<path d="M196.846 36.8801C196.109 36.8556 195.372 36.9399 194.66 37.1301C194.161 37.2883 193.731 37.6087 193.437 38.0401C193.22 38.3566 193.071 38.7138 192.998 39.0899C192.924 39.4659 192.929 39.8528 193.01 40.2271C193.092 40.6014 193.249 40.9552 193.473 41.2669C193.696 41.5786 193.98 41.8417 194.309 42.0401C194.648 42.225 195.013 42.3566 195.392 42.4301C194.858 42.5458 194.39 42.8652 194.088 43.3201C193.925 43.5122 193.78 43.7199 193.657 43.9401L192.163 46.8301H195.653L197.307 43.8301C197.439 43.5377 197.631 43.2757 197.869 43.0601C198.092 42.906 198.359 42.8256 198.631 42.8301H198.901V46.8301H202.01V36.8301L196.846 36.8801ZM198.851 40.8801H197.548C197.27 40.858 196.995 40.8111 196.726 40.7401C196.525 40.7031 196.346 40.5924 196.224 40.4301C196.078 40.2345 196.008 39.9924 196.029 39.7493C196.049 39.5061 196.158 39.2788 196.334 39.1101C196.7 38.9066 197.124 38.8326 197.538 38.9001H198.891L198.851 40.8801Z" fill="#CC0000"/>
<path d="M0 50H50.1365V0H0V50ZM2.00546 2H48.1311V48H2.00546V2Z" fill="#CC0000"/>
<path d="M32.3379 30.9998H30.5129V18.9998H31.9769V18.3198H18.6005V18.9698H19.182C19.4725 18.9309 19.7674 18.941 20.0544 18.9998C20.1766 19.0442 20.28 19.1289 20.3475 19.2398C20.4149 19.3507 20.4424 19.4812 20.4254 19.6098V22.3298C20.4254 23.3898 20.392 24.3898 20.3252 25.3298C20.2817 26.1278 20.1913 26.9225 20.0544 27.7098C19.9809 28.0498 19.8973 28.3832 19.8037 28.7098C19.701 29.0819 19.5634 29.4435 19.3926 29.7898C19.2441 30.0852 19.0588 30.3607 18.8411 30.6098C18.7477 30.7308 18.6277 30.8289 18.4904 30.8965C18.3531 30.9641 18.2021 30.9995 18.049 30.9998H16.7153V35.6998H17.3771C17.4009 34.8018 17.6528 33.9244 18.1091 33.1498C18.3727 32.7528 18.7137 32.4127 19.1119 32.1498C19.5151 31.8635 20.0008 31.7161 20.4956 31.7298H28.6378C29.1326 31.7161 29.6184 31.8635 30.0216 32.1498C30.42 32.4123 30.7611 32.7525 31.0243 33.1498C31.4799 33.9247 31.7317 34.8019 31.7563 35.6998H32.4181L32.3379 30.9998ZM23.7746 30.9998H19.4227C20.1219 30.0573 20.5797 28.9589 20.7563 27.7998C20.7964 27.5932 20.8366 27.2898 20.8767 26.8898C20.9168 26.4898 20.9535 26.0465 20.987 25.5598C20.987 25.0665 21.0104 24.5432 21.0572 23.9898C21.1039 23.4365 21.1039 22.8932 21.0572 22.3598V19.6698C21.0572 19.3498 21.1507 19.1432 21.3379 19.0498C21.5615 18.9383 21.8103 18.8867 22.0599 18.8998H23.8046L23.7746 30.9998Z" fill="#CC0000"/>
<path d="M44.5913 34.3499C43.9148 33.7143 43.1214 33.2152 42.2549 32.8799C41.3636 32.532 40.4144 32.3556 39.4573 32.3599C38.5119 32.3569 37.574 32.5264 36.6898 32.8599C35.8235 33.1818 35.0295 33.6712 34.3534 34.2999C33.6698 34.9425 33.121 35.7141 32.739 36.5699C32.1479 37.9075 31.9696 39.3903 32.2268 40.8293C32.4839 42.2683 33.1649 43.5984 34.1829 44.6499C34.8456 45.3207 35.6322 45.8572 36.4992 46.2299C37.4298 46.6299 38.434 46.8309 39.4473 46.8199C40.4284 46.8276 41.4019 46.6477 42.3151 46.2899C43.1843 45.9508 43.9781 45.4445 44.6514 44.7999C45.3225 44.1498 45.8547 43.3708 46.2157 42.5099C46.6041 41.5822 46.7986 40.5852 46.7872 39.5799C46.8017 38.6035 46.6131 37.6347 46.2334 36.7346C45.8537 35.8344 45.2912 35.0225 44.5812 34.3499H44.5913ZM40.7207 44.7799C40.7264 45.155 40.6219 45.5235 40.4199 45.8399C40.3102 46 40.159 46.1274 39.9824 46.2084C39.8058 46.2894 39.6104 46.3211 39.4172 46.2999C39.2335 46.3122 39.0497 46.2761 38.8843 46.1954C38.7189 46.1147 38.5777 45.9921 38.4746 45.8399C38.2664 45.5259 38.158 45.1564 38.1638 44.7799V35.4499C38.1638 35.1966 38.1638 34.9233 38.1638 34.6299C38.1807 34.3483 38.2311 34.0697 38.3142 33.7999C38.3846 33.5571 38.5118 33.3343 38.6852 33.1499C38.7778 33.0606 38.888 32.9914 39.0088 32.9466C39.1296 32.9019 39.2584 32.8826 39.3871 32.8899C39.5203 32.8825 39.6537 32.9017 39.7794 32.9464C39.9051 32.991 40.0206 33.0602 40.1191 33.1499C40.2977 33.3321 40.4286 33.5553 40.5001 33.7999C40.5827 34.0694 40.6299 34.3484 40.6405 34.6299C40.6405 34.9233 40.6405 35.1966 40.6405 35.4499L40.7207 44.7799Z" fill="#CC0000"/>
<path d="M7.58066 18.41V19H17.5378V18.44H15.6827V4.55C16.2336 4.58958 16.7619 4.78372 17.2069 5.11C17.6344 5.43793 17.9981 5.84126 18.2798 6.3C18.5817 6.78602 18.8241 7.3064 19.0018 7.85C19.1823 8.40333 19.3327 8.95 19.453 9.49H20.0546L19.9844 4H5.14403L5.01367 9.5H5.64539C5.76572 8.96667 5.91613 8.42 6.09662 7.86C6.27318 7.31767 6.51208 6.79755 6.80856 6.31C7.09507 5.84553 7.46975 5.44131 7.91156 5.12C8.36136 4.79577 8.89234 4.60195 9.44574 4.56V18.41H7.58066Z" fill="#CC0000"/>
</g>
<defs>
<clipPath id="clip0">
<rect width="202" height="50" fill="white"/>
</clipPath>
</defs>
</svg>
