<svg width="51" height="51" viewBox="0 0 51 51" fill="none" xmlns="http://www.w3.org/2000/svg">
<path d="M46.7343 10H5.26566C3.46498 10 2 11.465 2 13.2657V36.4881C2 38.0209 3.0617 39.3097 4.48812 39.6595V40.635C4.48812 41.5211 5.20895 42.2419 6.09503 42.2419H7.75378C8.63986 42.2419 9.36069 41.5211 9.36069 40.635V39.7538H42.6393V40.635C42.6393 41.5211 43.3601 42.2419 44.2462 42.2419H45.905C46.791 42.2419 47.5119 41.5211 47.5119 40.635V39.6595C48.9383 39.3098 50 38.0209 50 36.4881V13.2657C50 11.465 48.535 10 46.7343 10ZM7.80562 40.635C7.80562 40.6635 7.78239 40.6868 7.75378 40.6868H6.09503C6.06642 40.6868 6.0432 40.6635 6.0432 40.635V39.7538H7.80562V40.635ZM5.26566 38.1987C4.32245 38.1987 3.55508 37.4314 3.55508 36.4881V13.2657C3.55508 12.3224 4.32245 11.5551 5.26566 11.5551H38.4924V38.1469C38.4924 38.1644 38.4939 38.1815 38.495 38.1987H5.26566ZM45.9568 40.635C45.9568 40.6635 45.9336 40.6868 45.905 40.6868H44.2462C44.2176 40.6868 44.1944 40.6635 44.1944 40.635V39.7538H45.9568V40.635ZM48.4449 36.4881C48.4449 37.4314 47.6775 38.1987 46.7343 38.1987H40.0449C40.0461 38.1815 40.0475 38.1644 40.0475 38.1469V11.5551H46.7343C47.6775 11.5551 48.4449 12.3224 48.4449 13.2657V36.4881Z" fill="#95AC8F"/>
<path d="M35.9524 13.3175H6.09492C5.66551 13.3175 5.31738 13.6655 5.31738 14.095V35.6588C5.31738 36.0883 5.66551 36.4363 6.09492 36.4363H35.9524C36.3818 36.4363 36.7299 36.0883 36.7299 35.6588V14.095C36.7299 13.6655 36.3818 13.3175 35.9524 13.3175ZM35.1748 34.8812H6.87246V14.8726H35.1748V34.8812Z" fill="#95AC8F"/>
<path d="M45.0752 14.9763H43.4165C42.5304 14.9763 41.8096 15.6971 41.8096 16.5832V18.2419C41.8096 19.128 42.5304 19.8488 43.4165 19.8488H45.0752C45.9613 19.8488 46.6821 19.128 46.6821 18.2419V16.5832C46.6821 15.6971 45.9613 14.9763 45.0752 14.9763ZM45.1271 18.2419C45.1271 18.2704 45.1038 18.2938 45.0752 18.2938H43.4165C43.3879 18.2938 43.3646 18.2704 43.3646 18.2419V16.5832C43.3646 16.5547 43.3879 16.5313 43.4165 16.5313H45.0752C45.1038 16.5313 45.1271 16.5547 45.1271 16.5832V18.2419Z" fill="#95AC8F"/>
<path d="M45.9046 21.6112H42.5871C42.1577 21.6112 41.8096 21.9592 41.8096 22.3887C41.8096 22.8183 42.1577 23.1663 42.5871 23.1663H45.9046C46.334 23.1663 46.6821 22.8183 46.6821 22.3887C46.6821 21.9592 46.334 21.6112 45.9046 21.6112Z" fill="#95AC8F"/>
<path d="M45.9046 28.2462H42.5871C42.1577 28.2462 41.8096 28.5942 41.8096 29.0238C41.8096 29.4533 42.1577 29.8013 42.5871 29.8013H45.9046C46.334 29.8013 46.6821 29.4533 46.6821 29.0238C46.6821 28.5942 46.334 28.2462 45.9046 28.2462Z" fill="#95AC8F"/>
<path d="M45.9046 24.9288H42.5871C42.1577 24.9288 41.8096 25.2768 41.8096 25.7063C41.8096 26.1358 42.1577 26.4838 42.5871 26.4838H45.9046C46.334 26.4838 46.6821 26.1358 46.6821 25.7063C46.6821 25.2768 46.334 24.9288 45.9046 24.9288Z" fill="#95AC8F"/>
<path d="M19.417 27.092C19.417 28.4563 19.9632 29.1841 20.4021 29.7687C20.7931 30.2897 21.0757 30.6662 21.0757 31.5118C21.0757 31.9413 21.4239 32.2893 21.8533 32.2893C22.2827 32.2893 22.6308 31.9413 22.6308 31.5118C22.6308 30.1476 22.0846 29.4198 21.6458 28.8352C21.2547 28.3141 20.9721 27.9376 20.9721 27.092C20.9721 26.2452 21.2548 25.8682 21.6459 25.3466C22.0847 24.7615 22.6308 24.0333 22.6308 22.6682C22.6308 21.3025 22.0848 20.574 21.6461 19.9885C21.2548 19.4664 20.9721 19.089 20.9721 18.2413C20.9721 17.8118 20.6239 17.4637 20.1945 17.4637C19.7651 17.4637 19.417 17.8118 19.417 18.2413C19.417 19.6071 19.963 20.3356 20.4018 20.9211C20.793 21.4432 21.0757 21.8206 21.0757 22.6682C21.0757 23.515 20.793 23.8919 20.4019 24.4136C19.9631 24.9988 19.417 25.7269 19.417 27.092Z" fill="#95AC8F"/>
<path d="M23.614 27.8687C23.8703 27.8687 24.0979 27.7445 24.2397 27.5529C24.7964 26.8105 25.9482 25.2697 25.9482 22.6683C25.9482 21.6115 25.7577 20.6149 25.3819 19.7066C25.2177 19.3097 24.7628 19.1211 24.3661 19.2852C23.9692 19.4494 23.7808 19.9042 23.9449 20.3009C24.2423 21.0199 24.3932 21.8163 24.3932 22.6682C24.3932 24.7459 23.5249 25.9138 23 26.6138C22.8975 26.7456 22.8364 26.9112 22.8364 27.0911C22.8364 27.5206 23.1846 27.8687 23.614 27.8687Z" fill="#95AC8F"/>
<path d="M17.3768 30.5143C17.4752 30.5143 17.5752 30.4954 17.6717 30.4559C18.069 30.2928 18.2588 29.8386 18.0957 29.4413C17.8028 28.7276 17.6542 27.9371 17.6542 27.092C17.6542 25.0043 18.5311 23.8351 19.055 23.1366C19.0693 23.1175 19.0827 23.0978 19.0951 23.0776C19.249 22.8277 19.2482 22.5068 19.0943 22.2569C18.8693 21.8912 18.3904 21.7771 18.0246 22.0021C17.9143 22.07 17.8268 22.161 17.7647 22.2651C17.1938 23.0282 16.0991 24.5563 16.0991 27.092C16.0991 28.1407 16.2869 29.1298 16.6572 30.0319C16.7806 30.3324 17.0707 30.5143 17.3768 30.5143Z" fill="#95AC8F"/>
</svg>
