<svg width="316" height="34" viewBox="0 0 316 34" fill="none" xmlns="http://www.w3.org/2000/svg">
<path d="M62.6706 0.638672C62.6706 11.264 62.6706 21.8129 62.6706 32.4382C58.2433 32.4382 53.8923 32.4382 49.3886 32.4382C49.3886 21.8129 49.3886 11.3404 49.3886 0.638672C53.6633 0.638672 58.0143 0.638672 62.6706 0.638672Z" fill="#AD2C1D"/>
<path d="M32.5944 32.5147H47.3268L32.3654 0.638672H17.633L26.0297 18.4495H17.3277L13.2057 9.73518L9.16002 18.4495H0L6.94635 23.3417L2.74801 32.3618L13.2057 27.6989L23.7397 32.3618L19.5414 23.2653L26.1061 18.7552L32.5944 32.5147Z" fill="#AD2C1D"/>
<path d="M89.9996 15.8505V8.43568H85.1142V0.638672H72.9772V8.43568H64.4278L67.9392 15.8505H72.9772V25.4821C72.9772 30.2979 75.4962 32.5147 79.3129 32.5147H89.9232V25.2527H86.5646C85.7249 25.2527 85.0379 24.5648 85.0379 23.7239V15.8505H89.9996Z" fill="#AD2C1D"/>
<path d="M130.528 21.9655C130.528 21.8126 130.528 19.8252 130.528 19.8252C130.528 12.3339 124.727 8.43543 112.361 8.43543C100.147 8.43543 93.8118 11.8753 93.8118 19.3665V22.2713C93.8118 28.5395 99.1551 33.2024 112.361 33.2024C125.109 33.2024 130.299 28.9981 130.452 24.1823H119.078C119.078 24.1823 118.009 26.7813 112.132 26.7813C104.727 26.7813 104.956 22.042 104.956 22.042L130.528 21.9655ZM105.643 16.0796C106.788 14.7801 109.078 14.0921 112.59 14.0921C119.154 14.0921 119.307 17.6084 119.307 17.7613V17.9906H105.033C105.033 18.067 104.88 16.9204 105.643 16.0796Z" fill="#AD2C1D"/>
<path d="M157.631 8.35937C150.838 8.35937 147.555 14.3982 146.945 18.4496C146.868 18.4496 146.868 18.4496 146.868 18.4496V9.20022H134.197V32.4383H146.868V21.2779C146.868 21.2779 150.914 16.7679 160.15 17.9145V8.35937H157.631Z" fill="#AD2C1D"/>
<path d="M189.079 8.97066C179.156 8.97066 176.255 16.6912 176.255 16.6912V9.27643H163.889V32.5146H176.255V20.8191C176.255 20.8191 177.629 16.1561 183.354 16.1561C189.079 16.1561 188.697 20.8955 188.697 20.8955V32.5146H200.376V17.2263C200.3 17.2263 199.995 8.97066 189.079 8.97066Z" fill="#AD2C1D"/>
<path d="M303.505 8.97052V13.0219C300.834 10.3465 296.864 8.43543 292.437 8.43543C284.269 8.43543 277.704 12.7161 277.704 20.7425C277.704 28.7688 284.269 32.8966 292.437 32.8966C296.864 32.8966 300.834 30.8327 303.505 28.0808V32.5144H315.642V8.97052H303.505ZM300.147 25.0996C299.612 25.4818 297.399 25.9405 296.101 25.9405C295.185 25.9405 292.895 25.5583 292.132 25.0232C291.292 24.4881 289.536 23.4943 289.536 20.5896C289.536 17.7613 291.292 16.7675 292.055 16.2324C292.59 15.8502 294.803 15.3916 296.101 15.3916C297.017 15.3916 299.307 15.7738 300.07 16.3089C300.91 16.844 302.666 17.8377 302.666 20.7425C302.666 23.6472 300.91 24.641 300.147 25.0996Z" fill="#AD2C1D"/>
<path d="M266.173 9.04711L259.455 23.4181L252.662 9.04711H240.677L251.669 32.5146H267.165L278.157 9.04711H266.173Z" fill="#AD2C1D"/>
<path d="M240.984 20.131C240.984 12.334 235.64 8.28261 222.435 8.28261C209.229 8.28261 203.886 12.334 203.886 20.0546V21.1247C203.886 28.9217 209.229 32.8967 222.435 32.8967C235.64 32.8967 240.984 28.9217 240.984 21.1247V20.131ZM226.709 25.0232C226.175 25.4054 223.961 25.8641 222.664 25.8641C222.587 25.8641 222.511 25.8641 222.511 25.8641C222.435 25.8641 222.358 25.8641 222.358 25.8641C221.061 25.8641 218.847 25.4054 218.313 25.0232C217.549 24.5646 215.794 23.5709 215.794 20.6661V20.5132C215.794 17.6849 217.549 16.6911 218.313 16.1561C218.847 15.7739 221.061 15.3152 222.358 15.3152C222.435 15.3152 222.511 15.3152 222.587 15.3152C222.664 15.3152 222.74 15.3152 222.816 15.3152C224.114 15.3152 226.328 15.7739 226.862 16.1561C227.625 16.6147 229.381 17.6084 229.381 20.5132V20.6661C229.228 23.5709 227.473 24.4881 226.709 25.0232Z" fill="#AD2C1D"/>
</svg>
