<svg width="5" height="8" viewBox="0 0 5 8" fill="none" xmlns="http://www.w3.org/2000/svg">
<path d="M1.94678 5.05713C1.94678 4.64697 1.99658 4.32031 2.09619 4.07715C2.1958 3.83398 2.37744 3.59521 2.64111 3.36084C2.90771 3.12354 3.08496 2.93164 3.17285 2.78516C3.26074 2.63574 3.30469 2.479 3.30469 2.31494C3.30469 1.81982 3.07617 1.57227 2.61914 1.57227C2.40234 1.57227 2.22803 1.63965 2.09619 1.77441C1.96729 1.90625 1.8999 2.08936 1.89404 2.32373H0.619629C0.625488 1.76416 0.805664 1.32617 1.16016 1.00977C1.51758 0.693359 2.00391 0.535156 2.61914 0.535156C3.24023 0.535156 3.72217 0.686035 4.06494 0.987793C4.40771 1.28662 4.5791 1.70996 4.5791 2.25781C4.5791 2.50684 4.52344 2.74268 4.41211 2.96533C4.30078 3.18506 4.10596 3.42969 3.82764 3.69922L3.47168 4.0376C3.24902 4.25146 3.12158 4.50195 3.08936 4.78906L3.07178 5.05713H1.94678ZM1.81934 6.40625C1.81934 6.20996 1.88525 6.04883 2.01709 5.92285C2.15186 5.79395 2.32324 5.72949 2.53125 5.72949C2.73926 5.72949 2.90918 5.79395 3.04102 5.92285C3.17578 6.04883 3.24316 6.20996 3.24316 6.40625C3.24316 6.59961 3.17725 6.75928 3.04541 6.88525C2.9165 7.01123 2.74512 7.07422 2.53125 7.07422C2.31738 7.07422 2.14453 7.01123 2.0127 6.88525C1.88379 6.75928 1.81934 6.59961 1.81934 6.40625Z" fill="#FF0001"/>
</svg>
