<svg width="17" height="20" viewBox="0 0 17 20" fill="none" xmlns="http://www.w3.org/2000/svg">
<path d="M8.19922 19.8165C5.22674 19.8165 0.199219 19.2294 0.199219 17.0275C0.199219 14.8991 4.93316 14.3853 6.36436 14.2753C6.76803 14.2386 7.135 14.5688 7.135 14.9725C7.17169 15.3762 6.84142 15.7431 6.43775 15.7431C3.24509 15.9633 1.85059 16.734 1.66711 17.0275C1.99738 17.5046 4.3827 18.3486 8.19922 18.3486C12.0157 18.3486 14.4011 17.5046 14.6946 17.0275C14.4744 16.734 13.1533 16 10.0341 15.7798C9.63041 15.7431 9.33683 15.4129 9.37353 15.0092C9.41023 14.6055 9.7405 14.3119 10.1442 14.3486C11.979 14.4954 16.1992 15.0459 16.1992 17.0642C16.1625 19.2294 11.1717 19.8165 8.19922 19.8165Z" fill="#4F4F4F"/>
<path d="M8.19606 17.6147C8.01258 17.6147 7.82909 17.5413 7.6823 17.4312C7.42542 17.211 1.48047 11.7064 1.48047 6.7156C1.48047 3.00917 4.48964 0 8.19606 0C11.9025 0 14.9117 3.00917 14.9117 6.7156C14.9117 11.7798 8.96671 17.211 8.70983 17.4312C8.52634 17.5413 8.34285 17.6147 8.19606 17.6147ZM8.19606 1.46789C5.29698 1.46789 2.94836 3.81651 2.94836 6.7156C2.94836 10.2752 6.80157 14.4954 8.19606 15.8899C9.59056 14.4954 13.4438 10.3853 13.4438 6.7156C13.4071 3.81651 11.0584 1.46789 8.19606 1.46789Z" fill="#4F4F4F"/>
<path d="M8.19689 9.35789C6.729 9.35789 5.55469 8.18358 5.55469 6.71569C5.55469 5.2478 6.729 4.07349 8.19689 4.07349C9.66478 4.07349 10.8391 5.2478 10.8391 6.71569C10.8391 8.18358 9.62808 9.35789 8.19689 9.35789ZM8.19689 5.57807C7.57304 5.57807 7.02258 6.09184 7.02258 6.75239C7.02258 7.41294 7.53634 7.9267 8.19689 7.9267C8.82074 7.9267 9.3712 7.41294 9.3712 6.75239C9.3712 6.09184 8.82074 5.57807 8.19689 5.57807Z" fill="#4F4F4F"/>
</svg>
