<svg width="17" height="26" viewBox="0 0 17 26" fill="none" xmlns="http://www.w3.org/2000/svg">
<mask id="path-1-outside-1" maskUnits="userSpaceOnUse" x="0" y="0" width="17" height="26" fill="black">
<rect fill="white" width="17" height="26"/>
<path d="M16.5209 15.8508C16.437 14.9693 16.2234 14.0793 15.829 12.9636C15.6579 12.481 15.4681 11.9957 15.2843 11.5266L15.1233 11.1152C14.798 10.2785 14.4133 9.16981 14.3234 8.01807C14.3014 7.73233 14.2986 7.4496 14.2966 7.14983C14.2928 6.71383 14.2893 6.26331 14.2185 5.80727C13.9315 3.95433 12.8651 2.44499 11.3059 1.67241C10.6561 1.3198 9.95262 1.10142 9.21535 1.02329C8.9216 0.992237 8.64512 0.992237 8.35187 1.02329C7.61485 1.10142 6.91164 1.3198 6.27379 1.66615C4.70234 2.44474 3.63625 3.95408 3.34876 5.80702C3.27789 6.26305 3.27438 6.71358 3.27063 7.14958C3.26787 7.44935 3.26562 7.73233 3.24383 8.01782C3.15367 9.16981 2.76901 10.2782 2.4437 11.1149L2.28293 11.5259C2.09911 11.9954 1.90903 12.4808 1.73824 12.9638C1.34431 14.0785 1.13094 14.9688 1.04655 15.8505C0.863734 17.7558 1.21834 19.876 2.12916 22.3332L2.16923 22.4444C3.09733 25.0574 3.41412 25.2592 3.75997 25.2592H13.8083C14.1538 25.2592 14.4706 25.0571 15.3987 22.4444L15.4383 22.3332C16.3494 19.8762 16.7037 17.7561 16.5209 15.8508ZM3.13464 11.3836C3.47823 10.4993 3.88493 9.32407 3.98285 8.07592C4.00714 7.76414 4.0094 7.45486 4.01215 7.15609C4.01591 6.7276 4.01891 6.32366 4.08152 5.92147C4.33471 4.28565 5.23025 3.01071 6.61488 2.32428C7.1821 2.0165 7.79566 1.82667 8.43852 1.75956C8.44553 1.75881 8.45254 1.7578 8.4593 1.75655C8.6644 1.72375 8.90732 1.72525 9.10792 1.75655C9.11493 1.75755 9.12169 1.75856 9.12895 1.75956C9.77231 1.82667 10.3859 2.0165 10.9646 2.33029C12.3372 3.01071 13.233 4.28565 13.4859 5.92097C13.5486 6.32316 13.5518 6.7276 13.5553 7.15559C13.5581 7.45486 13.5606 7.76439 13.5844 8.07592C13.6825 9.32432 14.0892 10.4996 14.4333 11.3836L14.5946 11.7968C14.7704 12.2458 14.9515 12.7101 15.1145 13.1672C14.094 13.1952 10.3726 13.1229 9.11894 10.7267C11.0928 10.5557 12.6478 8.89709 12.6478 6.88012C12.6478 4.74995 10.9143 3.01622 8.78411 3.01622C6.65319 3.01622 4.91996 4.74995 4.91996 6.88012C4.91996 8.82496 6.3667 10.4347 8.23967 10.7007C7.49765 12.1487 5.86258 12.7577 4.44615 13.0059C4.39306 13.0034 4.33996 13.0129 4.29013 13.0325C3.5461 13.1509 2.87845 13.1729 2.45172 13.1709C2.61475 12.7127 2.79631 12.2471 2.97311 11.7966L3.13464 11.3836ZM3.87542 15.0797C5.76216 15.3161 7.12125 16.0747 8.09593 17.0015C6.66471 18.6504 6.14607 20.5677 5.9908 21.3139C4.52253 20.3919 3.54384 18.7586 3.54384 16.9004C3.54359 16.2753 3.65979 15.6585 3.87542 15.0797ZM8.59203 17.5227C10.1815 19.3691 10.4966 21.5784 10.5163 21.7289C10.5196 21.752 10.5246 21.7747 10.5319 21.7968C9.97666 21.9989 9.37763 22.1098 8.75331 22.1098C8.01504 22.1098 7.31208 21.9546 6.67523 21.6763C6.73083 21.3064 7.09996 19.2564 8.59203 17.5227ZM11.2266 21.484C11.1231 20.9145 10.6481 18.7991 9.08788 17.0015C10.0971 16.0419 11.5143 15.2593 13.506 15.0534C13.5433 15.0494 13.5786 15.0384 13.6119 15.0246C13.8413 15.6166 13.9633 16.2485 13.9633 16.9004C13.9633 18.8785 12.8546 20.6017 11.2266 21.484ZM13.2851 14.3352C11.1857 14.5844 9.67514 15.4378 8.59203 16.4801C7.56076 15.4879 6.14232 14.6668 4.19772 14.3755C4.32018 14.1536 4.46192 13.9425 4.61669 13.7404C6.06568 13.483 7.73731 12.8657 8.67317 11.4362C9.64985 12.929 11.4284 13.5348 12.9192 13.7722C13.0552 13.9528 13.1747 14.1416 13.2851 14.3352ZM9.25567 3.79656C10.5557 3.9949 11.5947 4.99462 11.8466 6.27683C11.2619 6.05895 9.74351 5.35549 9.25567 3.79656ZM5.72109 6.27583C5.97353 4.99462 7.01231 3.9954 8.31205 3.79706C7.82446 5.34823 6.30735 6.0557 5.72109 6.27583ZM5.68027 7.07094C5.7286 7.05767 6.20993 6.92194 6.8017 6.59438C6.89361 6.70406 7.02959 6.77519 7.18411 6.77519C7.46008 6.77519 7.68397 6.5513 7.68397 6.27483C7.68397 6.18993 7.66068 6.11029 7.62261 6.04017C8.06137 5.68205 8.48434 5.2145 8.78386 4.61221C9.08287 5.2145 9.50635 5.6818 9.94436 6.04017C9.90704 6.11004 9.88375 6.18968 9.88375 6.27483C9.88375 6.5513 10.1079 6.77519 10.3836 6.77519C10.5376 6.77519 10.6739 6.70406 10.7655 6.59438C11.3573 6.92194 11.8384 7.05767 11.8869 7.07094C11.8902 7.07195 11.8935 7.07145 11.8967 7.07195C11.7965 8.70425 10.4407 10.0022 8.78386 10.0022C7.12701 10.0022 5.77118 8.70425 5.671 7.07195C5.67401 7.07145 5.67752 7.07195 5.68027 7.07094ZM14.7431 22.0763L14.7 22.1965C14.093 23.9057 13.8055 24.386 13.7026 24.5182H3.8649C3.76247 24.3862 3.47473 23.9059 2.86743 22.1965L2.82411 22.0758C1.95261 19.7257 1.61277 17.7128 1.78457 15.9212C1.84492 15.2918 1.97815 14.6515 2.20579 13.9102C2.30722 13.9137 2.43043 13.916 2.57318 13.916C2.86017 13.916 3.2243 13.9055 3.63375 13.8691C3.09457 14.7822 2.80257 15.831 2.80257 16.9001C2.80257 20.1815 5.47216 22.8511 8.75356 22.8511C12.0352 22.8511 14.7045 20.1815 14.7045 16.9001C14.7045 15.8238 14.4181 14.7947 13.8789 13.8832C14.2205 13.9085 14.525 13.916 14.7727 13.916C15.0479 13.916 15.2515 13.9065 15.3589 13.8997C15.5881 14.6462 15.7233 15.2896 15.7834 15.9212C15.9549 17.7128 15.6149 19.7257 14.7431 22.0763Z"/>
</mask>
<path d="M16.5209 15.8508C16.437 14.9693 16.2234 14.0793 15.829 12.9636C15.6579 12.481 15.4681 11.9957 15.2843 11.5266L15.1233 11.1152C14.798 10.2785 14.4133 9.16981 14.3234 8.01807C14.3014 7.73233 14.2986 7.4496 14.2966 7.14983C14.2928 6.71383 14.2893 6.26331 14.2185 5.80727C13.9315 3.95433 12.8651 2.44499 11.3059 1.67241C10.6561 1.3198 9.95262 1.10142 9.21535 1.02329C8.9216 0.992237 8.64512 0.992237 8.35187 1.02329C7.61485 1.10142 6.91164 1.3198 6.27379 1.66615C4.70234 2.44474 3.63625 3.95408 3.34876 5.80702C3.27789 6.26305 3.27438 6.71358 3.27063 7.14958C3.26787 7.44935 3.26562 7.73233 3.24383 8.01782C3.15367 9.16981 2.76901 10.2782 2.4437 11.1149L2.28293 11.5259C2.09911 11.9954 1.90903 12.4808 1.73824 12.9638C1.34431 14.0785 1.13094 14.9688 1.04655 15.8505C0.863734 17.7558 1.21834 19.876 2.12916 22.3332L2.16923 22.4444C3.09733 25.0574 3.41412 25.2592 3.75997 25.2592H13.8083C14.1538 25.2592 14.4706 25.0571 15.3987 22.4444L15.4383 22.3332C16.3494 19.8762 16.7037 17.7561 16.5209 15.8508ZM3.13464 11.3836C3.47823 10.4993 3.88493 9.32407 3.98285 8.07592C4.00714 7.76414 4.0094 7.45486 4.01215 7.15609C4.01591 6.7276 4.01891 6.32366 4.08152 5.92147C4.33471 4.28565 5.23025 3.01071 6.61488 2.32428C7.1821 2.0165 7.79566 1.82667 8.43852 1.75956C8.44553 1.75881 8.45254 1.7578 8.4593 1.75655C8.6644 1.72375 8.90732 1.72525 9.10792 1.75655C9.11493 1.75755 9.12169 1.75856 9.12895 1.75956C9.77231 1.82667 10.3859 2.0165 10.9646 2.33029C12.3372 3.01071 13.233 4.28565 13.4859 5.92097C13.5486 6.32316 13.5518 6.7276 13.5553 7.15559C13.5581 7.45486 13.5606 7.76439 13.5844 8.07592C13.6825 9.32432 14.0892 10.4996 14.4333 11.3836L14.5946 11.7968C14.7704 12.2458 14.9515 12.7101 15.1145 13.1672C14.094 13.1952 10.3726 13.1229 9.11894 10.7267C11.0928 10.5557 12.6478 8.89709 12.6478 6.88012C12.6478 4.74995 10.9143 3.01622 8.78411 3.01622C6.65319 3.01622 4.91996 4.74995 4.91996 6.88012C4.91996 8.82496 6.3667 10.4347 8.23967 10.7007C7.49765 12.1487 5.86258 12.7577 4.44615 13.0059C4.39306 13.0034 4.33996 13.0129 4.29013 13.0325C3.5461 13.1509 2.87845 13.1729 2.45172 13.1709C2.61475 12.7127 2.79631 12.2471 2.97311 11.7966L3.13464 11.3836ZM3.87542 15.0797C5.76216 15.3161 7.12125 16.0747 8.09593 17.0015C6.66471 18.6504 6.14607 20.5677 5.9908 21.3139C4.52253 20.3919 3.54384 18.7586 3.54384 16.9004C3.54359 16.2753 3.65979 15.6585 3.87542 15.0797ZM8.59203 17.5227C10.1815 19.3691 10.4966 21.5784 10.5163 21.7289C10.5196 21.752 10.5246 21.7747 10.5319 21.7968C9.97666 21.9989 9.37763 22.1098 8.75331 22.1098C8.01504 22.1098 7.31208 21.9546 6.67523 21.6763C6.73083 21.3064 7.09996 19.2564 8.59203 17.5227ZM11.2266 21.484C11.1231 20.9145 10.6481 18.7991 9.08788 17.0015C10.0971 16.0419 11.5143 15.2593 13.506 15.0534C13.5433 15.0494 13.5786 15.0384 13.6119 15.0246C13.8413 15.6166 13.9633 16.2485 13.9633 16.9004C13.9633 18.8785 12.8546 20.6017 11.2266 21.484ZM13.2851 14.3352C11.1857 14.5844 9.67514 15.4378 8.59203 16.4801C7.56076 15.4879 6.14232 14.6668 4.19772 14.3755C4.32018 14.1536 4.46192 13.9425 4.61669 13.7404C6.06568 13.483 7.73731 12.8657 8.67317 11.4362C9.64985 12.929 11.4284 13.5348 12.9192 13.7722C13.0552 13.9528 13.1747 14.1416 13.2851 14.3352ZM9.25567 3.79656C10.5557 3.9949 11.5947 4.99462 11.8466 6.27683C11.2619 6.05895 9.74351 5.35549 9.25567 3.79656ZM5.72109 6.27583C5.97353 4.99462 7.01231 3.9954 8.31205 3.79706C7.82446 5.34823 6.30735 6.0557 5.72109 6.27583ZM5.68027 7.07094C5.7286 7.05767 6.20993 6.92194 6.8017 6.59438C6.89361 6.70406 7.02959 6.77519 7.18411 6.77519C7.46008 6.77519 7.68397 6.5513 7.68397 6.27483C7.68397 6.18993 7.66068 6.11029 7.62261 6.04017C8.06137 5.68205 8.48434 5.2145 8.78386 4.61221C9.08287 5.2145 9.50635 5.6818 9.94436 6.04017C9.90704 6.11004 9.88375 6.18968 9.88375 6.27483C9.88375 6.5513 10.1079 6.77519 10.3836 6.77519C10.5376 6.77519 10.6739 6.70406 10.7655 6.59438C11.3573 6.92194 11.8384 7.05767 11.8869 7.07094C11.8902 7.07195 11.8935 7.07145 11.8967 7.07195C11.7965 8.70425 10.4407 10.0022 8.78386 10.0022C7.12701 10.0022 5.77118 8.70425 5.671 7.07195C5.67401 7.07145 5.67752 7.07195 5.68027 7.07094ZM14.7431 22.0763L14.7 22.1965C14.093 23.9057 13.8055 24.386 13.7026 24.5182H3.8649C3.76247 24.3862 3.47473 23.9059 2.86743 22.1965L2.82411 22.0758C1.95261 19.7257 1.61277 17.7128 1.78457 15.9212C1.84492 15.2918 1.97815 14.6515 2.20579 13.9102C2.30722 13.9137 2.43043 13.916 2.57318 13.916C2.86017 13.916 3.2243 13.9055 3.63375 13.8691C3.09457 14.7822 2.80257 15.831 2.80257 16.9001C2.80257 20.1815 5.47216 22.8511 8.75356 22.8511C12.0352 22.8511 14.7045 20.1815 14.7045 16.9001C14.7045 15.8238 14.4181 14.7947 13.8789 13.8832C14.2205 13.9085 14.525 13.916 14.7727 13.916C15.0479 13.916 15.2515 13.9065 15.3589 13.8997C15.5881 14.6462 15.7233 15.2896 15.7834 15.9212C15.9549 17.7128 15.6149 19.7257 14.7431 22.0763Z" fill="#4F4F4F"/>
<path d="M16.5209 15.8508C16.437 14.9693 16.2234 14.0793 15.829 12.9636C15.6579 12.481 15.4681 11.9957 15.2843 11.5266L15.1233 11.1152C14.798 10.2785 14.4133 9.16981 14.3234 8.01807C14.3014 7.73233 14.2986 7.4496 14.2966 7.14983C14.2928 6.71383 14.2893 6.26331 14.2185 5.80727C13.9315 3.95433 12.8651 2.44499 11.3059 1.67241C10.6561 1.3198 9.95262 1.10142 9.21535 1.02329C8.9216 0.992237 8.64512 0.992237 8.35187 1.02329C7.61485 1.10142 6.91164 1.3198 6.27379 1.66615C4.70234 2.44474 3.63625 3.95408 3.34876 5.80702C3.27789 6.26305 3.27438 6.71358 3.27063 7.14958C3.26787 7.44935 3.26562 7.73233 3.24383 8.01782C3.15367 9.16981 2.76901 10.2782 2.4437 11.1149L2.28293 11.5259C2.09911 11.9954 1.90903 12.4808 1.73824 12.9638C1.34431 14.0785 1.13094 14.9688 1.04655 15.8505C0.863734 17.7558 1.21834 19.876 2.12916 22.3332L2.16923 22.4444C3.09733 25.0574 3.41412 25.2592 3.75997 25.2592H13.8083C14.1538 25.2592 14.4706 25.0571 15.3987 22.4444L15.4383 22.3332C16.3494 19.8762 16.7037 17.7561 16.5209 15.8508ZM3.13464 11.3836C3.47823 10.4993 3.88493 9.32407 3.98285 8.07592C4.00714 7.76414 4.0094 7.45486 4.01215 7.15609C4.01591 6.7276 4.01891 6.32366 4.08152 5.92147C4.33471 4.28565 5.23025 3.01071 6.61488 2.32428C7.1821 2.0165 7.79566 1.82667 8.43852 1.75956C8.44553 1.75881 8.45254 1.7578 8.4593 1.75655C8.6644 1.72375 8.90732 1.72525 9.10792 1.75655C9.11493 1.75755 9.12169 1.75856 9.12895 1.75956C9.77231 1.82667 10.3859 2.0165 10.9646 2.33029C12.3372 3.01071 13.233 4.28565 13.4859 5.92097C13.5486 6.32316 13.5518 6.7276 13.5553 7.15559C13.5581 7.45486 13.5606 7.76439 13.5844 8.07592C13.6825 9.32432 14.0892 10.4996 14.4333 11.3836L14.5946 11.7968C14.7704 12.2458 14.9515 12.7101 15.1145 13.1672C14.094 13.1952 10.3726 13.1229 9.11894 10.7267C11.0928 10.5557 12.6478 8.89709 12.6478 6.88012C12.6478 4.74995 10.9143 3.01622 8.78411 3.01622C6.65319 3.01622 4.91996 4.74995 4.91996 6.88012C4.91996 8.82496 6.3667 10.4347 8.23967 10.7007C7.49765 12.1487 5.86258 12.7577 4.44615 13.0059C4.39306 13.0034 4.33996 13.0129 4.29013 13.0325C3.5461 13.1509 2.87845 13.1729 2.45172 13.1709C2.61475 12.7127 2.79631 12.2471 2.97311 11.7966L3.13464 11.3836ZM3.87542 15.0797C5.76216 15.3161 7.12125 16.0747 8.09593 17.0015C6.66471 18.6504 6.14607 20.5677 5.9908 21.3139C4.52253 20.3919 3.54384 18.7586 3.54384 16.9004C3.54359 16.2753 3.65979 15.6585 3.87542 15.0797ZM8.59203 17.5227C10.1815 19.3691 10.4966 21.5784 10.5163 21.7289C10.5196 21.752 10.5246 21.7747 10.5319 21.7968C9.97666 21.9989 9.37763 22.1098 8.75331 22.1098C8.01504 22.1098 7.31208 21.9546 6.67523 21.6763C6.73083 21.3064 7.09996 19.2564 8.59203 17.5227ZM11.2266 21.484C11.1231 20.9145 10.6481 18.7991 9.08788 17.0015C10.0971 16.0419 11.5143 15.2593 13.506 15.0534C13.5433 15.0494 13.5786 15.0384 13.6119 15.0246C13.8413 15.6166 13.9633 16.2485 13.9633 16.9004C13.9633 18.8785 12.8546 20.6017 11.2266 21.484ZM13.2851 14.3352C11.1857 14.5844 9.67514 15.4378 8.59203 16.4801C7.56076 15.4879 6.14232 14.6668 4.19772 14.3755C4.32018 14.1536 4.46192 13.9425 4.61669 13.7404C6.06568 13.483 7.73731 12.8657 8.67317 11.4362C9.64985 12.929 11.4284 13.5348 12.9192 13.7722C13.0552 13.9528 13.1747 14.1416 13.2851 14.3352ZM9.25567 3.79656C10.5557 3.9949 11.5947 4.99462 11.8466 6.27683C11.2619 6.05895 9.74351 5.35549 9.25567 3.79656ZM5.72109 6.27583C5.97353 4.99462 7.01231 3.9954 8.31205 3.79706C7.82446 5.34823 6.30735 6.0557 5.72109 6.27583ZM5.68027 7.07094C5.7286 7.05767 6.20993 6.92194 6.8017 6.59438C6.89361 6.70406 7.02959 6.77519 7.18411 6.77519C7.46008 6.77519 7.68397 6.5513 7.68397 6.27483C7.68397 6.18993 7.66068 6.11029 7.62261 6.04017C8.06137 5.68205 8.48434 5.2145 8.78386 4.61221C9.08287 5.2145 9.50635 5.6818 9.94436 6.04017C9.90704 6.11004 9.88375 6.18968 9.88375 6.27483C9.88375 6.5513 10.1079 6.77519 10.3836 6.77519C10.5376 6.77519 10.6739 6.70406 10.7655 6.59438C11.3573 6.92194 11.8384 7.05767 11.8869 7.07094C11.8902 7.07195 11.8935 7.07145 11.8967 7.07195C11.7965 8.70425 10.4407 10.0022 8.78386 10.0022C7.12701 10.0022 5.77118 8.70425 5.671 7.07195C5.67401 7.07145 5.67752 7.07195 5.68027 7.07094ZM14.7431 22.0763L14.7 22.1965C14.093 23.9057 13.8055 24.386 13.7026 24.5182H3.8649C3.76247 24.3862 3.47473 23.9059 2.86743 22.1965L2.82411 22.0758C1.95261 19.7257 1.61277 17.7128 1.78457 15.9212C1.84492 15.2918 1.97815 14.6515 2.20579 13.9102C2.30722 13.9137 2.43043 13.916 2.57318 13.916C2.86017 13.916 3.2243 13.9055 3.63375 13.8691C3.09457 14.7822 2.80257 15.831 2.80257 16.9001C2.80257 20.1815 5.47216 22.8511 8.75356 22.8511C12.0352 22.8511 14.7045 20.1815 14.7045 16.9001C14.7045 15.8238 14.4181 14.7947 13.8789 13.8832C14.2205 13.9085 14.525 13.916 14.7727 13.916C15.0479 13.916 15.2515 13.9065 15.3589 13.8997C15.5881 14.6462 15.7233 15.2896 15.7834 15.9212C15.9549 17.7128 15.6149 19.7257 14.7431 22.0763Z" stroke="#4F4F4F" stroke-width="0.4" mask="url(#path-1-outside-1)"/>
</svg>
