<svg width="18" height="19" viewBox="0 0 18 19" fill="none" xmlns="http://www.w3.org/2000/svg">
<path d="M18 7.83916C17.98 7.71335 17.96 7.60852 17.92 7.50369C17.84 7.31498 17.72 7.14725 17.56 7.02145L15.4 5.1554V3.37323C15.4 2.68132 14.86 2.11522 14.2 2.11522H11.84L9.76 0.33304C9.32 -0.0443628 8.68 -0.0443628 8.24 0.33304L6.16 2.11522H3.8C3.14 2.11522 2.6 2.68132 2.6 3.37323V5.1554L0.46 6.97952C0.3 7.10532 0.18 7.27305 0.1 7.46175V7.48272C0.04 7.65045 0 7.79722 0 7.98592V16.8129C0 17.1484 0.14 17.4629 0.34 17.6936C0.56 17.9242 0.86 18.05 1.18 18.05H16.78C17.1 18.05 17.4 17.9032 17.62 17.6936C17.84 17.4629 17.96 17.1484 17.96 16.8129V7.98592C18 7.92302 18 7.88109 18 7.83916ZM15.4 6.24568L17 7.60852L15.4 9.24393V6.24568ZM8.74 0.983011C8.82 0.92011 8.9 0.878177 9 0.878177C9.1 0.878177 9.18 0.92011 9.26 0.983011L10.58 2.11522H7.42L8.74 0.983011ZM3.4 3.37323C3.4 3.14259 3.58 2.95389 3.8 2.95389H14.2C14.42 2.95389 14.6 3.14259 14.6 3.37323V10.0616L14.56 10.0826L12.52 12.1793H5.48L3.44 10.0826L3.4 10.0616V3.37323ZM2.6 6.24568V9.24393L1 7.60852L2.6 6.24568ZM0.8 16.6452V8.57299L4.74 12.5986L0.8 16.6452ZM1.38 17.2113L5.48 13.018H12.52L16.62 17.2113H1.38ZM17.2 16.6452L13.26 12.5986L17.2 8.57299V16.6452ZM9 11.3406C9.46 11.3406 9.92 11.2567 10.36 11.068C10.56 10.9842 10.66 10.7326 10.58 10.5229C10.5 10.3132 10.26 10.2084 10.06 10.2923C9.72 10.439 9.38 10.5019 9.02 10.5019C8.5 10.5019 8 10.3552 7.58 10.0826C6.76 9.55843 6.22 8.63589 6.22 7.56659C6.22 5.95214 7.48 4.63123 9.02 4.63123C10.56 4.63123 11.82 5.95214 11.82 7.56659V7.77626C11.82 8.11172 11.56 8.40526 11.22 8.40526C10.88 8.40526 10.62 8.11172 10.62 7.77626V7.56659C10.62 6.64405 9.9 5.88924 9.02 5.88924C8.14 5.88924 7.42 6.64405 7.42 7.56659C7.42 8.48913 8.14 9.24393 9.02 9.24393C9.46 9.24393 9.88 9.05523 10.16 8.74073C10.42 9.05523 10.8 9.24393 11.22 9.24393C12 9.24393 12.62 8.59396 12.62 7.77626V7.56659C12.62 5.49087 11 3.79256 9.02 3.79256C7.04 3.79256 5.42 5.49087 5.42 7.56659C5.42 8.53106 5.78 9.41167 6.34 10.0826C6.98 10.8584 7.94 11.3406 9 11.3406ZM9 8.40526C8.56 8.40526 8.2 8.02786 8.2 7.56659C8.2 7.10532 8.56 6.72791 9 6.72791C9.44 6.72791 9.8 7.10532 9.8 7.56659C9.8 8.02786 9.44 8.40526 9 8.40526Z" fill="#4F4F4F"/>
</svg>
