<svg width="20" height="20" viewBox="0 0 20 20" fill="none" xmlns="http://www.w3.org/2000/svg">
<path d="M16.0505 14.8C16.8185 15.6 16.8185 16.688 16.0505 17.52L14.8345 18.736C14.3545 19.216 13.7465 19.504 13.0425 19.568C12.9145 19.568 12.7865 19.568 12.6585 19.568C11.7305 19.568 10.8985 19.312 10.3225 19.088C8.75453 18.512 7.31453 17.648 5.74653 16.336C3.85853 14.8 2.38653 12.912 1.33053 10.768C0.946531 9.93601 0.466531 8.81601 0.402531 7.56801C0.338531 6.57601 0.658531 5.74401 1.36253 5.10401C1.36253 5.10401 1.39453 5.10401 1.39453 5.07201C1.61853 4.88001 1.81053 4.68801 2.00253 4.46401C2.16253 4.30401 2.29053 4.14401 2.48253 3.98401C3.31453 3.18401 4.43453 3.18401 5.23453 3.98401L7.18653 5.93601C7.57053 6.32001 7.79453 6.76801 7.79453 7.28001C7.79453 7.79201 7.60253 8.27201 7.18653 8.68801L5.97053 9.90401C5.68253 10.192 5.23453 10.192 4.94653 9.90401C4.65853 9.61601 4.65853 9.16801 4.94653 8.88001L6.16253 7.66401C6.29053 7.53601 6.35453 7.40801 6.35453 7.31201C6.35453 7.18401 6.25853 7.05601 6.16253 6.99201L4.21053 5.04001C3.95453 4.78401 3.73053 4.78401 3.44253 5.04001C3.28253 5.16801 3.15453 5.32801 3.02653 5.45601C2.80253 5.68001 2.57853 5.93601 2.32253 6.16001C1.97053 6.51201 1.81053 6.89601 1.84253 7.47201C1.90653 8.46401 2.32253 9.42401 2.64253 10.128C3.60253 12.08 4.94653 13.808 6.67453 15.248C8.08253 16.432 9.42653 17.232 10.8345 17.744C11.6665 18.064 12.3385 18.192 12.9465 18.128C13.2985 18.096 13.5865 17.968 13.8425 17.712L15.0585 16.496C15.3785 16.176 15.2185 15.92 15.0585 15.792C15.0585 15.792 15.0585 15.792 15.0265 15.76C14.8345 15.536 14.6105 15.344 14.3865 15.12C14.2585 15.024 14.1625 14.896 14.0345 14.768L13.0745 13.808C12.7865 13.52 12.5945 13.52 12.3065 13.808C12.2105 13.904 12.1145 14 11.9865 14.128C11.6985 14.416 11.4105 14.704 11.1225 14.992L11.0905 15.024C10.6425 15.472 10.1945 15.312 10.0345 15.28C10.0345 15.28 10.0025 15.28 10.0025 15.248C9.36253 14.992 8.78653 14.64 8.08253 14.064C7.37853 13.488 6.77053 12.912 6.25853 12.304C6.00253 12.016 6.03453 11.568 6.32253 11.28C6.61053 11.024 7.05853 11.056 7.34653 11.344C7.82653 11.888 8.37053 12.4 8.97853 12.912C9.45853 13.296 9.87453 13.552 10.2585 13.744C10.4825 13.488 10.7065 13.264 10.9625 13.04C11.0585 12.944 11.1545 12.848 11.2505 12.752C12.0825 11.92 13.2025 11.92 14.0345 12.752L14.9945 13.712C15.0905 13.808 15.2185 13.936 15.3145 14.032C15.6025 14.352 15.8265 14.576 16.0505 14.8ZM9.77853 5.64801C10.9305 5.84001 11.9545 6.38401 12.7865 7.21601C13.6185 8.04801 14.1625 9.10401 14.3545 10.224C14.4185 10.576 14.7065 10.832 15.0585 10.832C15.0905 10.832 15.1545 10.832 15.1865 10.832C15.5705 10.768 15.8265 10.384 15.7625 10C15.5065 8.56001 14.8345 7.24801 13.8105 6.22401C12.7545 5.16801 11.4745 4.49601 10.0345 4.27201C9.65053 4.20801 9.26653 4.46401 9.20253 4.84801C9.13853 5.23201 9.39453 5.58401 9.77853 5.64801ZM16.4025 3.63201C14.7065 1.93601 12.5625 0.816012 10.1945 0.432012C9.81053 0.368012 9.42653 0.624012 9.36253 1.00801C9.29853 1.39201 9.55453 1.77601 9.93853 1.84001C11.9865 2.19201 13.8745 3.15201 15.3785 4.65601C16.8825 6.16001 17.8425 8.01601 18.1945 10.096C18.2585 10.448 18.5465 10.704 18.8985 10.704C18.9305 10.704 18.9945 10.704 19.0265 10.704C19.4105 10.64 19.6665 10.256 19.6025 9.87201C19.2185 7.47201 18.0985 5.32801 16.4025 3.63201Z" fill="#4F4F4F"/>
</svg>
