<svg width="16" height="18" viewBox="0 0 16 18" fill="none" xmlns="http://www.w3.org/2000/svg">
<path d="M15.7626 9.75534C15.7626 9.03921 15.2673 8.45024 14.598 8.28961V7.99513C14.598 7.31916 14.1496 6.75027 13.5205 6.58964C13.5205 6.52941 13.5338 6.46917 13.5338 6.40224C13.5338 5.72627 13.4201 5.05029 13.1858 4.38771C13.1858 4.37432 13.0854 4.1133 13.0854 4.10661C12.8913 3.63142 12.637 3.17631 12.3224 2.76135C11.1646 1.22201 9.39769 0.331863 7.47685 0.331863C5.56271 0.338556 3.74896 1.25547 2.60449 2.79482C2.30331 3.20308 2.05568 3.6448 1.86159 4.1133C1.84151 4.14007 1.82143 4.16684 1.81474 4.19361C1.54702 4.88967 1.40648 5.62588 1.40648 6.39555C1.40648 6.45578 1.39309 6.52271 1.39978 6.58295C0.763966 6.73688 0.275391 7.31246 0.275391 7.99513V11.5155C0.275391 12.3187 0.944672 12.9679 1.74781 12.9679C2.55095 12.9679 3.22023 12.3187 3.22023 11.5155V7.98844C3.22023 7.29908 2.73165 6.7168 2.08245 6.56956C2.08245 6.50933 2.07576 6.44909 2.07576 6.38886C2.07576 5.81327 2.16276 5.25777 2.33678 4.72904L3.59502 5.19084C3.63518 5.20423 3.67534 5.21092 3.7088 5.21092C3.84266 5.21092 3.96982 5.13061 4.02336 4.99006C4.57887 3.49756 6.01782 2.50033 7.60402 2.50033C9.19021 2.50033 10.6292 3.49756 11.1847 4.99006C11.2516 5.16407 11.439 5.25108 11.613 5.18415L12.6303 4.80935C12.7909 5.33139 12.878 5.86682 12.878 6.39555C12.878 6.44909 12.878 6.50933 12.8713 6.56956C12.2154 6.71011 11.7201 7.29239 11.7201 7.98844V11.5155C11.7201 12.3187 12.3559 12.9679 13.1591 12.9679C13.9622 12.9679 14.598 12.3187 14.598 11.5155V11.3549C14.6649 11.9707 14.6649 13.0549 13.9957 13.9986C13.2461 15.0694 11.8807 15.7186 9.91304 15.9261C9.73233 15.3639 9.21029 14.9557 8.58786 14.9557C7.81819 14.9557 7.19576 15.5781 7.19576 16.3478C7.19576 17.1174 7.81819 17.7399 8.58786 17.7399C9.27053 17.7399 9.83942 17.2446 9.95989 16.5954C12.1484 16.3678 13.6945 15.6249 14.5645 14.3801C15.5082 13.0214 15.3409 11.4955 15.2338 10.9132C15.5618 10.6321 15.7626 10.2238 15.7626 9.75534ZM2.55095 7.99513V11.5155C2.55095 11.9506 2.18284 12.2986 1.74781 12.2986C1.31278 12.2986 0.944672 11.9439 0.944672 11.5155V7.98844C0.944672 7.59356 1.25254 7.26561 1.63403 7.21207C1.6675 7.21876 1.70765 7.22546 1.74112 7.22546C1.77458 7.22546 1.82143 7.21876 1.85489 7.20538C2.24308 7.25892 2.55095 7.59356 2.55095 7.99513ZM11.6799 4.45463C10.9571 2.88182 9.35753 1.83775 7.60402 1.83775C5.8505 1.83775 4.25092 2.87513 3.5214 4.45463L2.5911 4.1133C2.74504 3.79205 2.92574 3.47748 3.13991 3.18969C4.15722 1.82436 5.77688 1.00784 7.47685 1.00784C9.19021 1.00784 10.763 1.79759 11.787 3.16961C12.028 3.49087 12.2288 3.8322 12.3894 4.19361L11.6799 4.45463ZM13.9287 11.5155C13.9287 11.9506 13.5941 12.2986 13.1591 12.2986C12.724 12.2986 12.3894 11.9506 12.3894 11.5155V7.98844C12.3894 7.58687 12.6972 7.25223 13.0854 7.21207C13.1189 7.22546 13.1524 7.23215 13.1925 7.23215C13.226 7.23215 13.2394 7.22546 13.2728 7.21876C13.6543 7.27231 13.9287 7.60025 13.9287 7.99513V11.5155ZM8.59455 17.0706C8.19299 17.0706 7.87173 16.7493 7.87173 16.3478C7.87173 15.9462 8.19299 15.6249 8.59455 15.6249C8.99612 15.6249 9.31738 15.9462 9.31738 16.3478C9.31738 16.7493 8.99612 17.0706 8.59455 17.0706ZM14.598 10.5183V8.99905C14.9326 9.13291 15.0732 9.4207 15.0732 9.76203C15.0732 10.1034 14.9326 10.3778 14.598 10.5183Z" fill="#F2994A"/>
</svg>
