<svg width="24" height="23" viewBox="0 0 24 23" fill="none" xmlns="http://www.w3.org/2000/svg">
<path d="M22.675 0.126953H1.325C0.593 0.126953 0 0.686193 0 1.37652V21.512C0 22.2014 0.593 22.7606 1.325 22.7606H12.82V13.9957H9.692V10.5799H12.82V8.06099C12.82 5.13748 14.713 3.54558 17.479 3.54558C18.804 3.54558 19.942 3.63894 20.274 3.68044V6.73598L18.356 6.73693C16.852 6.73693 16.561 7.41122 16.561 8.39956V10.5809H20.148L19.681 13.9967H16.561V22.7606H22.677C23.407 22.7606 24 22.2014 24 21.511V1.37652C24 0.686193 23.407 0.126953 22.675 0.126953Z" fill="#A9A9A9"/>
</svg>
