<svg width="141" height="85" viewBox="0 0 141 85" fill="none" xmlns="http://www.w3.org/2000/svg">
<path d="M8.4834 69.9961H2.57715V81H0.362305V68.2031H8.4834V69.9961ZM14.3896 81C14.2959 80.8184 14.2139 80.5225 14.1436 80.1123C13.4639 80.8213 12.6318 81.1758 11.6475 81.1758C10.6924 81.1758 9.91309 80.9033 9.30957 80.3584C8.70605 79.8135 8.4043 79.1396 8.4043 78.3369C8.4043 77.3232 8.7793 76.5469 9.5293 76.0078C10.2852 75.4629 11.3633 75.1904 12.7637 75.1904H14.0732V74.5664C14.0732 74.0742 13.9355 73.6816 13.6602 73.3887C13.3848 73.0898 12.9658 72.9404 12.4033 72.9404C11.917 72.9404 11.5186 73.0635 11.208 73.3096C10.8975 73.5498 10.7422 73.8574 10.7422 74.2324H8.60645C8.60645 73.7109 8.7793 73.2246 9.125 72.7734C9.4707 72.3164 9.93945 71.959 10.5312 71.7012C11.1289 71.4434 11.7939 71.3145 12.5264 71.3145C13.6396 71.3145 14.5273 71.5957 15.1895 72.1582C15.8516 72.7148 16.1914 73.5 16.209 74.5137V78.8027C16.209 79.6582 16.3291 80.3408 16.5693 80.8506V81H14.3896ZM12.043 79.4619C12.4648 79.4619 12.8604 79.3594 13.2295 79.1543C13.6045 78.9492 13.8857 78.6738 14.0732 78.3281V76.5352H12.9219C12.1309 76.5352 11.5361 76.6729 11.1377 76.9482C10.7393 77.2236 10.54 77.6133 10.54 78.1172C10.54 78.5273 10.6748 78.8555 10.9443 79.1016C11.2197 79.3418 11.5859 79.4619 12.043 79.4619ZM26.7734 76.3418C26.7734 77.8125 26.4395 78.9873 25.7715 79.8662C25.1035 80.7393 24.207 81.1758 23.082 81.1758C22.0391 81.1758 21.2041 80.833 20.5771 80.1475V84.6562H18.4414V71.4902H20.4102L20.498 72.457C21.125 71.6953 21.9775 71.3145 23.0557 71.3145C24.2158 71.3145 25.124 71.748 25.7803 72.6152C26.4424 73.4766 26.7734 74.6748 26.7734 76.21V76.3418ZM24.6465 76.1572C24.6465 75.208 24.4561 74.4551 24.0752 73.8984C23.7002 73.3418 23.1611 73.0635 22.458 73.0635C21.585 73.0635 20.958 73.4238 20.5771 74.1445V78.3633C20.9639 79.1016 21.5967 79.4707 22.4756 79.4707C23.1553 79.4707 23.6855 79.1982 24.0664 78.6533C24.4531 78.1025 24.6465 77.2705 24.6465 76.1572ZM34.2705 81C34.1768 80.8184 34.0947 80.5225 34.0244 80.1123C33.3447 80.8213 32.5127 81.1758 31.5283 81.1758C30.5732 81.1758 29.7939 80.9033 29.1904 80.3584C28.5869 79.8135 28.2852 79.1396 28.2852 78.3369C28.2852 77.3232 28.6602 76.5469 29.4102 76.0078C30.166 75.4629 31.2441 75.1904 32.6445 75.1904H33.9541V74.5664C33.9541 74.0742 33.8164 73.6816 33.541 73.3887C33.2656 73.0898 32.8467 72.9404 32.2842 72.9404C31.7979 72.9404 31.3994 73.0635 31.0889 73.3096C30.7783 73.5498 30.623 73.8574 30.623 74.2324H28.4873C28.4873 73.7109 28.6602 73.2246 29.0059 72.7734C29.3516 72.3164 29.8203 71.959 30.4121 71.7012C31.0098 71.4434 31.6748 71.3145 32.4072 71.3145C33.5205 71.3145 34.4082 71.5957 35.0703 72.1582C35.7324 72.7148 36.0723 73.5 36.0898 74.5137V78.8027C36.0898 79.6582 36.21 80.3408 36.4502 80.8506V81H34.2705ZM31.9238 79.4619C32.3457 79.4619 32.7412 79.3594 33.1104 79.1543C33.4854 78.9492 33.7666 78.6738 33.9541 78.3281V76.5352H32.8027C32.0117 76.5352 31.417 76.6729 31.0186 76.9482C30.6201 77.2236 30.4209 77.6133 30.4209 78.1172C30.4209 78.5273 30.5557 78.8555 30.8252 79.1016C31.1006 79.3418 31.4668 79.4619 31.9238 79.4619ZM46.3818 81H44.2461V77.1592H40.5459V81H38.4102V71.4902H40.5459V75.4541H44.2461V71.4902H46.3818V81ZM56.1465 73.1865H53.0615V81H50.9258V73.1865H47.876V71.4902H56.1465V73.1865ZM63.5117 71.4902H65.6387V81H63.5117V74.6543L59.7852 81H57.6582V71.4902H59.7852V77.8359L63.5117 71.4902ZM75.5264 71.4902V81H73.3994V77.5107H71.4043L69.374 81H67.1592L69.4004 77.1592C68.8145 76.9131 68.3633 76.5615 68.0469 76.1045C67.7363 75.6475 67.5811 75.123 67.5811 74.5312C67.5811 73.6465 67.9209 72.9229 68.6006 72.3604C69.2861 71.792 70.209 71.502 71.3691 71.4902H75.5264ZM69.7168 74.584C69.7168 74.9824 69.8633 75.3076 70.1562 75.5596C70.4551 75.8057 70.8359 75.9287 71.2988 75.9287H73.3994V73.1865H71.4307C70.9092 73.1865 70.4932 73.3184 70.1826 73.582C69.8721 73.8457 69.7168 74.1797 69.7168 74.584ZM89.5801 74.0918C89.5801 74.5137 89.4512 74.9033 89.1934 75.2607C88.9414 75.6123 88.584 75.8936 88.1211 76.1045C89.2109 76.4854 89.7559 77.2207 89.7559 78.3105C89.7559 79.1836 89.4014 79.8809 88.6924 80.4023C87.9834 80.918 87.0342 81.1758 85.8447 81.1758C85.1182 81.1758 84.4561 81.0557 83.8584 80.8154C83.2607 80.5693 82.7949 80.2236 82.4609 79.7783C82.127 79.3271 81.96 78.7939 81.96 78.1787H84.0869C84.0869 78.5654 84.2598 78.8906 84.6055 79.1543C84.9512 79.4121 85.3877 79.541 85.915 79.541C86.4365 79.541 86.8496 79.4209 87.1543 79.1807C87.4648 78.9346 87.6201 78.6152 87.6201 78.2227C87.6201 77.7598 87.4854 77.4258 87.2158 77.2207C86.9463 77.0156 86.5303 76.9131 85.9678 76.9131H84.4385V75.375H86.0205C86.9756 75.3633 87.4531 74.9707 87.4531 74.1973C87.4531 73.8105 87.3154 73.5088 87.04 73.292C86.7646 73.0752 86.3867 72.9668 85.9062 72.9668C85.4375 72.9668 85.042 73.084 84.7197 73.3184C84.3975 73.5469 84.2363 73.8369 84.2363 74.1885H82.1094C82.1094 73.3506 82.4609 72.665 83.1641 72.1318C83.8672 71.5928 84.7607 71.3232 85.8447 71.3232C87.0225 71.3232 87.9395 71.5635 88.5957 72.0439C89.252 72.5244 89.5801 73.207 89.5801 74.0918ZM97.2529 81C97.1592 80.8184 97.0771 80.5225 97.0068 80.1123C96.3271 80.8213 95.4951 81.1758 94.5107 81.1758C93.5557 81.1758 92.7764 80.9033 92.1729 80.3584C91.5693 79.8135 91.2676 79.1396 91.2676 78.3369C91.2676 77.3232 91.6426 76.5469 92.3926 76.0078C93.1484 75.4629 94.2266 75.1904 95.627 75.1904H96.9365V74.5664C96.9365 74.0742 96.7988 73.6816 96.5234 73.3887C96.248 73.0898 95.8291 72.9404 95.2666 72.9404C94.7803 72.9404 94.3818 73.0635 94.0713 73.3096C93.7607 73.5498 93.6055 73.8574 93.6055 74.2324H91.4697C91.4697 73.7109 91.6426 73.2246 91.9883 72.7734C92.334 72.3164 92.8027 71.959 93.3945 71.7012C93.9922 71.4434 94.6572 71.3145 95.3896 71.3145C96.5029 71.3145 97.3906 71.5957 98.0527 72.1582C98.7148 72.7148 99.0547 73.5 99.0723 74.5137V78.8027C99.0723 79.6582 99.1924 80.3408 99.4326 80.8506V81H97.2529ZM94.9062 79.4619C95.3281 79.4619 95.7236 79.3594 96.0928 79.1543C96.4678 78.9492 96.749 78.6738 96.9365 78.3281V76.5352H95.7852C94.9941 76.5352 94.3994 76.6729 94.001 76.9482C93.6025 77.2236 93.4033 77.6133 93.4033 78.1172C93.4033 78.5273 93.5381 78.8555 93.8076 79.1016C94.083 79.3418 94.4492 79.4619 94.9062 79.4619ZM101.472 81V71.4902H105.33C106.631 71.4902 107.621 71.7188 108.301 72.1758C108.98 72.627 109.32 73.2773 109.32 74.127C109.32 74.5664 109.183 74.9619 108.907 75.3135C108.638 75.6592 108.236 75.9258 107.703 76.1133C108.324 76.2422 108.816 76.5029 109.18 76.8955C109.543 77.2881 109.725 77.751 109.725 78.2842C109.725 79.1689 109.396 79.8428 108.74 80.3057C108.09 80.7686 107.152 81 105.928 81H101.472ZM103.607 76.9482V79.3125H105.945C107.041 79.3125 107.589 78.9199 107.589 78.1348C107.589 77.3438 107.032 76.9482 105.919 76.9482H103.607ZM103.607 75.4189H105.365C106.578 75.4189 107.185 75.0615 107.185 74.3467C107.185 73.5967 106.61 73.21 105.462 73.1865H103.607V75.4189ZM111.175 76.1572C111.175 75.2256 111.359 74.3877 111.729 73.6436C112.098 72.8936 112.616 72.3193 113.284 71.9209C113.952 71.5166 114.72 71.3145 115.587 71.3145C116.87 71.3145 117.91 71.7275 118.707 72.5537C119.51 73.3799 119.943 74.4756 120.008 75.8408L120.017 76.3418C120.017 77.2793 119.835 78.1172 119.472 78.8555C119.114 79.5938 118.599 80.165 117.925 80.5693C117.257 80.9736 116.483 81.1758 115.604 81.1758C114.263 81.1758 113.188 80.7305 112.379 79.8398C111.576 78.9434 111.175 77.751 111.175 76.2627V76.1572ZM113.311 76.3418C113.311 77.3203 113.513 78.0879 113.917 78.6445C114.321 79.1953 114.884 79.4707 115.604 79.4707C116.325 79.4707 116.885 79.1895 117.283 78.627C117.688 78.0645 117.89 77.2412 117.89 76.1572C117.89 75.1963 117.682 74.4346 117.266 73.8721C116.855 73.3096 116.296 73.0283 115.587 73.0283C114.89 73.0283 114.336 73.3066 113.926 73.8633C113.516 74.4141 113.311 75.2402 113.311 76.3418ZM121.229 79.2949C121.821 78.6328 122.217 78.0059 122.416 77.4141C122.621 76.8164 122.744 76.0547 122.785 75.1289L122.908 71.4902H129.509V79.2949H130.827V83.8301H128.7V81H122.601V83.8301H120.438L120.447 79.2949H121.229ZM123.734 79.2949H127.382V73.3271H124.982L124.921 75.1465C124.839 76.8926 124.443 78.2754 123.734 79.2949ZM138.034 81C137.94 80.8184 137.858 80.5225 137.788 80.1123C137.108 80.8213 136.276 81.1758 135.292 81.1758C134.337 81.1758 133.558 80.9033 132.954 80.3584C132.351 79.8135 132.049 79.1396 132.049 78.3369C132.049 77.3232 132.424 76.5469 133.174 76.0078C133.93 75.4629 135.008 75.1904 136.408 75.1904H137.718V74.5664C137.718 74.0742 137.58 73.6816 137.305 73.3887C137.029 73.0898 136.61 72.9404 136.048 72.9404C135.562 72.9404 135.163 73.0635 134.853 73.3096C134.542 73.5498 134.387 73.8574 134.387 74.2324H132.251C132.251 73.7109 132.424 73.2246 132.77 72.7734C133.115 72.3164 133.584 71.959 134.176 71.7012C134.773 71.4434 135.438 71.3145 136.171 71.3145C137.284 71.3145 138.172 71.5957 138.834 72.1582C139.496 72.7148 139.836 73.5 139.854 74.5137V78.8027C139.854 79.6582 139.974 80.3408 140.214 80.8506V81H138.034ZM135.688 79.4619C136.109 79.4619 136.505 79.3594 136.874 79.1543C137.249 78.9492 137.53 78.6738 137.718 78.3281V76.5352H136.566C135.775 76.5352 135.181 76.6729 134.782 76.9482C134.384 77.2236 134.185 77.6133 134.185 78.1172C134.185 78.5273 134.319 78.8555 134.589 79.1016C134.864 79.3418 135.23 79.4619 135.688 79.4619Z" fill="#CD4342"/>
<g clip-path="url(#clip0)">
<path d="M78 26.3999C75.3527 26.3999 73.2 28.5527 73.2 31.1999C73.2 33.8471 75.3527 35.9999 78 35.9999C80.6472 35.9999 82.7999 33.8471 82.7999 31.1999C82.7999 28.5527 80.6472 26.3999 78 26.3999ZM78 34.3999C76.2351 34.3999 74.8 32.9647 74.8 31.1999C74.8 29.4351 76.2352 27.9999 78 27.9999C79.7648 27.9999 81.1999 29.4352 81.1999 31.1999C81.2 32.9647 79.7648 34.3999 78 34.3999Z" fill="#4F4F4F"/>
<path d="M79.6 34.3999V37.7055L78.4433 36.9343C78.1745 36.7543 77.8249 36.7543 77.556 36.9343L76.4 37.7055V34.3999H74.8V39.1999C74.8 39.4951 74.9624 39.7663 75.2232 39.9055C75.4825 40.0447 75.7992 40.0287 76.044 39.8654L78 38.5615L79.956 39.8654C80.0896 39.9542 80.2449 39.9999 80.4 39.9999C80.5296 39.9999 80.6592 39.9687 80.7776 39.9055C81.0376 39.7662 81.2001 39.495 81.2001 39.1999V34.3999H79.6Z" fill="#4F4F4F"/>
<path d="M74.8001 8H64.4001V9.60003H74.8001V8Z" fill="#4F4F4F"/>
<path d="M82.8 12.7998H57.2V14.3998H82.8V12.7998Z" fill="#4F4F4F"/>
<path d="M74.7999 17.6001H57.2V19.2001H74.7999V17.6001Z" fill="#4F4F4F"/>
<path d="M82.8 17.6001H78V19.2001H82.8V17.6001Z" fill="#4F4F4F"/>
<path d="M82.8 22.3999H57.2V23.9999H82.8V22.3999Z" fill="#4F4F4F"/>
<path d="M66.8 27.2002H57.2V28.8002H66.8V27.2002Z" fill="#4F4F4F"/>
<path d="M61.2 31.2002H57.2V32.8002H61.2V31.2002Z" fill="#4F4F4F"/>
<path d="M66.8001 31.2002H64.4001V32.8002H66.8001V31.2002Z" fill="#4F4F4F"/>
<path d="M90 0C87.7945 0 86 1.79437 86 4.00003V5.60006C86 6.04163 86.3576 6.40003 86.8 6.40003H93.2C93.6424 6.40003 94 6.04163 94 5.60006V4.00003C94.0001 1.79437 92.2057 0 90 0ZM92.4 4.8H87.6V4.00003C87.6 2.67684 88.6768 1.60003 90 1.60003C91.3232 1.60003 92.4 2.67684 92.4 4.00003V4.8Z" fill="#4F4F4F"/>
<path d="M90.0001 0H56.4001C54.1945 0 52.4001 1.79437 52.4001 4.00003V42.4H54.0002V4.00003C54.0002 2.67684 55.077 1.60003 56.4002 1.60003H86.8018C86.2986 2.26884 86.0002 3.10003 86.0002 4.00003V44.0001C86.0002 45.3232 84.9234 46.4001 83.6002 46.4001H53.2001V48H83.6001C85.8057 48 87.6002 46.2056 87.6002 44V4.00003C87.6002 2.67684 88.677 1.60003 90.0002 1.60003C90.4426 1.60003 90.8001 1.24163 90.8001 0.800063C90.8001 0.3585 90.4425 0 90.0001 0Z" fill="#4F4F4F"/>
<path d="M83.6 46.4001C82.2768 46.4001 81.2 45.3233 81.2 44.0001V42.4001C81.2 41.9577 80.8425 41.6001 80.4001 41.6001H46.8C46.3584 41.6001 46 41.9577 46 42.4001V44.0001C46 46.2058 47.7944 48.0001 50 48.0001H83.6C84.0424 48.0001 84.4 47.6426 84.4 47.2002C84.4 46.7578 84.0424 46.4001 83.6 46.4001ZM50 46.4001C48.6768 46.4001 47.6 45.3233 47.6 44.0001V43.2001H79.6V44.0001C79.6 44.9001 79.8984 45.7313 80.4016 46.4001H50Z" fill="#4F4F4F"/>
</g>
<defs>
<clipPath id="clip0">
<rect width="48" height="48" fill="white" transform="translate(46)"/>
</clipPath>
</defs>
</svg>
