<svg width="154" height="95" viewBox="0 0 154 95" fill="none" xmlns="http://www.w3.org/2000/svg">
<path d="M11.0654 89.834C10.9365 91.1992 10.4326 92.2656 9.55371 93.0332C8.6748 93.7949 7.50586 94.1758 6.04688 94.1758C5.02734 94.1758 4.12793 93.9355 3.34863 93.4551C2.5752 92.9688 1.97754 92.2803 1.55566 91.3896C1.13379 90.499 0.914062 89.4648 0.896484 88.2871V87.0918C0.896484 85.8848 1.11035 84.8213 1.53809 83.9014C1.96582 82.9814 2.57812 82.2725 3.375 81.7744C4.17773 81.2764 5.10352 81.0273 6.15234 81.0273C7.56445 81.0273 8.70117 81.4111 9.5625 82.1787C10.4238 82.9463 10.9248 84.0303 11.0654 85.4307H8.85059C8.74512 84.5107 8.47559 83.8486 8.04199 83.4443C7.61426 83.0342 6.98438 82.8291 6.15234 82.8291C5.18555 82.8291 4.44141 83.1836 3.91992 83.8926C3.4043 84.5957 3.14062 85.6299 3.12891 86.9951V88.1289C3.12891 89.5117 3.375 90.5664 3.86719 91.293C4.36523 92.0195 5.0918 92.3828 6.04688 92.3828C6.91992 92.3828 7.57617 92.1865 8.01562 91.7939C8.45508 91.4014 8.7334 90.748 8.85059 89.834H11.0654ZM12.4541 89.1572C12.4541 88.2256 12.6387 87.3877 13.0078 86.6436C13.377 85.8936 13.8955 85.3193 14.5635 84.9209C15.2314 84.5166 15.999 84.3145 16.8662 84.3145C18.1494 84.3145 19.1895 84.7275 19.9863 85.5537C20.7891 86.3799 21.2227 87.4756 21.2871 88.8408L21.2959 89.3418C21.2959 90.2793 21.1143 91.1172 20.751 91.8555C20.3936 92.5938 19.8779 93.165 19.2041 93.5693C18.5361 93.9736 17.7627 94.1758 16.8838 94.1758C15.542 94.1758 14.4668 93.7305 13.6582 92.8398C12.8555 91.9434 12.4541 90.751 12.4541 89.2627V89.1572ZM14.5898 89.3418C14.5898 90.3203 14.792 91.0879 15.1963 91.6445C15.6006 92.1953 16.1631 92.4707 16.8838 92.4707C17.6045 92.4707 18.1641 92.1895 18.5625 91.627C18.9668 91.0645 19.1689 90.2412 19.1689 89.1572C19.1689 88.1963 18.9609 87.4346 18.5449 86.8721C18.1348 86.3096 17.5752 86.0283 16.8662 86.0283C16.1689 86.0283 15.6152 86.3066 15.2051 86.8633C14.7949 87.4141 14.5898 88.2402 14.5898 89.3418ZM27.0088 92.4707C27.542 92.4707 27.9844 92.3154 28.3359 92.0049C28.6875 91.6943 28.875 91.3105 28.8984 90.8535H30.9111C30.8877 91.4453 30.7031 91.999 30.3574 92.5146C30.0117 93.0244 29.543 93.4287 28.9512 93.7275C28.3594 94.0264 27.7207 94.1758 27.0352 94.1758C25.7051 94.1758 24.6504 93.7451 23.8711 92.8838C23.0918 92.0225 22.7021 90.833 22.7021 89.3154V89.0957C22.7021 87.6484 23.0889 86.4912 23.8623 85.624C24.6357 84.751 25.6904 84.3145 27.0264 84.3145C28.1572 84.3145 29.0771 84.6455 29.7861 85.3076C30.501 85.9639 30.876 86.8281 30.9111 87.9004H28.8984C28.875 87.3555 28.6875 86.9072 28.3359 86.5557C27.9902 86.2041 27.5479 86.0283 27.0088 86.0283C26.3174 86.0283 25.7842 86.2803 25.4092 86.7842C25.0342 87.2822 24.8438 88.041 24.8379 89.0605V89.4033C24.8379 90.4346 25.0225 91.2051 25.3916 91.7148C25.7666 92.2188 26.3057 92.4707 27.0088 92.4707ZM40.0078 86.1865H36.9229V94H34.7871V86.1865H31.7373V84.4902H40.0078V86.1865ZM40.7725 89.1572C40.7725 88.2256 40.957 87.3877 41.3262 86.6436C41.6953 85.8936 42.2139 85.3193 42.8818 84.9209C43.5498 84.5166 44.3174 84.3145 45.1846 84.3145C46.4678 84.3145 47.5078 84.7275 48.3047 85.5537C49.1074 86.3799 49.541 87.4756 49.6055 88.8408L49.6143 89.3418C49.6143 90.2793 49.4326 91.1172 49.0693 91.8555C48.7119 92.5938 48.1963 93.165 47.5225 93.5693C46.8545 93.9736 46.0811 94.1758 45.2021 94.1758C43.8604 94.1758 42.7852 93.7305 41.9766 92.8398C41.1738 91.9434 40.7725 90.751 40.7725 89.2627V89.1572ZM42.9082 89.3418C42.9082 90.3203 43.1104 91.0879 43.5146 91.6445C43.9189 92.1953 44.4814 92.4707 45.2021 92.4707C45.9229 92.4707 46.4824 92.1895 46.8809 91.627C47.2852 91.0645 47.4873 90.2412 47.4873 89.1572C47.4873 88.1963 47.2793 87.4346 46.8633 86.8721C46.4531 86.3096 45.8936 86.0283 45.1846 86.0283C44.4873 86.0283 43.9336 86.3066 43.5234 86.8633C43.1133 87.4141 42.9082 88.2402 42.9082 89.3418ZM59.0361 84.4902V94H56.9092V90.5107H54.9141L52.8838 94H50.6689L52.9102 90.1592C52.3242 89.9131 51.873 89.5615 51.5566 89.1045C51.2461 88.6475 51.0908 88.123 51.0908 87.5312C51.0908 86.6465 51.4307 85.9229 52.1104 85.3604C52.7959 84.792 53.7188 84.502 54.8789 84.4902H59.0361ZM53.2266 87.584C53.2266 87.9824 53.373 88.3076 53.666 88.5596C53.9648 88.8057 54.3457 88.9287 54.8086 88.9287H56.9092V86.1865H54.9404C54.4189 86.1865 54.0029 86.3184 53.6924 86.582C53.3818 86.8457 53.2266 87.1797 53.2266 87.584ZM69.46 94H67.3242V90.1592H63.624V94H61.4883V84.4902H63.624V88.4541H67.3242V84.4902H69.46V94ZM77.6777 84.4902H79.8047V94H77.6777V87.6543L73.9512 94H71.8242V84.4902H73.9512V90.8359L77.6777 84.4902ZM86.2646 94.1758C84.9111 94.1758 83.8125 93.751 82.9688 92.9014C82.1309 92.0459 81.7119 90.9092 81.7119 89.4912V89.2275C81.7119 88.2783 81.8936 87.4316 82.2568 86.6875C82.626 85.9375 83.1416 85.3545 83.8037 84.9385C84.4658 84.5225 85.2041 84.3145 86.0186 84.3145C87.3135 84.3145 88.3125 84.7275 89.0156 85.5537C89.7246 86.3799 90.0791 87.5488 90.0791 89.0605V89.9219H83.8652C83.9297 90.707 84.1904 91.3281 84.6475 91.7852C85.1104 92.2422 85.6904 92.4707 86.3877 92.4707C87.3662 92.4707 88.1631 92.0752 88.7783 91.2842L89.9297 92.3828C89.5488 92.9512 89.0391 93.3936 88.4004 93.71C87.7676 94.0205 87.0557 94.1758 86.2646 94.1758ZM86.0098 86.0283C85.4238 86.0283 84.9492 86.2334 84.5859 86.6436C84.2285 87.0537 84 87.625 83.9004 88.3574H87.9697V88.1992C87.9229 87.4844 87.7324 86.9453 87.3984 86.582C87.0645 86.2129 86.6016 86.0283 86.0098 86.0283ZM104.282 94H102.146V90.1592H98.4463V94H96.3105V84.4902H98.4463V88.4541H102.146V84.4902H104.282V94ZM106.163 89.1572C106.163 88.2256 106.348 87.3877 106.717 86.6436C107.086 85.8936 107.604 85.3193 108.272 84.9209C108.94 84.5166 109.708 84.3145 110.575 84.3145C111.858 84.3145 112.898 84.7275 113.695 85.5537C114.498 86.3799 114.932 87.4756 114.996 88.8408L115.005 89.3418C115.005 90.2793 114.823 91.1172 114.46 91.8555C114.103 92.5938 113.587 93.165 112.913 93.5693C112.245 93.9736 111.472 94.1758 110.593 94.1758C109.251 94.1758 108.176 93.7305 107.367 92.8398C106.564 91.9434 106.163 90.751 106.163 89.2627V89.1572ZM108.299 89.3418C108.299 90.3203 108.501 91.0879 108.905 91.6445C109.31 92.1953 109.872 92.4707 110.593 92.4707C111.313 92.4707 111.873 92.1895 112.271 91.627C112.676 91.0645 112.878 90.2412 112.878 89.1572C112.878 88.1963 112.67 87.4346 112.254 86.8721C111.844 86.3096 111.284 86.0283 110.575 86.0283C109.878 86.0283 109.324 86.3066 108.914 86.8633C108.504 87.4141 108.299 88.2402 108.299 89.3418ZM116.974 94V84.4902H120.832C122.133 84.4902 123.123 84.7188 123.803 85.1758C124.482 85.627 124.822 86.2773 124.822 87.127C124.822 87.5664 124.685 87.9619 124.409 88.3135C124.14 88.6592 123.738 88.9258 123.205 89.1133C123.826 89.2422 124.318 89.5029 124.682 89.8955C125.045 90.2881 125.227 90.751 125.227 91.2842C125.227 92.1689 124.898 92.8428 124.242 93.3057C123.592 93.7686 122.654 94 121.43 94H116.974ZM119.109 89.9482V92.3125H121.447C122.543 92.3125 123.091 91.9199 123.091 91.1348C123.091 90.3438 122.534 89.9482 121.421 89.9482H119.109ZM119.109 88.4189H120.867C122.08 88.4189 122.687 88.0615 122.687 87.3467C122.687 86.5967 122.112 86.21 120.964 86.1865H119.109V88.4189ZM126.677 89.1572C126.677 88.2256 126.861 87.3877 127.23 86.6436C127.6 85.8936 128.118 85.3193 128.786 84.9209C129.454 84.5166 130.222 84.3145 131.089 84.3145C132.372 84.3145 133.412 84.7275 134.209 85.5537C135.012 86.3799 135.445 87.4756 135.51 88.8408L135.519 89.3418C135.519 90.2793 135.337 91.1172 134.974 91.8555C134.616 92.5938 134.101 93.165 133.427 93.5693C132.759 93.9736 131.985 94.1758 131.106 94.1758C129.765 94.1758 128.689 93.7305 127.881 92.8398C127.078 91.9434 126.677 90.751 126.677 89.2627V89.1572ZM128.812 89.3418C128.812 90.3203 129.015 91.0879 129.419 91.6445C129.823 92.1953 130.386 92.4707 131.106 92.4707C131.827 92.4707 132.387 92.1895 132.785 91.627C133.189 91.0645 133.392 90.2412 133.392 89.1572C133.392 88.1963 133.184 87.4346 132.768 86.8721C132.357 86.3096 131.798 86.0283 131.089 86.0283C130.392 86.0283 129.838 86.3066 129.428 86.8633C129.018 87.4141 128.812 88.2402 128.812 89.3418ZM143.657 86.2129H139.526V94H137.399V84.4902H143.657V86.2129ZM144.29 89.1572C144.29 88.2256 144.475 87.3877 144.844 86.6436C145.213 85.8936 145.731 85.3193 146.399 84.9209C147.067 84.5166 147.835 84.3145 148.702 84.3145C149.985 84.3145 151.025 84.7275 151.822 85.5537C152.625 86.3799 153.059 87.4756 153.123 88.8408L153.132 89.3418C153.132 90.2793 152.95 91.1172 152.587 91.8555C152.229 92.5938 151.714 93.165 151.04 93.5693C150.372 93.9736 149.599 94.1758 148.72 94.1758C147.378 94.1758 146.303 93.7305 145.494 92.8398C144.691 91.9434 144.29 90.751 144.29 89.2627V89.1572ZM146.426 89.3418C146.426 90.3203 146.628 91.0879 147.032 91.6445C147.437 92.1953 147.999 92.4707 148.72 92.4707C149.44 92.4707 150 92.1895 150.398 91.627C150.803 91.0645 151.005 90.2412 151.005 89.1572C151.005 88.1963 150.797 87.4346 150.381 86.8721C149.971 86.3096 149.411 86.0283 148.702 86.0283C148.005 86.0283 147.451 86.3066 147.041 86.8633C146.631 87.4141 146.426 88.2402 146.426 89.3418Z" fill="#CD4342"/>
<path d="M94.6 29.7998V59.3998H59.4001V29.7998H57.8V60.1998C57.8 60.6422 58.1585 60.9998 58.6 60.9998H95.4C95.8424 60.9998 96.2 60.6422 96.2 60.1998V29.7998H94.6Z" fill="#4F4F4F"/>
<path d="M98.6001 21.7998H55.4001C54.9585 21.7998 54.6001 22.1582 54.6001 22.5998V29.7998C54.6001 30.2413 54.9585 30.5998 55.4001 30.5998H66.6001V28.9997H56.2V23.3997H97.8V28.9997H87.4V30.5998H98.6001C99.0425 30.5998 99.4 30.2413 99.4 29.7998V22.5998C99.4 22.1582 99.0425 21.7998 98.6001 21.7998Z" fill="#4F4F4F"/>
<path d="M80.2 21.7998H73.8C73.3584 21.7998 73 22.1582 73 22.5998V60.1998C73 60.6422 73.3584 60.9998 73.8 60.9998H80.2C80.6424 60.9998 81 60.6422 81 60.1998V22.5998C81 22.1582 80.6424 21.7998 80.2 21.7998ZM79.4 59.3997H74.6V23.3997H79.4V59.3997Z" fill="#4F4F4F"/>
<path d="M77.5664 22.0352L70.7656 15.2104C69.3575 13.8048 67.4119 13 65.4256 13C65.4168 13 65.4088 13 65.4 13C62.5327 13 60.2 15.3328 60.2 18.2C60.2 21.0672 62.5327 23.4001 65.4 23.4001H77C77.3231 23.4001 77.6151 23.2056 77.7392 22.9065C77.8624 22.608 77.7944 22.2648 77.5664 22.0352ZM65.4 21.8C63.4152 21.8 61.8 20.1848 61.8 18.2C61.8 16.2153 63.4152 14.6 65.4032 14.6C65.4095 14.6 65.4159 14.6 65.4231 14.6C66.9911 14.6 68.5248 15.2344 69.6335 16.3409L75.0736 21.8001H65.4V21.8Z" fill="#4F4F4F"/>
<path d="M88.6032 13C86.6033 13.0064 84.6488 13.7984 83.2336 15.2112L76.4336 22.0352C76.2056 22.2639 76.1377 22.608 76.2616 22.9064C76.3848 23.2055 76.6768 23.4 77 23.4H88.5999C91.4671 23.4 93.8 21.0672 93.8 18.1999C93.8 15.3328 91.4672 13 88.6032 13ZM88.5999 21.8H78.9263L84.3655 16.3425C85.4752 15.2344 87.0087 14.6 88.58 14.6C90.5584 14.5889 92.1999 16.2072 92.1999 18.2C92.1999 20.1848 90.5848 21.8 88.5999 21.8Z" fill="#4F4F4F"/>
<path d="M73.0968 27.8199L68.2272 36.8631L67.3168 35.0416C67.1552 34.7184 66.7952 34.5432 66.444 34.6152L64.1968 35.0648L71.2904 23.0056L69.9112 22.1943L61.9112 35.7943C61.7512 36.0655 61.7656 36.4063 61.9488 36.6631C62.1312 36.9198 62.4464 37.0446 62.7576 36.9839L66.1583 36.3039L67.4847 38.9575C67.6183 39.2247 67.8895 39.3951 68.1879 39.3999C68.192 39.3999 68.1959 39.3999 68.1999 39.3999C68.4943 39.3999 68.7648 39.2383 68.9055 38.9783L74.5055 28.5783L73.0968 27.8199Z" fill="#4F4F4F"/>
<path d="M73.5263 21.9986L67.5847 16.8002C67.1464 16.413 66.5824 16.2002 65.9992 16.2002C65.9967 16.2002 65.9944 16.2002 65.9919 16.2002H65.7999C64.4768 16.2002 63.3999 17.277 63.3999 18.5962C63.3959 19.3393 63.728 20.0305 64.3056 20.4865L67.6975 23.2225C67.8399 23.3378 68.0167 23.4001 68.1999 23.4001H72.9999C73.3335 23.4001 73.6319 23.1937 73.7487 22.8817C73.8655 22.5697 73.7776 22.2178 73.5263 21.9986ZM68.4824 21.8003L65.304 19.237C65.1096 19.0835 64.9984 18.8522 65 18.6002C65 18.1594 65.3591 17.8002 65.7999 17.8002H65.9944C65.9952 17.8002 65.996 17.8002 65.9968 17.8002C66.192 17.8002 66.3808 17.8714 66.5296 18.0018L70.8704 21.8002H68.4824V21.8003Z" fill="#4F4F4F"/>
<path d="M88.1999 16.2002H88.0104C88.0079 16.2002 88.0056 16.2002 88.0032 16.2002C87.4167 16.2002 86.8536 16.413 86.4167 16.7986L80.4727 21.9986C80.2223 22.2178 80.1335 22.5699 80.2503 22.8819C80.3679 23.1939 80.6663 23.4003 80.9999 23.4003H85.7999C85.9831 23.4003 86.1599 23.3379 86.3023 23.2227L89.6888 20.4915C90.2712 20.0307 90.604 19.3395 90.5999 18.6003C90.5999 17.277 89.5231 16.2002 88.1999 16.2002ZM88.6895 19.2418L85.5175 21.8003H83.1295L87.4727 18.0003C87.6199 17.8715 87.8071 17.8003 88.0055 17.8003C88.0063 17.8003 88.0071 17.8003 88.0079 17.8003H88.1999C88.6415 17.8003 88.9999 18.1595 88.9999 18.6043C89.0015 18.8522 88.8903 19.0834 88.6895 19.2418Z" fill="#4F4F4F"/>
<path d="M92.0912 35.7951L84.0911 22.1951L82.7111 23.0063L89.8047 35.0654L87.5575 34.6158C87.2047 34.5463 86.8463 34.7206 86.6847 35.0422L85.7736 36.8638L80.9047 27.8205L79.4951 28.579L85.0951 38.9789C85.2351 39.2389 85.5063 39.3998 85.7999 39.3998C85.8039 39.3998 85.8079 39.3998 85.8135 39.4005C86.1119 39.3958 86.3831 39.2253 86.5167 38.9581L87.8431 36.3045L91.2439 36.9845C91.5518 37.0469 91.8695 36.9213 92.0527 36.6637C92.2359 36.4071 92.2504 36.0671 92.0912 35.7951Z" fill="#4F4F4F"/>
<path d="M80.3303 11.2104C79.0263 10.9944 78.0055 9.97278 77.7887 8.66881C77.7247 8.28322 77.3912 8 76.9999 8C76.6087 8 76.2752 8.28322 76.2111 8.66956C75.9943 9.97353 74.9735 10.9951 73.6696 11.2111C73.2831 11.2743 73 11.608 73 11.9999C73 12.3919 73.2832 12.7256 73.6696 12.7895C74.9735 13.0055 75.9944 14.0271 76.2111 15.3311C76.2752 15.7167 76.6087 15.9999 76.9999 15.9999C77.3912 15.9999 77.7247 15.7167 77.7887 15.3303C78.0056 14.0263 79.0263 13.0048 80.3303 12.7888C80.7167 12.7256 80.9999 12.3912 80.9999 11.9999C80.9999 11.6087 80.7175 11.2752 80.3303 11.2104ZM76.9999 13.1392C76.6888 12.6968 76.3032 12.3112 75.8599 12C76.3031 11.6889 76.6895 11.3032 76.9999 10.8609C77.3112 11.3033 77.6968 11.6889 78.1399 12C77.6968 12.312 77.3112 12.6968 76.9999 13.1392Z" fill="#4F4F4F"/>
<path d="M69.3303 3.21037C68.0263 2.99437 67.0055 1.97278 66.7887 0.668813C66.7247 0.283219 66.3912 0 65.9999 0C65.6087 0 65.2752 0.283219 65.2111 0.669563C64.9943 1.97353 63.9735 2.99512 62.6696 3.21112C62.2831 3.27431 62 3.60797 62 3.99994C62 4.39191 62.2832 4.72556 62.6696 4.7895C63.9735 5.0055 64.9944 6.02709 65.2111 7.33106C65.2752 7.71666 65.6087 7.99988 65.9999 7.99988C66.3912 7.99988 66.7247 7.71666 66.7887 7.33031C67.0056 6.02634 68.0263 5.00475 69.3303 4.78875C69.7167 4.72556 69.9999 4.39116 69.9999 3.99994C69.9999 3.60872 69.7175 3.27516 69.3303 3.21037ZM65.9999 5.13919C65.6888 4.69678 65.3032 4.31119 64.8599 4.00003C65.3031 3.68887 65.6895 3.30319 65.9999 2.86088C66.3112 3.30328 66.6968 3.68887 67.1399 4.00003C66.6968 4.31203 66.3112 4.69678 65.9999 5.13919Z" fill="#4F4F4F"/>
</svg>
