<svg width="49" height="49" viewBox="0 0 49 49" fill="none" xmlns="http://www.w3.org/2000/svg">
<path d="M47.2266 0H1.22656C0.961346 0 0.706992 0.105357 0.519456 0.292893C0.331919 0.48043 0.226563 0.734784 0.226562 1L0.226563 37C0.226563 37.2652 0.331919 37.5196 0.519456 37.7071C0.706992 37.8946 0.961346 38 1.22656 38H28.2266V47C28.2263 47.1902 28.2802 47.3765 28.382 47.5371C28.4839 47.6977 28.6294 47.826 28.8016 47.9068C28.9737 47.9876 29.1653 48.0177 29.354 47.9935C29.5426 47.9692 29.7204 47.8917 29.8666 47.77L35.2266 43.3L40.5866 47.77C40.7665 47.9191 40.9929 48.0005 41.2266 48C41.3714 48.0008 41.5147 47.9701 41.6466 47.91C41.8201 47.8297 41.967 47.7012 42.0698 47.54C42.1726 47.3787 42.227 47.1913 42.2266 47V38H47.2266C47.4918 38 47.7461 37.8946 47.9337 37.7071C48.1212 37.5196 48.2266 37.2652 48.2266 37V1C48.2266 0.734784 48.1212 0.48043 47.9337 0.292893C47.7461 0.105357 47.4918 0 47.2266 0V0ZM40.2266 20.35C38.7071 19.4727 36.9836 19.0107 35.2291 19.0103C33.4746 19.0098 31.7509 19.471 30.231 20.3474C28.7111 21.2239 27.4486 22.4848 26.5702 24.0036C25.6917 25.5224 25.2284 27.2455 25.2266 29C25.2266 29.34 25.2266 29.67 25.2766 30H8.22656V8H40.2266V20.35ZM27.2266 29C27.2266 27.4177 27.6958 25.871 28.5748 24.5554C29.4539 23.2398 30.7033 22.2145 32.1651 21.609C33.6269 21.0035 35.2354 20.845 36.7873 21.1537C38.3391 21.4624 39.7646 22.2243 40.8834 23.3431C42.0022 24.462 42.7642 25.8874 43.0728 27.4393C43.3815 28.9911 43.2231 30.5997 42.6176 32.0615C42.0121 33.5233 40.9867 34.7727 39.6711 35.6518C38.3555 36.5308 36.8088 37 35.2266 37C33.1048 37 31.07 36.1571 29.5697 34.6569C28.0694 33.1566 27.2266 31.1217 27.2266 29ZM35.8666 41.23C35.6869 41.0803 35.4604 40.9984 35.2266 40.9984C34.9927 40.9984 34.7663 41.0803 34.5866 41.23L30.2266 44.87V37.65C31.7444 38.5346 33.4698 39.0007 35.2266 39.0007C36.9834 39.0007 38.7087 38.5346 40.2266 37.65V44.87L35.8666 41.23ZM46.2266 36H42.3566C44.2111 34.108 45.239 31.5573 45.2146 28.9081C45.1902 26.2589 44.1156 23.7276 42.2266 21.87V7C42.2266 6.73478 42.1212 6.48043 41.9337 6.29289C41.7461 6.10536 41.4918 6 41.2266 6H7.22656C6.96135 6 6.70699 6.10536 6.51946 6.29289C6.33192 6.48043 6.22656 6.73478 6.22656 7V31C6.22656 31.2652 6.33192 31.5196 6.51946 31.7071C6.70699 31.8946 6.96135 32 7.22656 32H25.6866C26.1629 33.5049 26.9888 34.8756 28.0966 36H2.22656V2H46.2266V36ZM11.2266 13C11.2266 12.7348 11.3319 12.4804 11.5195 12.2929C11.707 12.1054 11.9613 12 12.2266 12H24.2266C24.4918 12 24.7461 12.1054 24.9337 12.2929C25.1212 12.4804 25.2266 12.7348 25.2266 13C25.2266 13.2652 25.1212 13.5196 24.9337 13.7071C24.7461 13.8946 24.4918 14 24.2266 14H12.2266C11.9613 14 11.707 13.8946 11.5195 13.7071C11.3319 13.5196 11.2266 13.2652 11.2266 13ZM11.2266 19C11.2266 18.7348 11.3319 18.4804 11.5195 18.2929C11.707 18.1054 11.9613 18 12.2266 18H21.2266C21.4918 18 21.7461 18.1054 21.9337 18.2929C22.1212 18.4804 22.2266 18.7348 22.2266 19C22.2266 19.2652 22.1212 19.5196 21.9337 19.7071C21.7461 19.8946 21.4918 20 21.2266 20H12.2266C11.9613 20 11.707 19.8946 11.5195 19.7071C11.3319 19.5196 11.2266 19.2652 11.2266 19Z" fill="#FF0001"/>
<path d="M39.7766 27.0851L37.586 26.647C37.3669 26.574 37.2209 26.5009 37.0748 26.2819L36.0525 24.3834C35.7605 23.8722 35.0303 23.8722 34.7382 24.3834L33.6429 26.2819C33.5699 26.5009 33.3508 26.574 33.1317 26.647L30.9411 27.0851C30.357 27.2311 30.1379 27.8883 30.576 28.3264L32.0364 29.9329C32.1825 30.0789 32.2555 30.298 32.2555 30.5171L31.9634 32.7077C31.8904 33.2918 32.4746 33.73 32.9857 33.4379L34.9572 32.4886C35.1763 32.4156 35.3954 32.4156 35.6144 32.4886L37.586 33.4379C38.0971 33.6569 38.6813 33.2188 38.6083 32.7077L38.3162 30.5171C38.3162 30.298 38.3892 30.0789 38.5352 29.9329L39.9956 28.3264C40.5798 27.8883 40.3607 27.2311 39.7766 27.0851Z" fill="#FF0001"/>
</svg>
