<svg width="48" height="48" viewBox="0 0 48 48" fill="none" xmlns="http://www.w3.org/2000/svg">
<g clip-path="url(#clip0)">
<path d="M32 26.3999C29.3527 26.3999 27.2 28.5527 27.2 31.1999C27.2 33.8471 29.3527 35.9999 32 35.9999C34.6472 35.9999 36.7999 33.8471 36.7999 31.1999C36.7999 28.5527 34.6472 26.3999 32 26.3999ZM32 34.3999C30.2351 34.3999 28.8 32.9647 28.8 31.1999C28.8 29.4351 30.2352 27.9999 32 27.9999C33.7648 27.9999 35.1999 29.4352 35.1999 31.1999C35.2 32.9647 33.7648 34.3999 32 34.3999Z" fill="#4F4F4F"/>
<path d="M33.6 34.3999V37.7055L32.4433 36.9343C32.1745 36.7543 31.8249 36.7543 31.556 36.9343L30.4 37.7055V34.3999H28.8V39.1999C28.8 39.4951 28.9624 39.7663 29.2232 39.9055C29.4825 40.0447 29.7992 40.0287 30.044 39.8654L32 38.5615L33.956 39.8654C34.0896 39.9542 34.2449 39.9999 34.4 39.9999C34.5296 39.9999 34.6592 39.9687 34.7776 39.9055C35.0376 39.7662 35.2001 39.495 35.2001 39.1999V34.3999H33.6Z" fill="#4F4F4F"/>
<path d="M28.8001 8H18.4001V9.60003H28.8001V8Z" fill="#4F4F4F"/>
<path d="M36.8 12.7998H11.2V14.3998H36.8V12.7998Z" fill="#4F4F4F"/>
<path d="M28.7999 17.6001H11.2V19.2001H28.7999V17.6001Z" fill="#4F4F4F"/>
<path d="M36.8 17.6001H32V19.2001H36.8V17.6001Z" fill="#4F4F4F"/>
<path d="M36.8 22.3999H11.2V23.9999H36.8V22.3999Z" fill="#4F4F4F"/>
<path d="M20.8 27.2002H11.2V28.8002H20.8V27.2002Z" fill="#4F4F4F"/>
<path d="M15.2 31.2002H11.2V32.8002H15.2V31.2002Z" fill="#4F4F4F"/>
<path d="M20.8001 31.2002H18.4001V32.8002H20.8001V31.2002Z" fill="#4F4F4F"/>
<path d="M44 0C41.7945 0 40 1.79437 40 4.00003V5.60006C40 6.04163 40.3576 6.40003 40.8 6.40003H47.2C47.6424 6.40003 48 6.04163 48 5.60006V4.00003C48.0001 1.79437 46.2057 0 44 0ZM46.4 4.8H41.6V4.00003C41.6 2.67684 42.6768 1.60003 44 1.60003C45.3232 1.60003 46.4 2.67684 46.4 4.00003V4.8Z" fill="#4F4F4F"/>
<path d="M44.0001 0H10.4001C8.19452 0 6.40015 1.79437 6.40015 4.00003V42.4H8.00018V4.00003C8.00018 2.67684 9.07699 1.60003 10.4002 1.60003H40.8018C40.2986 2.26884 40.0002 3.10003 40.0002 4.00003V44.0001C40.0002 45.3232 38.9234 46.4001 37.6002 46.4001H7.20012V48H37.6001C39.8057 48 41.6002 46.2056 41.6002 44V4.00003C41.6002 2.67684 42.677 1.60003 44.0002 1.60003C44.4426 1.60003 44.8001 1.24163 44.8001 0.800063C44.8001 0.3585 44.4425 0 44.0001 0Z" fill="#4F4F4F"/>
<path d="M37.6 46.4001C36.2768 46.4001 35.2 45.3233 35.2 44.0001V42.4001C35.2 41.9577 34.8425 41.6001 34.4001 41.6001H0.799969C0.358406 41.6001 0 41.9577 0 42.4001V44.0001C0 46.2058 1.79437 48.0001 4.00003 48.0001H37.6C38.0424 48.0001 38.4 47.6426 38.4 47.2002C38.4 46.7578 38.0424 46.4001 37.6 46.4001ZM4.00003 46.4001C2.67684 46.4001 1.60003 45.3233 1.60003 44.0001V43.2001H33.6V44.0001C33.6 44.9001 33.8984 45.7313 34.4016 46.4001H4.00003Z" fill="#4F4F4F"/>
</g>
<defs>
<clipPath id="clip0">
<rect width="48" height="48" fill="white"/>
</clipPath>
</defs>
</svg>
