<svg width="22" height="22" viewBox="0 0 22 22" fill="none" xmlns="http://www.w3.org/2000/svg">
<g clip-path="url(#clip0)">
<path d="M11 1.98253C13.9389 1.98253 14.2839 1.99563 15.4454 2.04803C16.5197 2.09607 17.1004 2.27511 17.4891 2.42795C18.0044 2.62882 18.3712 2.86463 18.7555 3.24891C19.1397 3.63319 19.3799 4 19.5764 4.51528C19.7249 4.90393 19.9083 5.48472 19.9563 6.55895C20.0087 7.72052 20.0218 8.0655 20.0218 11.0044C20.0218 13.9432 20.0087 14.2882 19.9563 15.4498C19.9083 16.524 19.7293 17.1048 19.5764 17.4935C19.3756 18.0087 19.1397 18.3755 18.7555 18.7598C18.3712 19.1441 18.0044 19.3843 17.4891 19.5808C17.1004 19.7293 16.5197 19.9127 15.4454 19.9607C14.2839 20.0131 13.9389 20.0262 11 20.0262C8.06114 20.0262 7.71616 20.0131 6.55459 19.9607C5.48035 19.9127 4.89957 19.7336 4.51092 19.5808C3.99564 19.3799 3.62882 19.1441 3.24454 18.7598C2.86026 18.3755 2.62009 18.0087 2.42358 17.4935C2.27511 17.1048 2.0917 16.524 2.04367 15.4498C1.99127 14.2882 1.97817 13.9432 1.97817 11.0044C1.97817 8.0655 1.99127 7.72052 2.04367 6.55895C2.0917 5.48472 2.27074 4.90393 2.42358 4.51528C2.62446 4 2.86026 3.63319 3.24454 3.24891C3.62882 2.86463 3.99564 2.62445 4.51092 2.42795C4.89957 2.27948 5.48035 2.09607 6.55459 2.04803C7.71616 1.99127 8.06551 1.98253 11 1.98253ZM11 0C8.0131 0 7.63756 0.0131004 6.46289 0.0655022C5.29258 0.117904 4.49345 0.305677 3.79476 0.576419C3.06987 0.855895 2.45852 1.23581 1.84716 1.84716C1.23581 2.45852 0.860262 3.07424 0.576419 3.79476C0.305677 4.49345 0.117904 5.29258 0.0655022 6.46725C0.0131004 7.63755 0 8.0131 0 11C0 13.9869 0.0131004 14.3624 0.0655022 15.5371C0.117904 16.7074 0.305677 17.5065 0.576419 18.2096C0.855896 18.9345 1.23581 19.5459 1.84716 20.1572C2.45852 20.7686 3.07424 21.1441 3.79476 21.4279C4.49345 21.6987 5.29258 21.8865 6.46725 21.9389C7.64193 21.9913 8.0131 22.0044 11.0044 22.0044C13.9956 22.0044 14.3668 21.9913 15.5415 21.9389C16.7118 21.8865 17.5109 21.6987 18.214 21.4279C18.9389 21.1485 19.5502 20.7686 20.1616 20.1572C20.7729 19.5459 21.1485 18.9301 21.4323 18.2096C21.7031 17.5109 21.8908 16.7118 21.9432 15.5371C21.9956 14.3624 22.0087 13.9913 22.0087 11C22.0087 8.00873 21.9956 7.63755 21.9432 6.46288C21.8908 5.29258 21.7031 4.49345 21.4323 3.79039C21.1528 3.0655 20.7729 2.45415 20.1616 1.84279C19.5502 1.23144 18.9345 0.855895 18.214 0.572052C17.5153 0.30131 16.7162 0.113537 15.5415 0.0611354C14.3625 0.0131004 13.9869 0 11 0Z" fill="white"/>
<path d="M11.0022 5.35376C7.88431 5.35376 5.35156 7.88214 5.35156 11.0044C5.35156 14.1267 7.87995 16.6551 11.0022 16.6551C14.1245 16.6551 16.6529 14.1267 16.6529 11.0044C16.6529 7.88214 14.1245 5.35376 11.0022 5.35376ZM11.0022 14.6682C8.97602 14.6682 7.3341 13.0262 7.3341 11C7.3341 8.97385 8.97602 7.33193 11.0022 7.33193C13.0284 7.33193 14.6703 8.97385 14.6703 11C14.6703 13.0262 13.0284 14.6682 11.0022 14.6682Z" fill="white"/>
<path d="M16.874 6.44542C17.6023 6.44542 18.1927 5.85498 18.1927 5.12664C18.1927 4.3983 17.6023 3.80786 16.874 3.80786C16.1456 3.80786 15.5552 4.3983 15.5552 5.12664C15.5552 5.85498 16.1456 6.44542 16.874 6.44542Z" fill="white"/>
</g>
<defs>
<clipPath id="clip0">
<rect width="22" height="22" fill="white"/>
</clipPath>
</defs>
</svg>
