<svg width="24" height="25" viewBox="0 0 24 25" fill="none" xmlns="http://www.w3.org/2000/svg">
<path d="M17 2.41113H7C4.23858 2.41113 2 4.64971 2 7.41113V17.4111C2 20.1726 4.23858 22.4111 7 22.4111H17C19.7614 22.4111 22 20.1726 22 17.4111V7.41113C22 4.64971 19.7614 2.41113 17 2.41113Z" stroke="#A9A9A9" stroke-width="2" stroke-linecap="round" stroke-linejoin="round"/>
<path d="M16 11.7814C16.1234 12.6137 15.9812 13.4637 15.5937 14.2104C15.2062 14.9572 14.5931 15.5628 13.8416 15.9411C13.0901 16.3194 12.2384 16.451 11.4077 16.3174C10.5771 16.1837 9.80971 15.7915 9.21479 15.1966C8.61987 14.6017 8.22768 13.8343 8.09402 13.0036C7.96035 12.173 8.09202 11.3213 8.47028 10.5698C8.84854 9.81829 9.45414 9.20518 10.2009 8.81768C10.9477 8.43018 11.7977 8.28802 12.63 8.41143C13.4789 8.53732 14.2648 8.9329 14.8716 9.53974C15.4785 10.1466 15.8741 10.9325 16 11.7814Z" stroke="#A9A9A9" stroke-width="2" stroke-linecap="round" stroke-linejoin="round"/>
<path d="M17.5 6.91113H17.51" stroke="#A9A9A9" stroke-width="2" stroke-linecap="round" stroke-linejoin="round"/>
</svg>
