<svg width="16" height="17" viewBox="0 0 16 17" fill="none" xmlns="http://www.w3.org/2000/svg">
<path d="M11 6.76664L5 3.30664" stroke="#52B467" stroke-linecap="round" stroke-linejoin="round"/>
<path d="M14 11.166V5.83262C13.9998 5.5988 13.938 5.36916 13.821 5.16673C13.704 4.96429 13.5358 4.79619 13.3333 4.67928L8.66667 2.01262C8.46397 1.89559 8.23405 1.83398 8 1.83398C7.76595 1.83398 7.53603 1.89559 7.33333 2.01262L2.66667 4.67928C2.46418 4.79619 2.29599 4.96429 2.17897 5.16673C2.06196 5.36916 2.00024 5.5988 2 5.83262V11.166C2.00024 11.3998 2.06196 11.6294 2.17897 11.8318C2.29599 12.0343 2.46418 12.2024 2.66667 12.3193L7.33333 14.9859C7.53603 15.103 7.76595 15.1646 8 15.1646C8.23405 15.1646 8.46397 15.103 8.66667 14.9859L13.3333 12.3193C13.5358 12.2024 13.704 12.0343 13.821 11.8318C13.938 11.6294 13.9998 11.3998 14 11.166Z" stroke="#52B467" stroke-linecap="round" stroke-linejoin="round"/>
<path d="M2.18262 5.14062L8.00262 8.50729L13.8226 5.14062" stroke="#52B467" stroke-linecap="round" stroke-linejoin="round"/>
<path d="M8 15.22V8.5" stroke="#52B467" stroke-linecap="round" stroke-linejoin="round"/>
</svg>
