<svg width="148" height="119" viewBox="0 0 148 119" fill="none" xmlns="http://www.w3.org/2000/svg">
<g clip-path="url(#clip0)">
<ellipse opacity="0.02" cx="115" cy="86.05" rx="115" ry="115.95" fill="#FFCA41"/>
<path opacity="0.05" d="M205.189 86.0502C205.189 136.386 164.809 177.19 115 177.19C65.191 177.19 24.8109 136.386 24.8109 86.0502C24.8109 35.7142 65.191 -5.08945 115 -5.08945C164.809 -5.08945 205.189 35.7142 205.189 86.0502Z" fill="#FFCA41" stroke="white" stroke-width="0.2"/>
<circle cx="115.062" cy="85.7849" r="69.22" fill="#FFCA41" fill-opacity="0.1" stroke="white" stroke-width="0.2"/>
<circle cx="115.06" cy="85.7847" r="46.6304" fill="#FFCA41" fill-opacity="0.2"/>
<path d="M110.417 94.0827H107.667C107.181 94.0827 106.714 93.8807 106.37 93.5213C106.027 93.1619 105.833 92.6743 105.833 92.166V85.4577C105.833 84.9494 106.027 84.4618 106.37 84.1024C106.714 83.743 107.181 83.541 107.667 83.541H110.417M116.833 81.6243V77.791C116.833 77.0285 116.544 76.2973 116.028 75.7581C115.512 75.2189 114.813 74.916 114.083 74.916L110.417 83.541V94.0827H120.757C121.199 94.0879 121.628 93.9259 121.965 93.6265C122.302 93.3271 122.524 92.9106 122.59 92.4535L123.855 83.8285C123.895 83.5538 123.877 83.2733 123.803 83.0065C123.729 82.7397 123.6 82.4929 123.426 82.2832C123.252 82.0736 123.036 81.906 122.793 81.7923C122.551 81.6785 122.288 81.6212 122.022 81.6243H116.833Z" stroke="#FFCA41" stroke-linecap="round" stroke-linejoin="round"/>
<path d="M114 57.666V68.9993" stroke="#FFCA41" stroke-linecap="round" stroke-linejoin="round"/>
<path d="M114 103V114.333" stroke="#FFCA41" stroke-linecap="round" stroke-linejoin="round"/>
<path d="M94 66L100 72" stroke="#FFCA41" stroke-linecap="round" stroke-linejoin="round"/>
<path d="M128 100L134 106" stroke="#FFCA41" stroke-linecap="round" stroke-linejoin="round"/>
<path d="M85.6665 86H96.9998" stroke="#FFCA41" stroke-linecap="round" stroke-linejoin="round"/>
<path d="M131 86H142.333" stroke="#FFCA41" stroke-linecap="round" stroke-linejoin="round"/>
<path d="M94 106L100 100" stroke="#FFCA41" stroke-linecap="round" stroke-linejoin="round"/>
<path d="M128 72L134 66" stroke="#FFCA41" stroke-linecap="round" stroke-linejoin="round"/>
</g>
<defs>
<clipPath id="clip0">
<path d="M0 0H148V116C148 117.657 146.657 119 145 119H0V0Z" fill="white"/>
</clipPath>
</defs>
</svg>
