<svg width="273" height="144" viewBox="0 0 273 144" fill="none" xmlns="http://www.w3.org/2000/svg">
<ellipse opacity="0.02" cx="173" cy="72" rx="173" ry="174" fill="white"/>
<path opacity="0.05" d="M322.9 72.5C322.9 156.117 255.787 223.9 173 223.9C90.2135 223.9 23.1 156.117 23.1 72.5C23.1 -11.1169 90.2135 -78.9 173 -78.9C255.787 -78.9 322.9 -11.1169 322.9 72.5Z" fill="#FAFAFA" stroke="#8BA285" stroke-width="0.2"/>
<path d="M288.9 72.5C288.9 136.233 237.01 187.9 173 187.9C108.99 187.9 57.1 136.233 57.1 72.5C57.1 8.76675 108.99 -42.9 173 -42.9C237.01 -42.9 288.9 8.76675 288.9 72.5Z" fill="white" fill-opacity="0.1" stroke="#8BA285" stroke-width="0.2"/>
<ellipse cx="173" cy="72.5" rx="78" ry="78.5" fill="#F8F8F8" fill-opacity="0.2"/>
<path d="M173.5 17.0834V39.25" stroke="white" stroke-linecap="round" stroke-linejoin="round"/>
<path d="M173.5 105.75V127.917" stroke="white" stroke-linecap="round" stroke-linejoin="round"/>
<path d="M212.618 33.3823L200.882 45.1176" stroke="white" stroke-linecap="round" stroke-linejoin="round"/>
<path d="M146.118 99.8823L134.382 111.618" stroke="white" stroke-linecap="round" stroke-linejoin="round"/>
<path d="M228.917 72.5H206.75" stroke="white" stroke-linecap="round" stroke-linejoin="round"/>
<path d="M140.25 72.5H118.083" stroke="white" stroke-linecap="round" stroke-linejoin="round"/>
<path d="M212.618 111.618L200.882 99.8823" stroke="white" stroke-linecap="round" stroke-linejoin="round"/>
<path d="M146.118 45.1176L134.382 33.3823" stroke="white" stroke-linecap="round" stroke-linejoin="round"/>
<path d="M159.177 52H187.789C189.494 52 190.882 53.3876 190.882 55.0931V60.3428C190.904 60.4149 190.916 60.4912 190.916 60.5705C190.916 60.6497 190.904 60.7261 190.882 60.7981V88.1166C190.904 88.1886 190.916 88.265 190.916 88.3443C190.916 88.4235 190.904 88.4999 190.882 88.5719V92.2267C190.882 92.6538 190.536 93 190.109 93H156.857C156.43 93 156.084 92.6538 156.084 92.2267V55.0931C156.084 53.3876 157.472 52 159.177 52ZM189.335 91.4534V89.1175H163.062C162.635 89.1175 162.288 88.7713 162.288 88.3443C162.288 87.9172 162.635 87.571 163.062 87.571H189.335V61.3438H163.062C162.635 61.3438 162.288 60.9975 162.288 60.5705C162.288 60.1434 162.635 59.7972 163.062 59.7972H189.335V55.0931C189.335 54.2404 188.641 53.5466 187.789 53.5466H159.177C158.324 53.5466 157.631 54.2404 157.631 55.0931V59.7972H159.961C160.388 59.7972 160.734 60.1434 160.734 60.5705C160.734 60.9975 160.388 61.3438 159.961 61.3438H157.631V87.571H159.961C160.388 87.571 160.734 87.9172 160.734 88.3443C160.734 88.7713 160.388 89.1175 159.961 89.1175H157.631V91.4534H189.335Z" fill="white"/>
<path d="M176.997 55.1011C177.845 55.1011 178.535 55.7913 178.535 56.6396C178.535 57.4879 177.845 58.1781 176.997 58.1781C176.148 58.1781 175.458 57.4879 175.458 56.6396C175.458 55.7913 176.148 55.1011 176.997 55.1011Z" fill="white"/>
<path d="M170.053 55.1011C170.901 55.1011 171.591 55.7913 171.591 56.6396C171.591 57.4879 170.901 58.1781 170.053 58.1781C169.204 58.1781 168.514 57.4879 168.514 56.6396C168.514 55.7913 169.204 55.1011 170.053 55.1011Z" fill="white"/>
<path d="M161.523 56.6396C161.523 55.7913 162.214 55.1011 163.062 55.1011C163.91 55.1011 164.6 55.7913 164.6 56.6396C164.6 57.4879 163.91 58.1781 163.062 58.1781C162.214 58.1781 161.523 57.4879 161.523 56.6396Z" fill="white"/>
<path d="M183.93 55.1011C184.779 55.1011 185.469 55.7913 185.469 56.6396C185.469 57.4879 184.778 58.1781 183.93 58.1781C183.082 58.1781 182.392 57.4879 182.392 56.6396C182.392 55.7913 183.082 55.1011 183.93 55.1011Z" fill="white"/>
<path d="M163.519 67.4978H183.93C184.357 67.4978 184.704 67.844 184.704 68.2711V83.7045C184.704 84.1316 184.357 84.4778 183.93 84.4778H163.519C163.092 84.4778 162.746 84.1316 162.746 83.7045V68.2711C162.746 67.844 163.092 67.4978 163.519 67.4978ZM183.157 69.0444H180.176L176.731 72.4895C176.58 72.6405 176.382 72.716 176.184 72.716C175.986 72.716 175.788 72.6405 175.637 72.4895C175.335 72.1876 175.335 71.698 175.637 71.3959L177.988 69.0445H164.292V82.7407L172.544 74.489C172.846 74.1872 173.335 74.1872 173.637 74.489C173.939 74.7911 173.939 75.2806 173.637 75.5827L166.289 82.9313H183.157V69.0444Z" fill="white"/>
<path d="M163.036 63.5991H183.947C185.226 63.5991 186.266 64.6399 186.266 65.919C186.266 66.346 185.92 66.6922 185.493 66.6922C185.066 66.6922 184.72 66.346 184.72 65.919C184.72 65.4926 184.373 65.1457 183.947 65.1457H163.036C162.609 65.1457 162.262 65.4926 162.262 65.919C162.262 66.346 161.916 66.6922 161.489 66.6922C161.062 66.6922 160.716 66.346 160.716 65.919C160.716 64.6399 161.757 63.5991 163.036 63.5991Z" fill="white"/>
</svg>
