<svg width="68" height="16" viewBox="0 0 68 16" fill="none" xmlns="http://www.w3.org/2000/svg">
<rect width="68" height="16" rx="2" fill="#52B467"/>
<path d="M14.25 6.7L9.75 4.105" stroke="white" stroke-linecap="round" stroke-linejoin="round"/>
<path d="M16.5 10V6C16.4998 5.82464 16.4535 5.65241 16.3658 5.50058C16.278 5.34876 16.1519 5.22268 16 5.135L12.5 3.135C12.348 3.04723 12.1755 3.00103 12 3.00103C11.8245 3.00103 11.652 3.04723 11.5 3.135L8 5.135C7.84813 5.22268 7.72199 5.34876 7.63423 5.50058C7.54647 5.65241 7.50018 5.82464 7.5 6V10C7.50018 10.1754 7.54647 10.3476 7.63423 10.4994C7.72199 10.6512 7.84813 10.7773 8 10.865L11.5 12.865C11.652 12.9528 11.8245 12.999 12 12.999C12.1755 12.999 12.348 12.9528 12.5 12.865L16 10.865C16.1519 10.7773 16.278 10.6512 16.3658 10.4994C16.4535 10.3476 16.4998 10.1754 16.5 10Z" stroke="white" stroke-linecap="round" stroke-linejoin="round"/>
<path d="M7.63672 5.48L12.0017 8.005L16.3667 5.48" stroke="white" stroke-linecap="round" stroke-linejoin="round"/>
<path d="M12 13.04V8" stroke="white" stroke-linecap="round" stroke-linejoin="round"/>
<path d="M27.4766 11H26.3047V8.5625H24.0195V11H22.8477V5.3125H24.0195V7.61719H26.3047V5.3125H27.4766V11ZM33.1758 8.28516C33.1758 8.84505 33.0768 9.33594 32.8789 9.75781C32.681 10.1797 32.3971 10.5052 32.0273 10.7344C31.6602 10.9635 31.2383 11.0781 30.7617 11.0781C30.2904 11.0781 29.8698 10.9648 29.5 10.7383C29.1302 10.5117 28.8438 10.1888 28.6406 9.76953C28.4375 9.34766 28.3346 8.86328 28.332 8.31641V8.03516C28.332 7.47526 28.4323 6.98307 28.6328 6.55859C28.8359 6.13151 29.1211 5.80469 29.4883 5.57812C29.8581 5.34896 30.2799 5.23438 30.7539 5.23438C31.2279 5.23438 31.6484 5.34896 32.0156 5.57812C32.3854 5.80469 32.6706 6.13151 32.8711 6.55859C33.0742 6.98307 33.1758 7.47396 33.1758 8.03125V8.28516ZM31.9883 8.02734C31.9883 7.43099 31.8815 6.97786 31.668 6.66797C31.4544 6.35807 31.1497 6.20312 30.7539 6.20312C30.3607 6.20312 30.0573 6.35677 29.8438 6.66406C29.6302 6.96875 29.5221 7.41667 29.5195 8.00781V8.28516C29.5195 8.86589 29.6263 9.31641 29.8398 9.63672C30.0534 9.95703 30.3607 10.1172 30.7617 10.1172C31.1549 10.1172 31.457 9.96354 31.668 9.65625C31.8789 9.34635 31.9857 8.89583 31.9883 8.30469V8.02734ZM34.0273 11V5.3125H36.0195C36.7096 5.3125 37.2331 5.44531 37.5898 5.71094C37.9466 5.97396 38.125 6.36068 38.125 6.87109C38.125 7.14974 38.0534 7.39583 37.9102 7.60938C37.7669 7.82031 37.5677 7.97526 37.3125 8.07422C37.6042 8.14714 37.8333 8.29427 38 8.51562C38.1693 8.73698 38.2539 9.00781 38.2539 9.32812C38.2539 9.875 38.0794 10.2891 37.7305 10.5703C37.3815 10.8516 36.8841 10.9948 36.2383 11H34.0273ZM35.1992 8.52344V10.0586H36.2031C36.4792 10.0586 36.694 9.99349 36.8477 9.86328C37.0039 9.73047 37.082 9.54818 37.082 9.31641C37.082 8.79557 36.8125 8.53125 36.2734 8.52344H35.1992ZM35.1992 7.69531H36.0664C36.6576 7.6849 36.9531 7.44922 36.9531 6.98828C36.9531 6.73047 36.8776 6.54557 36.7266 6.43359C36.5781 6.31901 36.3424 6.26172 36.0195 6.26172H35.1992V7.69531ZM42.5469 5.3125H43.7227V11H42.5469V7.22266L40.2695 11H39.0977V5.3125H40.2695V9.09766L42.5469 5.3125ZM49.3672 11H48.1953V8.5625H45.9102V11H44.7383V5.3125H45.9102V7.61719H48.1953V5.3125H49.3672V11ZM52.25 8.67578H51.5742V11H50.4023V5.3125H51.5742V7.58984H52.1094L53.5 5.3125H54.9297L53.1758 8.00391L55.1133 11H53.7148L52.25 8.67578ZM58.9766 5.3125H60.1523V11H58.9766V7.22266L56.6992 11H55.5273V5.3125H56.6992V9.09766L58.9766 5.3125Z" fill="white"/>
</svg>
