<svg width="68" height="16" viewBox="0 0 68 16" fill="none" xmlns="http://www.w3.org/2000/svg">
<rect width="68" height="16" rx="2" fill="#F2994A"/>
<path d="M30.0469 9.10547C30.0026 9.71745 29.776 10.1992 29.3672 10.5508C28.9609 10.9023 28.4245 11.0781 27.7578 11.0781C27.0286 11.0781 26.4544 10.8333 26.0352 10.3438C25.6185 9.85156 25.4102 9.17708 25.4102 8.32031V7.97266C25.4102 7.42578 25.5065 6.94401 25.6992 6.52734C25.8919 6.11068 26.1667 5.79167 26.5234 5.57031C26.8828 5.34635 27.2995 5.23438 27.7734 5.23438C28.4297 5.23438 28.9583 5.41016 29.3594 5.76172C29.7604 6.11328 29.9922 6.60677 30.0547 7.24219H28.8828C28.8542 6.875 28.7513 6.60938 28.5742 6.44531C28.3997 6.27865 28.1328 6.19531 27.7734 6.19531C27.3828 6.19531 27.0898 6.33594 26.8945 6.61719C26.7018 6.89583 26.6029 7.32943 26.5977 7.91797V8.34766C26.5977 8.96224 26.6901 9.41146 26.875 9.69531C27.0625 9.97917 27.3568 10.1211 27.7578 10.1211C28.1198 10.1211 28.3893 10.0391 28.5664 9.875C28.7461 9.70833 28.849 9.45182 28.875 9.10547H30.0469ZM32.6719 8.67578H31.9961V11H30.8242V5.3125H31.9961V7.58984H32.5312L33.9219 5.3125H35.3516L33.5977 8.00391L35.5352 11H34.1367L32.6719 8.67578ZM39.3984 5.3125H40.5742V11H39.3984V7.22266L37.1211 11H35.9492V5.3125H37.1211V9.09766L39.3984 5.3125ZM46.9492 12.3984H45.8672V11H42.4375V12.3945H41.3281L41.2656 10.0586H41.6953C41.9271 9.86589 42.1055 9.58333 42.2305 9.21094C42.3581 8.83594 42.444 8.3724 42.4883 7.82031L42.6523 5.3125H46.3789V10.0586H47.043L46.9492 12.3984ZM43.0391 10.0586H45.207V6.26172H43.7656L43.668 7.75781C43.5898 8.76042 43.3802 9.52734 43.0391 10.0586ZM49.5156 8.67578H48.8398V11H47.668V5.3125H48.8398V7.58984H49.375L50.7656 5.3125H52.1953L50.4414 8.00391L52.3789 11H50.9805L49.5156 8.67578ZM56.2422 5.3125H57.418V11H56.2422V7.22266L53.9648 11H52.793V5.3125H53.9648V9.09766L56.2422 5.3125Z" fill="white"/>
<path d="M17.1328 4.5L10.1328 11.5" stroke="white" stroke-linecap="round" stroke-linejoin="round"/>
<path d="M10.8828 6.5C11.5732 6.5 12.1328 5.94036 12.1328 5.25C12.1328 4.55964 11.5732 4 10.8828 4C10.1925 4 9.63281 4.55964 9.63281 5.25C9.63281 5.94036 10.1925 6.5 10.8828 6.5Z" stroke="white" stroke-linecap="round" stroke-linejoin="round"/>
<path d="M16.3828 12C17.0732 12 17.6328 11.4404 17.6328 10.75C17.6328 10.0596 17.0732 9.5 16.3828 9.5C15.6925 9.5 15.1328 10.0596 15.1328 10.75C15.1328 11.4404 15.6925 12 16.3828 12Z" stroke="white" stroke-linecap="round" stroke-linejoin="round"/>
</svg>
