<svg width="18" height="18" viewBox="0 0 18 18" fill="none" xmlns="http://www.w3.org/2000/svg">
<path d="M16.7691 15.4605L13.0938 11.7852C13.9786 10.6072 14.4563 9.17331 14.4547 7.7C14.4547 3.93672 11.393 0.875 7.62969 0.875C3.86641 0.875 0.804688 3.93672 0.804688 7.7C0.804688 11.4633 3.86641 14.525 7.62969 14.525C9.103 14.5266 10.5369 14.0489 11.7148 13.1641L15.3902 16.8395C15.5763 17.0058 15.8189 17.0945 16.0684 17.0876C16.3178 17.0806 16.5551 16.9784 16.7316 16.8019C16.9081 16.6255 17.0103 16.3881 17.0172 16.1387C17.0242 15.8893 16.9355 15.6466 16.7691 15.4605ZM2.75469 7.7C2.75469 6.73582 3.0406 5.79328 3.57627 4.9916C4.11194 4.18991 4.87332 3.56506 5.76411 3.19609C6.6549 2.82711 7.6351 2.73057 8.58075 2.91867C9.52641 3.10677 10.3951 3.57107 11.0768 4.25285C11.7586 4.93464 12.2229 5.80328 12.411 6.74893C12.5991 7.69459 12.5026 8.67479 12.1336 9.56558C11.7646 10.4564 11.1398 11.2177 10.3381 11.7534C9.5364 12.2891 8.59387 12.575 7.62969 12.575C6.33723 12.5734 5.09816 12.0593 4.18425 11.1454C3.27035 10.2315 2.75624 8.99245 2.75469 7.7Z" fill="#4F4F4F"/>
</svg>
