<svg width="60" height="57" viewBox="0 0 60 57" fill="none" xmlns="http://www.w3.org/2000/svg">
<path d="M39.487 17.3219L49.2373 7.5716M54.8089 2L49.2373 7.5716L54.8089 2ZM28.0373 28.7715C29.4758 30.1908 30.6192 31.8806 31.4019 33.7436C32.1846 35.6066 32.591 37.606 32.5978 39.6268C32.6045 41.6475 32.2115 43.6496 31.4414 45.5178C30.6712 47.386 29.5391 49.0834 28.1102 50.5123C26.6813 51.9412 24.9839 53.0733 23.1157 53.8435C21.2475 54.6137 19.2454 55.0067 17.2246 54.9999C15.2039 54.9931 13.2045 54.5867 11.3415 53.804C9.47846 53.0214 7.78867 51.8779 6.3694 50.4395C3.57839 47.5497 2.03403 43.6794 2.06894 39.662C2.10385 35.6447 3.71524 31.8018 6.55604 28.961C9.39684 26.1202 13.2398 24.5088 17.2571 24.4739C21.2745 24.439 25.1448 25.9833 28.0346 28.7743L28.0373 28.7715ZM28.0373 28.7715L39.487 17.3219L28.0373 28.7715ZM39.487 17.3219L47.8444 25.6793L57.5947 15.929L49.2373 7.5716L39.487 17.3219Z" stroke="#EB5757" stroke-width="3" stroke-linecap="round" stroke-linejoin="round"/>
</svg>
