<svg width="58" height="58" viewBox="0 0 58 58" fill="none" xmlns="http://www.w3.org/2000/svg">
<path d="M35.6498 13.8499C35.1307 14.3795 34.8399 15.0916 34.8399 15.8332C34.8399 16.5749 35.1307 17.2869 35.6498 17.8166L40.1832 22.3499C40.7128 22.869 41.4249 23.1598 42.1665 23.1598C42.9081 23.1598 43.6202 22.869 44.1498 22.3499L54.8315 11.6682C56.2562 14.8166 56.6876 18.3244 56.0681 21.7241C55.4487 25.1239 53.8078 28.2541 51.3643 30.6977C48.9207 33.1412 45.7905 34.7821 42.3907 35.4015C38.991 36.021 35.4832 35.5896 32.3348 34.1649L12.7565 53.7432C11.6293 54.8704 10.1006 55.5036 8.5065 55.5036C6.91244 55.5036 5.38367 54.8704 4.2565 53.7432C3.12933 52.616 2.49609 51.0873 2.49609 49.4932C2.49609 47.8992 3.12933 46.3704 4.2565 45.2432L23.8348 25.6649C22.4101 22.5165 21.9788 19.0087 22.5982 15.609C23.2176 12.2092 24.8585 9.07899 27.302 6.63543C29.7456 4.19187 32.8758 2.55103 36.2756 1.93159C39.6753 1.31215 43.1831 1.74352 46.3315 3.16822L35.6782 13.8216L35.6498 13.8499Z" stroke="#EB5757" stroke-width="3" stroke-linecap="round" stroke-linejoin="round"/>
</svg>
