<svg width="52" height="57" viewBox="0 0 52 57" fill="none" xmlns="http://www.w3.org/2000/svg">
<path d="M49.5146 38.9504V17.8328C49.5136 16.907 49.2692 15.9977 48.8059 15.1961C48.3426 14.3946 47.6767 13.729 46.8749 13.2661L28.397 2.7073C27.5944 2.24394 26.684 2 25.7573 2C24.8306 2 23.9202 2.24394 23.1176 2.7073L4.6397 13.2661C3.83792 13.729 3.17197 14.3946 2.70866 15.1961C2.24534 15.9977 2.00095 16.907 2 17.8328V38.9504C2.00095 39.8762 2.24534 40.7855 2.70866 41.587C3.17197 42.3885 3.83792 43.0541 4.6397 43.5171L23.1176 54.0758C23.9202 54.5392 24.8306 54.7832 25.7573 54.7832C26.684 54.7832 27.5944 54.5392 28.397 54.0758L46.8749 43.5171C47.6767 43.0541 48.3426 42.3885 48.8059 41.587C49.2692 40.7855 49.5136 39.8762 49.5146 38.9504Z" stroke="#EB5757" stroke-width="3" stroke-linecap="round" stroke-linejoin="round"/>
<path d="M2.71094 15.0876L25.7555 28.4181L48.8001 15.0876" stroke="#EB5757" stroke-width="3" stroke-linecap="round" stroke-linejoin="round"/>
<path d="M25.7578 55V28.3918" stroke="#EB5757" stroke-width="3" stroke-linecap="round" stroke-linejoin="round"/>
</svg>
