<svg width="16" height="17" viewBox="0 0 16 17" fill="none" xmlns="http://www.w3.org/2000/svg">
<path d="M2.66634 2.5H13.333C13.6866 2.5 14.0258 2.64048 14.2758 2.89052C14.5259 3.14057 14.6663 3.47971 14.6663 3.83333V7.83333C14.6663 9.60144 13.964 11.2971 12.7137 12.5474C11.4635 13.7976 9.76778 14.5 7.99967 14.5C7.1242 14.5 6.25729 14.3276 5.44845 13.9925C4.63961 13.6575 3.90469 13.1664 3.28563 12.5474C2.03539 11.2971 1.33301 9.60144 1.33301 7.83333V3.83333C1.33301 3.47971 1.47348 3.14057 1.72353 2.89052C1.97358 2.64048 2.31272 2.5 2.66634 2.5V2.5Z" stroke="#2D9CDB" stroke-linecap="round" stroke-linejoin="round"/>
<path d="M5.33301 7.16602L7.99967 9.83268L10.6663 7.16602" stroke="#2D9CDB" stroke-linecap="round" stroke-linejoin="round"/>
</svg>
