<svg width="17" height="16" viewBox="0 0 17 16" fill="none" xmlns="http://www.w3.org/2000/svg">
<path d="M14.8203 2.62569C14.8203 2.04627 14.3484 1.57538 13.7673 1.57538H9.17242C8.59285 1.57538 7.78455 1.90968 7.37463 2.31786L2.49085 7.18816C2.08141 7.5965 2.08094 8.2651 2.49085 8.67344L7.7032 13.8716C8.11264 14.2805 8.78304 14.2805 9.19248 13.8716L9.19406 13.8732L14.0763 9.00206C14.4862 8.59356 14.8209 7.78728 14.8209 7.20927L14.8203 2.62569ZM13.3318 8.25974L8.44784 13.1293L3.23534 7.9308L8.11927 3.0605C8.3311 2.84924 8.87261 2.62569 9.17242 2.62569H13.7678L13.7684 7.20927C13.7678 7.50828 13.5436 8.04832 13.3318 8.25974Z" fill="#F2994A"/>
<path d="M6.95835 10.1597L6.21387 9.41655L9.93724 5.70368L10.6812 6.44616L6.95835 10.1597Z" fill="#F2994A"/>
<path d="M12.5454 4.9612C12.2369 5.26887 11.7362 5.2684 11.4282 4.9612C11.1197 4.65352 11.1197 4.15444 11.4282 3.84677C11.7362 3.53957 12.2365 3.53957 12.545 3.84677C12.853 4.15444 12.8535 4.65352 12.5454 4.9612Z" fill="#F2994A"/>
<path d="M7.51712 7.00321C7.20861 7.31088 6.70787 7.31041 6.39984 7.00274C6.09133 6.69554 6.09133 6.19598 6.39984 5.88894C6.70787 5.58174 7.20814 5.58174 7.51664 5.88894C7.82468 6.19598 7.82515 6.69538 7.51712 7.00321Z" fill="#F2994A"/>
<path d="M10.4967 9.9739C10.1887 10.2809 9.68845 10.2809 9.37995 9.9739C9.07192 9.66623 9.07192 9.16747 9.37995 8.8598C9.68845 8.55244 10.1887 8.55244 10.4967 8.8598C10.8051 9.16731 10.8051 9.66608 10.4967 9.9739Z" fill="#F2994A"/>
</svg>
