<svg width="21" height="12" viewBox="0 0 21 12" fill="none" xmlns="http://www.w3.org/2000/svg">
<path d="M10.1132 11.1911H11.3585C11.5472 11.1555 11.7736 11.0844 11.9246 10.9776C12.0378 10.8353 12.1132 10.6573 12.0755 10.4794C12.0755 10.4794 12.0378 8.9847 12.8302 8.73559C13.6227 8.48647 14.5661 10.1947 15.5849 10.8353C15.9623 11.12 16.4529 11.2623 16.9434 11.2267L19.6981 11.1911C19.6981 11.1911 21.1321 11.12 20.4529 10.0879C19.9246 9.2694 19.2076 8.52206 18.4151 7.91707C16.6793 6.45799 16.9057 6.67151 18.9812 4.1448C20.2642 2.61454 20.7548 1.65367 20.6038 1.26221C20.4529 0.870745 19.5095 0.977509 19.5095 0.977509L16.4151 1.0131C16.2642 1.0131 16.151 1.0131 16 1.08427C15.8868 1.15545 15.7736 1.26221 15.7359 1.36897C15.434 2.11631 15.0189 2.86365 14.6038 3.5754C13.2453 5.71065 12.6793 5.81741 12.4529 5.71065C11.9246 5.39036 12.0755 4.46509 12.0755 3.78892C12.0755 1.72485 12.4151 0.835159 11.3963 0.621634C10.9057 0.514871 10.4529 0.479284 9.9623 0.479284C9.09438 0.408109 8.22645 0.479283 7.39626 0.728396C7.05664 0.870746 6.75475 1.22662 6.94343 1.26221C7.28306 1.2978 7.62268 1.44015 7.84909 1.68926C8.07551 2.08072 8.15098 2.50777 8.15098 2.97041C8.15098 2.97041 8.33966 5.42595 7.73589 5.71065C7.32079 5.92417 6.75475 5.49712 5.50947 3.53981C5.09438 2.86365 4.71702 2.1519 4.41513 1.44015C4.33966 1.33338 4.26419 1.19103 4.15098 1.11986C4.00004 1.04868 3.84909 0.977509 3.66041 0.941922H0.717018C0.490602 0.941922 0.301924 1.0131 0.113244 1.11986C0.0377727 1.26221 0.0377727 1.44015 0.113244 1.5825C0.113244 1.5825 2.41513 6.49357 5.0189 8.9847C6.33966 10.3726 8.18872 11.1555 10.1132 11.1911Z" fill="#A9A9A9"/>
</svg>
