<svg width="48" height="46" viewBox="0 0 48 46" fill="none" xmlns="http://www.w3.org/2000/svg">
<path d="M30.4963 5.48C30.4186 5.23794 30.2743 5.02267 30.0799 4.85883C29.8855 4.69499 29.6489 4.58921 29.3971 4.5536L26.5171 4.136L25.2211 1.52C25.1095 1.29197 24.936 1.09993 24.7204 0.965823C24.5048 0.831717 24.2558 0.760948 24.0019 0.761601C23.748 0.760948 23.4991 0.831717 23.2835 0.965823C23.0679 1.09993 22.8944 1.29197 22.7827 1.52L21.4915 4.136L18.6115 4.5536C18.3603 4.58974 18.1243 4.69551 17.9302 4.85894C17.736 5.02236 17.5915 5.2369 17.5131 5.47823C17.4347 5.71957 17.4254 5.97806 17.4863 6.2244C17.5473 6.47074 17.676 6.69508 17.8579 6.872L19.9459 8.9072L19.4659 11.7872C19.421 12.0379 19.4475 12.2961 19.5423 12.5325C19.6371 12.7688 19.7965 12.9738 20.0022 13.1239C20.2079 13.2741 20.4516 13.3634 20.7056 13.3816C20.9596 13.3999 21.2137 13.3464 21.4387 13.2272L24.0019 11.8592L26.5843 13.2176C26.8094 13.3368 27.0634 13.3903 27.3174 13.372C27.5714 13.3538 27.8152 13.2645 28.0209 13.1143C28.2266 12.9642 28.3859 12.7592 28.4807 12.5229C28.5756 12.2865 28.602 12.0283 28.5571 11.7776L28.0771 8.8976L30.1651 6.8624C30.3431 6.68535 30.4683 6.4623 30.5268 6.21818C30.5853 5.97405 30.5747 5.71847 30.4963 5.48ZM26.7859 8.12C26.7023 8.20166 26.6398 8.30246 26.6038 8.41369C26.5679 8.52492 26.5595 8.64323 26.5795 8.7584L27.1075 11.8496L24.3331 10.4096C24.2294 10.3554 24.1142 10.327 23.9971 10.327C23.8801 10.327 23.7648 10.3554 23.6611 10.4096L20.8867 11.8496L21.4147 8.7584C21.4353 8.64362 21.4278 8.52555 21.3926 8.41434C21.3575 8.30314 21.2959 8.20213 21.2131 8.12L18.9715 5.9312L22.0819 5.504C22.1975 5.48729 22.3072 5.44272 22.4017 5.37415C22.4962 5.30559 22.5726 5.21507 22.6243 5.1104L24.0019 2.3024L25.3891 5.1152C25.4408 5.21987 25.5172 5.31039 25.6117 5.37895C25.7062 5.44752 25.816 5.49209 25.9315 5.5088L29.0323 5.96L26.7859 8.12ZM28.7491 16.328H19.2547C18.6895 16.328 18.1474 16.5525 17.7477 16.9522C17.3481 17.3519 17.1235 17.894 17.1235 18.4592V43.112C17.1235 43.6772 17.3481 44.2193 17.7477 44.619C18.1474 45.0187 18.6895 45.2432 19.2547 45.2432H28.7491C29.3144 45.2432 29.8564 45.0187 30.2561 44.619C30.6558 44.2193 30.8803 43.6772 30.8803 43.112V18.4592C30.8803 17.894 30.6558 17.3519 30.2561 16.9522C29.8564 16.5525 29.3144 16.328 28.7491 16.328ZM29.4403 43.112C29.4403 43.2953 29.3675 43.4711 29.2379 43.6008C29.1083 43.7304 28.9324 43.8032 28.7491 43.8032H19.2547C19.0714 43.8032 18.8956 43.7304 18.766 43.6008C18.6363 43.4711 18.5635 43.2953 18.5635 43.112V18.4592C18.5635 18.2759 18.6363 18.1001 18.766 17.9704C18.8956 17.8408 19.0714 17.768 19.2547 17.768H28.7491C28.9324 17.768 29.1083 17.8408 29.2379 17.9704C29.3675 18.1001 29.4403 18.2759 29.4403 18.4592V43.112ZM45.4243 23.5616H35.9299C35.3647 23.5616 34.8226 23.7861 34.4229 24.1858C34.0233 24.5855 33.7987 25.1276 33.7987 25.6928V43.112C33.7987 43.6772 34.0233 44.2193 34.4229 44.619C34.8226 45.0187 35.3647 45.2432 35.9299 45.2432H45.4243C45.9896 45.2432 46.5316 45.0187 46.9313 44.619C47.331 44.2193 47.5555 43.6772 47.5555 43.112V25.688C47.5555 25.1228 47.331 24.5807 46.9313 24.181C46.5316 23.7813 45.9896 23.5568 45.4243 23.5568V23.5616ZM46.1107 43.112C46.1107 43.2953 46.0379 43.4711 45.9083 43.6008C45.7787 43.7304 45.6028 43.8032 45.4195 43.8032H35.9299C35.7466 43.8032 35.5708 43.7304 35.4412 43.6008C35.3115 43.4711 35.2387 43.2953 35.2387 43.112V25.688C35.2387 25.5047 35.3115 25.3289 35.4412 25.1992C35.5708 25.0696 35.7466 24.9968 35.9299 24.9968H45.4243C45.6076 24.9968 45.7834 25.0696 45.9131 25.1992C46.0427 25.3289 46.1155 25.5047 46.1155 25.688L46.1107 43.112ZM47.1715 12.7664C47.0945 12.5257 46.9516 12.3113 46.7591 12.1475C46.5665 11.9838 46.3319 11.8773 46.0819 11.84L43.2019 11.4224L41.9107 8.8064C41.7991 8.57837 41.6256 8.38633 41.41 8.25222C41.1944 8.11812 40.9454 8.04735 40.6915 8.048C40.4376 8.04735 40.1887 8.11812 39.9731 8.25222C39.7575 8.38633 39.584 8.57837 39.4723 8.8064L38.1619 11.4224L35.2819 11.84C35.0307 11.8761 34.7947 11.9819 34.6006 12.1453C34.4064 12.3088 34.2619 12.5233 34.1835 12.7646C34.105 13.006 34.0958 13.2645 34.1567 13.5108C34.2177 13.7571 34.3464 13.9815 34.5283 14.1584L36.6163 16.1936L36.1363 19.0736C36.0914 19.3243 36.1179 19.5825 36.2127 19.8189C36.3075 20.0552 36.4669 20.2602 36.6726 20.4103C36.8783 20.5605 37.122 20.6498 37.376 20.668C37.63 20.6863 37.8841 20.6328 38.1091 20.5136L40.6771 19.16L43.2595 20.5184C43.4846 20.6376 43.7386 20.6911 43.9926 20.6728C44.2466 20.6546 44.4904 20.5653 44.6961 20.4151C44.9018 20.265 45.0611 20.06 45.1559 19.8237C45.2508 19.5873 45.2772 19.3291 45.2323 19.0784L44.7523 16.1984L46.8403 14.1632C47.0209 13.9849 47.1478 13.7593 47.2063 13.5123C47.2649 13.2653 47.2528 13.0069 47.1715 12.7664ZM43.4611 15.4304C43.3775 15.5121 43.315 15.6129 43.279 15.7241C43.2431 15.8353 43.2347 15.9536 43.2547 16.0688L43.7827 19.16L41.0083 17.72C40.9028 17.6633 40.7849 17.6336 40.6651 17.6336C40.5453 17.6336 40.4274 17.6633 40.3219 17.72L37.5475 19.16L38.0755 16.0688C38.0955 15.9536 38.0872 15.8353 38.0512 15.7241C38.0153 15.6129 37.9528 15.5121 37.8691 15.4304L35.6275 13.2416L38.7283 12.7904C38.8439 12.7737 38.9536 12.7291 39.0481 12.6606C39.1426 12.592 39.219 12.5015 39.2707 12.3968L40.6579 9.5888L42.0451 12.3968C42.0968 12.5015 42.1732 12.592 42.2677 12.6606C42.3622 12.7291 42.472 12.7737 42.5875 12.7904L45.6883 13.2416L43.4611 15.4304ZM12.0739 23.5568H2.57952C2.01513 23.5581 1.47428 23.7832 1.07564 24.1827C0.677001 24.5823 0.453124 25.1236 0.453125 25.688V43.112C0.453125 43.6772 0.677662 44.2193 1.07734 44.619C1.47702 45.0187 2.0191 45.2432 2.58433 45.2432H12.0739C12.6392 45.2432 13.1812 45.0187 13.5809 44.619C13.9806 44.2193 14.2051 43.6772 14.2051 43.112V25.688C14.2051 25.1228 13.9806 24.5807 13.5809 24.181C13.1812 23.7813 12.6392 23.5568 12.0739 23.5568ZM12.7651 43.112C12.7651 43.2028 12.7472 43.2927 12.7125 43.3765C12.6778 43.4604 12.6269 43.5366 12.5627 43.6008C12.4985 43.6649 12.4223 43.7159 12.3384 43.7506C12.2546 43.7853 12.1647 43.8032 12.0739 43.8032H2.57952C2.39704 43.8019 2.22246 43.7285 2.09387 43.5991C1.96528 43.4696 1.89312 43.2945 1.89312 43.112V25.688C1.89312 25.5047 1.96595 25.3289 2.09557 25.1992C2.2252 25.0696 2.40101 24.9968 2.58433 24.9968H12.0739C12.1647 24.9968 12.2546 25.0147 12.3384 25.0494C12.4223 25.0842 12.4985 25.1351 12.5627 25.1992C12.6269 25.2634 12.6778 25.3396 12.7125 25.4235C12.7472 25.5073 12.7651 25.5972 12.7651 25.688V43.112ZM13.8259 12.7664C13.7482 12.5243 13.6039 12.3091 13.4095 12.1452C13.2151 11.9814 12.9785 11.8756 12.7267 11.84L9.84672 11.4224L8.55552 8.8064C8.44388 8.57837 8.27036 8.38633 8.05477 8.25222C7.83918 8.11812 7.59022 8.04735 7.33632 8.048C7.08243 8.04735 6.83347 8.11812 6.61788 8.25222C6.40229 8.38633 6.22877 8.57837 6.11713 8.8064L4.80193 11.4224L1.92192 11.84C1.67074 11.8761 1.43471 11.9819 1.24057 12.1453C1.04643 12.3088 0.901945 12.5233 0.823497 12.7646C0.74505 13.006 0.735774 13.2645 0.79672 13.5108C0.857666 13.7571 0.986398 13.9815 1.16833 14.1584L3.26592 16.1984L2.78592 19.0784C2.74102 19.3291 2.76749 19.5873 2.86231 19.8237C2.95712 20.06 3.11647 20.265 3.32217 20.4151C3.52786 20.5653 3.77162 20.6546 4.02563 20.6728C4.27964 20.6911 4.53367 20.6376 4.75873 20.5184L7.32673 19.16L9.90912 20.5184C10.1342 20.6376 10.3882 20.6911 10.6422 20.6728C10.8962 20.6546 11.14 20.5653 11.3457 20.4151C11.5514 20.265 11.7107 20.06 11.8055 19.8237C11.9004 19.5873 11.9268 19.3291 11.8819 19.0784L11.4019 16.1984L13.4899 14.1632C13.6714 13.9854 13.7991 13.7601 13.8585 13.5131C13.9179 13.266 13.9066 13.0073 13.8259 12.7664ZM10.1155 15.4304C10.0319 15.5121 9.96938 15.6129 9.93342 15.7241C9.89746 15.8353 9.88912 15.9536 9.90912 16.0688L10.4371 19.16L7.68192 17.72C7.57823 17.6658 7.46295 17.6374 7.34593 17.6374C7.2289 17.6374 7.11362 17.6658 7.00993 17.72L4.22112 19.16L4.74913 16.0688C4.76913 15.9536 4.76079 15.8353 4.72483 15.7241C4.68887 15.6129 4.62637 15.5121 4.54273 15.4304L2.29633 13.2416L5.39712 12.7904C5.51267 12.7737 5.62242 12.7291 5.71691 12.6606C5.8114 12.592 5.8878 12.5015 5.93953 12.3968L7.32673 9.5888L8.71392 12.3968C8.76565 12.5015 8.84205 12.592 8.93654 12.6606C9.03103 12.7291 9.14078 12.7737 9.25632 12.7904L12.3571 13.2416L10.1155 15.4304Z" fill="white"/>
</svg>
