<svg width="44" height="44" viewBox="0 0 44 44" fill="none" xmlns="http://www.w3.org/2000/svg">
<path d="M15.8549 13.9715C16.9536 13.9715 17.7509 13.1435 17.7509 12.0031C17.7509 10.8299 16.9709 10.0111 15.8549 10.0111C14.774 10.0111 13.9589 10.8674 13.9589 12.0031C13.9589 13.1258 14.774 13.9715 15.8549 13.9715Z" fill="white"/>
<path d="M17.126 18.1989L14.7975 18.4389C14.5796 18.4615 14.4048 18.6285 14.3722 18.845C14.1149 20.5523 13.4804 23.0824 12.9572 24.485C12.8991 24.6405 12.9255 24.8147 13.0268 24.9453C13.118 25.0643 13.2591 25.1335 13.4069 25.1335C13.4223 25.1335 13.4381 25.1325 13.454 25.1315L14.918 24.988C15.0696 24.9731 15.2055 24.8867 15.2837 24.7557C15.9788 23.5883 17.0564 20.8643 17.6372 18.808C17.6804 18.6549 17.6448 18.4903 17.5426 18.3683C17.4399 18.2455 17.2839 18.1831 17.126 18.1989Z" fill="white"/>
<path d="M24.6157 14.824H18.6872C18.4222 14.824 18.2072 15.0391 18.2072 15.304V16.864C18.2072 17.129 18.4222 17.344 18.6872 17.344H24.6157C24.8811 17.344 25.0957 17.129 25.0957 16.864V15.304C25.0957 15.0391 24.8811 14.824 24.6157 14.824Z" fill="white"/>
<path d="M27.8244 5.68436C27.7341 5.56772 27.5945 5.49956 27.4466 5.49956H25.8146C25.6341 5.49956 25.4685 5.60084 25.3869 5.76164C25.3044 5.92244 25.3193 6.1154 25.4263 6.2618C27.3986 8.97523 28.3577 12.0703 28.3577 15.724C28.3577 19.3884 27.3981 22.5084 25.4244 25.2607C25.3188 25.4071 25.3053 25.6 25.3869 25.7604C25.4695 25.9197 25.6346 26.021 25.8146 26.021H27.4466C27.5969 26.021 27.7389 25.95 27.8301 25.83C30.0098 22.9332 31.0701 19.636 31.0701 15.7485C31.0687 11.8293 29.9777 8.4434 27.8244 5.68436Z" fill="white"/>
<path d="M12.015 39.7322C11.1164 39.7322 10.2731 39.3827 9.63946 38.7487C9.00538 38.1151 8.65594 37.2707 8.65594 36.3727C8.65594 35.4751 9.0049 34.6312 9.63898 33.9976C10.2716 33.3645 11.115 33.0146 12.0135 33.0141C12.9121 33.0141 13.7559 33.3635 14.391 33.9971C15.0251 34.6327 15.3735 35.476 15.3735 36.3736C15.3735 37.2712 15.0251 38.1151 14.3915 38.7491C13.7569 39.3837 12.9131 39.7322 12.015 39.7322ZM12.014 34.9341C11.6291 34.9346 11.2676 35.0839 10.9964 35.3551C10.7247 35.6267 10.5755 35.9877 10.5755 36.3722C10.5755 36.7581 10.7252 37.12 10.9969 37.3917C11.5398 37.9351 12.4911 37.9336 13.0335 37.3917C13.3043 37.121 13.4535 36.7595 13.4535 36.3741C13.4535 35.9882 13.3038 35.6263 13.0331 35.3546C12.7619 35.0839 12.3995 34.9341 12.014 34.9341Z" fill="white"/>
<path d="M7.2226 43.3235C6.64612 43.3235 6.10372 43.0994 5.6962 42.6923C5.28772 42.2834 5.06356 41.7415 5.06308 41.1645C5.0626 40.5866 5.28676 40.0442 5.69476 39.6362C6.10228 39.2287 6.64468 39.0045 7.2226 39.0045C7.80052 39.0045 8.34292 39.2296 8.75092 39.6376C9.15796 40.0442 9.3826 40.5866 9.3826 41.164C9.3826 41.741 9.15844 42.2834 8.75092 42.6914C8.34196 43.0994 7.79956 43.3235 7.2226 43.3235ZM7.2226 40.4445C7.02964 40.4445 6.84868 40.5189 6.71284 40.6547C6.577 40.7906 6.5026 40.9711 6.50308 41.164C6.50356 41.357 6.57844 41.5379 6.71428 41.6743C6.98404 41.944 7.4602 41.9445 7.73236 41.6733C7.86724 41.5379 7.94212 41.357 7.94212 41.164C7.94212 40.9711 7.86772 40.7911 7.73236 40.6557C7.59604 40.5194 7.41508 40.4445 7.2226 40.4445Z" fill="white"/>
<path d="M18.1628 34.5429C17.0079 34.5429 15.9226 34.0941 15.1085 33.2795C14.6861 32.8571 14.3621 32.3627 14.1456 31.8098C14.0573 31.5842 13.9882 31.3543 13.9392 31.1195H4.23844C3.21316 31.1195 2.24884 30.7202 1.52356 29.9954C0.797797 29.2701 0.398438 28.3058 0.398438 27.28V4.24002C0.398438 3.21474 0.797797 2.25042 1.52308 1.52466C2.24884 0.799384 3.21316 0.400024 4.23844 0.400024H39.7584C40.7837 0.400024 41.748 0.799384 42.4733 1.52466C43.1991 2.24994 43.5984 3.21426 43.5984 4.24002V27.28C43.5984 28.3058 43.1991 29.2701 42.4733 29.9954C41.7476 30.7207 40.7837 31.12 39.7584 31.12H22.3863C22.3368 31.3543 22.2687 31.5847 22.1799 31.8098C21.9629 32.3627 21.6394 32.8576 21.2175 33.2795C20.4029 34.0936 19.3186 34.5429 18.1628 34.5429ZM4.23844 2.32002C3.7258 2.32002 3.2434 2.5197 2.88052 2.88258C2.51812 3.24498 2.31844 3.72738 2.31844 4.24002V27.28C2.31844 27.7927 2.51812 28.2751 2.881 28.6379C3.2434 29.0003 3.7258 29.2 4.23844 29.2H14.8076C15.0653 29.2 15.3125 29.3037 15.493 29.488C15.6735 29.6719 15.7724 29.9205 15.7676 30.1783C15.7613 30.4994 15.8175 30.8123 15.9336 31.109C16.0532 31.4143 16.2327 31.6874 16.4669 31.9216C16.9186 32.3733 17.5215 32.6224 18.1637 32.6224C18.806 32.6224 19.4084 32.3733 19.8605 31.9211C20.0943 31.6874 20.2733 31.4138 20.3933 31.1085C20.5095 30.8128 20.5652 30.4994 20.5589 30.1783C20.5541 29.9205 20.653 29.6714 20.8335 29.488C21.014 29.3037 21.2612 29.2 21.5189 29.2H39.7584C40.2706 29.2 40.753 29.0003 41.1164 28.6375C41.4788 28.2751 41.6784 27.7927 41.6784 27.28V4.24002C41.6784 3.72738 41.4788 3.24498 41.1159 2.8821C40.753 2.5197 40.2706 2.32002 39.7584 2.32002H4.23844Z" fill="white"/>
</svg>
