<svg width="36" height="45" viewBox="0 0 36 45" fill="none" xmlns="http://www.w3.org/2000/svg">
<path d="M5.47149 44.888C5.37549 44.888 5.32749 44.888 5.23149 44.84C4.94349 44.792 4.75149 44.6 4.60749 44.36L0.287491 36.008C0.0474911 35.576 0.191491 35 0.623491 34.76L9.98349 28.904C10.6075 28.52 11.3275 28.328 12.0475 28.376L21.5515 28.616C23.0875 28.664 24.3835 29.912 24.4315 31.448C24.4795 32.984 23.3275 34.376 21.7915 34.52L18.3835 34.904C18.0955 34.952 17.9515 35.144 17.9035 35.24C17.8555 35.336 17.7595 35.576 17.9035 35.816C17.9995 36.008 18.2395 36.152 18.4795 36.152L23.9995 36.392C25.0075 35.672 28.7995 33.08 31.0555 31.544C32.3995 30.632 34.2715 30.968 35.2315 32.312L35.2795 32.36C36.1915 33.704 35.9035 35.528 34.6075 36.44L25.9675 42.632C24.8635 43.448 23.4715 43.784 22.1275 43.544L11.3275 41.912C10.5595 41.816 9.83949 41.96 9.21549 42.44L6.04749 44.744C5.85549 44.84 5.66349 44.888 5.47149 44.888ZM2.44749 35.912L5.85549 42.488L8.11149 40.856C9.11949 40.136 10.3675 39.8 11.6155 39.992L22.4155 41.624C23.2795 41.768 24.1435 41.528 24.8635 41.048L33.4555 34.904C33.9355 34.568 34.0315 33.944 33.6955 33.464L33.6475 33.416C33.3115 32.936 32.6395 32.792 32.1595 33.128C29.5675 35 24.8155 38.216 24.8155 38.216C24.6235 38.312 24.4315 38.408 24.2395 38.408L18.3835 38.168C17.4715 38.12 16.6075 37.592 16.1755 36.776C15.7915 36.008 15.8395 35.144 16.2235 34.424C16.6075 33.704 17.3755 33.176 18.1915 33.08L21.5995 32.696C22.1275 32.648 22.5595 32.168 22.5115 31.592C22.4635 31.064 22.0315 30.632 21.5035 30.584L11.9515 30.344C11.5675 30.344 11.2795 30.392 10.9915 30.584L2.44749 35.912Z" fill="white"/>
<path d="M23.2315 26.696C23.0395 26.696 22.8475 26.648 22.6555 26.6C15.0715 23.576 12.5275 17.912 13.3435 13.64C13.9195 10.568 16.1755 8.55204 19.0075 8.55204C20.3515 8.55204 21.8395 9.03204 23.2315 9.94404C24.6235 9.03204 26.0635 8.55204 27.4075 8.55204C30.2395 8.55204 32.4955 10.52 33.0715 13.592C33.8875 17.816 31.3435 23.48 23.8075 26.552C23.6635 26.696 23.4235 26.696 23.2315 26.696ZM19.0555 10.472C17.1355 10.472 15.6955 11.816 15.2635 14.024C14.5915 17.528 16.7995 22.184 23.2795 24.776C29.7115 22.088 31.9195 17.432 31.2475 13.976C30.8155 11.816 29.3755 10.472 27.4555 10.472C26.3515 10.472 25.1035 10.952 23.8555 11.864C23.5195 12.104 23.0395 12.104 22.7035 11.864C21.4075 10.952 20.1595 10.472 19.0555 10.472Z" fill="white"/>
<path d="M23.1835 5.28804C22.6555 5.28804 22.2235 4.85604 22.2235 4.32804V1.11204C22.2235 0.584039 22.6555 0.152039 23.1835 0.152039C23.7115 0.152039 24.1435 0.584039 24.1435 1.11204V4.32804C24.1435 4.85604 23.7115 5.28804 23.1835 5.28804Z" fill="white"/>
<path d="M31.3923 6.92005C31.2483 6.92005 31.1043 6.87205 30.9603 6.82405C30.4803 6.58405 30.2883 6.00805 30.5283 5.52805L32.1603 2.31205C32.4003 1.83205 32.9763 1.64005 33.4563 1.88005C33.9363 2.12005 34.1283 2.69605 33.8883 3.17605L32.2563 6.39205C32.0643 6.72805 31.7283 6.92005 31.3923 6.92005Z" fill="white"/>
<path d="M14.9755 6.92004C14.6395 6.92004 14.3035 6.72804 14.1115 6.39204L12.4795 3.17604C12.2395 2.69604 12.4315 2.12004 12.9115 1.88004C13.3915 1.64004 13.9675 1.83204 14.2075 2.31204L15.8395 5.52804C16.0795 6.00804 15.8875 6.58404 15.4075 6.82404C15.2635 6.87204 15.1195 6.92004 14.9755 6.92004Z" fill="white"/>
</svg>
