<svg width="48" height="48" viewBox="0 0 48 48" fill="none" xmlns="http://www.w3.org/2000/svg">
<path d="M47.2 20H0.799969C0.358406 20 0 20.3584 0 20.8V40C0 40.4424 0.358406 40.7999 0.799969 40.7999H47.1999C47.6423 40.7999 47.9999 40.4424 47.9999 40V20.8C48 20.3584 47.6424 20 47.2 20ZM46.4 39.2H1.60003V21.6H46.4001V39.2H46.4Z" fill="#A72B2A"/>
<path d="M24 7.19995C22.2352 7.19995 20.8 8.63517 20.8 10.3999C20.8 12.1647 22.2353 13.5999 24 13.5999C25.7649 13.5999 27.2 12.1647 27.2 10.3999C27.2 8.63517 25.7649 7.19995 24 7.19995ZM24 12C23.1176 12 22.4 11.2824 22.4 10.3999C22.4 9.51754 23.1175 8.79989 24 8.79989C24.8824 8.79989 25.6 9.51745 25.6 10.3999C25.6 11.2824 24.8824 12 24 12Z" fill="#A72B2A"/>
<path d="M22.2655 9.15593C22.0199 8.78871 21.5231 8.68793 21.1559 8.9343L4.35591 20.1343C3.98869 20.3791 3.88951 20.8767 4.13429 21.244C4.28869 21.4751 4.54229 21.5999 4.80066 21.5999C4.95263 21.5999 5.10704 21.5567 5.24382 21.4655L22.0438 10.2655C22.4111 10.0208 22.5103 9.52315 22.2655 9.15593Z" fill="#A72B2A"/>
<path d="M43.6441 20.1343L26.8441 8.9343C26.4745 8.68793 25.9793 8.78871 25.7345 9.15593C25.4889 9.5239 25.5881 10.0208 25.9561 10.2656L42.7561 21.4656C42.8929 21.5568 43.0473 21.6 43.1993 21.6C43.4576 21.6 43.7121 21.4752 43.8656 21.2441C44.1113 20.8759 44.0121 20.3791 43.6441 20.1343Z" fill="#A72B2A"/>
<path d="M7 34.0304C7 34.6519 7.37323 35 7.87475 35C8.37627 35 8.7495 34.6519 8.7495 34.0304V31.3329H8.77282L11.3621 34.6768C11.5487 34.913 11.8286 35 12.0385 35C12.5517 35 12.9133 34.5276 12.9133 34.0428C12.9133 33.8688 12.8433 33.6823 12.68 33.4959L10.6973 31.2334C11.8869 31.0345 12.855 30.2514 12.855 28.884C12.855 26.9323 11.747 26.0746 9.95082 26.0746H7.89807C7.31491 26.0746 7 26.4475 7 27.0442V34.0304ZM8.7495 27.7901H9.95082C10.5923 27.7901 11.0355 28.1754 11.0355 28.884C11.0355 29.5801 10.5923 29.9903 9.95082 29.9903H8.7495V27.7901Z" fill="#A72B2A"/>
<path d="M16.455 33.9931C16.455 34.5525 16.8399 34.9254 17.3531 34.9254H20.3622C20.9104 34.9254 21.1903 34.4903 21.1903 34.0677C21.1903 33.6326 20.9221 33.2099 20.3622 33.2099H18.2045V31.3204H20.1173C20.6771 31.3204 20.9687 30.8854 20.9687 30.4627C20.9687 30.0276 20.6888 29.605 20.1173 29.605H18.2045V27.7901H20.2573C20.8054 27.7901 21.0854 27.355 21.0854 26.9323C21.0854 26.4972 20.8171 26.0746 20.2573 26.0746H17.3648C16.7466 26.0746 16.455 26.5345 16.455 27.1561V33.9931Z" fill="#A72B2A"/>
<path d="M24.758 34.0304C24.758 34.6519 25.1312 35 25.6328 35C26.1343 35 26.5075 34.6519 26.5075 34.0304V29.3936H26.5308L30.2281 34.5898C30.3914 34.8135 30.7413 35 30.9629 35C31.4644 35 31.8377 34.6519 31.8377 34.0304V26.9696C31.8377 26.3481 31.4644 26 30.9629 26C30.4614 26 30.0882 26.3481 30.0882 26.9696V31.6685H30.0648L26.3676 26.4102C26.2159 26.1865 25.8544 26 25.6328 26C25.1312 26 24.758 26.3481 24.758 26.9696V34.0304Z" fill="#A72B2A"/>
<path d="M37.1861 34.0304C37.1861 34.6519 37.5593 35 38.0608 35C38.5624 35 38.9356 34.6519 38.9356 34.0304V27.7901H40.2069C40.7667 27.7901 41 27.355 41 26.9323C41 26.4972 40.7084 26.0746 40.2069 26.0746H35.9148C35.4133 26.0746 35.1217 26.4972 35.1217 26.9323C35.1217 27.355 35.355 27.7901 35.9148 27.7901H37.1861V34.0304Z" fill="#A72B2A"/>
</svg>
