<svg width="36" height="36" viewBox="0 0 36 36" fill="none" xmlns="http://www.w3.org/2000/svg">
<path fill-rule="evenodd" clip-rule="evenodd" d="M28.6529 14.3541C28.7007 14.4741 28.6927 14.5982 28.6284 14.7261C25.6687 20.5183 22.4647 23.754 19.0167 24.4341C18.6084 24.522 18.1527 24.5661 17.6484 24.5661C15.4884 24.5661 13.2847 23.6021 11.0367 21.6741C10.9407 21.594 10.8886 21.4862 10.8807 21.3499C10.8727 21.2141 10.9087 21.0979 10.9884 21.0021C11.0686 20.898 11.1763 20.8421 11.3129 20.8341C11.4487 20.8183 11.5647 20.8541 11.6607 20.9421C14.1807 23.094 16.5727 23.9462 18.8367 23.4979C21.8686 22.8979 24.7723 19.9737 27.5484 14.7259C22.0447 12.2381 17.9086 11.7338 15.1407 13.2139C13.1808 14.2538 11.8767 16.3181 11.2284 19.4059C13.2763 18.2779 15.6163 17.5339 18.2484 17.1739C18.3847 17.1581 18.5047 17.1897 18.6084 17.2697C18.7126 17.3498 18.7726 17.4537 18.7884 17.5819C18.8047 17.7177 18.7726 17.8377 18.6929 17.9419C18.6207 18.0458 18.5167 18.1058 18.3807 18.1219C15.4608 18.5217 12.9408 19.4018 10.8207 20.7619V20.7739C9.86065 21.3818 8.96857 22.1018 8.14465 22.9339C8.05657 23.0217 7.94497 23.0697 7.80865 23.0779C7.67281 23.0779 7.55689 23.0299 7.46089 22.9339C7.37281 22.8458 7.32505 22.7337 7.31689 22.5979C7.31689 22.4621 7.36465 22.35 7.46089 22.2621C8.27689 21.4221 9.16489 20.694 10.1249 20.0779C10.7652 16.2221 12.2849 13.65 14.6849 12.3621C17.8207 10.698 22.393 11.2661 28.4009 14.0661C28.5365 14.1302 28.6205 14.2262 28.6529 14.3541Z" fill="#95AC8F"/>
<circle cx="18" cy="18" r="17.5" stroke="#95AC8F"/>
</svg>
