<svg width="36" height="36" viewBox="0 0 36 36" fill="none" xmlns="http://www.w3.org/2000/svg">
<circle cx="18" cy="18" r="17.5" stroke="#EB5757"/>
<g clip-path="url(#clip0)">
<path d="M23 15.7776V8.5556C23 8.249 22.7512 8 22.4446 8H13.5556C13.4084 8 13.267 8.0586 13.1628 8.1628C13.0584 8.267 13 8.4086 13 8.5556L13.0004 15.7776C13.0004 18.3466 14.9486 20.4672 17.4444 20.7444V25.2216C17.4444 26.1408 16.697 26.8884 15.7778 26.8884L14.1112 26.8886C13.8044 26.8886 13.5558 27.1374 13.5558 27.444C13.5558 27.7508 13.8044 27.9996 14.1112 27.9996H21.8888C21.8912 27.9998 21.8928 27.9998 21.8942 27.9996C22.2012 27.9996 22.4496 27.7508 22.4496 27.444C22.4496 27.1374 22.2012 26.8886 21.8942 26.8886H21.8914C21.891 26.8886 21.8898 26.8886 21.8886 26.8886L20.2218 26.8884C19.303 26.8884 18.5554 26.1408 18.5554 25.2216V20.7446C21.0516 20.4674 23 18.3466 23 15.7776ZM14.1114 15.7776L14.111 9.1112H17.6458L16.5008 12.5468C16.4828 12.6012 16.4722 12.6618 16.4722 12.7222C16.4722 13.0292 16.721 13.2778 17.0278 13.2778H18.9174L17.4676 18L20.1796 12.936C20.2182 12.863 20.2414 12.7778 20.2414 12.6894C20.2414 12.4008 20.0074 12.1666 19.7188 12.1666H19.6668H17.799L18.8172 9.1112H21.889V15.7778C21.889 17.9224 20.1444 19.6666 18 19.6666C15.8558 19.6664 14.1114 17.9222 14.1114 15.7776Z" fill="#EB5757"/>
</g>
<defs>
<clipPath id="clip0">
<rect x="8" y="8" width="20" height="20" fill="white"/>
</clipPath>
</defs>
</svg>
