<svg width="36" height="36" viewBox="0 0 36 36" fill="none" xmlns="http://www.w3.org/2000/svg">
<circle cx="18" cy="18" r="17.5" stroke="#95AC8F"/>
<path d="M22.5 7.44077L23.5166 10.188L23.5964 10.4036L23.812 10.4834L26.5592 11.5L23.812 12.5166L23.5964 12.5964L23.5166 12.812L22.5 15.5592L21.4834 12.812L21.4036 12.5964L21.188 12.5166L18.4408 11.5L21.188 10.4834L21.4036 10.4036L21.4834 10.188L22.5 7.44077Z" stroke="#95AC8F"/>
<path d="M14.5 13.4408L16.3268 18.3777L16.4066 18.5934L16.6223 18.6732L21.5592 20.5L16.6223 22.3268L16.4066 22.4066L16.3268 22.6223L14.5 27.5592L12.6732 22.6223L12.5934 22.4066L12.3777 22.3268L7.44077 20.5L12.3777 18.6732L12.5934 18.5934L12.6732 18.3777L14.5 13.4408Z" stroke="#95AC8F"/>
</svg>
