<svg width="36" height="36" viewBox="0 0 36 36" fill="none" xmlns="http://www.w3.org/2000/svg">
<circle cx="18" cy="18" r="17.5" stroke="#EB5757"/>
<path fill-rule="evenodd" clip-rule="evenodd" d="M18.2835 10.6391L14.9721 10.6421L12.6558 13.0086L10.3164 15.3523L10.352 18.6636L10.355 21.975L12.7215 24.2913L15.0652 26.6307L18.3765 26.5952L21.6879 26.5921L24.0042 24.2256L26.3436 21.8819L26.308 18.5706L26.305 15.2592L23.9385 12.9429L21.5948 10.6035L18.2835 10.6391ZM18.4973 17.5024L14.9965 14L13.9971 14.9999L17.4979 18.5023L14.0017 22.0001L15.0012 23L18.4973 19.5023L21.9929 22.9995L22.9924 21.9995L19.4968 18.5023L22.9971 15.0005L21.9976 14.0006L18.4973 17.5024Z" fill="#EB5757"/>
</svg>
