<svg width="36" height="36" viewBox="0 0 36 36" fill="none" xmlns="http://www.w3.org/2000/svg">
<circle cx="18" cy="18" r="17.5" stroke="#EB5757"/>
<path d="M21.5 21.2C21.5 23.206 20.8732 24.7662 19.7826 25.8257C18.6902 26.8869 17.0764 27.5 15 27.5C12.9236 27.5 11.3098 26.8869 10.2174 25.8257C9.12679 24.7662 8.5 23.206 8.5 21.2C8.5 19.2269 9.6046 17.2268 10.9834 15.5135C12.3514 13.8136 13.9283 12.4709 14.7463 11.8224C14.8992 11.7012 15.1008 11.7012 15.2537 11.8224C16.0717 12.4709 17.6486 13.8136 19.0166 15.5135C20.3954 17.2268 21.5 19.2269 21.5 21.2Z" stroke="#EB5757"/>
<path d="M15 25C12.5147 25 11 23.4853 11 21" stroke="#EB5757" stroke-linecap="round" stroke-linejoin="round"/>
<path d="M26.0118 12.4C26.0118 13.4332 25.6897 14.2214 25.1436 14.7519C24.5961 15.2837 23.7786 15.6 22.7059 15.6C21.6332 15.6 20.8157 15.2837 20.2682 14.7519C19.7221 14.2214 19.4 13.4332 19.4 12.4C19.4 11.4901 19.8666 10.5525 20.5038 9.7067C21.1349 8.8689 21.8958 8.1707 22.4019 7.74805C22.5814 7.59814 22.8304 7.59814 23.0099 7.74805C23.516 8.1707 24.2768 8.8689 24.908 9.7067C25.5452 10.5525 26.0118 11.4901 26.0118 12.4Z" stroke="#EB5757" stroke-width="0.8"/>
<path d="M23.1176 14.1176C21.8019 14.1176 21 13.3157 21 12" stroke="#EB5757" stroke-width="0.8" stroke-linecap="round" stroke-linejoin="round"/>
</svg>
