<svg width="36" height="36" viewBox="0 0 36 36" fill="none" xmlns="http://www.w3.org/2000/svg">
<path d="M24.9736 16.7083V16.6183C24.9736 16.0727 24.6854 15.5942 24.2543 15.3232C24.4239 15.0769 24.5236 14.7792 24.5236 14.4583V14.3683C24.5236 13.8522 24.2659 13.3957 23.8733 13.1185C23.9995 12.9169 24.0736 12.6795 24.0736 12.4244V12.3524C24.0736 11.6279 23.4843 11.0384 22.7596 11.0384H22.2736C20.58 11.0384 19.8208 11.0028 19.3673 10.9816C19.1787 10.9727 19.0406 10.9668 18.9159 10.9668C18.6898 10.9668 18.5084 10.9864 18.1516 11.0444C17.7445 11.1104 17.2572 11.2553 16.7413 11.4085C15.9058 11.6569 14.959 11.9384 14.1736 11.9384H11.4736C11.225 11.9384 11.0236 12.1399 11.0236 12.3884C11.0236 12.637 11.225 12.8384 11.4736 12.8384H14.1736C15.0898 12.8384 16.1034 12.5371 16.9976 12.2713C17.4851 12.1264 17.9455 11.9896 18.2956 11.9327C18.7755 11.8547 18.8378 11.858 19.325 11.8805C19.4293 11.8853 19.5495 11.8911 19.6928 11.8969C19.6399 12.0391 19.6096 12.1922 19.6096 12.3524V12.4244C19.6096 12.6718 19.6796 12.9023 19.7988 13.1002C19.3916 13.3754 19.1236 13.8412 19.1236 14.3684V14.4584C19.1236 14.7792 19.2233 15.0771 19.3929 15.3233C18.9616 15.5944 18.6736 16.0729 18.6736 16.6184V16.7084C18.6736 17.1296 18.8448 17.5114 19.1209 17.7884C18.8448 18.0655 18.6736 18.4472 18.6736 18.8684V18.9584C18.6736 19.2378 18.7503 19.4992 18.8815 19.7249C18.6718 19.8147 18.4848 19.9481 18.3255 20.1227C17.8145 20.6836 17.7392 21.4914 17.7754 21.8802C17.8249 22.4121 18.0397 23.0527 18.267 23.7311C18.4184 24.1828 18.575 24.6497 18.6868 25.0975C18.8158 25.6129 18.7251 26.0103 18.4562 26.1098C18.152 26.2222 17.6348 25.9549 17.2759 25.2372C17.218 25.1096 15.6896 21.7697 15.0025 20.6958C14.4184 19.7832 13.018 18.2384 11.4734 18.2384C11.2249 18.2384 11.0234 18.4399 11.0234 18.6884C11.0234 18.937 11.2249 19.1384 11.4734 19.1384C12.5475 19.1384 13.7191 20.3601 14.2444 21.1809C14.8976 22.2019 16.4486 25.5913 16.4641 25.6253C17.0983 26.8943 18.1016 27.2003 18.7685 26.9539C19.3216 26.749 19.8609 26.083 19.5599 24.8794C19.4393 24.397 19.2772 23.9133 19.1204 23.4449C18.91 22.8175 18.7114 22.2247 18.6715 21.7969C18.6481 21.5452 18.7139 21.0326 18.9906 20.7289C19.138 20.5671 19.3286 20.4883 19.5733 20.4883H20.2033H22.7233H22.9933C23.8369 20.4883 24.5233 19.8019 24.5233 18.9583V18.8683C24.5233 18.5473 24.4235 18.2496 24.254 18.0034C24.6854 17.7325 24.9736 17.254 24.9736 16.7083ZM19.5736 18.8684C19.5736 18.521 19.8562 18.2384 20.2036 18.2384H22.9936C23.341 18.2384 23.6236 18.521 23.6236 18.8684V18.9584C23.6236 19.3057 23.341 19.5884 22.9936 19.5884H22.2493H20.2036C19.8562 19.5884 19.5736 19.3058 19.5736 18.9584V18.8684ZM23.1736 12.4244C23.1736 12.6529 22.988 12.8384 22.7596 12.8384H21.3194H20.9236C20.6952 12.8384 20.5096 12.6529 20.5096 12.4244V12.3524C20.5096 12.124 20.6952 11.9384 20.9236 11.9384H21.3194H22.7596C22.988 11.9384 23.1736 12.124 23.1736 12.3524V12.4244ZM23.6236 14.4583C23.6236 14.8057 23.341 15.0883 22.9936 15.0883H20.6536C20.3062 15.0883 20.0236 14.8057 20.0236 14.4583V14.3683C20.0236 14.0209 20.3062 13.7383 20.6536 13.7383H20.9236H22.7596H22.9936C23.341 13.7383 23.6236 14.0209 23.6236 14.3683V14.4583ZM24.0736 16.7083C24.0736 17.0557 23.791 17.3383 23.4436 17.3383H22.9936H20.2036C19.8562 17.3383 19.5736 17.0557 19.5736 16.7083V16.6183C19.5736 16.2709 19.8562 15.9883 20.2036 15.9883H20.6536H22.9936H23.4436C23.791 15.9883 24.0736 16.2709 24.0736 16.6183V16.7083Z" fill="#EB5757"/>
<circle cx="18" cy="18" r="17.5" stroke="#EB5757"/>
</svg>
