<svg width="36" height="36" viewBox="0 0 36 36" fill="none" xmlns="http://www.w3.org/2000/svg">
<circle cx="18" cy="18" r="17.5" stroke="#EB5757"/>
<path d="M19.0139 26.3239C18.9876 26.3239 18.9612 26.3236 18.9349 26.3232C18.9088 26.3236 18.8832 26.3239 18.8571 26.3239V26.3218C16.6887 26.2672 15.1967 25.0798 14.8514 23.1216C14.58 21.5824 15.1538 20.0173 16.1498 19.4555C16.1498 17.1659 16.1539 13.362 16.1764 11.7393C16.2066 9.57259 17.9449 9.00001 18.8597 9.00001C18.8793 8.99947 21.2988 9.00793 21.3741 11.9356C21.4085 13.2788 21.3977 15.05 21.3856 16.9251C21.3807 17.7626 21.375 18.6068 21.3743 19.4136C22.4645 19.9933 23.11 21.6337 22.8342 23.2448C22.5119 25.1257 21.0895 26.2672 19.0137 26.3218L19.0139 26.3239ZM18.8604 9.78499C18.6694 9.78661 16.9884 9.85537 16.9612 11.7502C16.938 13.4286 16.9346 17.4548 16.9346 19.705V19.9798L16.6764 20.0736C15.8927 20.3591 15.4013 21.719 15.6245 22.9846C15.7584 23.7447 16.349 25.5028 18.9345 25.5381C21.3852 25.5037 21.9366 23.834 22.0606 23.1122C22.2881 21.7822 21.7231 20.3461 20.8508 20.0385L20.5889 19.9463V19.6683C20.5889 18.783 20.5949 17.8479 20.6004 16.9198C20.6123 15.0512 20.6233 13.2862 20.5891 11.9554C20.5347 9.85249 19.0316 9.78571 18.8604 9.78499Z" fill="#EB5757"/>
<path d="M18.8535 24.6859C17.6367 24.6859 16.6467 23.6959 16.6467 22.4791C16.6467 21.2619 17.6367 20.2719 18.8535 20.2719C20.071 20.2719 21.061 21.2619 21.061 22.4791C21.061 23.6959 20.071 24.6859 18.8535 24.6859ZM18.8535 21.0571C18.0697 21.0571 17.4318 21.6948 17.4318 22.4791C17.4318 23.263 18.0699 23.9007 18.8535 23.9007C19.6377 23.9007 20.2758 23.263 20.2758 22.4791C20.276 21.6948 19.6379 21.0571 18.8535 21.0571Z" fill="#EB5757"/>
<path d="M18.8535 21.0571C18.6369 21.0571 18.4613 20.8811 18.4613 20.6642V12.8972C18.4613 12.6803 18.6368 12.5046 18.8533 12.5046C19.0706 12.5046 19.2461 12.6803 19.2461 12.8972V20.6642C19.2461 20.8813 19.0709 21.0571 18.8535 21.0571Z" fill="#EB5757"/>
<path d="M14.676 11.7628H13.3928C13.1755 11.7628 13 11.5871 13 11.3702C13 11.1533 13.1755 10.9776 13.3928 10.9776H14.676C14.8929 10.9776 15.0684 11.1533 15.0684 11.3702C15.0684 11.5871 14.8931 11.7628 14.676 11.7628Z" fill="#EB5757"/>
<path d="M14.676 15.2814H13.3928C13.1755 15.2814 13 15.1058 13 14.8889C13 14.6721 13.1755 14.4965 13.3928 14.4965H14.676C14.8929 14.4965 15.0684 14.6721 15.0684 14.8889C15.0684 15.1058 14.8931 15.2814 14.676 15.2814Z" fill="#EB5757"/>
<path d="M14.676 18.7998H13.3928C13.1755 18.7998 13 18.6243 13 18.4074C13 18.1905 13.1755 18.0146 13.3928 18.0146H14.676C14.8929 18.0146 15.0684 18.1905 15.0684 18.4074C15.0684 18.6243 14.8931 18.7998 14.676 18.7998Z" fill="#EB5757"/>
<ellipse cx="19" cy="22.5" rx="2" ry="1.5" fill="#EB5757"/>
</svg>
