<svg width="36" height="36" viewBox="0 0 36 36" fill="none" xmlns="http://www.w3.org/2000/svg">
<circle cx="18" cy="18" r="17.5" stroke="#EB5757"/>
<path d="M14.609 20.7042C14.609 20.2523 14.4461 19.8716 14.1203 19.5621C13.7995 19.2526 13.2556 18.9726 12.4887 18.7221C11.4211 18.4028 10.6416 17.9877 10.1504 17.4768C9.66416 16.9611 9.42105 16.3077 9.42105 15.5168C9.42105 14.7112 9.65915 14.0505 10.1353 13.5347C10.6165 13.0189 11.2757 12.7119 12.1128 12.6137V11H13.2331V12.6211C14.0752 12.734 14.7293 13.0804 15.1955 13.66C15.6667 14.2396 15.9023 15.033 15.9023 16.04H14.5188C14.5188 15.3474 14.3509 14.7972 14.015 14.3895C13.6792 13.9818 13.2256 13.7779 12.6541 13.7779C12.0576 13.7779 11.6015 13.9302 11.2857 14.2347C10.9699 14.5344 10.812 14.9544 10.812 15.4947C10.812 15.9958 10.9774 16.3961 11.3083 16.6958C11.6441 16.9905 12.193 17.2607 12.9549 17.5063C13.7218 17.747 14.3183 18.0147 14.7444 18.3095C15.1754 18.5993 15.4912 18.9382 15.6917 19.3263C15.8972 19.7144 16 20.1688 16 20.6895C16 21.5196 15.7444 22.1877 15.2331 22.6937C14.7268 23.1996 14.015 23.4993 13.0977 23.5926V25H11.985V23.5926C11.0526 23.5091 10.3208 23.1849 9.78947 22.62C9.26316 22.0502 9 21.2789 9 20.3063H10.391C10.391 20.9891 10.5739 21.5147 10.9398 21.8832C11.3058 22.2516 11.8246 22.4358 12.4962 22.4358C13.1529 22.4358 13.6692 22.2811 14.0451 21.9716C14.4211 21.6621 14.609 21.2396 14.609 20.7042Z" fill="#EB5757"/>
<path d="M21.3536 13.6464C21.1583 13.4512 20.8417 13.4512 20.6464 13.6464L17.4645 16.8284C17.2692 17.0237 17.2692 17.3403 17.4645 17.5355C17.6597 17.7308 17.9763 17.7308 18.1716 17.5355L21 14.7071L23.8284 17.5355C24.0237 17.7308 24.3403 17.7308 24.5355 17.5355C24.7308 17.3403 24.7308 17.0237 24.5355 16.8284L21.3536 13.6464ZM21.5 25L21.5 14L20.5 14L20.5 25L21.5 25Z" fill="#EB5757"/>
<path d="M26.2315 20.7685C26.1036 20.6407 25.8964 20.6407 25.7685 20.7685L23.6854 22.8516C23.5576 22.9795 23.5576 23.1867 23.6854 23.3146C23.8133 23.4424 24.0205 23.4424 24.1484 23.3146L26 21.4629L27.8516 23.3146C27.9795 23.4424 28.1867 23.4424 28.3146 23.3146C28.4424 23.1867 28.4424 22.9795 28.3146 22.8516L26.2315 20.7685ZM26.3273 25L26.3273 21L25.6727 21L25.6727 25L26.3273 25Z" fill="#EB5757"/>
</svg>
