<svg width="36" height="36" viewBox="0 0 36 36" fill="none" xmlns="http://www.w3.org/2000/svg">
<circle cx="18" cy="18" r="17.5" stroke="#95AC8F"/>
<path d="M12.6483 20.9376C12.6483 21.5781 12.9028 22.1923 13.3557 22.6452C13.8086 23.0981 14.4228 23.3526 15.0633 23.3526C15.7038 23.3526 16.3181 23.0981 16.771 22.6452C17.2239 22.1923 17.4783 21.5781 17.4783 20.9376C17.4783 20.7983 17.5336 20.6648 17.6321 20.5663C17.7305 20.4679 17.8641 20.4126 18.0033 20.4126C18.1426 20.4126 18.2761 20.4679 18.3746 20.5663C18.473 20.6648 18.5283 20.7983 18.5283 20.9376C18.5283 21.623 18.3251 22.293 17.9442 22.8628C17.5634 23.4327 17.0221 23.8768 16.3888 24.139C15.7556 24.4012 15.0588 24.4697 14.3866 24.3358C13.7144 24.202 13.097 23.8717 12.6125 23.3869C12.128 22.9021 11.7981 22.2845 11.6646 21.6123C11.5312 20.94 11.6001 20.2432 11.8627 19.6101C12.1253 18.977 12.5697 18.436 13.1398 18.0555C13.7099 17.675 14.38 17.4721 15.0654 17.4726C15.2047 17.4726 15.3382 17.5279 15.4367 17.6263C15.5351 17.7248 15.5904 17.8583 15.5904 17.9976C15.5904 18.1368 15.5351 18.2703 15.4367 18.3688C15.3382 18.4672 15.2047 18.5226 15.0654 18.5226C14.4247 18.5226 13.8103 18.7769 13.357 19.2298C12.9038 19.6826 12.6489 20.2969 12.6483 20.9376ZM8.44832 22.7331L9.21062 22.8675C9.30721 23.1558 9.42513 23.4366 9.56342 23.7075L9.11822 24.3375C8.9344 24.5986 8.84876 24.9163 8.87643 25.2345C8.90409 25.5526 9.04328 25.8508 9.26942 26.0763L9.91832 26.7252C10.1438 26.9513 10.442 27.0905 10.7601 27.1182C11.0783 27.1458 11.396 27.0602 11.6571 26.8764L12.2871 26.4312C12.5614 26.5698 12.8457 26.6878 13.1376 26.784L13.272 27.5463C13.3232 27.8629 13.4852 28.1511 13.729 28.3595C13.9728 28.568 14.2827 28.6831 14.6034 28.6845H15.5211C15.8408 28.6852 16.1505 28.5728 16.3953 28.3672C16.6401 28.1616 16.8043 27.876 16.8588 27.561L16.9932 26.7987C17.2816 26.702 17.5623 26.5841 17.8332 26.4459L18.4632 26.8911C18.7245 27.0745 19.0421 27.1599 19.3602 27.1322C19.6782 27.1046 19.9763 26.9656 20.202 26.7399L20.8614 26.091C21.0876 25.8655 21.2268 25.5673 21.2544 25.2492C21.2821 24.931 21.1964 24.6133 21.0126 24.3522L20.5674 23.7222C20.7057 23.4513 20.8236 23.1705 20.9202 22.8822L21.6825 22.7478C21.753 22.7388 21.8208 22.7156 21.8821 22.6797C21.9433 22.6438 21.9966 22.5958 22.0387 22.5386C22.0809 22.4815 22.111 22.4164 22.1273 22.3473C22.1436 22.2782 22.1456 22.2065 22.1334 22.1366C22.1212 22.0666 22.0949 21.9999 22.0562 21.9404C22.0174 21.8809 21.967 21.8299 21.908 21.7905C21.8489 21.751 21.7825 21.7239 21.7127 21.7109C21.6429 21.6978 21.5712 21.6991 21.5019 21.7146L20.4204 21.9036C20.3214 21.9201 20.2292 21.9647 20.1548 22.0321C20.0803 22.0995 20.0268 22.1868 20.0004 22.2837C19.8856 22.7113 19.7155 23.1222 19.4943 23.5059C19.4446 23.5924 19.4206 23.6912 19.425 23.7909C19.4295 23.8906 19.4623 23.9869 19.5195 24.0687L20.1495 24.9696C20.191 25.0285 20.2103 25.1002 20.2042 25.172C20.198 25.2438 20.1668 25.3112 20.1159 25.3623L19.467 26.0112C19.416 26.062 19.3486 26.0933 19.2768 26.0994C19.205 26.1056 19.1333 26.0862 19.0743 26.0448L18.1755 25.4148C18.0936 25.3571 17.9969 25.3241 17.8968 25.3196C17.7967 25.3151 17.6974 25.3394 17.6106 25.3896C17.227 25.6107 16.8161 25.7809 16.3884 25.8957C16.2915 25.922 16.2042 25.9756 16.1369 26.05C16.0695 26.1244 16.0249 26.2166 16.0083 26.3157L15.8214 27.3804C15.809 27.4516 15.7719 27.5161 15.7166 27.5626C15.6613 27.6091 15.5913 27.6345 15.519 27.6345H14.6034C14.5312 27.6345 14.4612 27.6091 14.4059 27.5626C14.3505 27.5161 14.3134 27.4516 14.301 27.3804L14.112 26.2989C14.0955 26.1998 14.0508 26.1076 13.9835 26.0332C13.9161 25.9588 13.8288 25.9052 13.7319 25.8789C13.3043 25.7639 12.8934 25.5938 12.5097 25.3728C12.423 25.3226 12.3237 25.2983 12.2236 25.3028C12.1235 25.3073 12.0268 25.3403 11.9448 25.398L11.046 26.028C10.9871 26.0694 10.9154 26.0888 10.8436 26.0826C10.7717 26.0765 10.7044 26.0452 10.6533 25.9944L10.0044 25.3455C9.95356 25.2944 9.92231 25.227 9.91616 25.1552C9.91002 25.0834 9.92937 25.0117 9.97082 24.9528L10.6008 24.054C10.6585 23.972 10.6915 23.8753 10.696 23.7752C10.7004 23.6751 10.6762 23.5758 10.626 23.4891C10.405 23.1095 10.2342 22.7029 10.1178 22.2795C10.0915 22.1826 10.0379 22.0953 9.96348 22.0279C9.88904 21.9605 9.79685 21.9159 9.69782 21.8994L8.61632 21.7104C8.54408 21.6968 8.4791 21.6578 8.43323 21.6003C8.38736 21.5429 8.36365 21.4709 8.36642 21.3975V20.4798C8.36684 20.4079 8.39251 20.3384 8.43896 20.2835C8.48541 20.2286 8.54968 20.1918 8.62052 20.1795L9.70202 19.9905C9.80105 19.9739 9.89324 19.9293 9.96768 19.8619C10.0421 19.7945 10.0957 19.7072 10.122 19.6104C10.2367 19.1826 10.4068 18.7717 10.6281 18.3882C10.6783 18.3014 10.7025 18.2021 10.6981 18.102C10.6936 18.0019 10.6606 17.9052 10.6029 17.8233L9.97292 16.9245C9.93147 16.8655 9.91212 16.7938 9.91826 16.722C9.92441 16.6502 9.95566 16.5828 10.0065 16.5318L10.6554 15.8829C10.7065 15.832 10.7738 15.8007 10.8457 15.7946C10.9175 15.7885 10.9892 15.8078 11.0481 15.8493L11.9469 16.4793C12.0289 16.5369 12.1256 16.5699 12.2257 16.5744C12.3258 16.5789 12.4251 16.5546 12.5118 16.5045C12.8913 16.2829 13.2979 16.1114 13.7214 15.9942C13.8183 15.9678 13.9056 15.9143 13.973 15.8398C14.0403 15.7654 14.085 15.6732 14.1015 15.5742L14.2905 14.4927C14.306 14.4234 14.3072 14.3517 14.2942 14.2819C14.2811 14.2121 14.2541 14.1457 14.2146 14.0866C14.1752 14.0276 14.1242 13.9772 14.0647 13.9384C14.0052 13.8997 13.9385 13.8734 13.8685 13.8612C13.7986 13.8489 13.7269 13.851 13.6578 13.8673C13.5887 13.8836 13.5236 13.9137 13.4665 13.9558C13.4093 13.998 13.3613 14.0513 13.3254 14.1125C13.2894 14.1737 13.2663 14.2416 13.2573 14.3121L13.1334 15.0765C12.8415 15.1727 12.5572 15.2906 12.2829 15.4293L11.6529 14.9841C11.3918 14.8002 11.0741 14.7146 10.7559 14.7423C10.4378 14.7699 10.1396 14.9091 9.91412 15.1353L9.26522 15.7842C9.037 16.0084 8.89539 16.3061 8.86542 16.6247C8.83544 16.9433 8.91904 17.2622 9.10142 17.5251L9.54662 18.1551C9.40784 18.4293 9.2899 18.7136 9.19382 19.0056L8.43152 19.14C8.11769 19.1963 7.83379 19.3616 7.62982 19.6066C7.42584 19.8517 7.31486 20.1609 7.31642 20.4798V21.3975C7.31562 21.7169 7.42771 22.0263 7.6329 22.271C7.8381 22.5158 8.12319 22.6802 8.43782 22.7352L8.44832 22.7331ZM27.6864 14.1693V14.8917C27.6866 15.1695 27.5888 15.4385 27.4102 15.6513C27.2316 15.8641 26.9836 16.0071 26.7099 16.0551L26.1744 16.1496C26.1083 16.3418 26.0305 16.5297 25.9413 16.7124L26.2542 17.1576C26.4139 17.3848 26.4882 17.6611 26.464 17.9377C26.4398 18.2143 26.3186 18.4735 26.1219 18.6696L25.6095 19.182C25.4135 19.3787 25.1543 19.4998 24.8777 19.524C24.601 19.5482 24.3247 19.4739 24.0975 19.3143L23.6523 19.0014C23.4697 19.0906 23.2817 19.1684 23.0895 19.2345L22.995 19.7595C22.9475 20.0333 22.8046 20.2815 22.5917 20.4602C22.3788 20.6389 22.1096 20.7366 21.8316 20.736H21.1092C20.8314 20.7362 20.5624 20.6384 20.3496 20.4597C20.1367 20.2811 19.9938 20.0331 19.9458 19.7595L19.8513 19.224C19.6591 19.1579 19.4712 19.08 19.2885 18.9909L18.8433 19.3038C18.6161 19.4634 18.3398 19.5377 18.0632 19.5135C17.7865 19.4893 17.5273 19.3682 17.3313 19.1715L16.8189 18.6591C16.6222 18.463 16.501 18.2038 16.4768 17.9272C16.4526 17.6506 16.5269 17.3743 16.6866 17.1471L16.9995 16.7019C16.9103 16.5192 16.8324 16.3313 16.7664 16.1391L16.2414 16.0551C15.9676 16.0075 15.7194 15.8646 15.5407 15.6517C15.362 15.4388 15.2643 15.1696 15.2649 14.8917V14.1693C15.2643 13.8913 15.362 13.6221 15.5407 13.4092C15.7194 13.1963 15.9676 13.0534 16.2414 13.0059L16.7769 12.9114C16.843 12.7191 16.9208 12.5312 17.01 12.3486L16.6971 11.9034C16.5373 11.6758 16.4629 11.3992 16.4871 11.1222C16.5113 10.8452 16.6325 10.5856 16.8294 10.3893L17.3313 9.88946C17.5273 9.69274 17.7865 9.57158 18.0632 9.54738C18.3398 9.52317 18.6161 9.59747 18.8433 9.75716L19.2885 10.0701C19.4709 9.9773 19.6589 9.89594 19.8513 9.82646L19.9458 9.29096C19.9938 9.01728 20.1367 8.76931 20.3496 8.59068C20.5624 8.41206 20.8314 8.31424 21.1092 8.31446H21.8316C22.1096 8.31382 22.3788 8.41149 22.5917 8.59019C22.8046 8.76888 22.9475 9.0171 22.995 9.29096L23.0895 9.82646C23.2817 9.89248 23.4697 9.97033 23.6523 10.0596L24.0975 9.74666C24.3247 9.58697 24.601 9.51267 24.8777 9.53688C25.1543 9.56108 25.4135 9.68224 25.6095 9.87896L26.1114 10.3914C26.3081 10.5874 26.4293 10.8466 26.4535 11.1232C26.4777 11.3999 26.4034 11.6762 26.2437 11.9034L25.9308 12.3486C26.02 12.5312 26.0978 12.7192 26.1639 12.9114L26.6994 13.0059C26.9752 13.0512 27.2259 13.1931 27.4067 13.4062C27.5875 13.6193 27.6866 13.8898 27.6864 14.1693ZM26.6364 14.1693C26.6364 14.1387 26.6257 14.1092 26.6061 14.0858C26.5865 14.0624 26.5594 14.0466 26.5293 14.0412L25.6767 13.8921C25.5777 13.8755 25.4855 13.8309 25.4111 13.7635C25.3366 13.6961 25.2831 13.6088 25.2567 13.512C25.1686 13.1841 25.038 12.8693 24.8682 12.5754C24.8181 12.4886 24.7938 12.3893 24.7983 12.2892C24.8027 12.1891 24.8358 12.0924 24.8934 12.0105L25.3911 11.3007C25.409 11.2755 25.4173 11.2447 25.4146 11.214C25.412 11.1832 25.3984 11.1544 25.3764 11.1327L24.864 10.6203C24.8421 10.5986 24.8133 10.5854 24.7827 10.5827C24.752 10.58 24.7214 10.5881 24.696 10.6056L23.9904 11.1054C23.9085 11.163 23.8118 11.196 23.7117 11.2005C23.6116 11.205 23.5123 11.1807 23.4255 11.1306C23.1316 10.9607 22.8167 10.8301 22.4889 10.7421C22.392 10.7157 22.3047 10.6622 22.2374 10.5877C22.17 10.5133 22.1254 10.4211 22.1088 10.3221L21.9618 9.46946C21.9564 9.43942 21.9406 9.41224 21.9172 9.39267C21.8938 9.37309 21.8642 9.36236 21.8337 9.36236H21.1092C21.0784 9.36245 21.0486 9.37348 21.0252 9.39347C21.0017 9.41347 20.9861 9.44114 20.9811 9.47156L20.832 10.3242C20.8155 10.4232 20.7708 10.5154 20.7035 10.5898C20.6361 10.6643 20.5488 10.7178 20.4519 10.7442C20.1241 10.8323 19.8092 10.9629 19.5153 11.1327C19.4286 11.1828 19.3293 11.2071 19.2292 11.2026C19.1291 11.1981 19.0324 11.1651 18.9504 11.1075L18.2406 10.6098C18.2154 10.5919 18.1847 10.5835 18.1539 10.5862C18.1231 10.5889 18.0943 10.6025 18.0726 10.6245L17.5602 11.1369C17.5382 11.1586 17.5247 11.1874 17.522 11.2182C17.5193 11.2489 17.5276 11.2797 17.5455 11.3049L18.0432 12.0126C18.1009 12.0945 18.1339 12.1912 18.1384 12.2913C18.1428 12.3914 18.1186 12.4907 18.0684 12.5775C17.8986 12.8714 17.768 13.1863 17.6799 13.5141C17.6536 13.6109 17.6 13.6982 17.5256 13.7656C17.4511 13.833 17.3589 13.8776 17.2599 13.8942L16.4073 14.0433C16.3773 14.0487 16.3501 14.0645 16.3305 14.0879C16.311 14.1113 16.3002 14.1408 16.3002 14.1714V14.8938C16.3003 14.9246 16.3113 14.9544 16.3313 14.9778C16.3513 15.0013 16.379 15.0169 16.4094 15.0219L17.262 15.171C17.361 15.1875 17.4532 15.2321 17.5277 15.2995C17.6021 15.3669 17.6557 15.4542 17.682 15.5511C17.7701 15.8789 17.9007 16.1938 18.0705 16.4877C18.1207 16.5744 18.1449 16.6737 18.1405 16.7738C18.136 16.8739 18.103 16.9706 18.0453 17.0526L17.5476 17.7624C17.5297 17.7876 17.5214 17.8183 17.5241 17.8491C17.5268 17.8798 17.5403 17.9087 17.5623 17.9304L18.0747 18.4428C18.0964 18.4647 18.1252 18.4783 18.156 18.481C18.1868 18.4837 18.2175 18.4753 18.2427 18.4575L18.9525 17.9598C19.0345 17.9021 19.1312 17.8691 19.2313 17.8646C19.3314 17.8601 19.4307 17.8844 19.5174 17.9346C19.8076 18.1018 20.1182 18.231 20.4414 18.3189C20.5383 18.3452 20.6256 18.3988 20.693 18.4732C20.7603 18.5476 20.805 18.6398 20.8215 18.7389L20.9706 19.5915C20.976 19.6215 20.9918 19.6487 21.0152 19.6682C21.0387 19.6878 21.0682 19.6985 21.0987 19.6986H21.8211C21.8516 19.6985 21.8812 19.6878 21.9046 19.6682C21.928 19.6487 21.9438 19.6215 21.9492 19.5915L22.0983 18.7389C22.1149 18.6398 22.1595 18.5476 22.2269 18.4732C22.2942 18.3988 22.3815 18.3452 22.4784 18.3189C22.8062 18.2307 23.1211 18.1001 23.415 17.9304C23.5018 17.8802 23.6011 17.8559 23.7012 17.8604C23.8013 17.8649 23.898 17.8979 23.9799 17.9556L24.6897 18.4533C24.7149 18.4711 24.7456 18.4795 24.7764 18.4768C24.8072 18.4741 24.836 18.4605 24.8577 18.4386L25.3701 17.9262C25.3921 17.9045 25.4057 17.8756 25.4083 17.8449C25.411 17.8141 25.4027 17.7834 25.3848 17.7582L24.8955 17.0505C24.8383 16.9687 24.8055 16.8724 24.801 16.7727C24.7966 16.673 24.8206 16.5742 24.8703 16.4877C25.0394 16.1963 25.17 15.8843 25.2588 15.5595C25.2852 15.4626 25.3387 15.3753 25.4132 15.3079C25.4876 15.2405 25.5798 15.1959 25.6788 15.1794L26.5314 15.0219C26.5615 15.0164 26.5886 15.0006 26.6082 14.9772C26.6278 14.9538 26.6385 14.9243 26.6385 14.8938L26.6364 14.1693ZM23.9484 14.5305C23.9484 15.0206 23.8031 15.4997 23.5308 15.9072C23.2585 16.3147 22.8715 16.6323 22.4187 16.8198C21.9659 17.0074 21.4677 17.0565 20.987 16.9608C20.5063 16.8652 20.0648 16.6292 19.7182 16.2827C19.3717 15.9361 19.1357 15.4946 19.04 15.0139C18.9444 14.5332 18.9935 14.035 19.1811 13.5822C19.3686 13.1294 19.6862 12.7424 20.0937 12.4701C20.5012 12.1978 20.9803 12.0525 21.4704 12.0525C22.1275 12.053 22.7574 12.3143 23.222 12.7789C23.6866 13.2435 23.9479 13.8734 23.9484 14.5305ZM22.8984 14.5305C22.8984 14.248 22.8147 13.9719 22.6578 13.7371C22.5009 13.5023 22.2778 13.3192 22.0169 13.2112C21.756 13.1031 21.4688 13.0748 21.1918 13.1299C20.9148 13.185 20.6604 13.321 20.4607 13.5207C20.261 13.7204 20.125 13.9749 20.0699 14.2519C20.0148 14.5289 20.043 14.816 20.1511 15.0769C20.2592 15.3379 20.4422 15.5609 20.6771 15.7178C20.9119 15.8747 21.188 15.9585 21.4704 15.9585C21.8492 15.9585 22.2124 15.808 22.4802 15.5402C22.748 15.2724 22.8984 14.9092 22.8984 14.5305Z" fill="#95AC8F"/>
</svg>
