<svg width="38" height="38" viewBox="0 0 38 38" fill="none" xmlns="http://www.w3.org/2000/svg">
<circle cx="19" cy="19" r="18" stroke="#EB5757"/>
<path fill-rule="evenodd" clip-rule="evenodd" d="M19.5 22C20.8807 22 22 20.8807 22 19.5C22 18.1193 20.8807 17 19.5 17C18.1193 17 17 18.1193 17 19.5C17 20.8807 18.1193 22 19.5 22ZM19.5 21C20.3284 21 21 20.3284 21 19.5C21 18.6716 20.3284 18 19.5 18C18.6716 18 18 18.6716 18 19.5C18 20.3284 18.6716 21 19.5 21Z" fill="#EB5757"/>
<path fill-rule="evenodd" clip-rule="evenodd" d="M19.4979 11L23.1614 13.1546L24.0583 13.6628C24.0205 13.7682 24 13.8817 24 14C24 14.5523 24.4477 15 25 15C25 15.5523 25.4477 16 26 16C26.1821 16 26.3529 15.9513 26.5 15.8662C26.6068 15.928 26.7261 15.9706 26.8532 15.9893L26.8249 19.5L26.8591 23.75L23.1614 25.8454L19.4979 28L15.8344 25.8454L15.6633 25.7484C15.8698 25.5652 16 25.2978 16 25C16 24.4477 15.5523 24 15 24C14.5108 24 14.1036 24.3513 14.017 24.8155L12.1367 23.75L12.1709 19.5L12.1367 15.25L15.8344 13.1546L19.4979 11ZM19.4289 12.2007L16.3345 14.0207L13.1414 15.8301L13.171 19.5L13.1414 23.1699L13.9982 23.6555C14.0056 23.3211 14.1513 22.8623 14.7706 22.3889C16.1625 21.3248 17.2065 22.7436 17.2065 23.0983C17.2065 23.2756 17.3805 23.3643 17.5545 23.453C17.7284 23.5417 17.9024 23.6303 17.9024 23.8077C17.9024 23.9665 18.0514 23.9919 18.2212 24.0208C18.3548 24.0436 18.5013 24.0685 18.5984 24.1624C18.9585 24.5106 18.9537 24.9099 18.9479 25.3911L18.9479 25.3911C18.9471 25.4531 18.9464 25.5164 18.9464 25.5812C18.9464 25.7822 18.9609 25.9892 18.9746 26.1832L18.9746 26.1832C18.9836 26.3111 18.9922 26.4334 18.9959 26.5446L19.4979 26.8399L22.6614 24.9793L25.8544 23.1699L25.8249 19.5L25.8393 17.7153C25.7384 17.8095 25.6251 17.9045 25.4978 18C23.4978 19.5 21.9978 17.5 21.9978 17C21.9978 16.75 21.7478 16.625 21.4978 16.5C21.2478 16.375 20.9978 16.25 20.9978 16C20.9978 15.7761 20.7838 15.7404 20.5398 15.6996C20.3478 15.6675 20.1373 15.6323 19.9978 15.5C19.4804 15.0091 19.4873 14.4463 19.4956 13.768C19.4967 13.6806 19.4978 13.5913 19.4978 13.5C19.4978 13.2166 19.4769 12.9248 19.4573 12.6514L19.4573 12.6514C19.4459 12.4933 19.4351 12.3414 19.4289 12.2007Z" fill="#EB5757"/>
</svg>
