<svg width="36" height="36" viewBox="0 0 36 36" fill="none" xmlns="http://www.w3.org/2000/svg">
<circle cx="18" cy="18" r="17.5" stroke="#95AC8F"/>
<path d="M25.6469 11H9.35419C9.26025 11 9.17016 11.0373 9.10374 11.1037C9.03732 11.1702 9 11.2603 9 11.3542V24.105C9 24.1989 9.03732 24.289 9.10374 24.3554C9.17016 24.4218 9.26025 24.4592 9.35419 24.4592H18.9173V27.6469C18.9172 27.7142 18.9363 27.7802 18.9723 27.8371C19.0084 27.894 19.06 27.9394 19.1209 27.968C19.1819 27.9967 19.2498 28.0073 19.3166 27.9987C19.3834 27.9902 19.4464 27.9627 19.4981 27.9196L21.3966 26.3364L23.295 27.9196C23.3588 27.9724 23.439 28.0012 23.5217 28.001C23.573 28.0013 23.6238 27.9904 23.6705 27.9692C23.732 27.9407 23.784 27.8952 23.8204 27.8381C23.8568 27.781 23.8761 27.7146 23.8759 27.6469V24.4592H25.6469C25.7408 24.4592 25.8309 24.4218 25.8973 24.3554C25.9637 24.289 26.001 24.1989 26.001 24.105V11.3542C26.001 11.2603 25.9637 11.1702 25.8973 11.1037C25.8309 11.0373 25.7408 11 25.6469 11V11ZM23.1675 18.2077C22.6294 17.897 22.0189 17.7334 21.3975 17.7332C20.7761 17.7331 20.1656 17.8964 19.6272 18.2068C19.0889 18.5173 18.6417 18.9639 18.3306 19.5018C18.0195 20.0397 17.8554 20.65 17.8547 21.2715C17.8547 21.3919 17.8547 21.5088 17.8724 21.6257H11.8335V13.8335H23.1675V18.2077ZM18.5631 21.2715C18.5631 20.7111 18.7293 20.1632 19.0406 19.6973C19.352 19.2313 19.7945 18.8681 20.3123 18.6536C20.83 18.4392 21.3997 18.3831 21.9494 18.4924C22.499 18.6017 23.0039 18.8716 23.4002 19.2679C23.7965 19.6641 24.0663 20.169 24.1757 20.7187C24.285 21.2683 24.2289 21.838 24.0144 22.3558C23.8 22.8736 23.4368 23.3161 22.9708 23.6274C22.5048 23.9388 21.957 24.105 21.3966 24.105C20.6451 24.105 19.9244 23.8064 19.393 23.2751C18.8616 22.7437 18.5631 22.023 18.5631 21.2715ZM21.6233 25.6032C21.5596 25.5502 21.4794 25.5212 21.3966 25.5212C21.3138 25.5212 21.2336 25.5502 21.1699 25.6032L19.6257 26.8924V24.3352C20.1633 24.6485 20.7744 24.8136 21.3966 24.8136C22.0188 24.8136 22.6299 24.6485 23.1675 24.3352V26.8924L21.6233 25.6032ZM25.2927 23.7508H23.922C24.5788 23.0807 24.9429 22.1772 24.9342 21.2389C24.9256 20.3006 24.545 19.404 23.8759 18.7461V13.4793C23.8759 13.3854 23.8386 13.2953 23.7722 13.2289C23.7058 13.1624 23.6157 13.1251 23.5217 13.1251H11.4793C11.3854 13.1251 11.2953 13.1624 11.2289 13.2289C11.1624 13.2953 11.1251 13.3854 11.1251 13.4793V21.9798C11.1251 22.0738 11.1624 22.1639 11.2289 22.2303C11.2953 22.2967 11.3854 22.334 11.4793 22.334H18.0176C18.1864 22.867 18.4789 23.3525 18.8712 23.7508H9.70838V11.7084H25.2927V23.7508ZM12.8961 15.6045C12.8961 15.5105 12.9334 15.4204 12.9998 15.354C13.0662 15.2876 13.1563 15.2503 13.2503 15.2503H17.5005C17.5945 15.2503 17.6846 15.2876 17.751 15.354C17.8174 15.4204 17.8547 15.5105 17.8547 15.6045C17.8547 15.6984 17.8174 15.7885 17.751 15.8549C17.6846 15.9213 17.5945 15.9586 17.5005 15.9586H13.2503C13.1563 15.9586 13.0662 15.9213 12.9998 15.8549C12.9334 15.7885 12.8961 15.6984 12.8961 15.6045ZM12.8961 17.7296C12.8961 17.6356 12.9334 17.5456 12.9998 17.4791C13.0662 17.4127 13.1563 17.3754 13.2503 17.3754H16.438C16.5319 17.3754 16.622 17.4127 16.6884 17.4791C16.7548 17.5456 16.7921 17.6356 16.7921 17.7296C16.7921 17.8235 16.7548 17.9136 16.6884 17.98C16.622 18.0465 16.5319 18.0838 16.438 18.0838H13.2503C13.1563 18.0838 13.0662 18.0465 12.9998 17.98C12.9334 17.9136 12.8961 17.8235 12.8961 17.7296Z" fill="#95AC8F"/>
<path d="M23.0086 20.5927L22.2327 20.4375C22.1551 20.4117 22.1034 20.3858 22.0517 20.3082L21.6896 19.6358C21.5862 19.4547 21.3275 19.4547 21.2241 19.6358L20.8361 20.3082C20.8103 20.3858 20.7327 20.4117 20.6551 20.4375L19.8792 20.5927C19.6723 20.6444 19.5947 20.8772 19.7499 21.0324L20.2672 21.6014C20.3189 21.6531 20.3447 21.7307 20.3447 21.8083L20.2413 22.5842C20.2154 22.7911 20.4223 22.9462 20.6034 22.8428L21.3017 22.5066C21.3793 22.4807 21.4568 22.4807 21.5344 22.5066L22.2327 22.8428C22.4138 22.9204 22.6207 22.7652 22.5948 22.5842L22.4914 21.8083C22.4914 21.7307 22.5172 21.6531 22.569 21.6014L23.0862 21.0324C23.2931 20.8772 23.2155 20.6444 23.0086 20.5927Z" fill="#95AC8F"/>
</svg>
